M48
; DRILL file {KiCad 9.0.3} date 2025-09-18T19:15:33+0300
; FORMAT={-:-/ absolute / metric / decimal}
; #@! TF.CreationDate,2025-09-18T19:15:33+03:00
; #@! TF.GenerationSoftware,Kicad,Pcbnew,9.0.3
; #@! TF.FileFunction,Plated,1,2,PTH
FMAT,2
METRIC
; #@! TA.AperFunction,Plated,PTH,ViaDrill
T1C0.300
; #@! TA.AperFunction,Plated,PTH,ComponentDrill
T2C1.000
; #@! TA.AperFunction,Plated,PTH,ComponentDrill
T3C1.060
; #@! TA.AperFunction,Plated,PTH,ComponentDrill
T4C1.100
; #@! TA.AperFunction,Plated,PTH,ComponentDrill
T5C2.540
%
G90
G05
T1
X152.75Y-87.25
X152.75Y-94.25
X152.75Y-101.5
X152.75Y-108.75
X152.75Y-115.5
X152.75Y-122.75
X156.5Y-87.25
X156.5Y-94.25
X156.5Y-101.5
X156.5Y-108.75
X156.5Y-115.5
X156.5Y-122.75
X157.25Y-43.75
X157.25Y-50.75
X157.25Y-58.0
X157.25Y-65.25
X157.25Y-72.0
X157.25Y-79.25
X157.25Y-83.0
X160.25Y-87.25
X160.25Y-90.5
X160.25Y-94.25
X161.0Y-43.75
X161.0Y-50.75
X161.0Y-58.0
X161.0Y-65.25
X161.0Y-72.0
X161.0Y-79.25
X161.0Y-83.0
X164.25Y-43.75
X164.25Y-50.75
X164.25Y-58.0
X164.25Y-65.25
X164.25Y-72.0
X164.25Y-79.25
X164.25Y-83.0
X164.5Y-87.25
X164.5Y-90.5
X164.5Y-94.25
X180.375Y-96.875
X182.75Y-99.5
X195.25Y-103.25
X195.25Y-104.5
X197.25Y-101.25
X197.25Y-103.25
X199.75Y-101.25
X199.75Y-103.25
X201.5Y-131.5
X202.25Y-97.25
X202.25Y-99.25
X202.25Y-101.25
X202.25Y-103.25
X204.25Y-97.25
X204.25Y-99.25
X204.25Y-101.25
X204.25Y-103.25
X206.75Y-97.25
X206.75Y-99.25
X206.75Y-101.25
X206.75Y-103.25
X211.5Y-134.0
X211.5Y-138.25
X211.5Y-142.5
X212.0Y-97.0
X218.5Y-134.0
X218.5Y-138.25
X218.5Y-142.5
X221.25Y-97.0
X225.75Y-134.0
X225.75Y-138.25
X225.75Y-142.5
X233.0Y-134.0
X233.0Y-138.25
X233.0Y-142.5
X235.5Y-44.25
X235.5Y-51.25
X235.5Y-58.5
X235.5Y-65.75
X235.5Y-72.5
X235.5Y-79.75
X235.5Y-86.75
X235.5Y-93.75
X235.5Y-101.0
X235.5Y-108.25
X235.5Y-115.0
X235.5Y-122.25
X239.75Y-44.25
X239.75Y-51.25
X239.75Y-58.5
X239.75Y-65.75
X239.75Y-72.5
X239.75Y-79.75
X239.75Y-86.75
X239.75Y-93.75
X239.75Y-101.0
X239.75Y-108.25
X239.75Y-115.0
X239.75Y-122.25
X239.75Y-134.0
X239.75Y-138.25
X239.75Y-142.5
X243.75Y-44.25
X243.75Y-51.25
X243.75Y-58.5
X243.75Y-65.75
X243.75Y-72.5
X243.75Y-79.75
X243.75Y-86.75
X243.75Y-93.75
X243.75Y-101.0
X243.75Y-108.25
X243.75Y-115.0
X243.75Y-122.25
X247.0Y-134.0
X247.0Y-138.25
X247.0Y-142.5
T2
X160.5Y-138.96
X160.5Y-141.5
X175.83Y-93.341
X175.835Y-45.741
X178.38Y-93.341
X178.385Y-45.741
X180.92Y-93.341
X180.925Y-45.741
X183.46Y-93.341
X183.465Y-45.741
X186.03Y-93.341
X186.035Y-45.741
X188.57Y-93.341
X188.575Y-45.741
X191.11Y-93.341
X191.115Y-45.741
X193.65Y-93.341
X193.655Y-45.741
X196.2Y-93.341
X196.205Y-45.741
X198.73Y-93.341
X198.735Y-45.741
X201.27Y-93.341
X201.275Y-45.741
X203.81Y-93.341
X203.815Y-45.741
X206.35Y-93.341
X206.355Y-45.741
X208.89Y-93.341
X208.895Y-45.741
X211.43Y-93.341
X211.435Y-45.741
X213.97Y-93.341
X213.975Y-45.741
X216.54Y-93.341
X216.545Y-45.741
X219.08Y-93.341
X219.085Y-45.741
X221.62Y-93.341
X221.625Y-45.741
X224.7Y-93.341
X224.705Y-45.741
T3
X177.94Y-107.87
X177.94Y-128.13
X180.48Y-107.87
X180.48Y-128.13
X183.02Y-107.87
X183.02Y-128.13
X185.56Y-107.87
X185.56Y-128.13
X188.1Y-107.87
X188.1Y-128.13
X190.64Y-107.87
X190.64Y-128.13
X193.18Y-107.87
X193.18Y-128.13
X195.72Y-107.87
X195.72Y-128.13
X198.26Y-107.87
X198.26Y-128.13
X200.8Y-107.87
X200.8Y-128.13
X203.34Y-107.87
X203.34Y-128.13
X205.88Y-107.87
X205.88Y-128.13
X208.42Y-107.87
X208.42Y-128.13
X210.96Y-107.87
X210.96Y-128.13
T4
X166.92Y-141.5
X177.08Y-141.5
T5
X171.425Y-45.741
X171.425Y-93.341
X228.575Y-45.741
X228.575Y-93.341
M30
