G04 #@! TF.GenerationSoftware,KiCad,Pcbnew,9.0.3*
G04 #@! TF.CreationDate,2025-09-18T18:54:38+03:00*
G04 #@! TF.ProjectId,PortentaH7,506f7274-656e-4746-9148-372e6b696361,rev?*
G04 #@! TF.SameCoordinates,Original*
G04 #@! TF.FileFunction,Soldermask,Bot*
G04 #@! TF.FilePolarity,Negative*
%FSLAX46Y46*%
G04 Gerber Fmt 4.6, Leading zero omitted, Abs format (unit mm)*
G04 Created by KiCad (PCBNEW 9.0.3) date 2025-09-18 18:54:38*
%MOMM*%
%LPD*%
G01*
G04 APERTURE LIST*
G04 Aperture macros list*
%AMRoundRect*
0 Rectangle with rounded corners*
0 $1 Rounding radius*
0 $2 $3 $4 $5 $6 $7 $8 $9 X,Y pos of 4 corners*
0 Add a 4 corners polygon primitive as box body*
4,1,4,$2,$3,$4,$5,$6,$7,$8,$9,$2,$3,0*
0 Add four circle primitives for the rounded corners*
1,1,$1+$1,$2,$3*
1,1,$1+$1,$4,$5*
1,1,$1+$1,$6,$7*
1,1,$1+$1,$8,$9*
0 Add four rect primitives between the rounded corners*
20,1,$1+$1,$2,$3,$4,$5,0*
20,1,$1+$1,$4,$5,$6,$7,0*
20,1,$1+$1,$6,$7,$8,$9,0*
20,1,$1+$1,$8,$9,$2,$3,0*%
G04 Aperture macros list end*
%ADD10C,3.100000*%
%ADD11RoundRect,0.190500X0.444500X-0.762000X0.444500X0.762000X-0.444500X0.762000X-0.444500X-0.762000X0*%
%ADD12O,1.200000X2.000000*%
%ADD13R,1.700000X1.700000*%
%ADD14C,1.700000*%
%ADD15C,2.250000*%
%ADD16C,1.590000*%
%ADD17RoundRect,0.249999X0.850001X0.850001X-0.850001X0.850001X-0.850001X-0.850001X0.850001X-0.850001X0*%
%ADD18C,2.200000*%
G04 APERTURE END LIST*
D10*
X171425000Y-45740731D03*
X171425000Y-93340731D03*
X228575000Y-45740731D03*
X228575000Y-93340731D03*
D11*
X175830000Y-93340731D03*
D12*
X178380000Y-93340731D03*
X180920000Y-93340731D03*
X183460000Y-93340731D03*
X186030000Y-93340731D03*
X188570000Y-93340731D03*
X191110000Y-93340731D03*
X193650000Y-93340731D03*
X196200000Y-93340731D03*
X198730000Y-93340731D03*
X201270000Y-93340731D03*
X203810000Y-93340731D03*
X206350000Y-93340731D03*
X208890000Y-93340731D03*
X211430000Y-93340731D03*
X213970000Y-93340731D03*
X216540000Y-93340731D03*
X219080000Y-93340731D03*
X221620000Y-93340731D03*
X224700000Y-93340731D03*
X224705000Y-45740731D03*
X221625000Y-45740731D03*
X219085000Y-45740731D03*
X216545000Y-45740731D03*
X213975000Y-45740731D03*
X211435000Y-45740731D03*
X208895000Y-45740731D03*
X206355000Y-45740731D03*
X203815000Y-45740731D03*
X201275000Y-45740731D03*
X198735000Y-45740731D03*
X196205000Y-45740731D03*
X193655000Y-45740731D03*
X191115000Y-45740731D03*
X188575000Y-45740731D03*
X186035000Y-45740731D03*
X183465000Y-45740731D03*
X180925000Y-45740731D03*
X178385000Y-45740731D03*
X175835000Y-45740731D03*
D13*
X160500000Y-141500000D03*
D14*
X160500000Y-138960000D03*
D15*
X230990000Y-107330000D03*
X169010000Y-107330000D03*
X230990000Y-128670000D03*
X169010000Y-128670000D03*
D16*
X210960000Y-107870000D03*
X208420000Y-107870000D03*
X205880000Y-107870000D03*
X203340000Y-107870000D03*
X200800000Y-107870000D03*
X198260000Y-107870000D03*
X195720000Y-107870000D03*
X193180000Y-107870000D03*
X190640000Y-107870000D03*
X188100000Y-107870000D03*
X185560000Y-107870000D03*
X183020000Y-107870000D03*
X180480000Y-107870000D03*
X177940000Y-107870000D03*
X210960000Y-128130000D03*
X208420000Y-128130000D03*
X205880000Y-128130000D03*
X203340000Y-128130000D03*
X200800000Y-128130000D03*
X198260000Y-128130000D03*
X195720000Y-128130000D03*
X193180000Y-128130000D03*
X190640000Y-128130000D03*
X188100000Y-128130000D03*
X185560000Y-128130000D03*
X183020000Y-128130000D03*
X180480000Y-128130000D03*
X177940000Y-128130000D03*
D17*
X177080000Y-141500000D03*
D18*
X166920000Y-141500000D03*
M02*
