G04 #@! TF.GenerationSoftware,KiCad,Pcbnew,9.0.3*
G04 #@! TF.CreationDate,2025-09-18T18:54:38+03:00*
G04 #@! TF.ProjectId,PortentaH7,506f7274-656e-4746-9148-372e6b696361,rev?*
G04 #@! TF.SameCoordinates,Original*
G04 #@! TF.FileFunction,Copper,L2,Bot*
G04 #@! TF.FilePolarity,Positive*
%FSLAX46Y46*%
G04 Gerber Fmt 4.6, Leading zero omitted, Abs format (unit mm)*
G04 Created by KiCad (PCBNEW 9.0.3) date 2025-09-18 18:54:38*
%MOMM*%
%LPD*%
G01*
G04 APERTURE LIST*
G04 Aperture macros list*
%AMRoundRect*
0 Rectangle with rounded corners*
0 $1 Rounding radius*
0 $2 $3 $4 $5 $6 $7 $8 $9 X,Y pos of 4 corners*
0 Add a 4 corners polygon primitive as box body*
4,1,4,$2,$3,$4,$5,$6,$7,$8,$9,$2,$3,0*
0 Add four circle primitives for the rounded corners*
1,1,$1+$1,$2,$3*
1,1,$1+$1,$4,$5*
1,1,$1+$1,$6,$7*
1,1,$1+$1,$8,$9*
0 Add four rect primitives between the rounded corners*
20,1,$1+$1,$2,$3,$4,$5,0*
20,1,$1+$1,$4,$5,$6,$7,0*
20,1,$1+$1,$6,$7,$8,$9,0*
20,1,$1+$1,$8,$9,$2,$3,0*%
G04 Aperture macros list end*
G04 #@! TA.AperFunction,ComponentPad*
%ADD10C,3.100000*%
G04 #@! TD*
G04 #@! TA.AperFunction,ComponentPad*
%ADD11RoundRect,0.190500X0.444500X-0.762000X0.444500X0.762000X-0.444500X0.762000X-0.444500X-0.762000X0*%
G04 #@! TD*
G04 #@! TA.AperFunction,ComponentPad*
%ADD12O,1.200000X2.000000*%
G04 #@! TD*
G04 #@! TA.AperFunction,ComponentPad*
%ADD13R,1.700000X1.700000*%
G04 #@! TD*
G04 #@! TA.AperFunction,ComponentPad*
%ADD14C,1.700000*%
G04 #@! TD*
G04 #@! TA.AperFunction,ComponentPad*
%ADD15C,1.590000*%
G04 #@! TD*
G04 #@! TA.AperFunction,ComponentPad*
%ADD16RoundRect,0.249999X0.850001X0.850001X-0.850001X0.850001X-0.850001X-0.850001X0.850001X-0.850001X0*%
G04 #@! TD*
G04 #@! TA.AperFunction,ComponentPad*
%ADD17C,2.200000*%
G04 #@! TD*
G04 #@! TA.AperFunction,ViaPad*
%ADD18C,0.600000*%
G04 #@! TD*
G04 #@! TA.AperFunction,Conductor*
%ADD19C,0.500000*%
G04 #@! TD*
G04 APERTURE END LIST*
D10*
X171425000Y-45740731D03*
X171425000Y-93340731D03*
X228575000Y-45740731D03*
X228575000Y-93340731D03*
D11*
X175830000Y-93340731D03*
D12*
X178380000Y-93340731D03*
X180920000Y-93340731D03*
X183460000Y-93340731D03*
X186030000Y-93340731D03*
X188570000Y-93340731D03*
X191110000Y-93340731D03*
X193650000Y-93340731D03*
X196200000Y-93340731D03*
X198730000Y-93340731D03*
X201270000Y-93340731D03*
X203810000Y-93340731D03*
X206350000Y-93340731D03*
X208890000Y-93340731D03*
X211430000Y-93340731D03*
X213970000Y-93340731D03*
X216540000Y-93340731D03*
X219080000Y-93340731D03*
X221620000Y-93340731D03*
X224700000Y-93340731D03*
X224705000Y-45740731D03*
X221625000Y-45740731D03*
X219085000Y-45740731D03*
X216545000Y-45740731D03*
X213975000Y-45740731D03*
X211435000Y-45740731D03*
X208895000Y-45740731D03*
X206355000Y-45740731D03*
X203815000Y-45740731D03*
X201275000Y-45740731D03*
X198735000Y-45740731D03*
X196205000Y-45740731D03*
X193655000Y-45740731D03*
X191115000Y-45740731D03*
X188575000Y-45740731D03*
X186035000Y-45740731D03*
X183465000Y-45740731D03*
X180925000Y-45740731D03*
X178385000Y-45740731D03*
X175835000Y-45740731D03*
D13*
X160500000Y-141500000D03*
D14*
X160500000Y-138960000D03*
D15*
X210960000Y-107870000D03*
X208420000Y-107870000D03*
X205880000Y-107870000D03*
X203340000Y-107870000D03*
X200800000Y-107870000D03*
X198260000Y-107870000D03*
X195720000Y-107870000D03*
X193180000Y-107870000D03*
X190640000Y-107870000D03*
X188100000Y-107870000D03*
X185560000Y-107870000D03*
X183020000Y-107870000D03*
X180480000Y-107870000D03*
X177940000Y-107870000D03*
X210960000Y-128130000D03*
X208420000Y-128130000D03*
X205880000Y-128130000D03*
X203340000Y-128130000D03*
X200800000Y-128130000D03*
X198260000Y-128130000D03*
X195720000Y-128130000D03*
X193180000Y-128130000D03*
X190640000Y-128130000D03*
X188100000Y-128130000D03*
X185560000Y-128130000D03*
X183020000Y-128130000D03*
X180480000Y-128130000D03*
X177940000Y-128130000D03*
D16*
X177080000Y-141500000D03*
D17*
X166920000Y-141500000D03*
D18*
X243750000Y-122250000D03*
X211500000Y-134000000D03*
X239750000Y-108250000D03*
X218500000Y-142500000D03*
X161000000Y-79250000D03*
X243750000Y-44250000D03*
X152750000Y-94250000D03*
X239750000Y-101000000D03*
X199750000Y-103250000D03*
X239750000Y-93750000D03*
X161000000Y-65250000D03*
X202250000Y-97250000D03*
X206750000Y-103250000D03*
X243750000Y-86750000D03*
X161000000Y-58000000D03*
X160250000Y-90500000D03*
X243750000Y-93750000D03*
X239750000Y-86750000D03*
X164500000Y-90500000D03*
X218500000Y-134000000D03*
X152750000Y-108750000D03*
X239750000Y-58500000D03*
X235500000Y-44250000D03*
X221250000Y-97000000D03*
X239750000Y-51250000D03*
X164250000Y-65250000D03*
X199750000Y-101250000D03*
X195250000Y-101250000D03*
X243750000Y-79750000D03*
X157250000Y-43750000D03*
X202250000Y-101250000D03*
X233000000Y-138250000D03*
X211500000Y-142500000D03*
X160250000Y-87250000D03*
X243750000Y-58500000D03*
X157250000Y-65250000D03*
X235500000Y-58500000D03*
X235500000Y-72500000D03*
X235500000Y-108250000D03*
X152750000Y-122750000D03*
X239750000Y-65750000D03*
X239750000Y-115000000D03*
X195250000Y-103250000D03*
X197250000Y-103250000D03*
X164500000Y-87250000D03*
X235500000Y-86750000D03*
X164250000Y-58000000D03*
X235500000Y-101000000D03*
X225750000Y-142500000D03*
X235500000Y-115000000D03*
X243750000Y-108250000D03*
X243750000Y-65750000D03*
X201500000Y-131500000D03*
X243750000Y-72500000D03*
X206750000Y-97250000D03*
X156500000Y-101500000D03*
X164250000Y-72000000D03*
X235500000Y-93750000D03*
X161000000Y-43750000D03*
X243750000Y-51250000D03*
X156500000Y-115500000D03*
X197250000Y-101250000D03*
X233000000Y-134000000D03*
X160250000Y-94250000D03*
X156500000Y-87250000D03*
X239750000Y-44250000D03*
X204250000Y-99250000D03*
X239750000Y-122250000D03*
X164500000Y-94250000D03*
X164250000Y-43750000D03*
X206750000Y-101250000D03*
X239750000Y-134000000D03*
X225750000Y-134000000D03*
X243750000Y-101000000D03*
X156500000Y-108750000D03*
X204250000Y-97250000D03*
X235500000Y-65750000D03*
X233000000Y-142500000D03*
X239750000Y-72500000D03*
X243750000Y-115000000D03*
X202250000Y-99250000D03*
X206750000Y-99250000D03*
X157250000Y-79250000D03*
X156500000Y-122750000D03*
X211500000Y-138250000D03*
X164250000Y-50750000D03*
X157250000Y-83000000D03*
X161000000Y-72000000D03*
X152750000Y-115500000D03*
X247000000Y-142500000D03*
X204250000Y-101250000D03*
X202250000Y-103250000D03*
X152750000Y-87250000D03*
X164250000Y-79250000D03*
X239750000Y-138250000D03*
X157250000Y-50750000D03*
X239750000Y-79750000D03*
X157250000Y-58000000D03*
X164250000Y-83000000D03*
X235500000Y-79750000D03*
X225750000Y-138250000D03*
X235500000Y-122250000D03*
X152750000Y-101500000D03*
X204250000Y-103250000D03*
X247000000Y-134000000D03*
X161000000Y-83000000D03*
X161000000Y-50750000D03*
X218500000Y-138250000D03*
X235500000Y-51250000D03*
X212000000Y-97000000D03*
X156500000Y-94250000D03*
X247000000Y-138250000D03*
X239750000Y-142500000D03*
X157250000Y-72000000D03*
X182750000Y-99500000D03*
X180375000Y-96875000D03*
D19*
X182750000Y-98500000D02*
X182750000Y-99500000D01*
X181125000Y-96875000D02*
X182750000Y-98500000D01*
X180375000Y-96875000D02*
X181125000Y-96875000D01*
G04 #@! TA.AperFunction,Conductor*
G36*
X249442539Y-39020185D02*
G01*
X249488294Y-39072989D01*
X249499500Y-39124500D01*
X249499500Y-146375500D01*
X249479815Y-146442539D01*
X249427011Y-146488294D01*
X249375500Y-146499500D01*
X150624500Y-146499500D01*
X150557461Y-146479815D01*
X150511706Y-146427011D01*
X150500500Y-146375500D01*
X150500500Y-140602135D01*
X159149500Y-140602135D01*
X159149500Y-142397870D01*
X159149501Y-142397876D01*
X159155908Y-142457483D01*
X159206202Y-142592328D01*
X159206206Y-142592335D01*
X159292452Y-142707544D01*
X159292455Y-142707547D01*
X159407664Y-142793793D01*
X159407671Y-142793797D01*
X159542517Y-142844091D01*
X159542516Y-142844091D01*
X159549444Y-142844835D01*
X159602127Y-142850500D01*
X161397872Y-142850499D01*
X161457483Y-142844091D01*
X161592331Y-142793796D01*
X161707546Y-142707546D01*
X161793796Y-142592331D01*
X161844091Y-142457483D01*
X161850500Y-142397873D01*
X161850499Y-141374038D01*
X165319500Y-141374038D01*
X165319500Y-141625961D01*
X165358910Y-141874785D01*
X165436760Y-142114383D01*
X165551132Y-142338848D01*
X165699201Y-142542649D01*
X165699205Y-142542654D01*
X165877345Y-142720794D01*
X165877350Y-142720798D01*
X166047050Y-142844091D01*
X166081155Y-142868870D01*
X166224184Y-142941747D01*
X166305616Y-142983239D01*
X166305618Y-142983239D01*
X166305621Y-142983241D01*
X166545215Y-143061090D01*
X166794038Y-143100500D01*
X166794039Y-143100500D01*
X167045961Y-143100500D01*
X167045962Y-143100500D01*
X167294785Y-143061090D01*
X167534379Y-142983241D01*
X167758845Y-142868870D01*
X167962656Y-142720793D01*
X168140793Y-142542656D01*
X168288870Y-142338845D01*
X168403241Y-142114379D01*
X168481090Y-141874785D01*
X168520500Y-141625962D01*
X168520500Y-141374038D01*
X168481090Y-141125215D01*
X168403241Y-140885621D01*
X168403239Y-140885618D01*
X168403239Y-140885616D01*
X168288869Y-140661154D01*
X168288865Y-140661148D01*
X168244426Y-140599982D01*
X175479500Y-140599982D01*
X175479500Y-142400017D01*
X175490000Y-142502796D01*
X175545185Y-142669332D01*
X175545187Y-142669337D01*
X175568755Y-142707546D01*
X175637288Y-142818656D01*
X175761344Y-142942712D01*
X175910665Y-143034814D01*
X176077202Y-143089999D01*
X176179990Y-143100500D01*
X176179995Y-143100500D01*
X177980005Y-143100500D01*
X177980010Y-143100500D01*
X178082798Y-143089999D01*
X178249335Y-143034814D01*
X178398656Y-142942712D01*
X178522712Y-142818656D01*
X178614814Y-142669335D01*
X178669999Y-142502798D01*
X178680500Y-142400010D01*
X178680500Y-140599990D01*
X178669999Y-140497202D01*
X178614814Y-140330665D01*
X178522712Y-140181344D01*
X178398656Y-140057288D01*
X178249335Y-139965186D01*
X178082798Y-139910001D01*
X178082796Y-139910000D01*
X177980017Y-139899500D01*
X177980010Y-139899500D01*
X176179990Y-139899500D01*
X176179982Y-139899500D01*
X176077203Y-139910000D01*
X176077202Y-139910001D01*
X175994669Y-139937349D01*
X175910667Y-139965185D01*
X175910662Y-139965187D01*
X175761342Y-140057289D01*
X175637289Y-140181342D01*
X175545187Y-140330662D01*
X175545186Y-140330665D01*
X175490001Y-140497202D01*
X175490001Y-140497203D01*
X175490000Y-140497203D01*
X175479500Y-140599982D01*
X168244426Y-140599982D01*
X168140798Y-140457350D01*
X168140794Y-140457345D01*
X167962654Y-140279205D01*
X167962649Y-140279201D01*
X167758848Y-140131132D01*
X167758847Y-140131131D01*
X167758845Y-140131130D01*
X167688747Y-140095413D01*
X167534383Y-140016760D01*
X167294785Y-139938910D01*
X167045962Y-139899500D01*
X166794038Y-139899500D01*
X166727738Y-139910001D01*
X166545214Y-139938910D01*
X166305616Y-140016760D01*
X166081151Y-140131132D01*
X165877350Y-140279201D01*
X165877345Y-140279205D01*
X165699205Y-140457345D01*
X165699201Y-140457350D01*
X165551132Y-140661151D01*
X165436760Y-140885616D01*
X165358910Y-141125214D01*
X165319500Y-141374038D01*
X161850499Y-141374038D01*
X161850499Y-140602128D01*
X161844091Y-140542517D01*
X161793796Y-140407669D01*
X161793795Y-140407668D01*
X161793793Y-140407664D01*
X161707547Y-140292455D01*
X161707544Y-140292452D01*
X161592335Y-140206206D01*
X161592328Y-140206202D01*
X161457482Y-140155908D01*
X161457483Y-140155908D01*
X161397883Y-140149501D01*
X161397881Y-140149500D01*
X161397873Y-140149500D01*
X161397864Y-140149500D01*
X159602129Y-140149500D01*
X159602123Y-140149501D01*
X159542516Y-140155908D01*
X159407671Y-140206202D01*
X159407664Y-140206206D01*
X159292455Y-140292452D01*
X159292452Y-140292455D01*
X159206206Y-140407664D01*
X159206202Y-140407671D01*
X159155908Y-140542517D01*
X159149730Y-140599990D01*
X159149501Y-140602123D01*
X159149500Y-140602135D01*
X150500500Y-140602135D01*
X150500500Y-128561746D01*
X167634500Y-128561746D01*
X167634500Y-128778253D01*
X167668370Y-128992098D01*
X167735272Y-129198006D01*
X167735273Y-129198009D01*
X167802825Y-129330585D01*
X167833567Y-129390919D01*
X167960828Y-129566078D01*
X168113922Y-129719172D01*
X168289081Y-129846433D01*
X168383697Y-129894642D01*
X168481990Y-129944726D01*
X168481993Y-129944727D01*
X168584947Y-129978178D01*
X168687903Y-130011630D01*
X168901746Y-130045500D01*
X168901747Y-130045500D01*
X169118253Y-130045500D01*
X169118254Y-130045500D01*
X169332097Y-130011630D01*
X169538009Y-129944726D01*
X169730919Y-129846433D01*
X169906078Y-129719172D01*
X170059172Y-129566078D01*
X170186433Y-129390919D01*
X170284726Y-129198009D01*
X170351630Y-128992097D01*
X170385500Y-128778254D01*
X170385500Y-128561746D01*
X170351630Y-128347903D01*
X170284726Y-128141991D01*
X170284724Y-128141985D01*
X170252868Y-128079466D01*
X170252867Y-128079465D01*
X170226663Y-128028036D01*
X176644500Y-128028036D01*
X176644500Y-128231963D01*
X176676398Y-128433360D01*
X176676399Y-128433364D01*
X176739413Y-128627299D01*
X176831989Y-128808990D01*
X176951848Y-128973962D01*
X177096038Y-129118152D01*
X177261010Y-129238011D01*
X177442701Y-129330587D01*
X177636636Y-129393601D01*
X177712163Y-129405563D01*
X177838037Y-129425500D01*
X177838042Y-129425500D01*
X178041963Y-129425500D01*
X178153850Y-129407778D01*
X178243364Y-129393601D01*
X178437299Y-129330587D01*
X178618990Y-129238011D01*
X178783962Y-129118152D01*
X178928152Y-128973962D01*
X179048011Y-128808990D01*
X179099515Y-128707906D01*
X179147489Y-128657111D01*
X179215310Y-128640316D01*
X179281445Y-128662853D01*
X179320484Y-128707906D01*
X179371989Y-128808990D01*
X179491848Y-128973962D01*
X179636038Y-129118152D01*
X179801010Y-129238011D01*
X179982701Y-129330587D01*
X180176636Y-129393601D01*
X180252163Y-129405563D01*
X180378037Y-129425500D01*
X180378042Y-129425500D01*
X180581963Y-129425500D01*
X180693850Y-129407778D01*
X180783364Y-129393601D01*
X180977299Y-129330587D01*
X181158990Y-129238011D01*
X181323962Y-129118152D01*
X181468152Y-128973962D01*
X181588011Y-128808990D01*
X181639515Y-128707906D01*
X181687489Y-128657111D01*
X181755310Y-128640316D01*
X181821445Y-128662853D01*
X181860484Y-128707906D01*
X181911989Y-128808990D01*
X182031848Y-128973962D01*
X182176038Y-129118152D01*
X182341010Y-129238011D01*
X182522701Y-129330587D01*
X182716636Y-129393601D01*
X182792163Y-129405563D01*
X182918037Y-129425500D01*
X182918042Y-129425500D01*
X183121963Y-129425500D01*
X183233850Y-129407778D01*
X183323364Y-129393601D01*
X183517299Y-129330587D01*
X183698990Y-129238011D01*
X183863962Y-129118152D01*
X184008152Y-128973962D01*
X184128011Y-128808990D01*
X184179515Y-128707906D01*
X184227489Y-128657111D01*
X184295310Y-128640316D01*
X184361445Y-128662853D01*
X184400484Y-128707906D01*
X184451989Y-128808990D01*
X184571848Y-128973962D01*
X184716038Y-129118152D01*
X184881010Y-129238011D01*
X185062701Y-129330587D01*
X185256636Y-129393601D01*
X185332163Y-129405563D01*
X185458037Y-129425500D01*
X185458042Y-129425500D01*
X185661963Y-129425500D01*
X185773850Y-129407778D01*
X185863364Y-129393601D01*
X186057299Y-129330587D01*
X186238990Y-129238011D01*
X186403962Y-129118152D01*
X186548152Y-128973962D01*
X186668011Y-128808990D01*
X186719515Y-128707906D01*
X186767489Y-128657111D01*
X186835310Y-128640316D01*
X186901445Y-128662853D01*
X186940484Y-128707906D01*
X186991989Y-128808990D01*
X187111848Y-128973962D01*
X187256038Y-129118152D01*
X187421010Y-129238011D01*
X187602701Y-129330587D01*
X187796636Y-129393601D01*
X187872163Y-129405563D01*
X187998037Y-129425500D01*
X187998042Y-129425500D01*
X188201963Y-129425500D01*
X188313850Y-129407778D01*
X188403364Y-129393601D01*
X188597299Y-129330587D01*
X188778990Y-129238011D01*
X188943962Y-129118152D01*
X189088152Y-128973962D01*
X189208011Y-128808990D01*
X189259515Y-128707906D01*
X189307489Y-128657111D01*
X189375310Y-128640316D01*
X189441445Y-128662853D01*
X189480484Y-128707906D01*
X189531989Y-128808990D01*
X189651848Y-128973962D01*
X189796038Y-129118152D01*
X189961010Y-129238011D01*
X190142701Y-129330587D01*
X190336636Y-129393601D01*
X190412163Y-129405563D01*
X190538037Y-129425500D01*
X190538042Y-129425500D01*
X190741963Y-129425500D01*
X190853850Y-129407778D01*
X190943364Y-129393601D01*
X191137299Y-129330587D01*
X191318990Y-129238011D01*
X191483962Y-129118152D01*
X191628152Y-128973962D01*
X191748011Y-128808990D01*
X191799515Y-128707906D01*
X191847489Y-128657111D01*
X191915310Y-128640316D01*
X191981445Y-128662853D01*
X192020484Y-128707906D01*
X192071989Y-128808990D01*
X192191848Y-128973962D01*
X192336038Y-129118152D01*
X192501010Y-129238011D01*
X192682701Y-129330587D01*
X192876636Y-129393601D01*
X192952163Y-129405563D01*
X193078037Y-129425500D01*
X193078042Y-129425500D01*
X193281963Y-129425500D01*
X193393850Y-129407778D01*
X193483364Y-129393601D01*
X193677299Y-129330587D01*
X193858990Y-129238011D01*
X194023962Y-129118152D01*
X194168152Y-128973962D01*
X194288011Y-128808990D01*
X194339515Y-128707906D01*
X194387489Y-128657111D01*
X194455310Y-128640316D01*
X194521445Y-128662853D01*
X194560484Y-128707906D01*
X194611989Y-128808990D01*
X194731848Y-128973962D01*
X194876038Y-129118152D01*
X195041010Y-129238011D01*
X195222701Y-129330587D01*
X195416636Y-129393601D01*
X195492163Y-129405563D01*
X195618037Y-129425500D01*
X195618042Y-129425500D01*
X195821963Y-129425500D01*
X195933850Y-129407778D01*
X196023364Y-129393601D01*
X196217299Y-129330587D01*
X196398990Y-129238011D01*
X196563962Y-129118152D01*
X196708152Y-128973962D01*
X196828011Y-128808990D01*
X196879515Y-128707906D01*
X196927489Y-128657111D01*
X196995310Y-128640316D01*
X197061445Y-128662853D01*
X197100484Y-128707906D01*
X197151989Y-128808990D01*
X197271848Y-128973962D01*
X197416038Y-129118152D01*
X197581010Y-129238011D01*
X197762701Y-129330587D01*
X197956636Y-129393601D01*
X198032163Y-129405563D01*
X198158037Y-129425500D01*
X198158042Y-129425500D01*
X198361963Y-129425500D01*
X198473850Y-129407778D01*
X198563364Y-129393601D01*
X198757299Y-129330587D01*
X198938990Y-129238011D01*
X199103962Y-129118152D01*
X199248152Y-128973962D01*
X199368011Y-128808990D01*
X199419515Y-128707906D01*
X199467489Y-128657111D01*
X199535310Y-128640316D01*
X199601445Y-128662853D01*
X199640484Y-128707906D01*
X199691989Y-128808990D01*
X199811848Y-128973962D01*
X199956038Y-129118152D01*
X200121010Y-129238011D01*
X200302701Y-129330587D01*
X200496636Y-129393601D01*
X200572163Y-129405563D01*
X200698037Y-129425500D01*
X200698042Y-129425500D01*
X200901963Y-129425500D01*
X201013850Y-129407778D01*
X201103364Y-129393601D01*
X201297299Y-129330587D01*
X201478990Y-129238011D01*
X201643962Y-129118152D01*
X201788152Y-128973962D01*
X201908011Y-128808990D01*
X202000587Y-128627299D01*
X202063601Y-128433364D01*
X202077778Y-128343850D01*
X202095500Y-128231963D01*
X202095500Y-128028036D01*
X204584500Y-128028036D01*
X204584500Y-128231963D01*
X204616398Y-128433360D01*
X204616399Y-128433364D01*
X204679413Y-128627299D01*
X204771989Y-128808990D01*
X204891848Y-128973962D01*
X205036038Y-129118152D01*
X205201010Y-129238011D01*
X205382701Y-129330587D01*
X205576636Y-129393601D01*
X205652163Y-129405563D01*
X205778037Y-129425500D01*
X205778042Y-129425500D01*
X205981963Y-129425500D01*
X206093850Y-129407778D01*
X206183364Y-129393601D01*
X206377299Y-129330587D01*
X206558990Y-129238011D01*
X206723962Y-129118152D01*
X206868152Y-128973962D01*
X206988011Y-128808990D01*
X207039515Y-128707906D01*
X207087489Y-128657111D01*
X207155310Y-128640316D01*
X207221445Y-128662853D01*
X207260484Y-128707906D01*
X207311989Y-128808990D01*
X207431848Y-128973962D01*
X207576038Y-129118152D01*
X207741010Y-129238011D01*
X207922701Y-129330587D01*
X208116636Y-129393601D01*
X208192163Y-129405563D01*
X208318037Y-129425500D01*
X208318042Y-129425500D01*
X208521963Y-129425500D01*
X208633850Y-129407778D01*
X208723364Y-129393601D01*
X208917299Y-129330587D01*
X209098990Y-129238011D01*
X209263962Y-129118152D01*
X209408152Y-128973962D01*
X209528011Y-128808990D01*
X209579515Y-128707906D01*
X209627489Y-128657111D01*
X209695310Y-128640316D01*
X209761445Y-128662853D01*
X209800484Y-128707906D01*
X209851989Y-128808990D01*
X209971848Y-128973962D01*
X210116038Y-129118152D01*
X210281010Y-129238011D01*
X210462701Y-129330587D01*
X210656636Y-129393601D01*
X210732163Y-129405563D01*
X210858037Y-129425500D01*
X210858042Y-129425500D01*
X211061963Y-129425500D01*
X211173850Y-129407778D01*
X211263364Y-129393601D01*
X211457299Y-129330587D01*
X211638990Y-129238011D01*
X211803962Y-129118152D01*
X211948152Y-128973962D01*
X212068011Y-128808990D01*
X212160587Y-128627299D01*
X212181887Y-128561746D01*
X229614500Y-128561746D01*
X229614500Y-128778253D01*
X229648370Y-128992098D01*
X229715272Y-129198006D01*
X229715273Y-129198009D01*
X229782825Y-129330585D01*
X229813567Y-129390919D01*
X229940828Y-129566078D01*
X230093922Y-129719172D01*
X230269081Y-129846433D01*
X230363697Y-129894642D01*
X230461990Y-129944726D01*
X230461993Y-129944727D01*
X230564947Y-129978178D01*
X230667903Y-130011630D01*
X230881746Y-130045500D01*
X230881747Y-130045500D01*
X231098253Y-130045500D01*
X231098254Y-130045500D01*
X231312097Y-130011630D01*
X231518009Y-129944726D01*
X231710919Y-129846433D01*
X231886078Y-129719172D01*
X232039172Y-129566078D01*
X232166433Y-129390919D01*
X232264726Y-129198009D01*
X232331630Y-128992097D01*
X232365500Y-128778254D01*
X232365500Y-128561746D01*
X232331630Y-128347903D01*
X232264726Y-128141991D01*
X232264726Y-128141990D01*
X232166432Y-127949080D01*
X232039172Y-127773922D01*
X231886078Y-127620828D01*
X231710919Y-127493567D01*
X231627395Y-127451009D01*
X231518009Y-127395273D01*
X231518006Y-127395272D01*
X231312098Y-127328370D01*
X231205175Y-127311435D01*
X231098254Y-127294500D01*
X230881746Y-127294500D01*
X230810465Y-127305790D01*
X230667901Y-127328370D01*
X230461993Y-127395272D01*
X230461990Y-127395273D01*
X230269080Y-127493567D01*
X230169145Y-127566174D01*
X230093922Y-127620828D01*
X230093920Y-127620830D01*
X230093919Y-127620830D01*
X229940830Y-127773919D01*
X229940830Y-127773920D01*
X229940828Y-127773922D01*
X229902529Y-127826636D01*
X229813567Y-127949080D01*
X229715273Y-128141990D01*
X229715272Y-128141993D01*
X229648370Y-128347901D01*
X229614500Y-128561746D01*
X212181887Y-128561746D01*
X212223601Y-128433364D01*
X212237778Y-128343850D01*
X212255500Y-128231963D01*
X212255500Y-128028036D01*
X212223601Y-127826639D01*
X212223601Y-127826636D01*
X212160587Y-127632701D01*
X212068011Y-127451010D01*
X211948152Y-127286038D01*
X211803962Y-127141848D01*
X211638990Y-127021989D01*
X211457299Y-126929413D01*
X211263364Y-126866399D01*
X211263362Y-126866398D01*
X211263360Y-126866398D01*
X211061963Y-126834500D01*
X211061958Y-126834500D01*
X210858042Y-126834500D01*
X210858037Y-126834500D01*
X210656639Y-126866398D01*
X210462698Y-126929414D01*
X210281009Y-127021989D01*
X210116035Y-127141850D01*
X209971850Y-127286035D01*
X209851989Y-127451009D01*
X209800485Y-127552092D01*
X209752510Y-127602888D01*
X209684689Y-127619683D01*
X209618554Y-127597145D01*
X209579515Y-127552092D01*
X209528010Y-127451009D01*
X209487516Y-127395274D01*
X209408152Y-127286038D01*
X209263962Y-127141848D01*
X209098990Y-127021989D01*
X208917299Y-126929413D01*
X208723364Y-126866399D01*
X208723362Y-126866398D01*
X208723360Y-126866398D01*
X208521963Y-126834500D01*
X208521958Y-126834500D01*
X208318042Y-126834500D01*
X208318037Y-126834500D01*
X208116639Y-126866398D01*
X207922698Y-126929414D01*
X207741009Y-127021989D01*
X207576035Y-127141850D01*
X207431850Y-127286035D01*
X207311989Y-127451009D01*
X207260485Y-127552092D01*
X207212510Y-127602888D01*
X207144689Y-127619683D01*
X207078554Y-127597145D01*
X207039515Y-127552092D01*
X206988010Y-127451009D01*
X206947516Y-127395274D01*
X206868152Y-127286038D01*
X206723962Y-127141848D01*
X206558990Y-127021989D01*
X206377299Y-126929413D01*
X206183364Y-126866399D01*
X206183362Y-126866398D01*
X206183360Y-126866398D01*
X205981963Y-126834500D01*
X205981958Y-126834500D01*
X205778042Y-126834500D01*
X205778037Y-126834500D01*
X205576639Y-126866398D01*
X205382698Y-126929414D01*
X205201009Y-127021989D01*
X205036035Y-127141850D01*
X204891850Y-127286035D01*
X204771989Y-127451009D01*
X204679414Y-127632698D01*
X204616398Y-127826639D01*
X204584500Y-128028036D01*
X202095500Y-128028036D01*
X202063601Y-127826639D01*
X202063601Y-127826636D01*
X202000587Y-127632701D01*
X201908011Y-127451010D01*
X201788152Y-127286038D01*
X201643962Y-127141848D01*
X201478990Y-127021989D01*
X201297299Y-126929413D01*
X201103364Y-126866399D01*
X201103362Y-126866398D01*
X201103360Y-126866398D01*
X200901963Y-126834500D01*
X200901958Y-126834500D01*
X200698042Y-126834500D01*
X200698037Y-126834500D01*
X200496639Y-126866398D01*
X200302698Y-126929414D01*
X200121009Y-127021989D01*
X199956035Y-127141850D01*
X199811850Y-127286035D01*
X199691989Y-127451009D01*
X199640485Y-127552092D01*
X199592510Y-127602888D01*
X199524689Y-127619683D01*
X199458554Y-127597145D01*
X199419515Y-127552092D01*
X199368010Y-127451009D01*
X199327516Y-127395274D01*
X199248152Y-127286038D01*
X199103962Y-127141848D01*
X198938990Y-127021989D01*
X198757299Y-126929413D01*
X198563364Y-126866399D01*
X198563362Y-126866398D01*
X198563360Y-126866398D01*
X198361963Y-126834500D01*
X198361958Y-126834500D01*
X198158042Y-126834500D01*
X198158037Y-126834500D01*
X197956639Y-126866398D01*
X197762698Y-126929414D01*
X197581009Y-127021989D01*
X197416035Y-127141850D01*
X197271850Y-127286035D01*
X197151989Y-127451009D01*
X197100485Y-127552092D01*
X197052510Y-127602888D01*
X196984689Y-127619683D01*
X196918554Y-127597145D01*
X196879515Y-127552092D01*
X196828010Y-127451009D01*
X196787516Y-127395274D01*
X196708152Y-127286038D01*
X196563962Y-127141848D01*
X196398990Y-127021989D01*
X196217299Y-126929413D01*
X196023364Y-126866399D01*
X196023362Y-126866398D01*
X196023360Y-126866398D01*
X195821963Y-126834500D01*
X195821958Y-126834500D01*
X195618042Y-126834500D01*
X195618037Y-126834500D01*
X195416639Y-126866398D01*
X195222698Y-126929414D01*
X195041009Y-127021989D01*
X194876035Y-127141850D01*
X194731850Y-127286035D01*
X194611989Y-127451009D01*
X194560485Y-127552092D01*
X194512510Y-127602888D01*
X194444689Y-127619683D01*
X194378554Y-127597145D01*
X194339515Y-127552092D01*
X194288010Y-127451009D01*
X194247516Y-127395274D01*
X194168152Y-127286038D01*
X194023962Y-127141848D01*
X193858990Y-127021989D01*
X193677299Y-126929413D01*
X193483364Y-126866399D01*
X193483362Y-126866398D01*
X193483360Y-126866398D01*
X193281963Y-126834500D01*
X193281958Y-126834500D01*
X193078042Y-126834500D01*
X193078037Y-126834500D01*
X192876639Y-126866398D01*
X192682698Y-126929414D01*
X192501009Y-127021989D01*
X192336035Y-127141850D01*
X192191850Y-127286035D01*
X192071989Y-127451009D01*
X192020485Y-127552092D01*
X191972510Y-127602888D01*
X191904689Y-127619683D01*
X191838554Y-127597145D01*
X191799515Y-127552092D01*
X191748010Y-127451009D01*
X191707516Y-127395274D01*
X191628152Y-127286038D01*
X191483962Y-127141848D01*
X191318990Y-127021989D01*
X191137299Y-126929413D01*
X190943364Y-126866399D01*
X190943362Y-126866398D01*
X190943360Y-126866398D01*
X190741963Y-126834500D01*
X190741958Y-126834500D01*
X190538042Y-126834500D01*
X190538037Y-126834500D01*
X190336639Y-126866398D01*
X190142698Y-126929414D01*
X189961009Y-127021989D01*
X189796035Y-127141850D01*
X189651850Y-127286035D01*
X189531989Y-127451009D01*
X189480485Y-127552092D01*
X189432510Y-127602888D01*
X189364689Y-127619683D01*
X189298554Y-127597145D01*
X189259515Y-127552092D01*
X189208010Y-127451009D01*
X189167516Y-127395274D01*
X189088152Y-127286038D01*
X188943962Y-127141848D01*
X188778990Y-127021989D01*
X188597299Y-126929413D01*
X188403364Y-126866399D01*
X188403362Y-126866398D01*
X188403360Y-126866398D01*
X188201963Y-126834500D01*
X188201958Y-126834500D01*
X187998042Y-126834500D01*
X187998037Y-126834500D01*
X187796639Y-126866398D01*
X187602698Y-126929414D01*
X187421009Y-127021989D01*
X187256035Y-127141850D01*
X187111850Y-127286035D01*
X186991989Y-127451009D01*
X186940485Y-127552092D01*
X186892510Y-127602888D01*
X186824689Y-127619683D01*
X186758554Y-127597145D01*
X186719515Y-127552092D01*
X186668010Y-127451009D01*
X186627516Y-127395274D01*
X186548152Y-127286038D01*
X186403962Y-127141848D01*
X186238990Y-127021989D01*
X186057299Y-126929413D01*
X185863364Y-126866399D01*
X185863362Y-126866398D01*
X185863360Y-126866398D01*
X185661963Y-126834500D01*
X185661958Y-126834500D01*
X185458042Y-126834500D01*
X185458037Y-126834500D01*
X185256639Y-126866398D01*
X185062698Y-126929414D01*
X184881009Y-127021989D01*
X184716035Y-127141850D01*
X184571850Y-127286035D01*
X184451989Y-127451009D01*
X184400485Y-127552092D01*
X184352510Y-127602888D01*
X184284689Y-127619683D01*
X184218554Y-127597145D01*
X184179515Y-127552092D01*
X184128010Y-127451009D01*
X184087516Y-127395274D01*
X184008152Y-127286038D01*
X183863962Y-127141848D01*
X183698990Y-127021989D01*
X183517299Y-126929413D01*
X183323364Y-126866399D01*
X183323362Y-126866398D01*
X183323360Y-126866398D01*
X183121963Y-126834500D01*
X183121958Y-126834500D01*
X182918042Y-126834500D01*
X182918037Y-126834500D01*
X182716639Y-126866398D01*
X182522698Y-126929414D01*
X182341009Y-127021989D01*
X182176035Y-127141850D01*
X182031850Y-127286035D01*
X181911989Y-127451009D01*
X181860485Y-127552092D01*
X181812510Y-127602888D01*
X181744689Y-127619683D01*
X181678554Y-127597145D01*
X181639515Y-127552092D01*
X181588010Y-127451009D01*
X181547516Y-127395274D01*
X181468152Y-127286038D01*
X181323962Y-127141848D01*
X181158990Y-127021989D01*
X180977299Y-126929413D01*
X180783364Y-126866399D01*
X180783362Y-126866398D01*
X180783360Y-126866398D01*
X180581963Y-126834500D01*
X180581958Y-126834500D01*
X180378042Y-126834500D01*
X180378037Y-126834500D01*
X180176639Y-126866398D01*
X179982698Y-126929414D01*
X179801009Y-127021989D01*
X179636035Y-127141850D01*
X179491850Y-127286035D01*
X179371989Y-127451009D01*
X179320485Y-127552092D01*
X179272510Y-127602888D01*
X179204689Y-127619683D01*
X179138554Y-127597145D01*
X179099515Y-127552092D01*
X179048010Y-127451009D01*
X179007516Y-127395274D01*
X178928152Y-127286038D01*
X178783962Y-127141848D01*
X178618990Y-127021989D01*
X178437299Y-126929413D01*
X178243364Y-126866399D01*
X178243362Y-126866398D01*
X178243360Y-126866398D01*
X178041963Y-126834500D01*
X178041958Y-126834500D01*
X177838042Y-126834500D01*
X177838037Y-126834500D01*
X177636639Y-126866398D01*
X177442698Y-126929414D01*
X177261009Y-127021989D01*
X177096035Y-127141850D01*
X176951850Y-127286035D01*
X176831989Y-127451009D01*
X176739414Y-127632698D01*
X176676398Y-127826639D01*
X176644500Y-128028036D01*
X170226663Y-128028036D01*
X170186433Y-127949081D01*
X170059172Y-127773922D01*
X169906078Y-127620828D01*
X169730919Y-127493567D01*
X169647395Y-127451009D01*
X169538009Y-127395273D01*
X169538006Y-127395272D01*
X169332098Y-127328370D01*
X169225175Y-127311435D01*
X169118254Y-127294500D01*
X168901746Y-127294500D01*
X168830465Y-127305790D01*
X168687901Y-127328370D01*
X168481993Y-127395272D01*
X168481990Y-127395273D01*
X168289080Y-127493567D01*
X168189145Y-127566174D01*
X168113922Y-127620828D01*
X168113920Y-127620830D01*
X168113919Y-127620830D01*
X167960830Y-127773919D01*
X167960830Y-127773920D01*
X167960828Y-127773922D01*
X167922529Y-127826636D01*
X167833567Y-127949080D01*
X167735273Y-128141990D01*
X167735272Y-128141993D01*
X167668370Y-128347901D01*
X167634500Y-128561746D01*
X150500500Y-128561746D01*
X150500500Y-110300000D01*
X171510000Y-110300000D01*
X171522319Y-110312319D01*
X171555804Y-110373642D01*
X171550820Y-110443334D01*
X171522319Y-110487681D01*
X171510000Y-110500000D01*
X171510000Y-110700000D01*
X171522319Y-110712319D01*
X171555804Y-110773642D01*
X171550820Y-110843334D01*
X171522319Y-110887681D01*
X171510000Y-110900000D01*
X171510000Y-111100000D01*
X171522319Y-111112319D01*
X171555804Y-111173642D01*
X171550820Y-111243334D01*
X171522319Y-111287681D01*
X171510000Y-111300000D01*
X171510000Y-111500000D01*
X171522319Y-111512319D01*
X171555804Y-111573642D01*
X171550820Y-111643334D01*
X171522319Y-111687681D01*
X171510000Y-111700000D01*
X171510000Y-111900000D01*
X171522319Y-111912319D01*
X171555804Y-111973642D01*
X171550820Y-112043334D01*
X171522319Y-112087681D01*
X171510000Y-112100000D01*
X171510000Y-112300000D01*
X171522319Y-112312319D01*
X171555804Y-112373642D01*
X171550820Y-112443334D01*
X171522319Y-112487681D01*
X171510000Y-112500000D01*
X171510000Y-112700000D01*
X171522319Y-112712319D01*
X171555804Y-112773642D01*
X171550820Y-112843334D01*
X171522319Y-112887681D01*
X171510000Y-112900000D01*
X171510000Y-113100000D01*
X171522319Y-113112319D01*
X171555804Y-113173642D01*
X171550820Y-113243334D01*
X171522319Y-113287681D01*
X171510000Y-113300000D01*
X171510000Y-113500000D01*
X171522319Y-113512319D01*
X171555804Y-113573642D01*
X171550820Y-113643334D01*
X171522319Y-113687681D01*
X171510000Y-113700000D01*
X171510000Y-113900000D01*
X171522319Y-113912319D01*
X171555804Y-113973642D01*
X171550820Y-114043334D01*
X171522319Y-114087681D01*
X171510000Y-114100000D01*
X171510000Y-114300000D01*
X171522319Y-114312319D01*
X171555804Y-114373642D01*
X171550820Y-114443334D01*
X171522319Y-114487681D01*
X171510000Y-114500000D01*
X171510000Y-114700000D01*
X171522319Y-114712319D01*
X171555804Y-114773642D01*
X171550820Y-114843334D01*
X171522319Y-114887681D01*
X171510000Y-114900000D01*
X171510000Y-115100000D01*
X171522319Y-115112319D01*
X171555804Y-115173642D01*
X171550820Y-115243334D01*
X171522319Y-115287681D01*
X171510000Y-115300000D01*
X171510000Y-115500000D01*
X171522319Y-115512319D01*
X171555804Y-115573642D01*
X171550820Y-115643334D01*
X171522319Y-115687681D01*
X171510000Y-115700000D01*
X171510000Y-115900000D01*
X171522319Y-115912319D01*
X171555804Y-115973642D01*
X171550820Y-116043334D01*
X171522319Y-116087681D01*
X171510000Y-116100000D01*
X171510000Y-116300000D01*
X171522319Y-116312319D01*
X171555804Y-116373642D01*
X171550820Y-116443334D01*
X171522319Y-116487681D01*
X171510000Y-116500000D01*
X171510000Y-116700000D01*
X171522319Y-116712319D01*
X171555804Y-116773642D01*
X171550820Y-116843334D01*
X171522319Y-116887681D01*
X171510000Y-116900000D01*
X171510000Y-117100000D01*
X171522319Y-117112319D01*
X171555804Y-117173642D01*
X171550820Y-117243334D01*
X171522319Y-117287681D01*
X171510000Y-117300000D01*
X171510000Y-117500000D01*
X171522319Y-117512319D01*
X171555804Y-117573642D01*
X171550820Y-117643334D01*
X171522319Y-117687681D01*
X171510000Y-117700000D01*
X171510000Y-117900000D01*
X171522319Y-117912319D01*
X171555804Y-117973642D01*
X171550820Y-118043334D01*
X171522319Y-118087681D01*
X171510000Y-118100000D01*
X171510000Y-118300000D01*
X171522319Y-118312319D01*
X171555804Y-118373642D01*
X171550820Y-118443334D01*
X171522319Y-118487681D01*
X171510000Y-118500000D01*
X171510000Y-118700000D01*
X171522319Y-118712319D01*
X171555804Y-118773642D01*
X171550820Y-118843334D01*
X171522319Y-118887681D01*
X171510000Y-118900000D01*
X171510000Y-119100000D01*
X171522319Y-119112319D01*
X171555804Y-119173642D01*
X171550820Y-119243334D01*
X171522319Y-119287681D01*
X171510000Y-119300000D01*
X171510000Y-119500000D01*
X171522319Y-119512319D01*
X171555804Y-119573642D01*
X171550820Y-119643334D01*
X171522319Y-119687681D01*
X171510000Y-119700000D01*
X171510000Y-119900000D01*
X171522319Y-119912319D01*
X171555804Y-119973642D01*
X171550820Y-120043334D01*
X171522319Y-120087681D01*
X171510000Y-120100000D01*
X171510000Y-120300000D01*
X171522319Y-120312319D01*
X171555804Y-120373642D01*
X171550820Y-120443334D01*
X171522319Y-120487681D01*
X171510000Y-120500000D01*
X171510000Y-120700000D01*
X171522319Y-120712319D01*
X171555804Y-120773642D01*
X171550820Y-120843334D01*
X171522319Y-120887681D01*
X171510000Y-120900000D01*
X171510000Y-121100000D01*
X171522319Y-121112319D01*
X171555804Y-121173642D01*
X171550820Y-121243334D01*
X171522319Y-121287681D01*
X171510000Y-121300000D01*
X171510000Y-121500000D01*
X171522319Y-121512319D01*
X171555804Y-121573642D01*
X171550820Y-121643334D01*
X171522319Y-121687681D01*
X171510000Y-121700000D01*
X171510000Y-121900000D01*
X171522319Y-121912319D01*
X171555804Y-121973642D01*
X171550820Y-122043334D01*
X171522319Y-122087681D01*
X171510000Y-122100000D01*
X171510000Y-122300000D01*
X171522319Y-122312319D01*
X171555804Y-122373642D01*
X171550820Y-122443334D01*
X171522319Y-122487681D01*
X171510000Y-122500000D01*
X171510000Y-122700000D01*
X171522319Y-122712319D01*
X171555804Y-122773642D01*
X171550820Y-122843334D01*
X171522319Y-122887681D01*
X171510000Y-122900000D01*
X171510000Y-123100000D01*
X171522319Y-123112319D01*
X171555804Y-123173642D01*
X171550820Y-123243334D01*
X171522319Y-123287681D01*
X171510000Y-123300000D01*
X171510000Y-123500000D01*
X171522319Y-123512319D01*
X171555804Y-123573642D01*
X171550820Y-123643334D01*
X171522319Y-123687681D01*
X171510000Y-123700000D01*
X171510000Y-123900000D01*
X171522319Y-123912319D01*
X171555804Y-123973642D01*
X171550820Y-124043334D01*
X171522319Y-124087681D01*
X171510000Y-124100000D01*
X171510000Y-124300000D01*
X171522319Y-124312319D01*
X171555804Y-124373642D01*
X171550820Y-124443334D01*
X171522319Y-124487681D01*
X171510000Y-124500000D01*
X171510000Y-124700000D01*
X171522319Y-124712319D01*
X171555804Y-124773642D01*
X171550820Y-124843334D01*
X171522319Y-124887681D01*
X171510000Y-124900000D01*
X171510000Y-125100000D01*
X171522319Y-125112319D01*
X171555804Y-125173642D01*
X171550820Y-125243334D01*
X171522319Y-125287681D01*
X171510000Y-125300000D01*
X171510000Y-125500000D01*
X171522319Y-125512319D01*
X171555804Y-125573642D01*
X171550820Y-125643334D01*
X171522319Y-125687681D01*
X171510000Y-125700000D01*
X171510000Y-125900000D01*
X171950000Y-125900000D01*
X171950000Y-125700000D01*
X171937681Y-125687681D01*
X171904196Y-125626358D01*
X171909180Y-125556666D01*
X171937681Y-125512319D01*
X171950000Y-125500000D01*
X171950000Y-125300000D01*
X171937681Y-125287681D01*
X171904196Y-125226358D01*
X171909180Y-125156666D01*
X171937681Y-125112319D01*
X171950000Y-125100000D01*
X171950000Y-124900000D01*
X171937681Y-124887681D01*
X171904196Y-124826358D01*
X171909180Y-124756666D01*
X171937681Y-124712319D01*
X171950000Y-124700000D01*
X171950000Y-124500000D01*
X171937681Y-124487681D01*
X171904196Y-124426358D01*
X171909180Y-124356666D01*
X171937681Y-124312319D01*
X171950000Y-124300000D01*
X171950000Y-124100000D01*
X171937681Y-124087681D01*
X171904196Y-124026358D01*
X171909180Y-123956666D01*
X171937681Y-123912319D01*
X171950000Y-123900000D01*
X171950000Y-123700000D01*
X171937681Y-123687681D01*
X171904196Y-123626358D01*
X171909180Y-123556666D01*
X171937681Y-123512319D01*
X171950000Y-123500000D01*
X171950000Y-123300000D01*
X171937681Y-123287681D01*
X171904196Y-123226358D01*
X171909180Y-123156666D01*
X171937681Y-123112319D01*
X171950000Y-123100000D01*
X171950000Y-122900000D01*
X171937681Y-122887681D01*
X171904196Y-122826358D01*
X171909180Y-122756666D01*
X171937681Y-122712319D01*
X171950000Y-122700000D01*
X171950000Y-122500000D01*
X171937681Y-122487681D01*
X171904196Y-122426358D01*
X171909180Y-122356666D01*
X171937681Y-122312319D01*
X171950000Y-122300000D01*
X171950000Y-122100000D01*
X171937681Y-122087681D01*
X171904196Y-122026358D01*
X171909180Y-121956666D01*
X171937681Y-121912319D01*
X171950000Y-121900000D01*
X171950000Y-121700000D01*
X171937681Y-121687681D01*
X171904196Y-121626358D01*
X171909180Y-121556666D01*
X171937681Y-121512319D01*
X171950000Y-121500000D01*
X171950000Y-121300000D01*
X171937681Y-121287681D01*
X171904196Y-121226358D01*
X171909180Y-121156666D01*
X171937681Y-121112319D01*
X171950000Y-121100000D01*
X171950000Y-120900000D01*
X171937681Y-120887681D01*
X171904196Y-120826358D01*
X171909180Y-120756666D01*
X171937681Y-120712319D01*
X171950000Y-120700000D01*
X171950000Y-120500000D01*
X171937681Y-120487681D01*
X171904196Y-120426358D01*
X171909180Y-120356666D01*
X171937681Y-120312319D01*
X171950000Y-120300000D01*
X171950000Y-120100000D01*
X171937681Y-120087681D01*
X171904196Y-120026358D01*
X171909180Y-119956666D01*
X171937681Y-119912319D01*
X171950000Y-119900000D01*
X171950000Y-119700000D01*
X171937681Y-119687681D01*
X171904196Y-119626358D01*
X171909180Y-119556666D01*
X171937681Y-119512319D01*
X171950000Y-119500000D01*
X171950000Y-119300000D01*
X171937681Y-119287681D01*
X171904196Y-119226358D01*
X171909180Y-119156666D01*
X171937681Y-119112319D01*
X171950000Y-119100000D01*
X171950000Y-118900000D01*
X171937681Y-118887681D01*
X171904196Y-118826358D01*
X171909180Y-118756666D01*
X171937681Y-118712319D01*
X171950000Y-118700000D01*
X171950000Y-118500000D01*
X171937681Y-118487681D01*
X171904196Y-118426358D01*
X171909180Y-118356666D01*
X171937681Y-118312319D01*
X171950000Y-118300000D01*
X171950000Y-118100000D01*
X171937681Y-118087681D01*
X171904196Y-118026358D01*
X171909180Y-117956666D01*
X171937681Y-117912319D01*
X171950000Y-117900000D01*
X171950000Y-117700000D01*
X171937681Y-117687681D01*
X171904196Y-117626358D01*
X171909180Y-117556666D01*
X171937681Y-117512319D01*
X171950000Y-117500000D01*
X171950000Y-117300000D01*
X171937681Y-117287681D01*
X171904196Y-117226358D01*
X171909180Y-117156666D01*
X171937681Y-117112319D01*
X171950000Y-117100000D01*
X171950000Y-116900000D01*
X171937681Y-116887681D01*
X171904196Y-116826358D01*
X171909180Y-116756666D01*
X171937681Y-116712319D01*
X171950000Y-116700000D01*
X171950000Y-116500000D01*
X171937681Y-116487681D01*
X171904196Y-116426358D01*
X171909180Y-116356666D01*
X171937681Y-116312319D01*
X171950000Y-116300000D01*
X171950000Y-116100000D01*
X171937681Y-116087681D01*
X171904196Y-116026358D01*
X171909180Y-115956666D01*
X171937681Y-115912319D01*
X171950000Y-115900000D01*
X171950000Y-115700000D01*
X171937681Y-115687681D01*
X171904196Y-115626358D01*
X171909180Y-115556666D01*
X171937681Y-115512319D01*
X171950000Y-115500000D01*
X171950000Y-115300000D01*
X171937681Y-115287681D01*
X171904196Y-115226358D01*
X171909180Y-115156666D01*
X171937681Y-115112319D01*
X171950000Y-115100000D01*
X171950000Y-114900000D01*
X171937681Y-114887681D01*
X171904196Y-114826358D01*
X171909180Y-114756666D01*
X171937681Y-114712319D01*
X171950000Y-114700000D01*
X171950000Y-114500000D01*
X171937681Y-114487681D01*
X171904196Y-114426358D01*
X171909180Y-114356666D01*
X171937681Y-114312319D01*
X171950000Y-114300000D01*
X171950000Y-114100000D01*
X171937681Y-114087681D01*
X171904196Y-114026358D01*
X171909180Y-113956666D01*
X171937681Y-113912319D01*
X171950000Y-113900000D01*
X171950000Y-113700000D01*
X171937681Y-113687681D01*
X171904196Y-113626358D01*
X171909180Y-113556666D01*
X171937681Y-113512319D01*
X171950000Y-113500000D01*
X171950000Y-113300000D01*
X171937681Y-113287681D01*
X171904196Y-113226358D01*
X171909180Y-113156666D01*
X171937681Y-113112319D01*
X171950000Y-113100000D01*
X171950000Y-112900000D01*
X171937681Y-112887681D01*
X171904196Y-112826358D01*
X171909180Y-112756666D01*
X171937681Y-112712319D01*
X171950000Y-112700000D01*
X171950000Y-112500000D01*
X171937681Y-112487681D01*
X171904196Y-112426358D01*
X171909180Y-112356666D01*
X171937681Y-112312319D01*
X171950000Y-112300000D01*
X171950000Y-112100000D01*
X171937681Y-112087681D01*
X171904196Y-112026358D01*
X171909180Y-111956666D01*
X171937681Y-111912319D01*
X171950000Y-111900000D01*
X171950000Y-111700000D01*
X171937681Y-111687681D01*
X171904196Y-111626358D01*
X171909180Y-111556666D01*
X171937681Y-111512319D01*
X171950000Y-111500000D01*
X171950000Y-111300000D01*
X171937681Y-111287681D01*
X171904196Y-111226358D01*
X171909180Y-111156666D01*
X171937681Y-111112319D01*
X171950000Y-111100000D01*
X171950000Y-110900000D01*
X171937681Y-110887681D01*
X171904196Y-110826358D01*
X171909180Y-110756666D01*
X171937681Y-110712319D01*
X171950000Y-110700000D01*
X171950000Y-110500000D01*
X171937681Y-110487681D01*
X171904196Y-110426358D01*
X171909180Y-110356666D01*
X171937681Y-110312319D01*
X171950000Y-110300000D01*
X173450000Y-110300000D01*
X173462319Y-110312319D01*
X173495804Y-110373642D01*
X173490820Y-110443334D01*
X173462319Y-110487681D01*
X173450000Y-110500000D01*
X173450000Y-110700000D01*
X173462319Y-110712319D01*
X173495804Y-110773642D01*
X173490820Y-110843334D01*
X173462319Y-110887681D01*
X173450000Y-110900000D01*
X173450000Y-111100000D01*
X173462319Y-111112319D01*
X173495804Y-111173642D01*
X173490820Y-111243334D01*
X173462319Y-111287681D01*
X173450000Y-111300000D01*
X173450000Y-111500000D01*
X173462319Y-111512319D01*
X173495804Y-111573642D01*
X173490820Y-111643334D01*
X173462319Y-111687681D01*
X173450000Y-111700000D01*
X173450000Y-111900000D01*
X173462319Y-111912319D01*
X173495804Y-111973642D01*
X173490820Y-112043334D01*
X173462319Y-112087681D01*
X173450000Y-112100000D01*
X173450000Y-112300000D01*
X173462319Y-112312319D01*
X173495804Y-112373642D01*
X173490820Y-112443334D01*
X173462319Y-112487681D01*
X173450000Y-112500000D01*
X173450000Y-112700000D01*
X173462319Y-112712319D01*
X173495804Y-112773642D01*
X173490820Y-112843334D01*
X173462319Y-112887681D01*
X173450000Y-112900000D01*
X173450000Y-113100000D01*
X173462319Y-113112319D01*
X173495804Y-113173642D01*
X173490820Y-113243334D01*
X173462319Y-113287681D01*
X173450000Y-113300000D01*
X173450000Y-113500000D01*
X173462319Y-113512319D01*
X173495804Y-113573642D01*
X173490820Y-113643334D01*
X173462319Y-113687681D01*
X173450000Y-113700000D01*
X173450000Y-113900000D01*
X173462319Y-113912319D01*
X173495804Y-113973642D01*
X173490820Y-114043334D01*
X173462319Y-114087681D01*
X173450000Y-114100000D01*
X173450000Y-114300000D01*
X173462319Y-114312319D01*
X173495804Y-114373642D01*
X173490820Y-114443334D01*
X173462319Y-114487681D01*
X173450000Y-114500000D01*
X173450000Y-114700000D01*
X173462319Y-114712319D01*
X173495804Y-114773642D01*
X173490820Y-114843334D01*
X173462319Y-114887681D01*
X173450000Y-114900000D01*
X173450000Y-115100000D01*
X173462319Y-115112319D01*
X173495804Y-115173642D01*
X173490820Y-115243334D01*
X173462319Y-115287681D01*
X173450000Y-115300000D01*
X173450000Y-115500000D01*
X173462319Y-115512319D01*
X173495804Y-115573642D01*
X173490820Y-115643334D01*
X173462319Y-115687681D01*
X173450000Y-115700000D01*
X173450000Y-115900000D01*
X173462319Y-115912319D01*
X173495804Y-115973642D01*
X173490820Y-116043334D01*
X173462319Y-116087681D01*
X173450000Y-116100000D01*
X173450000Y-116300000D01*
X173462319Y-116312319D01*
X173495804Y-116373642D01*
X173490820Y-116443334D01*
X173462319Y-116487681D01*
X173450000Y-116500000D01*
X173450000Y-116700000D01*
X173462319Y-116712319D01*
X173495804Y-116773642D01*
X173490820Y-116843334D01*
X173462319Y-116887681D01*
X173450000Y-116900000D01*
X173450000Y-117100000D01*
X173462319Y-117112319D01*
X173495804Y-117173642D01*
X173490820Y-117243334D01*
X173462319Y-117287681D01*
X173450000Y-117300000D01*
X173450000Y-117500000D01*
X173462319Y-117512319D01*
X173495804Y-117573642D01*
X173490820Y-117643334D01*
X173462319Y-117687681D01*
X173450000Y-117700000D01*
X173450000Y-117900000D01*
X173462319Y-117912319D01*
X173495804Y-117973642D01*
X173490820Y-118043334D01*
X173462319Y-118087681D01*
X173450000Y-118100000D01*
X173450000Y-118300000D01*
X173462319Y-118312319D01*
X173495804Y-118373642D01*
X173490820Y-118443334D01*
X173462319Y-118487681D01*
X173450000Y-118500000D01*
X173450000Y-118700000D01*
X173462319Y-118712319D01*
X173495804Y-118773642D01*
X173490820Y-118843334D01*
X173462319Y-118887681D01*
X173450000Y-118900000D01*
X173450000Y-119100000D01*
X173462319Y-119112319D01*
X173495804Y-119173642D01*
X173490820Y-119243334D01*
X173462319Y-119287681D01*
X173450000Y-119300000D01*
X173450000Y-119500000D01*
X173462319Y-119512319D01*
X173495804Y-119573642D01*
X173490820Y-119643334D01*
X173462319Y-119687681D01*
X173450000Y-119700000D01*
X173450000Y-119900000D01*
X173462319Y-119912319D01*
X173495804Y-119973642D01*
X173490820Y-120043334D01*
X173462319Y-120087681D01*
X173450000Y-120100000D01*
X173450000Y-120300000D01*
X173462319Y-120312319D01*
X173495804Y-120373642D01*
X173490820Y-120443334D01*
X173462319Y-120487681D01*
X173450000Y-120500000D01*
X173450000Y-120700000D01*
X173462319Y-120712319D01*
X173495804Y-120773642D01*
X173490820Y-120843334D01*
X173462319Y-120887681D01*
X173450000Y-120900000D01*
X173450000Y-121100000D01*
X173462319Y-121112319D01*
X173495804Y-121173642D01*
X173490820Y-121243334D01*
X173462319Y-121287681D01*
X173450000Y-121300000D01*
X173450000Y-121500000D01*
X173462319Y-121512319D01*
X173495804Y-121573642D01*
X173490820Y-121643334D01*
X173462319Y-121687681D01*
X173450000Y-121700000D01*
X173450000Y-121900000D01*
X173462319Y-121912319D01*
X173495804Y-121973642D01*
X173490820Y-122043334D01*
X173462319Y-122087681D01*
X173450000Y-122100000D01*
X173450000Y-122300000D01*
X173462319Y-122312319D01*
X173495804Y-122373642D01*
X173490820Y-122443334D01*
X173462319Y-122487681D01*
X173450000Y-122500000D01*
X173450000Y-122700000D01*
X173462319Y-122712319D01*
X173495804Y-122773642D01*
X173490820Y-122843334D01*
X173462319Y-122887681D01*
X173450000Y-122900000D01*
X173450000Y-123100000D01*
X173462319Y-123112319D01*
X173495804Y-123173642D01*
X173490820Y-123243334D01*
X173462319Y-123287681D01*
X173450000Y-123300000D01*
X173450000Y-123500000D01*
X173462319Y-123512319D01*
X173495804Y-123573642D01*
X173490820Y-123643334D01*
X173462319Y-123687681D01*
X173450000Y-123700000D01*
X173450000Y-123900000D01*
X173462319Y-123912319D01*
X173495804Y-123973642D01*
X173490820Y-124043334D01*
X173462319Y-124087681D01*
X173450000Y-124100000D01*
X173450000Y-124300000D01*
X173462319Y-124312319D01*
X173495804Y-124373642D01*
X173490820Y-124443334D01*
X173462319Y-124487681D01*
X173450000Y-124500000D01*
X173450000Y-124700000D01*
X173462319Y-124712319D01*
X173495804Y-124773642D01*
X173490820Y-124843334D01*
X173462319Y-124887681D01*
X173450000Y-124900000D01*
X173450000Y-125100000D01*
X173462319Y-125112319D01*
X173495804Y-125173642D01*
X173490820Y-125243334D01*
X173462319Y-125287681D01*
X173450000Y-125300000D01*
X173450000Y-125500000D01*
X173462319Y-125512319D01*
X173495804Y-125573642D01*
X173490820Y-125643334D01*
X173462319Y-125687681D01*
X173450000Y-125700000D01*
X173450000Y-125900000D01*
X173890000Y-125900000D01*
X173890000Y-125700000D01*
X173877681Y-125687681D01*
X173844196Y-125626358D01*
X173849180Y-125556666D01*
X173877681Y-125512319D01*
X173890000Y-125500000D01*
X173890000Y-125300000D01*
X173877681Y-125287681D01*
X173844196Y-125226358D01*
X173849180Y-125156666D01*
X173877681Y-125112319D01*
X173890000Y-125100000D01*
X173890000Y-124900000D01*
X173877681Y-124887681D01*
X173844196Y-124826358D01*
X173849180Y-124756666D01*
X173877681Y-124712319D01*
X173890000Y-124700000D01*
X173890000Y-124500000D01*
X173877681Y-124487681D01*
X173844196Y-124426358D01*
X173849180Y-124356666D01*
X173877681Y-124312319D01*
X173890000Y-124300000D01*
X173890000Y-124100000D01*
X173877681Y-124087681D01*
X173844196Y-124026358D01*
X173849180Y-123956666D01*
X173877681Y-123912319D01*
X173890000Y-123900000D01*
X173890000Y-123700000D01*
X173877681Y-123687681D01*
X173844196Y-123626358D01*
X173849180Y-123556666D01*
X173877681Y-123512319D01*
X173890000Y-123500000D01*
X173890000Y-123300000D01*
X173877681Y-123287681D01*
X173844196Y-123226358D01*
X173849180Y-123156666D01*
X173877681Y-123112319D01*
X173890000Y-123100000D01*
X173890000Y-122900000D01*
X173877681Y-122887681D01*
X173844196Y-122826358D01*
X173849180Y-122756666D01*
X173877681Y-122712319D01*
X173890000Y-122700000D01*
X173890000Y-122500000D01*
X173877681Y-122487681D01*
X173844196Y-122426358D01*
X173849180Y-122356666D01*
X173877681Y-122312319D01*
X173890000Y-122300000D01*
X173890000Y-122100000D01*
X173877681Y-122087681D01*
X173844196Y-122026358D01*
X173849180Y-121956666D01*
X173877681Y-121912319D01*
X173890000Y-121900000D01*
X173890000Y-121700000D01*
X173877681Y-121687681D01*
X173844196Y-121626358D01*
X173849180Y-121556666D01*
X173877681Y-121512319D01*
X173890000Y-121500000D01*
X173890000Y-121300000D01*
X173877681Y-121287681D01*
X173844196Y-121226358D01*
X173849180Y-121156666D01*
X173877681Y-121112319D01*
X173890000Y-121100000D01*
X173890000Y-120900000D01*
X173877681Y-120887681D01*
X173844196Y-120826358D01*
X173849180Y-120756666D01*
X173877681Y-120712319D01*
X173890000Y-120700000D01*
X173890000Y-120500000D01*
X173877681Y-120487681D01*
X173844196Y-120426358D01*
X173849180Y-120356666D01*
X173877681Y-120312319D01*
X173890000Y-120300000D01*
X173890000Y-120100000D01*
X173877681Y-120087681D01*
X173844196Y-120026358D01*
X173849180Y-119956666D01*
X173877681Y-119912319D01*
X173890000Y-119900000D01*
X173890000Y-119700000D01*
X173877681Y-119687681D01*
X173844196Y-119626358D01*
X173849180Y-119556666D01*
X173877681Y-119512319D01*
X173890000Y-119500000D01*
X173890000Y-119300000D01*
X173877681Y-119287681D01*
X173844196Y-119226358D01*
X173849180Y-119156666D01*
X173877681Y-119112319D01*
X173890000Y-119100000D01*
X173890000Y-118900000D01*
X173877681Y-118887681D01*
X173844196Y-118826358D01*
X173849180Y-118756666D01*
X173877681Y-118712319D01*
X173890000Y-118700000D01*
X173890000Y-118500000D01*
X173877681Y-118487681D01*
X173844196Y-118426358D01*
X173849180Y-118356666D01*
X173877681Y-118312319D01*
X173890000Y-118300000D01*
X173890000Y-118100000D01*
X173877681Y-118087681D01*
X173844196Y-118026358D01*
X173849180Y-117956666D01*
X173877681Y-117912319D01*
X173890000Y-117900000D01*
X173890000Y-117700000D01*
X173877681Y-117687681D01*
X173844196Y-117626358D01*
X173849180Y-117556666D01*
X173877681Y-117512319D01*
X173890000Y-117500000D01*
X173890000Y-117300000D01*
X173877681Y-117287681D01*
X173844196Y-117226358D01*
X173849180Y-117156666D01*
X173877681Y-117112319D01*
X173890000Y-117100000D01*
X173890000Y-116900000D01*
X173877681Y-116887681D01*
X173844196Y-116826358D01*
X173849180Y-116756666D01*
X173877681Y-116712319D01*
X173890000Y-116700000D01*
X173890000Y-116500000D01*
X173877681Y-116487681D01*
X173844196Y-116426358D01*
X173849180Y-116356666D01*
X173877681Y-116312319D01*
X173890000Y-116300000D01*
X173890000Y-116100000D01*
X173877681Y-116087681D01*
X173844196Y-116026358D01*
X173849180Y-115956666D01*
X173877681Y-115912319D01*
X173890000Y-115900000D01*
X173890000Y-115700000D01*
X173877681Y-115687681D01*
X173844196Y-115626358D01*
X173849180Y-115556666D01*
X173877681Y-115512319D01*
X173890000Y-115500000D01*
X173890000Y-115300000D01*
X173877681Y-115287681D01*
X173844196Y-115226358D01*
X173849180Y-115156666D01*
X173877681Y-115112319D01*
X173890000Y-115100000D01*
X173890000Y-114900000D01*
X173877681Y-114887681D01*
X173844196Y-114826358D01*
X173849180Y-114756666D01*
X173877681Y-114712319D01*
X173890000Y-114700000D01*
X173890000Y-114500000D01*
X173877681Y-114487681D01*
X173844196Y-114426358D01*
X173849180Y-114356666D01*
X173877681Y-114312319D01*
X173890000Y-114300000D01*
X173890000Y-114100000D01*
X173877681Y-114087681D01*
X173844196Y-114026358D01*
X173849180Y-113956666D01*
X173877681Y-113912319D01*
X173890000Y-113900000D01*
X173890000Y-113700000D01*
X173877681Y-113687681D01*
X173844196Y-113626358D01*
X173849180Y-113556666D01*
X173877681Y-113512319D01*
X173890000Y-113500000D01*
X173890000Y-113300000D01*
X173877681Y-113287681D01*
X173844196Y-113226358D01*
X173849180Y-113156666D01*
X173877681Y-113112319D01*
X173890000Y-113100000D01*
X173890000Y-112900000D01*
X173877681Y-112887681D01*
X173844196Y-112826358D01*
X173849180Y-112756666D01*
X173877681Y-112712319D01*
X173890000Y-112700000D01*
X173890000Y-112500000D01*
X173877681Y-112487681D01*
X173844196Y-112426358D01*
X173849180Y-112356666D01*
X173877681Y-112312319D01*
X173890000Y-112300000D01*
X173890000Y-112100000D01*
X173877681Y-112087681D01*
X173844196Y-112026358D01*
X173849180Y-111956666D01*
X173877681Y-111912319D01*
X173890000Y-111900000D01*
X173890000Y-111700000D01*
X173877681Y-111687681D01*
X173844196Y-111626358D01*
X173849180Y-111556666D01*
X173877681Y-111512319D01*
X173890000Y-111500000D01*
X173890000Y-111300000D01*
X173877681Y-111287681D01*
X173844196Y-111226358D01*
X173849180Y-111156666D01*
X173877681Y-111112319D01*
X173890000Y-111100000D01*
X173890000Y-110900000D01*
X173877681Y-110887681D01*
X173844196Y-110826358D01*
X173849180Y-110756666D01*
X173877681Y-110712319D01*
X173890000Y-110700000D01*
X173890000Y-110500000D01*
X173877681Y-110487681D01*
X173844196Y-110426358D01*
X173849180Y-110356666D01*
X173877681Y-110312319D01*
X173890000Y-110300000D01*
X214690000Y-110300000D01*
X214702319Y-110312319D01*
X214735804Y-110373642D01*
X214730820Y-110443334D01*
X214702319Y-110487681D01*
X214690000Y-110500000D01*
X214690000Y-110700000D01*
X214702319Y-110712319D01*
X214735804Y-110773642D01*
X214730820Y-110843334D01*
X214702319Y-110887681D01*
X214690000Y-110900000D01*
X214690000Y-111100000D01*
X214702319Y-111112319D01*
X214735804Y-111173642D01*
X214730820Y-111243334D01*
X214702319Y-111287681D01*
X214690000Y-111300000D01*
X214690000Y-111500000D01*
X214702319Y-111512319D01*
X214735804Y-111573642D01*
X214730820Y-111643334D01*
X214702319Y-111687681D01*
X214690000Y-111700000D01*
X214690000Y-111900000D01*
X214702319Y-111912319D01*
X214735804Y-111973642D01*
X214730820Y-112043334D01*
X214702319Y-112087681D01*
X214690000Y-112100000D01*
X214690000Y-112300000D01*
X214702319Y-112312319D01*
X214735804Y-112373642D01*
X214730820Y-112443334D01*
X214702319Y-112487681D01*
X214690000Y-112500000D01*
X214690000Y-112700000D01*
X214702319Y-112712319D01*
X214735804Y-112773642D01*
X214730820Y-112843334D01*
X214702319Y-112887681D01*
X214690000Y-112900000D01*
X214690000Y-113100000D01*
X214702319Y-113112319D01*
X214735804Y-113173642D01*
X214730820Y-113243334D01*
X214702319Y-113287681D01*
X214690000Y-113300000D01*
X214690000Y-113500000D01*
X214702319Y-113512319D01*
X214735804Y-113573642D01*
X214730820Y-113643334D01*
X214702319Y-113687681D01*
X214690000Y-113700000D01*
X214690000Y-113900000D01*
X214702319Y-113912319D01*
X214735804Y-113973642D01*
X214730820Y-114043334D01*
X214702319Y-114087681D01*
X214690000Y-114100000D01*
X214690000Y-114300000D01*
X214702319Y-114312319D01*
X214735804Y-114373642D01*
X214730820Y-114443334D01*
X214702319Y-114487681D01*
X214690000Y-114500000D01*
X214690000Y-114700000D01*
X214702319Y-114712319D01*
X214735804Y-114773642D01*
X214730820Y-114843334D01*
X214702319Y-114887681D01*
X214690000Y-114900000D01*
X214690000Y-115100000D01*
X214702319Y-115112319D01*
X214735804Y-115173642D01*
X214730820Y-115243334D01*
X214702319Y-115287681D01*
X214690000Y-115300000D01*
X214690000Y-115500000D01*
X214702319Y-115512319D01*
X214735804Y-115573642D01*
X214730820Y-115643334D01*
X214702319Y-115687681D01*
X214690000Y-115700000D01*
X214690000Y-115900000D01*
X214702319Y-115912319D01*
X214735804Y-115973642D01*
X214730820Y-116043334D01*
X214702319Y-116087681D01*
X214690000Y-116100000D01*
X214690000Y-116300000D01*
X214702319Y-116312319D01*
X214735804Y-116373642D01*
X214730820Y-116443334D01*
X214702319Y-116487681D01*
X214690000Y-116500000D01*
X214690000Y-116700000D01*
X214702319Y-116712319D01*
X214735804Y-116773642D01*
X214730820Y-116843334D01*
X214702319Y-116887681D01*
X214690000Y-116900000D01*
X214690000Y-117100000D01*
X214702319Y-117112319D01*
X214735804Y-117173642D01*
X214730820Y-117243334D01*
X214702319Y-117287681D01*
X214690000Y-117300000D01*
X214690000Y-117500000D01*
X214702319Y-117512319D01*
X214735804Y-117573642D01*
X214730820Y-117643334D01*
X214702319Y-117687681D01*
X214690000Y-117700000D01*
X214690000Y-117900000D01*
X214702319Y-117912319D01*
X214735804Y-117973642D01*
X214730820Y-118043334D01*
X214702319Y-118087681D01*
X214690000Y-118100000D01*
X214690000Y-118300000D01*
X214702319Y-118312319D01*
X214735804Y-118373642D01*
X214730820Y-118443334D01*
X214702319Y-118487681D01*
X214690000Y-118500000D01*
X214690000Y-118700000D01*
X214702319Y-118712319D01*
X214735804Y-118773642D01*
X214730820Y-118843334D01*
X214702319Y-118887681D01*
X214690000Y-118900000D01*
X214690000Y-119100000D01*
X214702319Y-119112319D01*
X214735804Y-119173642D01*
X214730820Y-119243334D01*
X214702319Y-119287681D01*
X214690000Y-119300000D01*
X214690000Y-119500000D01*
X214702319Y-119512319D01*
X214735804Y-119573642D01*
X214730820Y-119643334D01*
X214702319Y-119687681D01*
X214690000Y-119700000D01*
X214690000Y-119900000D01*
X214702319Y-119912319D01*
X214735804Y-119973642D01*
X214730820Y-120043334D01*
X214702319Y-120087681D01*
X214690000Y-120100000D01*
X214690000Y-120300000D01*
X214702319Y-120312319D01*
X214735804Y-120373642D01*
X214730820Y-120443334D01*
X214702319Y-120487681D01*
X214690000Y-120500000D01*
X214690000Y-120700000D01*
X214702319Y-120712319D01*
X214735804Y-120773642D01*
X214730820Y-120843334D01*
X214702319Y-120887681D01*
X214690000Y-120900000D01*
X214690000Y-121100000D01*
X214702319Y-121112319D01*
X214735804Y-121173642D01*
X214730820Y-121243334D01*
X214702319Y-121287681D01*
X214690000Y-121300000D01*
X214690000Y-121500000D01*
X214702319Y-121512319D01*
X214735804Y-121573642D01*
X214730820Y-121643334D01*
X214702319Y-121687681D01*
X214690000Y-121700000D01*
X214690000Y-121900000D01*
X214702319Y-121912319D01*
X214735804Y-121973642D01*
X214730820Y-122043334D01*
X214702319Y-122087681D01*
X214690000Y-122100000D01*
X214690000Y-122300000D01*
X214702319Y-122312319D01*
X214735804Y-122373642D01*
X214730820Y-122443334D01*
X214702319Y-122487681D01*
X214690000Y-122500000D01*
X214690000Y-122700000D01*
X214702319Y-122712319D01*
X214735804Y-122773642D01*
X214730820Y-122843334D01*
X214702319Y-122887681D01*
X214690000Y-122900000D01*
X214690000Y-123100000D01*
X214702319Y-123112319D01*
X214735804Y-123173642D01*
X214730820Y-123243334D01*
X214702319Y-123287681D01*
X214690000Y-123300000D01*
X214690000Y-123500000D01*
X214702319Y-123512319D01*
X214735804Y-123573642D01*
X214730820Y-123643334D01*
X214702319Y-123687681D01*
X214690000Y-123700000D01*
X214690000Y-123900000D01*
X214702319Y-123912319D01*
X214735804Y-123973642D01*
X214730820Y-124043334D01*
X214702319Y-124087681D01*
X214690000Y-124100000D01*
X214690000Y-124300000D01*
X214702319Y-124312319D01*
X214735804Y-124373642D01*
X214730820Y-124443334D01*
X214702319Y-124487681D01*
X214690000Y-124500000D01*
X214690000Y-124700000D01*
X214702319Y-124712319D01*
X214735804Y-124773642D01*
X214730820Y-124843334D01*
X214702319Y-124887681D01*
X214690000Y-124900000D01*
X214690000Y-125100000D01*
X214702319Y-125112319D01*
X214735804Y-125173642D01*
X214730820Y-125243334D01*
X214702319Y-125287681D01*
X214690000Y-125300000D01*
X214690000Y-125500000D01*
X214702319Y-125512319D01*
X214735804Y-125573642D01*
X214730820Y-125643334D01*
X214702319Y-125687681D01*
X214690000Y-125700000D01*
X214690000Y-125900000D01*
X215130000Y-125900000D01*
X215130000Y-125700000D01*
X215117681Y-125687681D01*
X215084196Y-125626358D01*
X215089180Y-125556666D01*
X215117681Y-125512319D01*
X215130000Y-125500000D01*
X215130000Y-125300000D01*
X215117681Y-125287681D01*
X215084196Y-125226358D01*
X215089180Y-125156666D01*
X215117681Y-125112319D01*
X215130000Y-125100000D01*
X215130000Y-124900000D01*
X215117681Y-124887681D01*
X215084196Y-124826358D01*
X215089180Y-124756666D01*
X215117681Y-124712319D01*
X215130000Y-124700000D01*
X215130000Y-124500000D01*
X215117681Y-124487681D01*
X215084196Y-124426358D01*
X215089180Y-124356666D01*
X215117681Y-124312319D01*
X215130000Y-124300000D01*
X215130000Y-124100000D01*
X215117681Y-124087681D01*
X215084196Y-124026358D01*
X215089180Y-123956666D01*
X215117681Y-123912319D01*
X215130000Y-123900000D01*
X215130000Y-123700000D01*
X215117681Y-123687681D01*
X215084196Y-123626358D01*
X215089180Y-123556666D01*
X215117681Y-123512319D01*
X215130000Y-123500000D01*
X215130000Y-123300000D01*
X215117681Y-123287681D01*
X215084196Y-123226358D01*
X215089180Y-123156666D01*
X215117681Y-123112319D01*
X215130000Y-123100000D01*
X215130000Y-122900000D01*
X215117681Y-122887681D01*
X215084196Y-122826358D01*
X215089180Y-122756666D01*
X215117681Y-122712319D01*
X215130000Y-122700000D01*
X215130000Y-122500000D01*
X215117681Y-122487681D01*
X215084196Y-122426358D01*
X215089180Y-122356666D01*
X215117681Y-122312319D01*
X215130000Y-122300000D01*
X215130000Y-122100000D01*
X215117681Y-122087681D01*
X215084196Y-122026358D01*
X215089180Y-121956666D01*
X215117681Y-121912319D01*
X215130000Y-121900000D01*
X215130000Y-121700000D01*
X215117681Y-121687681D01*
X215084196Y-121626358D01*
X215089180Y-121556666D01*
X215117681Y-121512319D01*
X215130000Y-121500000D01*
X215130000Y-121300000D01*
X215117681Y-121287681D01*
X215084196Y-121226358D01*
X215089180Y-121156666D01*
X215117681Y-121112319D01*
X215130000Y-121100000D01*
X215130000Y-120900000D01*
X215117681Y-120887681D01*
X215084196Y-120826358D01*
X215089180Y-120756666D01*
X215117681Y-120712319D01*
X215130000Y-120700000D01*
X215130000Y-120500000D01*
X215117681Y-120487681D01*
X215084196Y-120426358D01*
X215089180Y-120356666D01*
X215117681Y-120312319D01*
X215130000Y-120300000D01*
X215130000Y-120100000D01*
X215117681Y-120087681D01*
X215084196Y-120026358D01*
X215089180Y-119956666D01*
X215117681Y-119912319D01*
X215130000Y-119900000D01*
X215130000Y-119700000D01*
X215117681Y-119687681D01*
X215084196Y-119626358D01*
X215089180Y-119556666D01*
X215117681Y-119512319D01*
X215130000Y-119500000D01*
X215130000Y-119300000D01*
X215117681Y-119287681D01*
X215084196Y-119226358D01*
X215089180Y-119156666D01*
X215117681Y-119112319D01*
X215130000Y-119100000D01*
X215130000Y-118900000D01*
X215117681Y-118887681D01*
X215084196Y-118826358D01*
X215089180Y-118756666D01*
X215117681Y-118712319D01*
X215130000Y-118700000D01*
X215130000Y-118500000D01*
X215117681Y-118487681D01*
X215084196Y-118426358D01*
X215089180Y-118356666D01*
X215117681Y-118312319D01*
X215130000Y-118300000D01*
X215130000Y-118100000D01*
X215117681Y-118087681D01*
X215084196Y-118026358D01*
X215089180Y-117956666D01*
X215117681Y-117912319D01*
X215130000Y-117900000D01*
X215130000Y-117700000D01*
X215117681Y-117687681D01*
X215084196Y-117626358D01*
X215089180Y-117556666D01*
X215117681Y-117512319D01*
X215130000Y-117500000D01*
X215130000Y-117300000D01*
X215117681Y-117287681D01*
X215084196Y-117226358D01*
X215089180Y-117156666D01*
X215117681Y-117112319D01*
X215130000Y-117100000D01*
X215130000Y-116900000D01*
X215117681Y-116887681D01*
X215084196Y-116826358D01*
X215089180Y-116756666D01*
X215117681Y-116712319D01*
X215130000Y-116700000D01*
X215130000Y-116500000D01*
X215117681Y-116487681D01*
X215084196Y-116426358D01*
X215089180Y-116356666D01*
X215117681Y-116312319D01*
X215130000Y-116300000D01*
X215130000Y-116100000D01*
X215117681Y-116087681D01*
X215084196Y-116026358D01*
X215089180Y-115956666D01*
X215117681Y-115912319D01*
X215130000Y-115900000D01*
X215130000Y-115700000D01*
X215117681Y-115687681D01*
X215084196Y-115626358D01*
X215089180Y-115556666D01*
X215117681Y-115512319D01*
X215130000Y-115500000D01*
X215130000Y-115300000D01*
X215117681Y-115287681D01*
X215084196Y-115226358D01*
X215089180Y-115156666D01*
X215117681Y-115112319D01*
X215130000Y-115100000D01*
X215130000Y-114900000D01*
X215117681Y-114887681D01*
X215084196Y-114826358D01*
X215089180Y-114756666D01*
X215117681Y-114712319D01*
X215130000Y-114700000D01*
X215130000Y-114500000D01*
X215117681Y-114487681D01*
X215084196Y-114426358D01*
X215089180Y-114356666D01*
X215117681Y-114312319D01*
X215130000Y-114300000D01*
X215130000Y-114100000D01*
X215117681Y-114087681D01*
X215084196Y-114026358D01*
X215089180Y-113956666D01*
X215117681Y-113912319D01*
X215130000Y-113900000D01*
X215130000Y-113700000D01*
X215117681Y-113687681D01*
X215084196Y-113626358D01*
X215089180Y-113556666D01*
X215117681Y-113512319D01*
X215130000Y-113500000D01*
X215130000Y-113300000D01*
X215117681Y-113287681D01*
X215084196Y-113226358D01*
X215089180Y-113156666D01*
X215117681Y-113112319D01*
X215130000Y-113100000D01*
X215130000Y-112900000D01*
X215117681Y-112887681D01*
X215084196Y-112826358D01*
X215089180Y-112756666D01*
X215117681Y-112712319D01*
X215130000Y-112700000D01*
X215130000Y-112500000D01*
X215117681Y-112487681D01*
X215084196Y-112426358D01*
X215089180Y-112356666D01*
X215117681Y-112312319D01*
X215130000Y-112300000D01*
X215130000Y-112100000D01*
X215117681Y-112087681D01*
X215084196Y-112026358D01*
X215089180Y-111956666D01*
X215117681Y-111912319D01*
X215130000Y-111900000D01*
X215130000Y-111700000D01*
X215117681Y-111687681D01*
X215084196Y-111626358D01*
X215089180Y-111556666D01*
X215117681Y-111512319D01*
X215130000Y-111500000D01*
X215130000Y-111300000D01*
X215117681Y-111287681D01*
X215084196Y-111226358D01*
X215089180Y-111156666D01*
X215117681Y-111112319D01*
X215130000Y-111100000D01*
X215130000Y-110900000D01*
X215117681Y-110887681D01*
X215084196Y-110826358D01*
X215089180Y-110756666D01*
X215117681Y-110712319D01*
X215130000Y-110700000D01*
X215130000Y-110500000D01*
X215117681Y-110487681D01*
X215084196Y-110426358D01*
X215089180Y-110356666D01*
X215117681Y-110312319D01*
X215130000Y-110300000D01*
X216630000Y-110300000D01*
X216642319Y-110312319D01*
X216675804Y-110373642D01*
X216670820Y-110443334D01*
X216642319Y-110487681D01*
X216630000Y-110500000D01*
X216630000Y-110700000D01*
X216642319Y-110712319D01*
X216675804Y-110773642D01*
X216670820Y-110843334D01*
X216642319Y-110887681D01*
X216630000Y-110900000D01*
X216630000Y-111100000D01*
X216642319Y-111112319D01*
X216675804Y-111173642D01*
X216670820Y-111243334D01*
X216642319Y-111287681D01*
X216630000Y-111300000D01*
X216630000Y-111500000D01*
X216642319Y-111512319D01*
X216675804Y-111573642D01*
X216670820Y-111643334D01*
X216642319Y-111687681D01*
X216630000Y-111700000D01*
X216630000Y-111900000D01*
X216642319Y-111912319D01*
X216675804Y-111973642D01*
X216670820Y-112043334D01*
X216642319Y-112087681D01*
X216630000Y-112100000D01*
X216630000Y-112300000D01*
X216642319Y-112312319D01*
X216675804Y-112373642D01*
X216670820Y-112443334D01*
X216642319Y-112487681D01*
X216630000Y-112500000D01*
X216630000Y-112700000D01*
X216642319Y-112712319D01*
X216675804Y-112773642D01*
X216670820Y-112843334D01*
X216642319Y-112887681D01*
X216630000Y-112900000D01*
X216630000Y-113100000D01*
X216642319Y-113112319D01*
X216675804Y-113173642D01*
X216670820Y-113243334D01*
X216642319Y-113287681D01*
X216630000Y-113300000D01*
X216630000Y-113500000D01*
X216642319Y-113512319D01*
X216675804Y-113573642D01*
X216670820Y-113643334D01*
X216642319Y-113687681D01*
X216630000Y-113700000D01*
X216630000Y-113900000D01*
X216642319Y-113912319D01*
X216675804Y-113973642D01*
X216670820Y-114043334D01*
X216642319Y-114087681D01*
X216630000Y-114100000D01*
X216630000Y-114300000D01*
X216642319Y-114312319D01*
X216675804Y-114373642D01*
X216670820Y-114443334D01*
X216642319Y-114487681D01*
X216630000Y-114500000D01*
X216630000Y-114700000D01*
X216642319Y-114712319D01*
X216675804Y-114773642D01*
X216670820Y-114843334D01*
X216642319Y-114887681D01*
X216630000Y-114900000D01*
X216630000Y-115100000D01*
X216642319Y-115112319D01*
X216675804Y-115173642D01*
X216670820Y-115243334D01*
X216642319Y-115287681D01*
X216630000Y-115300000D01*
X216630000Y-115500000D01*
X216642319Y-115512319D01*
X216675804Y-115573642D01*
X216670820Y-115643334D01*
X216642319Y-115687681D01*
X216630000Y-115700000D01*
X216630000Y-115900000D01*
X216642319Y-115912319D01*
X216675804Y-115973642D01*
X216670820Y-116043334D01*
X216642319Y-116087681D01*
X216630000Y-116100000D01*
X216630000Y-116300000D01*
X216642319Y-116312319D01*
X216675804Y-116373642D01*
X216670820Y-116443334D01*
X216642319Y-116487681D01*
X216630000Y-116500000D01*
X216630000Y-116700000D01*
X216642319Y-116712319D01*
X216675804Y-116773642D01*
X216670820Y-116843334D01*
X216642319Y-116887681D01*
X216630000Y-116900000D01*
X216630000Y-117100000D01*
X216642319Y-117112319D01*
X216675804Y-117173642D01*
X216670820Y-117243334D01*
X216642319Y-117287681D01*
X216630000Y-117300000D01*
X216630000Y-117500000D01*
X216642319Y-117512319D01*
X216675804Y-117573642D01*
X216670820Y-117643334D01*
X216642319Y-117687681D01*
X216630000Y-117700000D01*
X216630000Y-117900000D01*
X216642319Y-117912319D01*
X216675804Y-117973642D01*
X216670820Y-118043334D01*
X216642319Y-118087681D01*
X216630000Y-118100000D01*
X216630000Y-118300000D01*
X216642319Y-118312319D01*
X216675804Y-118373642D01*
X216670820Y-118443334D01*
X216642319Y-118487681D01*
X216630000Y-118500000D01*
X216630000Y-118700000D01*
X216642319Y-118712319D01*
X216675804Y-118773642D01*
X216670820Y-118843334D01*
X216642319Y-118887681D01*
X216630000Y-118900000D01*
X216630000Y-119100000D01*
X216642319Y-119112319D01*
X216675804Y-119173642D01*
X216670820Y-119243334D01*
X216642319Y-119287681D01*
X216630000Y-119300000D01*
X216630000Y-119500000D01*
X216642319Y-119512319D01*
X216675804Y-119573642D01*
X216670820Y-119643334D01*
X216642319Y-119687681D01*
X216630000Y-119700000D01*
X216630000Y-119900000D01*
X216642319Y-119912319D01*
X216675804Y-119973642D01*
X216670820Y-120043334D01*
X216642319Y-120087681D01*
X216630000Y-120100000D01*
X216630000Y-120300000D01*
X216642319Y-120312319D01*
X216675804Y-120373642D01*
X216670820Y-120443334D01*
X216642319Y-120487681D01*
X216630000Y-120500000D01*
X216630000Y-120700000D01*
X216642319Y-120712319D01*
X216675804Y-120773642D01*
X216670820Y-120843334D01*
X216642319Y-120887681D01*
X216630000Y-120900000D01*
X216630000Y-121100000D01*
X216642319Y-121112319D01*
X216675804Y-121173642D01*
X216670820Y-121243334D01*
X216642319Y-121287681D01*
X216630000Y-121300000D01*
X216630000Y-121500000D01*
X216642319Y-121512319D01*
X216675804Y-121573642D01*
X216670820Y-121643334D01*
X216642319Y-121687681D01*
X216630000Y-121700000D01*
X216630000Y-121900000D01*
X216642319Y-121912319D01*
X216675804Y-121973642D01*
X216670820Y-122043334D01*
X216642319Y-122087681D01*
X216630000Y-122100000D01*
X216630000Y-122300000D01*
X216642319Y-122312319D01*
X216675804Y-122373642D01*
X216670820Y-122443334D01*
X216642319Y-122487681D01*
X216630000Y-122500000D01*
X216630000Y-122700000D01*
X216642319Y-122712319D01*
X216675804Y-122773642D01*
X216670820Y-122843334D01*
X216642319Y-122887681D01*
X216630000Y-122900000D01*
X216630000Y-123100000D01*
X216642319Y-123112319D01*
X216675804Y-123173642D01*
X216670820Y-123243334D01*
X216642319Y-123287681D01*
X216630000Y-123300000D01*
X216630000Y-123500000D01*
X216642319Y-123512319D01*
X216675804Y-123573642D01*
X216670820Y-123643334D01*
X216642319Y-123687681D01*
X216630000Y-123700000D01*
X216630000Y-123900000D01*
X216642319Y-123912319D01*
X216675804Y-123973642D01*
X216670820Y-124043334D01*
X216642319Y-124087681D01*
X216630000Y-124100000D01*
X216630000Y-124300000D01*
X216642319Y-124312319D01*
X216675804Y-124373642D01*
X216670820Y-124443334D01*
X216642319Y-124487681D01*
X216630000Y-124500000D01*
X216630000Y-124700000D01*
X216642319Y-124712319D01*
X216675804Y-124773642D01*
X216670820Y-124843334D01*
X216642319Y-124887681D01*
X216630000Y-124900000D01*
X216630000Y-125100000D01*
X216642319Y-125112319D01*
X216675804Y-125173642D01*
X216670820Y-125243334D01*
X216642319Y-125287681D01*
X216630000Y-125300000D01*
X216630000Y-125500000D01*
X216642319Y-125512319D01*
X216675804Y-125573642D01*
X216670820Y-125643334D01*
X216642319Y-125687681D01*
X216630000Y-125700000D01*
X216630000Y-125900000D01*
X217070000Y-125900000D01*
X217070000Y-125700000D01*
X217057681Y-125687681D01*
X217024196Y-125626358D01*
X217029180Y-125556666D01*
X217057681Y-125512319D01*
X217070000Y-125500000D01*
X217070000Y-125300000D01*
X217057681Y-125287681D01*
X217024196Y-125226358D01*
X217029180Y-125156666D01*
X217057681Y-125112319D01*
X217070000Y-125100000D01*
X217070000Y-124900000D01*
X217057681Y-124887681D01*
X217024196Y-124826358D01*
X217029180Y-124756666D01*
X217057681Y-124712319D01*
X217070000Y-124700000D01*
X217070000Y-124500000D01*
X217057681Y-124487681D01*
X217024196Y-124426358D01*
X217029180Y-124356666D01*
X217057681Y-124312319D01*
X217070000Y-124300000D01*
X217070000Y-124100000D01*
X217057681Y-124087681D01*
X217024196Y-124026358D01*
X217029180Y-123956666D01*
X217057681Y-123912319D01*
X217070000Y-123900000D01*
X217070000Y-123700000D01*
X217057681Y-123687681D01*
X217024196Y-123626358D01*
X217029180Y-123556666D01*
X217057681Y-123512319D01*
X217070000Y-123500000D01*
X217070000Y-123300000D01*
X217057681Y-123287681D01*
X217024196Y-123226358D01*
X217029180Y-123156666D01*
X217057681Y-123112319D01*
X217070000Y-123100000D01*
X217070000Y-122900000D01*
X217057681Y-122887681D01*
X217024196Y-122826358D01*
X217029180Y-122756666D01*
X217057681Y-122712319D01*
X217070000Y-122700000D01*
X217070000Y-122500000D01*
X217057681Y-122487681D01*
X217024196Y-122426358D01*
X217029180Y-122356666D01*
X217057681Y-122312319D01*
X217070000Y-122300000D01*
X217070000Y-122100000D01*
X217057681Y-122087681D01*
X217024196Y-122026358D01*
X217029180Y-121956666D01*
X217057681Y-121912319D01*
X217070000Y-121900000D01*
X217070000Y-121700000D01*
X217057681Y-121687681D01*
X217024196Y-121626358D01*
X217029180Y-121556666D01*
X217057681Y-121512319D01*
X217070000Y-121500000D01*
X217070000Y-121300000D01*
X217057681Y-121287681D01*
X217024196Y-121226358D01*
X217029180Y-121156666D01*
X217057681Y-121112319D01*
X217070000Y-121100000D01*
X217070000Y-120900000D01*
X217057681Y-120887681D01*
X217024196Y-120826358D01*
X217029180Y-120756666D01*
X217057681Y-120712319D01*
X217070000Y-120700000D01*
X217070000Y-120500000D01*
X217057681Y-120487681D01*
X217024196Y-120426358D01*
X217029180Y-120356666D01*
X217057681Y-120312319D01*
X217070000Y-120300000D01*
X217070000Y-120100000D01*
X217057681Y-120087681D01*
X217024196Y-120026358D01*
X217029180Y-119956666D01*
X217057681Y-119912319D01*
X217070000Y-119900000D01*
X217070000Y-119700000D01*
X217057681Y-119687681D01*
X217024196Y-119626358D01*
X217029180Y-119556666D01*
X217057681Y-119512319D01*
X217070000Y-119500000D01*
X217070000Y-119300000D01*
X217057681Y-119287681D01*
X217024196Y-119226358D01*
X217029180Y-119156666D01*
X217057681Y-119112319D01*
X217070000Y-119100000D01*
X217070000Y-118900000D01*
X217057681Y-118887681D01*
X217024196Y-118826358D01*
X217029180Y-118756666D01*
X217057681Y-118712319D01*
X217070000Y-118700000D01*
X217070000Y-118500000D01*
X217057681Y-118487681D01*
X217024196Y-118426358D01*
X217029180Y-118356666D01*
X217057681Y-118312319D01*
X217070000Y-118300000D01*
X217070000Y-118100000D01*
X217057681Y-118087681D01*
X217024196Y-118026358D01*
X217029180Y-117956666D01*
X217057681Y-117912319D01*
X217070000Y-117900000D01*
X217070000Y-117700000D01*
X217057681Y-117687681D01*
X217024196Y-117626358D01*
X217029180Y-117556666D01*
X217057681Y-117512319D01*
X217070000Y-117500000D01*
X217070000Y-117300000D01*
X217057681Y-117287681D01*
X217024196Y-117226358D01*
X217029180Y-117156666D01*
X217057681Y-117112319D01*
X217070000Y-117100000D01*
X217070000Y-116900000D01*
X217057681Y-116887681D01*
X217024196Y-116826358D01*
X217029180Y-116756666D01*
X217057681Y-116712319D01*
X217070000Y-116700000D01*
X217070000Y-116500000D01*
X217057681Y-116487681D01*
X217024196Y-116426358D01*
X217029180Y-116356666D01*
X217057681Y-116312319D01*
X217070000Y-116300000D01*
X217070000Y-116100000D01*
X217057681Y-116087681D01*
X217024196Y-116026358D01*
X217029180Y-115956666D01*
X217057681Y-115912319D01*
X217070000Y-115900000D01*
X217070000Y-115700000D01*
X217057681Y-115687681D01*
X217024196Y-115626358D01*
X217029180Y-115556666D01*
X217057681Y-115512319D01*
X217070000Y-115500000D01*
X217070000Y-115300000D01*
X217057681Y-115287681D01*
X217024196Y-115226358D01*
X217029180Y-115156666D01*
X217057681Y-115112319D01*
X217070000Y-115100000D01*
X217070000Y-114900000D01*
X217057681Y-114887681D01*
X217024196Y-114826358D01*
X217029180Y-114756666D01*
X217057681Y-114712319D01*
X217070000Y-114700000D01*
X217070000Y-114500000D01*
X217057681Y-114487681D01*
X217024196Y-114426358D01*
X217029180Y-114356666D01*
X217057681Y-114312319D01*
X217070000Y-114300000D01*
X217070000Y-114100000D01*
X217057681Y-114087681D01*
X217024196Y-114026358D01*
X217029180Y-113956666D01*
X217057681Y-113912319D01*
X217070000Y-113900000D01*
X217070000Y-113700000D01*
X217057681Y-113687681D01*
X217024196Y-113626358D01*
X217029180Y-113556666D01*
X217057681Y-113512319D01*
X217070000Y-113500000D01*
X217070000Y-113300000D01*
X217057681Y-113287681D01*
X217024196Y-113226358D01*
X217029180Y-113156666D01*
X217057681Y-113112319D01*
X217070000Y-113100000D01*
X217070000Y-112900000D01*
X217057681Y-112887681D01*
X217024196Y-112826358D01*
X217029180Y-112756666D01*
X217057681Y-112712319D01*
X217070000Y-112700000D01*
X217070000Y-112500000D01*
X217057681Y-112487681D01*
X217024196Y-112426358D01*
X217029180Y-112356666D01*
X217057681Y-112312319D01*
X217070000Y-112300000D01*
X217070000Y-112100000D01*
X217057681Y-112087681D01*
X217024196Y-112026358D01*
X217029180Y-111956666D01*
X217057681Y-111912319D01*
X217070000Y-111900000D01*
X217070000Y-111700000D01*
X217057681Y-111687681D01*
X217024196Y-111626358D01*
X217029180Y-111556666D01*
X217057681Y-111512319D01*
X217070000Y-111500000D01*
X217070000Y-111300000D01*
X217057681Y-111287681D01*
X217024196Y-111226358D01*
X217029180Y-111156666D01*
X217057681Y-111112319D01*
X217070000Y-111100000D01*
X217070000Y-110900000D01*
X217057681Y-110887681D01*
X217024196Y-110826358D01*
X217029180Y-110756666D01*
X217057681Y-110712319D01*
X217070000Y-110700000D01*
X217070000Y-110500000D01*
X217057681Y-110487681D01*
X217024196Y-110426358D01*
X217029180Y-110356666D01*
X217057681Y-110312319D01*
X217070000Y-110300000D01*
X217070000Y-110100000D01*
X216630000Y-110100000D01*
X216630000Y-110300000D01*
X215130000Y-110300000D01*
X215130000Y-110100000D01*
X214690000Y-110100000D01*
X214690000Y-110300000D01*
X173890000Y-110300000D01*
X173890000Y-110100000D01*
X173450000Y-110100000D01*
X173450000Y-110300000D01*
X171950000Y-110300000D01*
X171950000Y-110100000D01*
X171510000Y-110100000D01*
X171510000Y-110300000D01*
X150500500Y-110300000D01*
X150500500Y-107221746D01*
X167634500Y-107221746D01*
X167634500Y-107438253D01*
X167668370Y-107652098D01*
X167735272Y-107858006D01*
X167735273Y-107858009D01*
X167833567Y-108050919D01*
X167960828Y-108226078D01*
X168113922Y-108379172D01*
X168289081Y-108506433D01*
X168383697Y-108554642D01*
X168481990Y-108604726D01*
X168481993Y-108604727D01*
X168584947Y-108638178D01*
X168687903Y-108671630D01*
X168901746Y-108705500D01*
X168901747Y-108705500D01*
X169118253Y-108705500D01*
X169118254Y-108705500D01*
X169332097Y-108671630D01*
X169538009Y-108604726D01*
X169730919Y-108506433D01*
X169906078Y-108379172D01*
X170059172Y-108226078D01*
X170186433Y-108050919D01*
X170284726Y-107858009D01*
X170313960Y-107768036D01*
X176644500Y-107768036D01*
X176644500Y-107971963D01*
X176676398Y-108173360D01*
X176676399Y-108173364D01*
X176739413Y-108367299D01*
X176831989Y-108548990D01*
X176951848Y-108713962D01*
X177096038Y-108858152D01*
X177261010Y-108978011D01*
X177442701Y-109070587D01*
X177636636Y-109133601D01*
X177712163Y-109145563D01*
X177838037Y-109165500D01*
X177838042Y-109165500D01*
X178041963Y-109165500D01*
X178153850Y-109147778D01*
X178243364Y-109133601D01*
X178437299Y-109070587D01*
X178618990Y-108978011D01*
X178783962Y-108858152D01*
X178928152Y-108713962D01*
X179048011Y-108548990D01*
X179099515Y-108447906D01*
X179147489Y-108397111D01*
X179215310Y-108380316D01*
X179281445Y-108402853D01*
X179320484Y-108447906D01*
X179371989Y-108548990D01*
X179491848Y-108713962D01*
X179636038Y-108858152D01*
X179801010Y-108978011D01*
X179982701Y-109070587D01*
X180176636Y-109133601D01*
X180252163Y-109145563D01*
X180378037Y-109165500D01*
X180378042Y-109165500D01*
X180581963Y-109165500D01*
X180693850Y-109147778D01*
X180783364Y-109133601D01*
X180977299Y-109070587D01*
X181158990Y-108978011D01*
X181323962Y-108858152D01*
X181468152Y-108713962D01*
X181588011Y-108548990D01*
X181639515Y-108447906D01*
X181687489Y-108397111D01*
X181755310Y-108380316D01*
X181821445Y-108402853D01*
X181860484Y-108447906D01*
X181911989Y-108548990D01*
X182031848Y-108713962D01*
X182176038Y-108858152D01*
X182341010Y-108978011D01*
X182522701Y-109070587D01*
X182716636Y-109133601D01*
X182792163Y-109145563D01*
X182918037Y-109165500D01*
X182918042Y-109165500D01*
X183121963Y-109165500D01*
X183233850Y-109147778D01*
X183323364Y-109133601D01*
X183517299Y-109070587D01*
X183698990Y-108978011D01*
X183863962Y-108858152D01*
X184008152Y-108713962D01*
X184128011Y-108548990D01*
X184179515Y-108447906D01*
X184227489Y-108397111D01*
X184295310Y-108380316D01*
X184361445Y-108402853D01*
X184400484Y-108447906D01*
X184451989Y-108548990D01*
X184571848Y-108713962D01*
X184716038Y-108858152D01*
X184881010Y-108978011D01*
X185062701Y-109070587D01*
X185256636Y-109133601D01*
X185332163Y-109145563D01*
X185458037Y-109165500D01*
X185458042Y-109165500D01*
X185661963Y-109165500D01*
X185773850Y-109147778D01*
X185863364Y-109133601D01*
X186057299Y-109070587D01*
X186238990Y-108978011D01*
X186403962Y-108858152D01*
X186548152Y-108713962D01*
X186668011Y-108548990D01*
X186719515Y-108447906D01*
X186767489Y-108397111D01*
X186835310Y-108380316D01*
X186901445Y-108402853D01*
X186940484Y-108447906D01*
X186991989Y-108548990D01*
X187111848Y-108713962D01*
X187256038Y-108858152D01*
X187421010Y-108978011D01*
X187602701Y-109070587D01*
X187796636Y-109133601D01*
X187872163Y-109145563D01*
X187998037Y-109165500D01*
X187998042Y-109165500D01*
X188201963Y-109165500D01*
X188313850Y-109147778D01*
X188403364Y-109133601D01*
X188597299Y-109070587D01*
X188778990Y-108978011D01*
X188943962Y-108858152D01*
X189088152Y-108713962D01*
X189208011Y-108548990D01*
X189259515Y-108447906D01*
X189307489Y-108397111D01*
X189375310Y-108380316D01*
X189441445Y-108402853D01*
X189480484Y-108447906D01*
X189531989Y-108548990D01*
X189651848Y-108713962D01*
X189796038Y-108858152D01*
X189961010Y-108978011D01*
X190142701Y-109070587D01*
X190336636Y-109133601D01*
X190412163Y-109145563D01*
X190538037Y-109165500D01*
X190538042Y-109165500D01*
X190741963Y-109165500D01*
X190853850Y-109147778D01*
X190943364Y-109133601D01*
X191137299Y-109070587D01*
X191318990Y-108978011D01*
X191483962Y-108858152D01*
X191628152Y-108713962D01*
X191748011Y-108548990D01*
X191799515Y-108447906D01*
X191847489Y-108397111D01*
X191915310Y-108380316D01*
X191981445Y-108402853D01*
X192020484Y-108447906D01*
X192071989Y-108548990D01*
X192191848Y-108713962D01*
X192336038Y-108858152D01*
X192501010Y-108978011D01*
X192682701Y-109070587D01*
X192876636Y-109133601D01*
X192952163Y-109145563D01*
X193078037Y-109165500D01*
X193078042Y-109165500D01*
X193281963Y-109165500D01*
X193393850Y-109147778D01*
X193483364Y-109133601D01*
X193677299Y-109070587D01*
X193858990Y-108978011D01*
X194023962Y-108858152D01*
X194168152Y-108713962D01*
X194288011Y-108548990D01*
X194339515Y-108447906D01*
X194387489Y-108397111D01*
X194455310Y-108380316D01*
X194521445Y-108402853D01*
X194560484Y-108447906D01*
X194611989Y-108548990D01*
X194731848Y-108713962D01*
X194876038Y-108858152D01*
X195041010Y-108978011D01*
X195222701Y-109070587D01*
X195416636Y-109133601D01*
X195492163Y-109145563D01*
X195618037Y-109165500D01*
X195618042Y-109165500D01*
X195821963Y-109165500D01*
X195933850Y-109147778D01*
X196023364Y-109133601D01*
X196217299Y-109070587D01*
X196398990Y-108978011D01*
X196563962Y-108858152D01*
X196708152Y-108713962D01*
X196828011Y-108548990D01*
X196879515Y-108447906D01*
X196927489Y-108397111D01*
X196995310Y-108380316D01*
X197061445Y-108402853D01*
X197100484Y-108447906D01*
X197151989Y-108548990D01*
X197271848Y-108713962D01*
X197416038Y-108858152D01*
X197581010Y-108978011D01*
X197762701Y-109070587D01*
X197956636Y-109133601D01*
X198032163Y-109145563D01*
X198158037Y-109165500D01*
X198158042Y-109165500D01*
X198361963Y-109165500D01*
X198473850Y-109147778D01*
X198563364Y-109133601D01*
X198757299Y-109070587D01*
X198938990Y-108978011D01*
X199103962Y-108858152D01*
X199248152Y-108713962D01*
X199368011Y-108548990D01*
X199419515Y-108447906D01*
X199467489Y-108397111D01*
X199535310Y-108380316D01*
X199601445Y-108402853D01*
X199640484Y-108447906D01*
X199691989Y-108548990D01*
X199811848Y-108713962D01*
X199956038Y-108858152D01*
X200121010Y-108978011D01*
X200302701Y-109070587D01*
X200496636Y-109133601D01*
X200572163Y-109145563D01*
X200698037Y-109165500D01*
X200698042Y-109165500D01*
X200901963Y-109165500D01*
X201013850Y-109147778D01*
X201103364Y-109133601D01*
X201297299Y-109070587D01*
X201478990Y-108978011D01*
X201643962Y-108858152D01*
X201788152Y-108713962D01*
X201908011Y-108548990D01*
X201959515Y-108447906D01*
X202007489Y-108397111D01*
X202075310Y-108380316D01*
X202141445Y-108402853D01*
X202180484Y-108447906D01*
X202231989Y-108548990D01*
X202351848Y-108713962D01*
X202496038Y-108858152D01*
X202661010Y-108978011D01*
X202842701Y-109070587D01*
X203036636Y-109133601D01*
X203112163Y-109145563D01*
X203238037Y-109165500D01*
X203238042Y-109165500D01*
X203441963Y-109165500D01*
X203553850Y-109147778D01*
X203643364Y-109133601D01*
X203837299Y-109070587D01*
X204018990Y-108978011D01*
X204183962Y-108858152D01*
X204328152Y-108713962D01*
X204448011Y-108548990D01*
X204499515Y-108447906D01*
X204547489Y-108397111D01*
X204615310Y-108380316D01*
X204681445Y-108402853D01*
X204720484Y-108447906D01*
X204771989Y-108548990D01*
X204891848Y-108713962D01*
X205036038Y-108858152D01*
X205201010Y-108978011D01*
X205382701Y-109070587D01*
X205576636Y-109133601D01*
X205652163Y-109145563D01*
X205778037Y-109165500D01*
X205778042Y-109165500D01*
X205981963Y-109165500D01*
X206093850Y-109147778D01*
X206183364Y-109133601D01*
X206377299Y-109070587D01*
X206558990Y-108978011D01*
X206723962Y-108858152D01*
X206868152Y-108713962D01*
X206988011Y-108548990D01*
X207039515Y-108447906D01*
X207087489Y-108397111D01*
X207155310Y-108380316D01*
X207221445Y-108402853D01*
X207260484Y-108447906D01*
X207311989Y-108548990D01*
X207431848Y-108713962D01*
X207576038Y-108858152D01*
X207741010Y-108978011D01*
X207922701Y-109070587D01*
X208116636Y-109133601D01*
X208192163Y-109145563D01*
X208318037Y-109165500D01*
X208318042Y-109165500D01*
X208521963Y-109165500D01*
X208633850Y-109147778D01*
X208723364Y-109133601D01*
X208917299Y-109070587D01*
X209098990Y-108978011D01*
X209263962Y-108858152D01*
X209408152Y-108713962D01*
X209528011Y-108548990D01*
X209579515Y-108447906D01*
X209627489Y-108397111D01*
X209695310Y-108380316D01*
X209761445Y-108402853D01*
X209800484Y-108447906D01*
X209851989Y-108548990D01*
X209971848Y-108713962D01*
X210116038Y-108858152D01*
X210281010Y-108978011D01*
X210462701Y-109070587D01*
X210656636Y-109133601D01*
X210732163Y-109145563D01*
X210858037Y-109165500D01*
X210858042Y-109165500D01*
X211061963Y-109165500D01*
X211173850Y-109147778D01*
X211263364Y-109133601D01*
X211457299Y-109070587D01*
X211638990Y-108978011D01*
X211803962Y-108858152D01*
X211948152Y-108713962D01*
X212068011Y-108548990D01*
X212160587Y-108367299D01*
X212223601Y-108173364D01*
X212242994Y-108050919D01*
X212255500Y-107971963D01*
X212255500Y-107768036D01*
X212223601Y-107566639D01*
X212223601Y-107566636D01*
X212160587Y-107372701D01*
X212083672Y-107221746D01*
X229614500Y-107221746D01*
X229614500Y-107438253D01*
X229648370Y-107652098D01*
X229715272Y-107858006D01*
X229715273Y-107858009D01*
X229813567Y-108050919D01*
X229940828Y-108226078D01*
X230093922Y-108379172D01*
X230269081Y-108506433D01*
X230363697Y-108554642D01*
X230461990Y-108604726D01*
X230461993Y-108604727D01*
X230564947Y-108638178D01*
X230667903Y-108671630D01*
X230881746Y-108705500D01*
X230881747Y-108705500D01*
X231098253Y-108705500D01*
X231098254Y-108705500D01*
X231312097Y-108671630D01*
X231518009Y-108604726D01*
X231710919Y-108506433D01*
X231886078Y-108379172D01*
X232039172Y-108226078D01*
X232166433Y-108050919D01*
X232264726Y-107858009D01*
X232331630Y-107652097D01*
X232365500Y-107438254D01*
X232365500Y-107221746D01*
X232331630Y-107007903D01*
X232298178Y-106904947D01*
X232264727Y-106801993D01*
X232264726Y-106801990D01*
X232166432Y-106609080D01*
X232164484Y-106606399D01*
X232039172Y-106433922D01*
X231886078Y-106280828D01*
X231710919Y-106153567D01*
X231518009Y-106055273D01*
X231518006Y-106055272D01*
X231312098Y-105988370D01*
X231205175Y-105971435D01*
X231098254Y-105954500D01*
X230881746Y-105954500D01*
X230810465Y-105965790D01*
X230667901Y-105988370D01*
X230461993Y-106055272D01*
X230461990Y-106055273D01*
X230269080Y-106153567D01*
X230169145Y-106226174D01*
X230093922Y-106280828D01*
X230093920Y-106280830D01*
X230093919Y-106280830D01*
X229940830Y-106433919D01*
X229940830Y-106433920D01*
X229940828Y-106433922D01*
X229886174Y-106509145D01*
X229813567Y-106609080D01*
X229715273Y-106801990D01*
X229715272Y-106801993D01*
X229648370Y-107007901D01*
X229614500Y-107221746D01*
X212083672Y-107221746D01*
X212068011Y-107191010D01*
X211948152Y-107026038D01*
X211803962Y-106881848D01*
X211638990Y-106761989D01*
X211457299Y-106669413D01*
X211263364Y-106606399D01*
X211263362Y-106606398D01*
X211263360Y-106606398D01*
X211061963Y-106574500D01*
X211061958Y-106574500D01*
X210858042Y-106574500D01*
X210858037Y-106574500D01*
X210656639Y-106606398D01*
X210462698Y-106669414D01*
X210281009Y-106761989D01*
X210116035Y-106881850D01*
X209971850Y-107026035D01*
X209851989Y-107191009D01*
X209800485Y-107292092D01*
X209752510Y-107342888D01*
X209684689Y-107359683D01*
X209618554Y-107337145D01*
X209579515Y-107292092D01*
X209561972Y-107257662D01*
X209528011Y-107191010D01*
X209408152Y-107026038D01*
X209263962Y-106881848D01*
X209098990Y-106761989D01*
X208917299Y-106669413D01*
X208723364Y-106606399D01*
X208723362Y-106606398D01*
X208723360Y-106606398D01*
X208521963Y-106574500D01*
X208521958Y-106574500D01*
X208318042Y-106574500D01*
X208318037Y-106574500D01*
X208116639Y-106606398D01*
X207922698Y-106669414D01*
X207741009Y-106761989D01*
X207576035Y-106881850D01*
X207431850Y-107026035D01*
X207311989Y-107191009D01*
X207260485Y-107292092D01*
X207212510Y-107342888D01*
X207144689Y-107359683D01*
X207078554Y-107337145D01*
X207039515Y-107292092D01*
X207021972Y-107257662D01*
X206988011Y-107191010D01*
X206868152Y-107026038D01*
X206723962Y-106881848D01*
X206558990Y-106761989D01*
X206377299Y-106669413D01*
X206183364Y-106606399D01*
X206183362Y-106606398D01*
X206183360Y-106606398D01*
X205981963Y-106574500D01*
X205981958Y-106574500D01*
X205778042Y-106574500D01*
X205778037Y-106574500D01*
X205576639Y-106606398D01*
X205382698Y-106669414D01*
X205201009Y-106761989D01*
X205036035Y-106881850D01*
X204891850Y-107026035D01*
X204771989Y-107191009D01*
X204720485Y-107292092D01*
X204672510Y-107342888D01*
X204604689Y-107359683D01*
X204538554Y-107337145D01*
X204499515Y-107292092D01*
X204481972Y-107257662D01*
X204448011Y-107191010D01*
X204328152Y-107026038D01*
X204183962Y-106881848D01*
X204018990Y-106761989D01*
X203837299Y-106669413D01*
X203643364Y-106606399D01*
X203643362Y-106606398D01*
X203643360Y-106606398D01*
X203441963Y-106574500D01*
X203441958Y-106574500D01*
X203238042Y-106574500D01*
X203238037Y-106574500D01*
X203036639Y-106606398D01*
X202842698Y-106669414D01*
X202661009Y-106761989D01*
X202496035Y-106881850D01*
X202351850Y-107026035D01*
X202231989Y-107191009D01*
X202180485Y-107292092D01*
X202132510Y-107342888D01*
X202064689Y-107359683D01*
X201998554Y-107337145D01*
X201959515Y-107292092D01*
X201941972Y-107257662D01*
X201908011Y-107191010D01*
X201788152Y-107026038D01*
X201643962Y-106881848D01*
X201478990Y-106761989D01*
X201297299Y-106669413D01*
X201103364Y-106606399D01*
X201103362Y-106606398D01*
X201103360Y-106606398D01*
X200901963Y-106574500D01*
X200901958Y-106574500D01*
X200698042Y-106574500D01*
X200698037Y-106574500D01*
X200496639Y-106606398D01*
X200302698Y-106669414D01*
X200121009Y-106761989D01*
X199956035Y-106881850D01*
X199811850Y-107026035D01*
X199691989Y-107191009D01*
X199640485Y-107292092D01*
X199592510Y-107342888D01*
X199524689Y-107359683D01*
X199458554Y-107337145D01*
X199419515Y-107292092D01*
X199401972Y-107257662D01*
X199368011Y-107191010D01*
X199248152Y-107026038D01*
X199103962Y-106881848D01*
X198938990Y-106761989D01*
X198757299Y-106669413D01*
X198563364Y-106606399D01*
X198563362Y-106606398D01*
X198563360Y-106606398D01*
X198361963Y-106574500D01*
X198361958Y-106574500D01*
X198158042Y-106574500D01*
X198158037Y-106574500D01*
X197956639Y-106606398D01*
X197762698Y-106669414D01*
X197581009Y-106761989D01*
X197416035Y-106881850D01*
X197271850Y-107026035D01*
X197151989Y-107191009D01*
X197100485Y-107292092D01*
X197052510Y-107342888D01*
X196984689Y-107359683D01*
X196918554Y-107337145D01*
X196879515Y-107292092D01*
X196861972Y-107257662D01*
X196828011Y-107191010D01*
X196708152Y-107026038D01*
X196563962Y-106881848D01*
X196398990Y-106761989D01*
X196217299Y-106669413D01*
X196023364Y-106606399D01*
X196023362Y-106606398D01*
X196023360Y-106606398D01*
X195821963Y-106574500D01*
X195821958Y-106574500D01*
X195618042Y-106574500D01*
X195618037Y-106574500D01*
X195416639Y-106606398D01*
X195222698Y-106669414D01*
X195041009Y-106761989D01*
X194876035Y-106881850D01*
X194731850Y-107026035D01*
X194611989Y-107191009D01*
X194560485Y-107292092D01*
X194512510Y-107342888D01*
X194444689Y-107359683D01*
X194378554Y-107337145D01*
X194339515Y-107292092D01*
X194321972Y-107257662D01*
X194288011Y-107191010D01*
X194168152Y-107026038D01*
X194023962Y-106881848D01*
X193858990Y-106761989D01*
X193677299Y-106669413D01*
X193483364Y-106606399D01*
X193483362Y-106606398D01*
X193483360Y-106606398D01*
X193281963Y-106574500D01*
X193281958Y-106574500D01*
X193078042Y-106574500D01*
X193078037Y-106574500D01*
X192876639Y-106606398D01*
X192682698Y-106669414D01*
X192501009Y-106761989D01*
X192336035Y-106881850D01*
X192191850Y-107026035D01*
X192071989Y-107191009D01*
X192020485Y-107292092D01*
X191972510Y-107342888D01*
X191904689Y-107359683D01*
X191838554Y-107337145D01*
X191799515Y-107292092D01*
X191781972Y-107257662D01*
X191748011Y-107191010D01*
X191628152Y-107026038D01*
X191483962Y-106881848D01*
X191318990Y-106761989D01*
X191137299Y-106669413D01*
X190943364Y-106606399D01*
X190943362Y-106606398D01*
X190943360Y-106606398D01*
X190741963Y-106574500D01*
X190741958Y-106574500D01*
X190538042Y-106574500D01*
X190538037Y-106574500D01*
X190336639Y-106606398D01*
X190142698Y-106669414D01*
X189961009Y-106761989D01*
X189796035Y-106881850D01*
X189651850Y-107026035D01*
X189531989Y-107191009D01*
X189480485Y-107292092D01*
X189432510Y-107342888D01*
X189364689Y-107359683D01*
X189298554Y-107337145D01*
X189259515Y-107292092D01*
X189241972Y-107257662D01*
X189208011Y-107191010D01*
X189088152Y-107026038D01*
X188943962Y-106881848D01*
X188778990Y-106761989D01*
X188597299Y-106669413D01*
X188403364Y-106606399D01*
X188403362Y-106606398D01*
X188403360Y-106606398D01*
X188201963Y-106574500D01*
X188201958Y-106574500D01*
X187998042Y-106574500D01*
X187998037Y-106574500D01*
X187796639Y-106606398D01*
X187602698Y-106669414D01*
X187421009Y-106761989D01*
X187256035Y-106881850D01*
X187111850Y-107026035D01*
X186991989Y-107191009D01*
X186940485Y-107292092D01*
X186892510Y-107342888D01*
X186824689Y-107359683D01*
X186758554Y-107337145D01*
X186719515Y-107292092D01*
X186701972Y-107257662D01*
X186668011Y-107191010D01*
X186548152Y-107026038D01*
X186403962Y-106881848D01*
X186238990Y-106761989D01*
X186057299Y-106669413D01*
X185863364Y-106606399D01*
X185863362Y-106606398D01*
X185863360Y-106606398D01*
X185661963Y-106574500D01*
X185661958Y-106574500D01*
X185458042Y-106574500D01*
X185458037Y-106574500D01*
X185256639Y-106606398D01*
X185062698Y-106669414D01*
X184881009Y-106761989D01*
X184716035Y-106881850D01*
X184571850Y-107026035D01*
X184451989Y-107191009D01*
X184400485Y-107292092D01*
X184352510Y-107342888D01*
X184284689Y-107359683D01*
X184218554Y-107337145D01*
X184179515Y-107292092D01*
X184161972Y-107257662D01*
X184128011Y-107191010D01*
X184008152Y-107026038D01*
X183863962Y-106881848D01*
X183698990Y-106761989D01*
X183517299Y-106669413D01*
X183323364Y-106606399D01*
X183323362Y-106606398D01*
X183323360Y-106606398D01*
X183121963Y-106574500D01*
X183121958Y-106574500D01*
X182918042Y-106574500D01*
X182918037Y-106574500D01*
X182716639Y-106606398D01*
X182522698Y-106669414D01*
X182341009Y-106761989D01*
X182176035Y-106881850D01*
X182031850Y-107026035D01*
X181911989Y-107191009D01*
X181860485Y-107292092D01*
X181812510Y-107342888D01*
X181744689Y-107359683D01*
X181678554Y-107337145D01*
X181639515Y-107292092D01*
X181621972Y-107257662D01*
X181588011Y-107191010D01*
X181468152Y-107026038D01*
X181323962Y-106881848D01*
X181158990Y-106761989D01*
X180977299Y-106669413D01*
X180783364Y-106606399D01*
X180783362Y-106606398D01*
X180783360Y-106606398D01*
X180581963Y-106574500D01*
X180581958Y-106574500D01*
X180378042Y-106574500D01*
X180378037Y-106574500D01*
X180176639Y-106606398D01*
X179982698Y-106669414D01*
X179801009Y-106761989D01*
X179636035Y-106881850D01*
X179491850Y-107026035D01*
X179371989Y-107191009D01*
X179320485Y-107292092D01*
X179272510Y-107342888D01*
X179204689Y-107359683D01*
X179138554Y-107337145D01*
X179099515Y-107292092D01*
X179081972Y-107257662D01*
X179048011Y-107191010D01*
X178928152Y-107026038D01*
X178783962Y-106881848D01*
X178618990Y-106761989D01*
X178437299Y-106669413D01*
X178243364Y-106606399D01*
X178243362Y-106606398D01*
X178243360Y-106606398D01*
X178041963Y-106574500D01*
X178041958Y-106574500D01*
X177838042Y-106574500D01*
X177838037Y-106574500D01*
X177636639Y-106606398D01*
X177442698Y-106669414D01*
X177261009Y-106761989D01*
X177096035Y-106881850D01*
X176951850Y-107026035D01*
X176831989Y-107191009D01*
X176739414Y-107372698D01*
X176676398Y-107566639D01*
X176644500Y-107768036D01*
X170313960Y-107768036D01*
X170351630Y-107652097D01*
X170385500Y-107438254D01*
X170385500Y-107221746D01*
X170351630Y-107007903D01*
X170318178Y-106904947D01*
X170284727Y-106801993D01*
X170284726Y-106801990D01*
X170186432Y-106609080D01*
X170184484Y-106606399D01*
X170059172Y-106433922D01*
X169906078Y-106280828D01*
X169730919Y-106153567D01*
X169538009Y-106055273D01*
X169538006Y-106055272D01*
X169332098Y-105988370D01*
X169225175Y-105971435D01*
X169118254Y-105954500D01*
X168901746Y-105954500D01*
X168830465Y-105965790D01*
X168687901Y-105988370D01*
X168481993Y-106055272D01*
X168481990Y-106055273D01*
X168289080Y-106153567D01*
X168189145Y-106226174D01*
X168113922Y-106280828D01*
X168113920Y-106280830D01*
X168113919Y-106280830D01*
X167960830Y-106433919D01*
X167960830Y-106433920D01*
X167960828Y-106433922D01*
X167906174Y-106509145D01*
X167833567Y-106609080D01*
X167735273Y-106801990D01*
X167735272Y-106801993D01*
X167668370Y-107007901D01*
X167634500Y-107221746D01*
X150500500Y-107221746D01*
X150500500Y-96796153D01*
X179574500Y-96796153D01*
X179574500Y-96953846D01*
X179605261Y-97108489D01*
X179605264Y-97108501D01*
X179665602Y-97254172D01*
X179665609Y-97254185D01*
X179753210Y-97385288D01*
X179753213Y-97385292D01*
X179864707Y-97496786D01*
X179864711Y-97496789D01*
X179995814Y-97584390D01*
X179995827Y-97584397D01*
X180095060Y-97625500D01*
X180141503Y-97644737D01*
X180296153Y-97675499D01*
X180296156Y-97675500D01*
X180296158Y-97675500D01*
X180453844Y-97675500D01*
X180453845Y-97675499D01*
X180530152Y-97660320D01*
X180608488Y-97644739D01*
X180608489Y-97644738D01*
X180608497Y-97644737D01*
X180632155Y-97634937D01*
X180640329Y-97633311D01*
X180644669Y-97630523D01*
X180679604Y-97625500D01*
X180762770Y-97625500D01*
X180829809Y-97645185D01*
X180850451Y-97661819D01*
X181963181Y-98774549D01*
X181996666Y-98835872D01*
X181999500Y-98862230D01*
X181999500Y-99195396D01*
X181990062Y-99242844D01*
X181980263Y-99266503D01*
X181980262Y-99266506D01*
X181980260Y-99266511D01*
X181949500Y-99421153D01*
X181949500Y-99578846D01*
X181980261Y-99733489D01*
X181980264Y-99733501D01*
X182040602Y-99879172D01*
X182040609Y-99879185D01*
X182128210Y-100010288D01*
X182128213Y-100010292D01*
X182239707Y-100121786D01*
X182239711Y-100121789D01*
X182370814Y-100209390D01*
X182370827Y-100209397D01*
X182516498Y-100269735D01*
X182516503Y-100269737D01*
X182671153Y-100300499D01*
X182671156Y-100300500D01*
X182671158Y-100300500D01*
X182828844Y-100300500D01*
X182828845Y-100300499D01*
X182983497Y-100269737D01*
X183129179Y-100209394D01*
X183260289Y-100121789D01*
X183371789Y-100010289D01*
X183459394Y-99879179D01*
X183519737Y-99733497D01*
X183550500Y-99578842D01*
X183550500Y-99421158D01*
X183550500Y-99421155D01*
X183550499Y-99421153D01*
X183519739Y-99266511D01*
X183519738Y-99266508D01*
X183519737Y-99266503D01*
X183509937Y-99242844D01*
X183500500Y-99195396D01*
X183500500Y-98426079D01*
X183471659Y-98281092D01*
X183471658Y-98281091D01*
X183471658Y-98281087D01*
X183415084Y-98144505D01*
X183382186Y-98095270D01*
X183382185Y-98095268D01*
X183332956Y-98021589D01*
X183332952Y-98021584D01*
X181603421Y-96292052D01*
X181603414Y-96292046D01*
X181529729Y-96242812D01*
X181529729Y-96242813D01*
X181480491Y-96209913D01*
X181343917Y-96153343D01*
X181343907Y-96153340D01*
X181198920Y-96124500D01*
X181198918Y-96124500D01*
X180679604Y-96124500D01*
X180632155Y-96115062D01*
X180608497Y-96105263D01*
X180608493Y-96105262D01*
X180608488Y-96105260D01*
X180453845Y-96074500D01*
X180453842Y-96074500D01*
X180296158Y-96074500D01*
X180296155Y-96074500D01*
X180141510Y-96105261D01*
X180141498Y-96105264D01*
X179995827Y-96165602D01*
X179995814Y-96165609D01*
X179864711Y-96253210D01*
X179864707Y-96253213D01*
X179753213Y-96364707D01*
X179753210Y-96364711D01*
X179665609Y-96495814D01*
X179665602Y-96495827D01*
X179605264Y-96641498D01*
X179605261Y-96641510D01*
X179574500Y-96796153D01*
X150500500Y-96796153D01*
X150500500Y-93206333D01*
X169374500Y-93206333D01*
X169374500Y-93475128D01*
X169409582Y-93741611D01*
X169409583Y-93741616D01*
X169409584Y-93741622D01*
X169409585Y-93741624D01*
X169479152Y-94001255D01*
X169582011Y-94249581D01*
X169582019Y-94249597D01*
X169662830Y-94389563D01*
X169716413Y-94482372D01*
X169716415Y-94482375D01*
X169716416Y-94482376D01*
X169880042Y-94695619D01*
X169880048Y-94695626D01*
X170070104Y-94885682D01*
X170070110Y-94885687D01*
X170283359Y-95049318D01*
X170432968Y-95135695D01*
X170516133Y-95183711D01*
X170516149Y-95183719D01*
X170671008Y-95247863D01*
X170764474Y-95286578D01*
X171024109Y-95356147D01*
X171212319Y-95380924D01*
X171290602Y-95391231D01*
X171290603Y-95391231D01*
X171559398Y-95391231D01*
X171619905Y-95383265D01*
X171825891Y-95356147D01*
X172085526Y-95286578D01*
X172272457Y-95209148D01*
X172333850Y-95183719D01*
X172333853Y-95183717D01*
X172333859Y-95183715D01*
X172566641Y-95049318D01*
X172779890Y-94885687D01*
X172969956Y-94695621D01*
X173133587Y-94482372D01*
X173267984Y-94249590D01*
X173370847Y-94001257D01*
X173440416Y-93741622D01*
X173475500Y-93475128D01*
X173475500Y-93206334D01*
X173440416Y-92939840D01*
X173417447Y-92854120D01*
X177279500Y-92854120D01*
X177279500Y-93827342D01*
X177306598Y-93998432D01*
X177360127Y-94163176D01*
X177438768Y-94317519D01*
X177540586Y-94457659D01*
X177663072Y-94580145D01*
X177803212Y-94681963D01*
X177957555Y-94760604D01*
X178122299Y-94814133D01*
X178293389Y-94841231D01*
X178293390Y-94841231D01*
X178466610Y-94841231D01*
X178466611Y-94841231D01*
X178637701Y-94814133D01*
X178802445Y-94760604D01*
X178956788Y-94681963D01*
X179096928Y-94580145D01*
X179219414Y-94457659D01*
X179321232Y-94317519D01*
X179399873Y-94163176D01*
X179453402Y-93998432D01*
X179480500Y-93827342D01*
X179480500Y-92854120D01*
X179819500Y-92854120D01*
X179819500Y-93827342D01*
X179846598Y-93998432D01*
X179900127Y-94163176D01*
X179978768Y-94317519D01*
X180080586Y-94457659D01*
X180203072Y-94580145D01*
X180343212Y-94681963D01*
X180497555Y-94760604D01*
X180662299Y-94814133D01*
X180833389Y-94841231D01*
X180833390Y-94841231D01*
X181006610Y-94841231D01*
X181006611Y-94841231D01*
X181177701Y-94814133D01*
X181342445Y-94760604D01*
X181496788Y-94681963D01*
X181636928Y-94580145D01*
X181759414Y-94457659D01*
X181861232Y-94317519D01*
X181939873Y-94163176D01*
X181993402Y-93998432D01*
X182020500Y-93827342D01*
X182020500Y-92854120D01*
X182359500Y-92854120D01*
X182359500Y-93827342D01*
X182386598Y-93998432D01*
X182440127Y-94163176D01*
X182518768Y-94317519D01*
X182620586Y-94457659D01*
X182743072Y-94580145D01*
X182883212Y-94681963D01*
X183037555Y-94760604D01*
X183202299Y-94814133D01*
X183373389Y-94841231D01*
X183373390Y-94841231D01*
X183546610Y-94841231D01*
X183546611Y-94841231D01*
X183717701Y-94814133D01*
X183882445Y-94760604D01*
X184036788Y-94681963D01*
X184176928Y-94580145D01*
X184299414Y-94457659D01*
X184401232Y-94317519D01*
X184479873Y-94163176D01*
X184533402Y-93998432D01*
X184560500Y-93827342D01*
X184560500Y-92854120D01*
X184929500Y-92854120D01*
X184929500Y-93827342D01*
X184956598Y-93998432D01*
X185010127Y-94163176D01*
X185088768Y-94317519D01*
X185190586Y-94457659D01*
X185313072Y-94580145D01*
X185453212Y-94681963D01*
X185607555Y-94760604D01*
X185772299Y-94814133D01*
X185943389Y-94841231D01*
X185943390Y-94841231D01*
X186116610Y-94841231D01*
X186116611Y-94841231D01*
X186287701Y-94814133D01*
X186452445Y-94760604D01*
X186606788Y-94681963D01*
X186746928Y-94580145D01*
X186869414Y-94457659D01*
X186971232Y-94317519D01*
X187049873Y-94163176D01*
X187103402Y-93998432D01*
X187130500Y-93827342D01*
X187130500Y-92854120D01*
X187469500Y-92854120D01*
X187469500Y-93827342D01*
X187496598Y-93998432D01*
X187550127Y-94163176D01*
X187628768Y-94317519D01*
X187730586Y-94457659D01*
X187853072Y-94580145D01*
X187993212Y-94681963D01*
X188147555Y-94760604D01*
X188312299Y-94814133D01*
X188483389Y-94841231D01*
X188483390Y-94841231D01*
X188656610Y-94841231D01*
X188656611Y-94841231D01*
X188827701Y-94814133D01*
X188992445Y-94760604D01*
X189146788Y-94681963D01*
X189286928Y-94580145D01*
X189409414Y-94457659D01*
X189511232Y-94317519D01*
X189589873Y-94163176D01*
X189643402Y-93998432D01*
X189670500Y-93827342D01*
X189670500Y-92854120D01*
X190009500Y-92854120D01*
X190009500Y-93827342D01*
X190036598Y-93998432D01*
X190090127Y-94163176D01*
X190168768Y-94317519D01*
X190270586Y-94457659D01*
X190393072Y-94580145D01*
X190533212Y-94681963D01*
X190687555Y-94760604D01*
X190852299Y-94814133D01*
X191023389Y-94841231D01*
X191023390Y-94841231D01*
X191196610Y-94841231D01*
X191196611Y-94841231D01*
X191367701Y-94814133D01*
X191532445Y-94760604D01*
X191686788Y-94681963D01*
X191826928Y-94580145D01*
X191949414Y-94457659D01*
X192051232Y-94317519D01*
X192129873Y-94163176D01*
X192183402Y-93998432D01*
X192210500Y-93827342D01*
X192210500Y-92854120D01*
X192549500Y-92854120D01*
X192549500Y-93827342D01*
X192576598Y-93998432D01*
X192630127Y-94163176D01*
X192708768Y-94317519D01*
X192810586Y-94457659D01*
X192933072Y-94580145D01*
X193073212Y-94681963D01*
X193227555Y-94760604D01*
X193392299Y-94814133D01*
X193563389Y-94841231D01*
X193563390Y-94841231D01*
X193736610Y-94841231D01*
X193736611Y-94841231D01*
X193907701Y-94814133D01*
X194072445Y-94760604D01*
X194226788Y-94681963D01*
X194366928Y-94580145D01*
X194489414Y-94457659D01*
X194591232Y-94317519D01*
X194669873Y-94163176D01*
X194723402Y-93998432D01*
X194750500Y-93827342D01*
X194750500Y-92854120D01*
X195099500Y-92854120D01*
X195099500Y-93827342D01*
X195126598Y-93998432D01*
X195180127Y-94163176D01*
X195258768Y-94317519D01*
X195360586Y-94457659D01*
X195483072Y-94580145D01*
X195623212Y-94681963D01*
X195777555Y-94760604D01*
X195942299Y-94814133D01*
X196113389Y-94841231D01*
X196113390Y-94841231D01*
X196286610Y-94841231D01*
X196286611Y-94841231D01*
X196457701Y-94814133D01*
X196622445Y-94760604D01*
X196776788Y-94681963D01*
X196916928Y-94580145D01*
X197039414Y-94457659D01*
X197141232Y-94317519D01*
X197219873Y-94163176D01*
X197273402Y-93998432D01*
X197300500Y-93827342D01*
X197300500Y-92854120D01*
X197629500Y-92854120D01*
X197629500Y-93827342D01*
X197656598Y-93998432D01*
X197710127Y-94163176D01*
X197788768Y-94317519D01*
X197890586Y-94457659D01*
X198013072Y-94580145D01*
X198153212Y-94681963D01*
X198307555Y-94760604D01*
X198472299Y-94814133D01*
X198643389Y-94841231D01*
X198643390Y-94841231D01*
X198816610Y-94841231D01*
X198816611Y-94841231D01*
X198987701Y-94814133D01*
X199152445Y-94760604D01*
X199306788Y-94681963D01*
X199446928Y-94580145D01*
X199569414Y-94457659D01*
X199671232Y-94317519D01*
X199749873Y-94163176D01*
X199803402Y-93998432D01*
X199830500Y-93827342D01*
X199830500Y-92854120D01*
X200169500Y-92854120D01*
X200169500Y-93827342D01*
X200196598Y-93998432D01*
X200250127Y-94163176D01*
X200328768Y-94317519D01*
X200430586Y-94457659D01*
X200553072Y-94580145D01*
X200693212Y-94681963D01*
X200847555Y-94760604D01*
X201012299Y-94814133D01*
X201183389Y-94841231D01*
X201183390Y-94841231D01*
X201356610Y-94841231D01*
X201356611Y-94841231D01*
X201527701Y-94814133D01*
X201692445Y-94760604D01*
X201846788Y-94681963D01*
X201986928Y-94580145D01*
X202109414Y-94457659D01*
X202211232Y-94317519D01*
X202289873Y-94163176D01*
X202343402Y-93998432D01*
X202370500Y-93827342D01*
X202370500Y-92854120D01*
X202709500Y-92854120D01*
X202709500Y-93827342D01*
X202736598Y-93998432D01*
X202790127Y-94163176D01*
X202868768Y-94317519D01*
X202970586Y-94457659D01*
X203093072Y-94580145D01*
X203233212Y-94681963D01*
X203387555Y-94760604D01*
X203552299Y-94814133D01*
X203723389Y-94841231D01*
X203723390Y-94841231D01*
X203896610Y-94841231D01*
X203896611Y-94841231D01*
X204067701Y-94814133D01*
X204232445Y-94760604D01*
X204386788Y-94681963D01*
X204526928Y-94580145D01*
X204649414Y-94457659D01*
X204751232Y-94317519D01*
X204829873Y-94163176D01*
X204883402Y-93998432D01*
X204910500Y-93827342D01*
X204910500Y-92854120D01*
X205249500Y-92854120D01*
X205249500Y-93827342D01*
X205276598Y-93998432D01*
X205330127Y-94163176D01*
X205408768Y-94317519D01*
X205510586Y-94457659D01*
X205633072Y-94580145D01*
X205773212Y-94681963D01*
X205927555Y-94760604D01*
X206092299Y-94814133D01*
X206263389Y-94841231D01*
X206263390Y-94841231D01*
X206436610Y-94841231D01*
X206436611Y-94841231D01*
X206607701Y-94814133D01*
X206772445Y-94760604D01*
X206926788Y-94681963D01*
X207066928Y-94580145D01*
X207189414Y-94457659D01*
X207291232Y-94317519D01*
X207369873Y-94163176D01*
X207423402Y-93998432D01*
X207450500Y-93827342D01*
X207450500Y-92854120D01*
X207789500Y-92854120D01*
X207789500Y-93827342D01*
X207816598Y-93998432D01*
X207870127Y-94163176D01*
X207948768Y-94317519D01*
X208050586Y-94457659D01*
X208173072Y-94580145D01*
X208313212Y-94681963D01*
X208467555Y-94760604D01*
X208632299Y-94814133D01*
X208803389Y-94841231D01*
X208803390Y-94841231D01*
X208976610Y-94841231D01*
X208976611Y-94841231D01*
X209147701Y-94814133D01*
X209312445Y-94760604D01*
X209466788Y-94681963D01*
X209606928Y-94580145D01*
X209729414Y-94457659D01*
X209831232Y-94317519D01*
X209909873Y-94163176D01*
X209963402Y-93998432D01*
X209990500Y-93827342D01*
X209990500Y-92854120D01*
X210329500Y-92854120D01*
X210329500Y-93827342D01*
X210356598Y-93998432D01*
X210410127Y-94163176D01*
X210488768Y-94317519D01*
X210590586Y-94457659D01*
X210713072Y-94580145D01*
X210853212Y-94681963D01*
X211007555Y-94760604D01*
X211172299Y-94814133D01*
X211343389Y-94841231D01*
X211343390Y-94841231D01*
X211516610Y-94841231D01*
X211516611Y-94841231D01*
X211687701Y-94814133D01*
X211852445Y-94760604D01*
X212006788Y-94681963D01*
X212146928Y-94580145D01*
X212269414Y-94457659D01*
X212371232Y-94317519D01*
X212449873Y-94163176D01*
X212503402Y-93998432D01*
X212530500Y-93827342D01*
X212530500Y-92854120D01*
X212869500Y-92854120D01*
X212869500Y-93827342D01*
X212896598Y-93998432D01*
X212950127Y-94163176D01*
X213028768Y-94317519D01*
X213130586Y-94457659D01*
X213253072Y-94580145D01*
X213393212Y-94681963D01*
X213547555Y-94760604D01*
X213712299Y-94814133D01*
X213883389Y-94841231D01*
X213883390Y-94841231D01*
X214056610Y-94841231D01*
X214056611Y-94841231D01*
X214227701Y-94814133D01*
X214392445Y-94760604D01*
X214546788Y-94681963D01*
X214686928Y-94580145D01*
X214809414Y-94457659D01*
X214911232Y-94317519D01*
X214989873Y-94163176D01*
X215043402Y-93998432D01*
X215070500Y-93827342D01*
X215070500Y-92854120D01*
X215439500Y-92854120D01*
X215439500Y-93827342D01*
X215466598Y-93998432D01*
X215520127Y-94163176D01*
X215598768Y-94317519D01*
X215700586Y-94457659D01*
X215823072Y-94580145D01*
X215963212Y-94681963D01*
X216117555Y-94760604D01*
X216282299Y-94814133D01*
X216453389Y-94841231D01*
X216453390Y-94841231D01*
X216626610Y-94841231D01*
X216626611Y-94841231D01*
X216797701Y-94814133D01*
X216962445Y-94760604D01*
X217116788Y-94681963D01*
X217256928Y-94580145D01*
X217379414Y-94457659D01*
X217481232Y-94317519D01*
X217559873Y-94163176D01*
X217613402Y-93998432D01*
X217640500Y-93827342D01*
X217640500Y-92854120D01*
X217979500Y-92854120D01*
X217979500Y-93827342D01*
X218006598Y-93998432D01*
X218060127Y-94163176D01*
X218138768Y-94317519D01*
X218240586Y-94457659D01*
X218363072Y-94580145D01*
X218503212Y-94681963D01*
X218657555Y-94760604D01*
X218822299Y-94814133D01*
X218993389Y-94841231D01*
X218993390Y-94841231D01*
X219166610Y-94841231D01*
X219166611Y-94841231D01*
X219337701Y-94814133D01*
X219502445Y-94760604D01*
X219656788Y-94681963D01*
X219796928Y-94580145D01*
X219919414Y-94457659D01*
X220021232Y-94317519D01*
X220099873Y-94163176D01*
X220153402Y-93998432D01*
X220180500Y-93827342D01*
X220180500Y-92854120D01*
X220519500Y-92854120D01*
X220519500Y-93827342D01*
X220546598Y-93998432D01*
X220600127Y-94163176D01*
X220678768Y-94317519D01*
X220780586Y-94457659D01*
X220903072Y-94580145D01*
X221043212Y-94681963D01*
X221197555Y-94760604D01*
X221362299Y-94814133D01*
X221533389Y-94841231D01*
X221533390Y-94841231D01*
X221706610Y-94841231D01*
X221706611Y-94841231D01*
X221877701Y-94814133D01*
X222042445Y-94760604D01*
X222196788Y-94681963D01*
X222336928Y-94580145D01*
X222459414Y-94457659D01*
X222561232Y-94317519D01*
X222639873Y-94163176D01*
X222693402Y-93998432D01*
X222720500Y-93827342D01*
X222720500Y-92854120D01*
X223599500Y-92854120D01*
X223599500Y-93827342D01*
X223626598Y-93998432D01*
X223680127Y-94163176D01*
X223758768Y-94317519D01*
X223860586Y-94457659D01*
X223983072Y-94580145D01*
X224123212Y-94681963D01*
X224277555Y-94760604D01*
X224442299Y-94814133D01*
X224613389Y-94841231D01*
X224613390Y-94841231D01*
X224786610Y-94841231D01*
X224786611Y-94841231D01*
X224957701Y-94814133D01*
X225122445Y-94760604D01*
X225276788Y-94681963D01*
X225416928Y-94580145D01*
X225539414Y-94457659D01*
X225641232Y-94317519D01*
X225719873Y-94163176D01*
X225773402Y-93998432D01*
X225800500Y-93827342D01*
X225800500Y-93206333D01*
X226524500Y-93206333D01*
X226524500Y-93475128D01*
X226559582Y-93741611D01*
X226559583Y-93741616D01*
X226559584Y-93741622D01*
X226559585Y-93741624D01*
X226629152Y-94001255D01*
X226732011Y-94249581D01*
X226732019Y-94249597D01*
X226812830Y-94389563D01*
X226866413Y-94482372D01*
X226866415Y-94482375D01*
X226866416Y-94482376D01*
X227030042Y-94695619D01*
X227030048Y-94695626D01*
X227220104Y-94885682D01*
X227220110Y-94885687D01*
X227433359Y-95049318D01*
X227582968Y-95135695D01*
X227666133Y-95183711D01*
X227666149Y-95183719D01*
X227821008Y-95247863D01*
X227914474Y-95286578D01*
X228174109Y-95356147D01*
X228362319Y-95380924D01*
X228440602Y-95391231D01*
X228440603Y-95391231D01*
X228709398Y-95391231D01*
X228769905Y-95383265D01*
X228975891Y-95356147D01*
X229235526Y-95286578D01*
X229422457Y-95209148D01*
X229483850Y-95183719D01*
X229483853Y-95183717D01*
X229483859Y-95183715D01*
X229716641Y-95049318D01*
X229929890Y-94885687D01*
X230119956Y-94695621D01*
X230283587Y-94482372D01*
X230417984Y-94249590D01*
X230520847Y-94001257D01*
X230590416Y-93741622D01*
X230625500Y-93475128D01*
X230625500Y-93206334D01*
X230590416Y-92939840D01*
X230520847Y-92680205D01*
X230453777Y-92518283D01*
X230417988Y-92431880D01*
X230417980Y-92431864D01*
X230369964Y-92348699D01*
X230283587Y-92199090D01*
X230119956Y-91985841D01*
X230119951Y-91985835D01*
X229929895Y-91795779D01*
X229929888Y-91795773D01*
X229716645Y-91632147D01*
X229716644Y-91632146D01*
X229716641Y-91632144D01*
X229623832Y-91578561D01*
X229483866Y-91497750D01*
X229483850Y-91497742D01*
X229235524Y-91394883D01*
X229105708Y-91360099D01*
X228975891Y-91325315D01*
X228975885Y-91325314D01*
X228975880Y-91325313D01*
X228709398Y-91290231D01*
X228709397Y-91290231D01*
X228440603Y-91290231D01*
X228440602Y-91290231D01*
X228174119Y-91325313D01*
X228174112Y-91325314D01*
X228174109Y-91325315D01*
X228119239Y-91340017D01*
X227914475Y-91394883D01*
X227666149Y-91497742D01*
X227666133Y-91497750D01*
X227433354Y-91632147D01*
X227220111Y-91795773D01*
X227220104Y-91795779D01*
X227030048Y-91985835D01*
X227030042Y-91985842D01*
X226866416Y-92199085D01*
X226732019Y-92431864D01*
X226732011Y-92431880D01*
X226629152Y-92680206D01*
X226559585Y-92939837D01*
X226559582Y-92939850D01*
X226524500Y-93206333D01*
X225800500Y-93206333D01*
X225800500Y-92854120D01*
X225773402Y-92683030D01*
X225719873Y-92518286D01*
X225641232Y-92363943D01*
X225539414Y-92223803D01*
X225416928Y-92101317D01*
X225276788Y-91999499D01*
X225122445Y-91920858D01*
X224957701Y-91867329D01*
X224957699Y-91867328D01*
X224957698Y-91867328D01*
X224826271Y-91846512D01*
X224786611Y-91840231D01*
X224613389Y-91840231D01*
X224573728Y-91846512D01*
X224442302Y-91867328D01*
X224277552Y-91920859D01*
X224123211Y-91999499D01*
X224043256Y-92057590D01*
X223983072Y-92101317D01*
X223983070Y-92101319D01*
X223983069Y-92101319D01*
X223860588Y-92223800D01*
X223860588Y-92223801D01*
X223860586Y-92223803D01*
X223816859Y-92283987D01*
X223758768Y-92363942D01*
X223680128Y-92518283D01*
X223626597Y-92683033D01*
X223599500Y-92854120D01*
X222720500Y-92854120D01*
X222693402Y-92683030D01*
X222639873Y-92518286D01*
X222561232Y-92363943D01*
X222459414Y-92223803D01*
X222336928Y-92101317D01*
X222196788Y-91999499D01*
X222042445Y-91920858D01*
X221877701Y-91867329D01*
X221877699Y-91867328D01*
X221877698Y-91867328D01*
X221746271Y-91846512D01*
X221706611Y-91840231D01*
X221533389Y-91840231D01*
X221493728Y-91846512D01*
X221362302Y-91867328D01*
X221197552Y-91920859D01*
X221043211Y-91999499D01*
X220963256Y-92057590D01*
X220903072Y-92101317D01*
X220903070Y-92101319D01*
X220903069Y-92101319D01*
X220780588Y-92223800D01*
X220780588Y-92223801D01*
X220780586Y-92223803D01*
X220736859Y-92283987D01*
X220678768Y-92363942D01*
X220600128Y-92518283D01*
X220546597Y-92683033D01*
X220519500Y-92854120D01*
X220180500Y-92854120D01*
X220153402Y-92683030D01*
X220099873Y-92518286D01*
X220021232Y-92363943D01*
X219919414Y-92223803D01*
X219796928Y-92101317D01*
X219656788Y-91999499D01*
X219502445Y-91920858D01*
X219337701Y-91867329D01*
X219337699Y-91867328D01*
X219337698Y-91867328D01*
X219206271Y-91846512D01*
X219166611Y-91840231D01*
X218993389Y-91840231D01*
X218953728Y-91846512D01*
X218822302Y-91867328D01*
X218657552Y-91920859D01*
X218503211Y-91999499D01*
X218423256Y-92057590D01*
X218363072Y-92101317D01*
X218363070Y-92101319D01*
X218363069Y-92101319D01*
X218240588Y-92223800D01*
X218240588Y-92223801D01*
X218240586Y-92223803D01*
X218196859Y-92283987D01*
X218138768Y-92363942D01*
X218060128Y-92518283D01*
X218006597Y-92683033D01*
X217979500Y-92854120D01*
X217640500Y-92854120D01*
X217613402Y-92683030D01*
X217559873Y-92518286D01*
X217481232Y-92363943D01*
X217379414Y-92223803D01*
X217256928Y-92101317D01*
X217116788Y-91999499D01*
X216962445Y-91920858D01*
X216797701Y-91867329D01*
X216797699Y-91867328D01*
X216797698Y-91867328D01*
X216666271Y-91846512D01*
X216626611Y-91840231D01*
X216453389Y-91840231D01*
X216413728Y-91846512D01*
X216282302Y-91867328D01*
X216117552Y-91920859D01*
X215963211Y-91999499D01*
X215883256Y-92057590D01*
X215823072Y-92101317D01*
X215823070Y-92101319D01*
X215823069Y-92101319D01*
X215700588Y-92223800D01*
X215700588Y-92223801D01*
X215700586Y-92223803D01*
X215656859Y-92283987D01*
X215598768Y-92363942D01*
X215520128Y-92518283D01*
X215466597Y-92683033D01*
X215439500Y-92854120D01*
X215070500Y-92854120D01*
X215043402Y-92683030D01*
X214989873Y-92518286D01*
X214911232Y-92363943D01*
X214809414Y-92223803D01*
X214686928Y-92101317D01*
X214546788Y-91999499D01*
X214392445Y-91920858D01*
X214227701Y-91867329D01*
X214227699Y-91867328D01*
X214227698Y-91867328D01*
X214096271Y-91846512D01*
X214056611Y-91840231D01*
X213883389Y-91840231D01*
X213843728Y-91846512D01*
X213712302Y-91867328D01*
X213547552Y-91920859D01*
X213393211Y-91999499D01*
X213313256Y-92057590D01*
X213253072Y-92101317D01*
X213253070Y-92101319D01*
X213253069Y-92101319D01*
X213130588Y-92223800D01*
X213130588Y-92223801D01*
X213130586Y-92223803D01*
X213086859Y-92283987D01*
X213028768Y-92363942D01*
X212950128Y-92518283D01*
X212896597Y-92683033D01*
X212869500Y-92854120D01*
X212530500Y-92854120D01*
X212503402Y-92683030D01*
X212449873Y-92518286D01*
X212371232Y-92363943D01*
X212269414Y-92223803D01*
X212146928Y-92101317D01*
X212006788Y-91999499D01*
X211852445Y-91920858D01*
X211687701Y-91867329D01*
X211687699Y-91867328D01*
X211687698Y-91867328D01*
X211556271Y-91846512D01*
X211516611Y-91840231D01*
X211343389Y-91840231D01*
X211303728Y-91846512D01*
X211172302Y-91867328D01*
X211007552Y-91920859D01*
X210853211Y-91999499D01*
X210773256Y-92057590D01*
X210713072Y-92101317D01*
X210713070Y-92101319D01*
X210713069Y-92101319D01*
X210590588Y-92223800D01*
X210590588Y-92223801D01*
X210590586Y-92223803D01*
X210546859Y-92283987D01*
X210488768Y-92363942D01*
X210410128Y-92518283D01*
X210356597Y-92683033D01*
X210329500Y-92854120D01*
X209990500Y-92854120D01*
X209963402Y-92683030D01*
X209909873Y-92518286D01*
X209831232Y-92363943D01*
X209729414Y-92223803D01*
X209606928Y-92101317D01*
X209466788Y-91999499D01*
X209312445Y-91920858D01*
X209147701Y-91867329D01*
X209147699Y-91867328D01*
X209147698Y-91867328D01*
X209016271Y-91846512D01*
X208976611Y-91840231D01*
X208803389Y-91840231D01*
X208763728Y-91846512D01*
X208632302Y-91867328D01*
X208467552Y-91920859D01*
X208313211Y-91999499D01*
X208233256Y-92057590D01*
X208173072Y-92101317D01*
X208173070Y-92101319D01*
X208173069Y-92101319D01*
X208050588Y-92223800D01*
X208050588Y-92223801D01*
X208050586Y-92223803D01*
X208006859Y-92283987D01*
X207948768Y-92363942D01*
X207870128Y-92518283D01*
X207816597Y-92683033D01*
X207789500Y-92854120D01*
X207450500Y-92854120D01*
X207423402Y-92683030D01*
X207369873Y-92518286D01*
X207291232Y-92363943D01*
X207189414Y-92223803D01*
X207066928Y-92101317D01*
X206926788Y-91999499D01*
X206772445Y-91920858D01*
X206607701Y-91867329D01*
X206607699Y-91867328D01*
X206607698Y-91867328D01*
X206476271Y-91846512D01*
X206436611Y-91840231D01*
X206263389Y-91840231D01*
X206223728Y-91846512D01*
X206092302Y-91867328D01*
X205927552Y-91920859D01*
X205773211Y-91999499D01*
X205693256Y-92057590D01*
X205633072Y-92101317D01*
X205633070Y-92101319D01*
X205633069Y-92101319D01*
X205510588Y-92223800D01*
X205510588Y-92223801D01*
X205510586Y-92223803D01*
X205466859Y-92283987D01*
X205408768Y-92363942D01*
X205330128Y-92518283D01*
X205276597Y-92683033D01*
X205249500Y-92854120D01*
X204910500Y-92854120D01*
X204883402Y-92683030D01*
X204829873Y-92518286D01*
X204751232Y-92363943D01*
X204649414Y-92223803D01*
X204526928Y-92101317D01*
X204386788Y-91999499D01*
X204232445Y-91920858D01*
X204067701Y-91867329D01*
X204067699Y-91867328D01*
X204067698Y-91867328D01*
X203936271Y-91846512D01*
X203896611Y-91840231D01*
X203723389Y-91840231D01*
X203683728Y-91846512D01*
X203552302Y-91867328D01*
X203387552Y-91920859D01*
X203233211Y-91999499D01*
X203153256Y-92057590D01*
X203093072Y-92101317D01*
X203093070Y-92101319D01*
X203093069Y-92101319D01*
X202970588Y-92223800D01*
X202970588Y-92223801D01*
X202970586Y-92223803D01*
X202926859Y-92283987D01*
X202868768Y-92363942D01*
X202790128Y-92518283D01*
X202736597Y-92683033D01*
X202709500Y-92854120D01*
X202370500Y-92854120D01*
X202343402Y-92683030D01*
X202289873Y-92518286D01*
X202211232Y-92363943D01*
X202109414Y-92223803D01*
X201986928Y-92101317D01*
X201846788Y-91999499D01*
X201692445Y-91920858D01*
X201527701Y-91867329D01*
X201527699Y-91867328D01*
X201527698Y-91867328D01*
X201396271Y-91846512D01*
X201356611Y-91840231D01*
X201183389Y-91840231D01*
X201143728Y-91846512D01*
X201012302Y-91867328D01*
X200847552Y-91920859D01*
X200693211Y-91999499D01*
X200613256Y-92057590D01*
X200553072Y-92101317D01*
X200553070Y-92101319D01*
X200553069Y-92101319D01*
X200430588Y-92223800D01*
X200430588Y-92223801D01*
X200430586Y-92223803D01*
X200386859Y-92283987D01*
X200328768Y-92363942D01*
X200250128Y-92518283D01*
X200196597Y-92683033D01*
X200169500Y-92854120D01*
X199830500Y-92854120D01*
X199803402Y-92683030D01*
X199749873Y-92518286D01*
X199671232Y-92363943D01*
X199569414Y-92223803D01*
X199446928Y-92101317D01*
X199306788Y-91999499D01*
X199152445Y-91920858D01*
X198987701Y-91867329D01*
X198987699Y-91867328D01*
X198987698Y-91867328D01*
X198856271Y-91846512D01*
X198816611Y-91840231D01*
X198643389Y-91840231D01*
X198603728Y-91846512D01*
X198472302Y-91867328D01*
X198307552Y-91920859D01*
X198153211Y-91999499D01*
X198073256Y-92057590D01*
X198013072Y-92101317D01*
X198013070Y-92101319D01*
X198013069Y-92101319D01*
X197890588Y-92223800D01*
X197890588Y-92223801D01*
X197890586Y-92223803D01*
X197846859Y-92283987D01*
X197788768Y-92363942D01*
X197710128Y-92518283D01*
X197656597Y-92683033D01*
X197629500Y-92854120D01*
X197300500Y-92854120D01*
X197273402Y-92683030D01*
X197219873Y-92518286D01*
X197141232Y-92363943D01*
X197039414Y-92223803D01*
X196916928Y-92101317D01*
X196776788Y-91999499D01*
X196622445Y-91920858D01*
X196457701Y-91867329D01*
X196457699Y-91867328D01*
X196457698Y-91867328D01*
X196326271Y-91846512D01*
X196286611Y-91840231D01*
X196113389Y-91840231D01*
X196073728Y-91846512D01*
X195942302Y-91867328D01*
X195777552Y-91920859D01*
X195623211Y-91999499D01*
X195543256Y-92057590D01*
X195483072Y-92101317D01*
X195483070Y-92101319D01*
X195483069Y-92101319D01*
X195360588Y-92223800D01*
X195360588Y-92223801D01*
X195360586Y-92223803D01*
X195316859Y-92283987D01*
X195258768Y-92363942D01*
X195180128Y-92518283D01*
X195126597Y-92683033D01*
X195099500Y-92854120D01*
X194750500Y-92854120D01*
X194723402Y-92683030D01*
X194669873Y-92518286D01*
X194591232Y-92363943D01*
X194489414Y-92223803D01*
X194366928Y-92101317D01*
X194226788Y-91999499D01*
X194072445Y-91920858D01*
X193907701Y-91867329D01*
X193907699Y-91867328D01*
X193907698Y-91867328D01*
X193776271Y-91846512D01*
X193736611Y-91840231D01*
X193563389Y-91840231D01*
X193523728Y-91846512D01*
X193392302Y-91867328D01*
X193227552Y-91920859D01*
X193073211Y-91999499D01*
X192993256Y-92057590D01*
X192933072Y-92101317D01*
X192933070Y-92101319D01*
X192933069Y-92101319D01*
X192810588Y-92223800D01*
X192810588Y-92223801D01*
X192810586Y-92223803D01*
X192766859Y-92283987D01*
X192708768Y-92363942D01*
X192630128Y-92518283D01*
X192576597Y-92683033D01*
X192549500Y-92854120D01*
X192210500Y-92854120D01*
X192183402Y-92683030D01*
X192129873Y-92518286D01*
X192051232Y-92363943D01*
X191949414Y-92223803D01*
X191826928Y-92101317D01*
X191686788Y-91999499D01*
X191532445Y-91920858D01*
X191367701Y-91867329D01*
X191367699Y-91867328D01*
X191367698Y-91867328D01*
X191236271Y-91846512D01*
X191196611Y-91840231D01*
X191023389Y-91840231D01*
X190983728Y-91846512D01*
X190852302Y-91867328D01*
X190687552Y-91920859D01*
X190533211Y-91999499D01*
X190453256Y-92057590D01*
X190393072Y-92101317D01*
X190393070Y-92101319D01*
X190393069Y-92101319D01*
X190270588Y-92223800D01*
X190270588Y-92223801D01*
X190270586Y-92223803D01*
X190226859Y-92283987D01*
X190168768Y-92363942D01*
X190090128Y-92518283D01*
X190036597Y-92683033D01*
X190009500Y-92854120D01*
X189670500Y-92854120D01*
X189643402Y-92683030D01*
X189589873Y-92518286D01*
X189511232Y-92363943D01*
X189409414Y-92223803D01*
X189286928Y-92101317D01*
X189146788Y-91999499D01*
X188992445Y-91920858D01*
X188827701Y-91867329D01*
X188827699Y-91867328D01*
X188827698Y-91867328D01*
X188696271Y-91846512D01*
X188656611Y-91840231D01*
X188483389Y-91840231D01*
X188443728Y-91846512D01*
X188312302Y-91867328D01*
X188147552Y-91920859D01*
X187993211Y-91999499D01*
X187913256Y-92057590D01*
X187853072Y-92101317D01*
X187853070Y-92101319D01*
X187853069Y-92101319D01*
X187730588Y-92223800D01*
X187730588Y-92223801D01*
X187730586Y-92223803D01*
X187686859Y-92283987D01*
X187628768Y-92363942D01*
X187550128Y-92518283D01*
X187496597Y-92683033D01*
X187469500Y-92854120D01*
X187130500Y-92854120D01*
X187103402Y-92683030D01*
X187049873Y-92518286D01*
X186971232Y-92363943D01*
X186869414Y-92223803D01*
X186746928Y-92101317D01*
X186606788Y-91999499D01*
X186452445Y-91920858D01*
X186287701Y-91867329D01*
X186287699Y-91867328D01*
X186287698Y-91867328D01*
X186156271Y-91846512D01*
X186116611Y-91840231D01*
X185943389Y-91840231D01*
X185903728Y-91846512D01*
X185772302Y-91867328D01*
X185607552Y-91920859D01*
X185453211Y-91999499D01*
X185373256Y-92057590D01*
X185313072Y-92101317D01*
X185313070Y-92101319D01*
X185313069Y-92101319D01*
X185190588Y-92223800D01*
X185190588Y-92223801D01*
X185190586Y-92223803D01*
X185146859Y-92283987D01*
X185088768Y-92363942D01*
X185010128Y-92518283D01*
X184956597Y-92683033D01*
X184929500Y-92854120D01*
X184560500Y-92854120D01*
X184533402Y-92683030D01*
X184479873Y-92518286D01*
X184401232Y-92363943D01*
X184299414Y-92223803D01*
X184176928Y-92101317D01*
X184036788Y-91999499D01*
X183882445Y-91920858D01*
X183717701Y-91867329D01*
X183717699Y-91867328D01*
X183717698Y-91867328D01*
X183586271Y-91846512D01*
X183546611Y-91840231D01*
X183373389Y-91840231D01*
X183333728Y-91846512D01*
X183202302Y-91867328D01*
X183037552Y-91920859D01*
X182883211Y-91999499D01*
X182803256Y-92057590D01*
X182743072Y-92101317D01*
X182743070Y-92101319D01*
X182743069Y-92101319D01*
X182620588Y-92223800D01*
X182620588Y-92223801D01*
X182620586Y-92223803D01*
X182576859Y-92283987D01*
X182518768Y-92363942D01*
X182440128Y-92518283D01*
X182386597Y-92683033D01*
X182359500Y-92854120D01*
X182020500Y-92854120D01*
X181993402Y-92683030D01*
X181939873Y-92518286D01*
X181861232Y-92363943D01*
X181759414Y-92223803D01*
X181636928Y-92101317D01*
X181496788Y-91999499D01*
X181342445Y-91920858D01*
X181177701Y-91867329D01*
X181177699Y-91867328D01*
X181177698Y-91867328D01*
X181046271Y-91846512D01*
X181006611Y-91840231D01*
X180833389Y-91840231D01*
X180793728Y-91846512D01*
X180662302Y-91867328D01*
X180497552Y-91920859D01*
X180343211Y-91999499D01*
X180263256Y-92057590D01*
X180203072Y-92101317D01*
X180203070Y-92101319D01*
X180203069Y-92101319D01*
X180080588Y-92223800D01*
X180080588Y-92223801D01*
X180080586Y-92223803D01*
X180036859Y-92283987D01*
X179978768Y-92363942D01*
X179900128Y-92518283D01*
X179846597Y-92683033D01*
X179819500Y-92854120D01*
X179480500Y-92854120D01*
X179453402Y-92683030D01*
X179399873Y-92518286D01*
X179321232Y-92363943D01*
X179219414Y-92223803D01*
X179096928Y-92101317D01*
X178956788Y-91999499D01*
X178802445Y-91920858D01*
X178637701Y-91867329D01*
X178637699Y-91867328D01*
X178637698Y-91867328D01*
X178506271Y-91846512D01*
X178466611Y-91840231D01*
X178293389Y-91840231D01*
X178253728Y-91846512D01*
X178122302Y-91867328D01*
X177957552Y-91920859D01*
X177803211Y-91999499D01*
X177723256Y-92057590D01*
X177663072Y-92101317D01*
X177663070Y-92101319D01*
X177663069Y-92101319D01*
X177540588Y-92223800D01*
X177540588Y-92223801D01*
X177540586Y-92223803D01*
X177496859Y-92283987D01*
X177438768Y-92363942D01*
X177360128Y-92518283D01*
X177306597Y-92683033D01*
X177279500Y-92854120D01*
X173417447Y-92854120D01*
X173370847Y-92680205D01*
X173303777Y-92518283D01*
X173267988Y-92431880D01*
X173267980Y-92431864D01*
X173219964Y-92348699D01*
X173133587Y-92199090D01*
X172969956Y-91985841D01*
X172969951Y-91985835D01*
X172779895Y-91795779D01*
X172779888Y-91795773D01*
X172566645Y-91632147D01*
X172566644Y-91632146D01*
X172566641Y-91632144D01*
X172473832Y-91578561D01*
X172333866Y-91497750D01*
X172333850Y-91497742D01*
X172085524Y-91394883D01*
X171955708Y-91360099D01*
X171825891Y-91325315D01*
X171825885Y-91325314D01*
X171825880Y-91325313D01*
X171559398Y-91290231D01*
X171559397Y-91290231D01*
X171290603Y-91290231D01*
X171290602Y-91290231D01*
X171024119Y-91325313D01*
X171024112Y-91325314D01*
X171024109Y-91325315D01*
X170969239Y-91340017D01*
X170764475Y-91394883D01*
X170516149Y-91497742D01*
X170516133Y-91497750D01*
X170283354Y-91632147D01*
X170070111Y-91795773D01*
X170070104Y-91795779D01*
X169880048Y-91985835D01*
X169880042Y-91985842D01*
X169716416Y-92199085D01*
X169582019Y-92431864D01*
X169582011Y-92431880D01*
X169479152Y-92680206D01*
X169409585Y-92939837D01*
X169409582Y-92939850D01*
X169374500Y-93206333D01*
X150500500Y-93206333D01*
X150500500Y-45606333D01*
X169374500Y-45606333D01*
X169374500Y-45875128D01*
X169409582Y-46141611D01*
X169409583Y-46141616D01*
X169409584Y-46141622D01*
X169409585Y-46141624D01*
X169479152Y-46401255D01*
X169582011Y-46649581D01*
X169582019Y-46649597D01*
X169662830Y-46789563D01*
X169716413Y-46882372D01*
X169716415Y-46882375D01*
X169716416Y-46882376D01*
X169880042Y-47095619D01*
X169880048Y-47095626D01*
X170070104Y-47285682D01*
X170070110Y-47285687D01*
X170283359Y-47449318D01*
X170432968Y-47535695D01*
X170516133Y-47583711D01*
X170516149Y-47583719D01*
X170671008Y-47647863D01*
X170764474Y-47686578D01*
X171024109Y-47756147D01*
X171212319Y-47780924D01*
X171290602Y-47791231D01*
X171290603Y-47791231D01*
X171559398Y-47791231D01*
X171619905Y-47783265D01*
X171825891Y-47756147D01*
X172085526Y-47686578D01*
X172272457Y-47609148D01*
X172333850Y-47583719D01*
X172333853Y-47583717D01*
X172333859Y-47583715D01*
X172566641Y-47449318D01*
X172779890Y-47285687D01*
X172969956Y-47095621D01*
X173133587Y-46882372D01*
X173267984Y-46649590D01*
X173370847Y-46401257D01*
X173440416Y-46141622D01*
X173475500Y-45875128D01*
X173475500Y-45606334D01*
X173440416Y-45339840D01*
X173417447Y-45254120D01*
X174734500Y-45254120D01*
X174734500Y-46227342D01*
X174761598Y-46398432D01*
X174815127Y-46563176D01*
X174893768Y-46717519D01*
X174995586Y-46857659D01*
X175118072Y-46980145D01*
X175258212Y-47081963D01*
X175412555Y-47160604D01*
X175577299Y-47214133D01*
X175748389Y-47241231D01*
X175748390Y-47241231D01*
X175921610Y-47241231D01*
X175921611Y-47241231D01*
X176092701Y-47214133D01*
X176257445Y-47160604D01*
X176411788Y-47081963D01*
X176551928Y-46980145D01*
X176674414Y-46857659D01*
X176776232Y-46717519D01*
X176854873Y-46563176D01*
X176908402Y-46398432D01*
X176935500Y-46227342D01*
X176935500Y-45254120D01*
X177284500Y-45254120D01*
X177284500Y-46227342D01*
X177311598Y-46398432D01*
X177365127Y-46563176D01*
X177443768Y-46717519D01*
X177545586Y-46857659D01*
X177668072Y-46980145D01*
X177808212Y-47081963D01*
X177962555Y-47160604D01*
X178127299Y-47214133D01*
X178298389Y-47241231D01*
X178298390Y-47241231D01*
X178471610Y-47241231D01*
X178471611Y-47241231D01*
X178642701Y-47214133D01*
X178807445Y-47160604D01*
X178961788Y-47081963D01*
X179101928Y-46980145D01*
X179224414Y-46857659D01*
X179326232Y-46717519D01*
X179404873Y-46563176D01*
X179458402Y-46398432D01*
X179485500Y-46227342D01*
X179485500Y-45254120D01*
X179824500Y-45254120D01*
X179824500Y-46227342D01*
X179851598Y-46398432D01*
X179905127Y-46563176D01*
X179983768Y-46717519D01*
X180085586Y-46857659D01*
X180208072Y-46980145D01*
X180348212Y-47081963D01*
X180502555Y-47160604D01*
X180667299Y-47214133D01*
X180838389Y-47241231D01*
X180838390Y-47241231D01*
X181011610Y-47241231D01*
X181011611Y-47241231D01*
X181182701Y-47214133D01*
X181347445Y-47160604D01*
X181501788Y-47081963D01*
X181641928Y-46980145D01*
X181764414Y-46857659D01*
X181866232Y-46717519D01*
X181944873Y-46563176D01*
X181998402Y-46398432D01*
X182025500Y-46227342D01*
X182025500Y-45254120D01*
X182364500Y-45254120D01*
X182364500Y-46227342D01*
X182391598Y-46398432D01*
X182445127Y-46563176D01*
X182523768Y-46717519D01*
X182625586Y-46857659D01*
X182748072Y-46980145D01*
X182888212Y-47081963D01*
X183042555Y-47160604D01*
X183207299Y-47214133D01*
X183378389Y-47241231D01*
X183378390Y-47241231D01*
X183551610Y-47241231D01*
X183551611Y-47241231D01*
X183722701Y-47214133D01*
X183887445Y-47160604D01*
X184041788Y-47081963D01*
X184181928Y-46980145D01*
X184304414Y-46857659D01*
X184406232Y-46717519D01*
X184484873Y-46563176D01*
X184538402Y-46398432D01*
X184565500Y-46227342D01*
X184565500Y-45254120D01*
X184934500Y-45254120D01*
X184934500Y-46227342D01*
X184961598Y-46398432D01*
X185015127Y-46563176D01*
X185093768Y-46717519D01*
X185195586Y-46857659D01*
X185318072Y-46980145D01*
X185458212Y-47081963D01*
X185612555Y-47160604D01*
X185777299Y-47214133D01*
X185948389Y-47241231D01*
X185948390Y-47241231D01*
X186121610Y-47241231D01*
X186121611Y-47241231D01*
X186292701Y-47214133D01*
X186457445Y-47160604D01*
X186611788Y-47081963D01*
X186751928Y-46980145D01*
X186874414Y-46857659D01*
X186976232Y-46717519D01*
X187054873Y-46563176D01*
X187108402Y-46398432D01*
X187135500Y-46227342D01*
X187135500Y-45254120D01*
X187474500Y-45254120D01*
X187474500Y-46227342D01*
X187501598Y-46398432D01*
X187555127Y-46563176D01*
X187633768Y-46717519D01*
X187735586Y-46857659D01*
X187858072Y-46980145D01*
X187998212Y-47081963D01*
X188152555Y-47160604D01*
X188317299Y-47214133D01*
X188488389Y-47241231D01*
X188488390Y-47241231D01*
X188661610Y-47241231D01*
X188661611Y-47241231D01*
X188832701Y-47214133D01*
X188997445Y-47160604D01*
X189151788Y-47081963D01*
X189291928Y-46980145D01*
X189414414Y-46857659D01*
X189516232Y-46717519D01*
X189594873Y-46563176D01*
X189648402Y-46398432D01*
X189675500Y-46227342D01*
X189675500Y-45254120D01*
X190014500Y-45254120D01*
X190014500Y-46227342D01*
X190041598Y-46398432D01*
X190095127Y-46563176D01*
X190173768Y-46717519D01*
X190275586Y-46857659D01*
X190398072Y-46980145D01*
X190538212Y-47081963D01*
X190692555Y-47160604D01*
X190857299Y-47214133D01*
X191028389Y-47241231D01*
X191028390Y-47241231D01*
X191201610Y-47241231D01*
X191201611Y-47241231D01*
X191372701Y-47214133D01*
X191537445Y-47160604D01*
X191691788Y-47081963D01*
X191831928Y-46980145D01*
X191954414Y-46857659D01*
X192056232Y-46717519D01*
X192134873Y-46563176D01*
X192188402Y-46398432D01*
X192215500Y-46227342D01*
X192215500Y-45254120D01*
X192554500Y-45254120D01*
X192554500Y-46227342D01*
X192581598Y-46398432D01*
X192635127Y-46563176D01*
X192713768Y-46717519D01*
X192815586Y-46857659D01*
X192938072Y-46980145D01*
X193078212Y-47081963D01*
X193232555Y-47160604D01*
X193397299Y-47214133D01*
X193568389Y-47241231D01*
X193568390Y-47241231D01*
X193741610Y-47241231D01*
X193741611Y-47241231D01*
X193912701Y-47214133D01*
X194077445Y-47160604D01*
X194231788Y-47081963D01*
X194371928Y-46980145D01*
X194494414Y-46857659D01*
X194596232Y-46717519D01*
X194674873Y-46563176D01*
X194728402Y-46398432D01*
X194755500Y-46227342D01*
X194755500Y-45254120D01*
X195104500Y-45254120D01*
X195104500Y-46227342D01*
X195131598Y-46398432D01*
X195185127Y-46563176D01*
X195263768Y-46717519D01*
X195365586Y-46857659D01*
X195488072Y-46980145D01*
X195628212Y-47081963D01*
X195782555Y-47160604D01*
X195947299Y-47214133D01*
X196118389Y-47241231D01*
X196118390Y-47241231D01*
X196291610Y-47241231D01*
X196291611Y-47241231D01*
X196462701Y-47214133D01*
X196627445Y-47160604D01*
X196781788Y-47081963D01*
X196921928Y-46980145D01*
X197044414Y-46857659D01*
X197146232Y-46717519D01*
X197224873Y-46563176D01*
X197278402Y-46398432D01*
X197305500Y-46227342D01*
X197305500Y-45254120D01*
X197634500Y-45254120D01*
X197634500Y-46227342D01*
X197661598Y-46398432D01*
X197715127Y-46563176D01*
X197793768Y-46717519D01*
X197895586Y-46857659D01*
X198018072Y-46980145D01*
X198158212Y-47081963D01*
X198312555Y-47160604D01*
X198477299Y-47214133D01*
X198648389Y-47241231D01*
X198648390Y-47241231D01*
X198821610Y-47241231D01*
X198821611Y-47241231D01*
X198992701Y-47214133D01*
X199157445Y-47160604D01*
X199311788Y-47081963D01*
X199451928Y-46980145D01*
X199574414Y-46857659D01*
X199676232Y-46717519D01*
X199754873Y-46563176D01*
X199808402Y-46398432D01*
X199835500Y-46227342D01*
X199835500Y-45254120D01*
X200174500Y-45254120D01*
X200174500Y-46227342D01*
X200201598Y-46398432D01*
X200255127Y-46563176D01*
X200333768Y-46717519D01*
X200435586Y-46857659D01*
X200558072Y-46980145D01*
X200698212Y-47081963D01*
X200852555Y-47160604D01*
X201017299Y-47214133D01*
X201188389Y-47241231D01*
X201188390Y-47241231D01*
X201361610Y-47241231D01*
X201361611Y-47241231D01*
X201532701Y-47214133D01*
X201697445Y-47160604D01*
X201851788Y-47081963D01*
X201991928Y-46980145D01*
X202114414Y-46857659D01*
X202216232Y-46717519D01*
X202294873Y-46563176D01*
X202348402Y-46398432D01*
X202375500Y-46227342D01*
X202375500Y-45254120D01*
X202714500Y-45254120D01*
X202714500Y-46227342D01*
X202741598Y-46398432D01*
X202795127Y-46563176D01*
X202873768Y-46717519D01*
X202975586Y-46857659D01*
X203098072Y-46980145D01*
X203238212Y-47081963D01*
X203392555Y-47160604D01*
X203557299Y-47214133D01*
X203728389Y-47241231D01*
X203728390Y-47241231D01*
X203901610Y-47241231D01*
X203901611Y-47241231D01*
X204072701Y-47214133D01*
X204237445Y-47160604D01*
X204391788Y-47081963D01*
X204531928Y-46980145D01*
X204654414Y-46857659D01*
X204756232Y-46717519D01*
X204834873Y-46563176D01*
X204888402Y-46398432D01*
X204915500Y-46227342D01*
X204915500Y-45254120D01*
X205254500Y-45254120D01*
X205254500Y-46227342D01*
X205281598Y-46398432D01*
X205335127Y-46563176D01*
X205413768Y-46717519D01*
X205515586Y-46857659D01*
X205638072Y-46980145D01*
X205778212Y-47081963D01*
X205932555Y-47160604D01*
X206097299Y-47214133D01*
X206268389Y-47241231D01*
X206268390Y-47241231D01*
X206441610Y-47241231D01*
X206441611Y-47241231D01*
X206612701Y-47214133D01*
X206777445Y-47160604D01*
X206931788Y-47081963D01*
X207071928Y-46980145D01*
X207194414Y-46857659D01*
X207296232Y-46717519D01*
X207374873Y-46563176D01*
X207428402Y-46398432D01*
X207455500Y-46227342D01*
X207455500Y-45254120D01*
X207794500Y-45254120D01*
X207794500Y-46227342D01*
X207821598Y-46398432D01*
X207875127Y-46563176D01*
X207953768Y-46717519D01*
X208055586Y-46857659D01*
X208178072Y-46980145D01*
X208318212Y-47081963D01*
X208472555Y-47160604D01*
X208637299Y-47214133D01*
X208808389Y-47241231D01*
X208808390Y-47241231D01*
X208981610Y-47241231D01*
X208981611Y-47241231D01*
X209152701Y-47214133D01*
X209317445Y-47160604D01*
X209471788Y-47081963D01*
X209611928Y-46980145D01*
X209734414Y-46857659D01*
X209836232Y-46717519D01*
X209914873Y-46563176D01*
X209968402Y-46398432D01*
X209995500Y-46227342D01*
X209995500Y-45254120D01*
X210334500Y-45254120D01*
X210334500Y-46227342D01*
X210361598Y-46398432D01*
X210415127Y-46563176D01*
X210493768Y-46717519D01*
X210595586Y-46857659D01*
X210718072Y-46980145D01*
X210858212Y-47081963D01*
X211012555Y-47160604D01*
X211177299Y-47214133D01*
X211348389Y-47241231D01*
X211348390Y-47241231D01*
X211521610Y-47241231D01*
X211521611Y-47241231D01*
X211692701Y-47214133D01*
X211857445Y-47160604D01*
X212011788Y-47081963D01*
X212151928Y-46980145D01*
X212274414Y-46857659D01*
X212376232Y-46717519D01*
X212454873Y-46563176D01*
X212508402Y-46398432D01*
X212535500Y-46227342D01*
X212535500Y-45254120D01*
X212874500Y-45254120D01*
X212874500Y-46227342D01*
X212901598Y-46398432D01*
X212955127Y-46563176D01*
X213033768Y-46717519D01*
X213135586Y-46857659D01*
X213258072Y-46980145D01*
X213398212Y-47081963D01*
X213552555Y-47160604D01*
X213717299Y-47214133D01*
X213888389Y-47241231D01*
X213888390Y-47241231D01*
X214061610Y-47241231D01*
X214061611Y-47241231D01*
X214232701Y-47214133D01*
X214397445Y-47160604D01*
X214551788Y-47081963D01*
X214691928Y-46980145D01*
X214814414Y-46857659D01*
X214916232Y-46717519D01*
X214994873Y-46563176D01*
X215048402Y-46398432D01*
X215075500Y-46227342D01*
X215075500Y-45254120D01*
X215444500Y-45254120D01*
X215444500Y-46227342D01*
X215471598Y-46398432D01*
X215525127Y-46563176D01*
X215603768Y-46717519D01*
X215705586Y-46857659D01*
X215828072Y-46980145D01*
X215968212Y-47081963D01*
X216122555Y-47160604D01*
X216287299Y-47214133D01*
X216458389Y-47241231D01*
X216458390Y-47241231D01*
X216631610Y-47241231D01*
X216631611Y-47241231D01*
X216802701Y-47214133D01*
X216967445Y-47160604D01*
X217121788Y-47081963D01*
X217261928Y-46980145D01*
X217384414Y-46857659D01*
X217486232Y-46717519D01*
X217564873Y-46563176D01*
X217618402Y-46398432D01*
X217645500Y-46227342D01*
X217645500Y-45254120D01*
X217984500Y-45254120D01*
X217984500Y-46227342D01*
X218011598Y-46398432D01*
X218065127Y-46563176D01*
X218143768Y-46717519D01*
X218245586Y-46857659D01*
X218368072Y-46980145D01*
X218508212Y-47081963D01*
X218662555Y-47160604D01*
X218827299Y-47214133D01*
X218998389Y-47241231D01*
X218998390Y-47241231D01*
X219171610Y-47241231D01*
X219171611Y-47241231D01*
X219342701Y-47214133D01*
X219507445Y-47160604D01*
X219661788Y-47081963D01*
X219801928Y-46980145D01*
X219924414Y-46857659D01*
X220026232Y-46717519D01*
X220104873Y-46563176D01*
X220158402Y-46398432D01*
X220185500Y-46227342D01*
X220185500Y-45254120D01*
X220524500Y-45254120D01*
X220524500Y-46227342D01*
X220551598Y-46398432D01*
X220605127Y-46563176D01*
X220683768Y-46717519D01*
X220785586Y-46857659D01*
X220908072Y-46980145D01*
X221048212Y-47081963D01*
X221202555Y-47160604D01*
X221367299Y-47214133D01*
X221538389Y-47241231D01*
X221538390Y-47241231D01*
X221711610Y-47241231D01*
X221711611Y-47241231D01*
X221882701Y-47214133D01*
X222047445Y-47160604D01*
X222201788Y-47081963D01*
X222341928Y-46980145D01*
X222464414Y-46857659D01*
X222566232Y-46717519D01*
X222644873Y-46563176D01*
X222698402Y-46398432D01*
X222725500Y-46227342D01*
X222725500Y-45254120D01*
X223604500Y-45254120D01*
X223604500Y-46227342D01*
X223631598Y-46398432D01*
X223685127Y-46563176D01*
X223763768Y-46717519D01*
X223865586Y-46857659D01*
X223988072Y-46980145D01*
X224128212Y-47081963D01*
X224282555Y-47160604D01*
X224447299Y-47214133D01*
X224618389Y-47241231D01*
X224618390Y-47241231D01*
X224791610Y-47241231D01*
X224791611Y-47241231D01*
X224962701Y-47214133D01*
X225127445Y-47160604D01*
X225281788Y-47081963D01*
X225421928Y-46980145D01*
X225544414Y-46857659D01*
X225646232Y-46717519D01*
X225724873Y-46563176D01*
X225778402Y-46398432D01*
X225805500Y-46227342D01*
X225805500Y-45606333D01*
X226524500Y-45606333D01*
X226524500Y-45875128D01*
X226559582Y-46141611D01*
X226559583Y-46141616D01*
X226559584Y-46141622D01*
X226559585Y-46141624D01*
X226629152Y-46401255D01*
X226732011Y-46649581D01*
X226732019Y-46649597D01*
X226812830Y-46789563D01*
X226866413Y-46882372D01*
X226866415Y-46882375D01*
X226866416Y-46882376D01*
X227030042Y-47095619D01*
X227030048Y-47095626D01*
X227220104Y-47285682D01*
X227220110Y-47285687D01*
X227433359Y-47449318D01*
X227582968Y-47535695D01*
X227666133Y-47583711D01*
X227666149Y-47583719D01*
X227821008Y-47647863D01*
X227914474Y-47686578D01*
X228174109Y-47756147D01*
X228362319Y-47780924D01*
X228440602Y-47791231D01*
X228440603Y-47791231D01*
X228709398Y-47791231D01*
X228769905Y-47783265D01*
X228975891Y-47756147D01*
X229235526Y-47686578D01*
X229422457Y-47609148D01*
X229483850Y-47583719D01*
X229483853Y-47583717D01*
X229483859Y-47583715D01*
X229716641Y-47449318D01*
X229929890Y-47285687D01*
X230119956Y-47095621D01*
X230283587Y-46882372D01*
X230417984Y-46649590D01*
X230520847Y-46401257D01*
X230590416Y-46141622D01*
X230625500Y-45875128D01*
X230625500Y-45606334D01*
X230590416Y-45339840D01*
X230520847Y-45080205D01*
X230453777Y-44918283D01*
X230417988Y-44831880D01*
X230417980Y-44831864D01*
X230369964Y-44748699D01*
X230283587Y-44599090D01*
X230119956Y-44385841D01*
X230119951Y-44385835D01*
X229929895Y-44195779D01*
X229929888Y-44195773D01*
X229716645Y-44032147D01*
X229716644Y-44032146D01*
X229716641Y-44032144D01*
X229623832Y-43978561D01*
X229483866Y-43897750D01*
X229483850Y-43897742D01*
X229235524Y-43794883D01*
X229105708Y-43760099D01*
X228975891Y-43725315D01*
X228975885Y-43725314D01*
X228975880Y-43725313D01*
X228709398Y-43690231D01*
X228709397Y-43690231D01*
X228440603Y-43690231D01*
X228440602Y-43690231D01*
X228174119Y-43725313D01*
X228174112Y-43725314D01*
X228174109Y-43725315D01*
X228119239Y-43740017D01*
X227914475Y-43794883D01*
X227666149Y-43897742D01*
X227666133Y-43897750D01*
X227433354Y-44032147D01*
X227220111Y-44195773D01*
X227220104Y-44195779D01*
X227030048Y-44385835D01*
X227030042Y-44385842D01*
X226866416Y-44599085D01*
X226732019Y-44831864D01*
X226732011Y-44831880D01*
X226629152Y-45080206D01*
X226559585Y-45339837D01*
X226559582Y-45339850D01*
X226524500Y-45606333D01*
X225805500Y-45606333D01*
X225805500Y-45254120D01*
X225778402Y-45083030D01*
X225724873Y-44918286D01*
X225646232Y-44763943D01*
X225544414Y-44623803D01*
X225421928Y-44501317D01*
X225281788Y-44399499D01*
X225127445Y-44320858D01*
X224962701Y-44267329D01*
X224962699Y-44267328D01*
X224962698Y-44267328D01*
X224831271Y-44246512D01*
X224791611Y-44240231D01*
X224618389Y-44240231D01*
X224578728Y-44246512D01*
X224447302Y-44267328D01*
X224282552Y-44320859D01*
X224128211Y-44399499D01*
X224048256Y-44457590D01*
X223988072Y-44501317D01*
X223988070Y-44501319D01*
X223988069Y-44501319D01*
X223865588Y-44623800D01*
X223865588Y-44623801D01*
X223865586Y-44623803D01*
X223821859Y-44683987D01*
X223763768Y-44763942D01*
X223685128Y-44918283D01*
X223631597Y-45083033D01*
X223604500Y-45254120D01*
X222725500Y-45254120D01*
X222698402Y-45083030D01*
X222644873Y-44918286D01*
X222566232Y-44763943D01*
X222464414Y-44623803D01*
X222341928Y-44501317D01*
X222201788Y-44399499D01*
X222047445Y-44320858D01*
X221882701Y-44267329D01*
X221882699Y-44267328D01*
X221882698Y-44267328D01*
X221751271Y-44246512D01*
X221711611Y-44240231D01*
X221538389Y-44240231D01*
X221498728Y-44246512D01*
X221367302Y-44267328D01*
X221202552Y-44320859D01*
X221048211Y-44399499D01*
X220968256Y-44457590D01*
X220908072Y-44501317D01*
X220908070Y-44501319D01*
X220908069Y-44501319D01*
X220785588Y-44623800D01*
X220785588Y-44623801D01*
X220785586Y-44623803D01*
X220741859Y-44683987D01*
X220683768Y-44763942D01*
X220605128Y-44918283D01*
X220551597Y-45083033D01*
X220524500Y-45254120D01*
X220185500Y-45254120D01*
X220158402Y-45083030D01*
X220104873Y-44918286D01*
X220026232Y-44763943D01*
X219924414Y-44623803D01*
X219801928Y-44501317D01*
X219661788Y-44399499D01*
X219507445Y-44320858D01*
X219342701Y-44267329D01*
X219342699Y-44267328D01*
X219342698Y-44267328D01*
X219211271Y-44246512D01*
X219171611Y-44240231D01*
X218998389Y-44240231D01*
X218958728Y-44246512D01*
X218827302Y-44267328D01*
X218662552Y-44320859D01*
X218508211Y-44399499D01*
X218428256Y-44457590D01*
X218368072Y-44501317D01*
X218368070Y-44501319D01*
X218368069Y-44501319D01*
X218245588Y-44623800D01*
X218245588Y-44623801D01*
X218245586Y-44623803D01*
X218201859Y-44683987D01*
X218143768Y-44763942D01*
X218065128Y-44918283D01*
X218011597Y-45083033D01*
X217984500Y-45254120D01*
X217645500Y-45254120D01*
X217618402Y-45083030D01*
X217564873Y-44918286D01*
X217486232Y-44763943D01*
X217384414Y-44623803D01*
X217261928Y-44501317D01*
X217121788Y-44399499D01*
X216967445Y-44320858D01*
X216802701Y-44267329D01*
X216802699Y-44267328D01*
X216802698Y-44267328D01*
X216671271Y-44246512D01*
X216631611Y-44240231D01*
X216458389Y-44240231D01*
X216418728Y-44246512D01*
X216287302Y-44267328D01*
X216122552Y-44320859D01*
X215968211Y-44399499D01*
X215888256Y-44457590D01*
X215828072Y-44501317D01*
X215828070Y-44501319D01*
X215828069Y-44501319D01*
X215705588Y-44623800D01*
X215705588Y-44623801D01*
X215705586Y-44623803D01*
X215661859Y-44683987D01*
X215603768Y-44763942D01*
X215525128Y-44918283D01*
X215471597Y-45083033D01*
X215444500Y-45254120D01*
X215075500Y-45254120D01*
X215048402Y-45083030D01*
X214994873Y-44918286D01*
X214916232Y-44763943D01*
X214814414Y-44623803D01*
X214691928Y-44501317D01*
X214551788Y-44399499D01*
X214397445Y-44320858D01*
X214232701Y-44267329D01*
X214232699Y-44267328D01*
X214232698Y-44267328D01*
X214101271Y-44246512D01*
X214061611Y-44240231D01*
X213888389Y-44240231D01*
X213848728Y-44246512D01*
X213717302Y-44267328D01*
X213552552Y-44320859D01*
X213398211Y-44399499D01*
X213318256Y-44457590D01*
X213258072Y-44501317D01*
X213258070Y-44501319D01*
X213258069Y-44501319D01*
X213135588Y-44623800D01*
X213135588Y-44623801D01*
X213135586Y-44623803D01*
X213091859Y-44683987D01*
X213033768Y-44763942D01*
X212955128Y-44918283D01*
X212901597Y-45083033D01*
X212874500Y-45254120D01*
X212535500Y-45254120D01*
X212508402Y-45083030D01*
X212454873Y-44918286D01*
X212376232Y-44763943D01*
X212274414Y-44623803D01*
X212151928Y-44501317D01*
X212011788Y-44399499D01*
X211857445Y-44320858D01*
X211692701Y-44267329D01*
X211692699Y-44267328D01*
X211692698Y-44267328D01*
X211561271Y-44246512D01*
X211521611Y-44240231D01*
X211348389Y-44240231D01*
X211308728Y-44246512D01*
X211177302Y-44267328D01*
X211012552Y-44320859D01*
X210858211Y-44399499D01*
X210778256Y-44457590D01*
X210718072Y-44501317D01*
X210718070Y-44501319D01*
X210718069Y-44501319D01*
X210595588Y-44623800D01*
X210595588Y-44623801D01*
X210595586Y-44623803D01*
X210551859Y-44683987D01*
X210493768Y-44763942D01*
X210415128Y-44918283D01*
X210361597Y-45083033D01*
X210334500Y-45254120D01*
X209995500Y-45254120D01*
X209968402Y-45083030D01*
X209914873Y-44918286D01*
X209836232Y-44763943D01*
X209734414Y-44623803D01*
X209611928Y-44501317D01*
X209471788Y-44399499D01*
X209317445Y-44320858D01*
X209152701Y-44267329D01*
X209152699Y-44267328D01*
X209152698Y-44267328D01*
X209021271Y-44246512D01*
X208981611Y-44240231D01*
X208808389Y-44240231D01*
X208768728Y-44246512D01*
X208637302Y-44267328D01*
X208472552Y-44320859D01*
X208318211Y-44399499D01*
X208238256Y-44457590D01*
X208178072Y-44501317D01*
X208178070Y-44501319D01*
X208178069Y-44501319D01*
X208055588Y-44623800D01*
X208055588Y-44623801D01*
X208055586Y-44623803D01*
X208011859Y-44683987D01*
X207953768Y-44763942D01*
X207875128Y-44918283D01*
X207821597Y-45083033D01*
X207794500Y-45254120D01*
X207455500Y-45254120D01*
X207428402Y-45083030D01*
X207374873Y-44918286D01*
X207296232Y-44763943D01*
X207194414Y-44623803D01*
X207071928Y-44501317D01*
X206931788Y-44399499D01*
X206777445Y-44320858D01*
X206612701Y-44267329D01*
X206612699Y-44267328D01*
X206612698Y-44267328D01*
X206481271Y-44246512D01*
X206441611Y-44240231D01*
X206268389Y-44240231D01*
X206228728Y-44246512D01*
X206097302Y-44267328D01*
X205932552Y-44320859D01*
X205778211Y-44399499D01*
X205698256Y-44457590D01*
X205638072Y-44501317D01*
X205638070Y-44501319D01*
X205638069Y-44501319D01*
X205515588Y-44623800D01*
X205515588Y-44623801D01*
X205515586Y-44623803D01*
X205471859Y-44683987D01*
X205413768Y-44763942D01*
X205335128Y-44918283D01*
X205281597Y-45083033D01*
X205254500Y-45254120D01*
X204915500Y-45254120D01*
X204888402Y-45083030D01*
X204834873Y-44918286D01*
X204756232Y-44763943D01*
X204654414Y-44623803D01*
X204531928Y-44501317D01*
X204391788Y-44399499D01*
X204237445Y-44320858D01*
X204072701Y-44267329D01*
X204072699Y-44267328D01*
X204072698Y-44267328D01*
X203941271Y-44246512D01*
X203901611Y-44240231D01*
X203728389Y-44240231D01*
X203688728Y-44246512D01*
X203557302Y-44267328D01*
X203392552Y-44320859D01*
X203238211Y-44399499D01*
X203158256Y-44457590D01*
X203098072Y-44501317D01*
X203098070Y-44501319D01*
X203098069Y-44501319D01*
X202975588Y-44623800D01*
X202975588Y-44623801D01*
X202975586Y-44623803D01*
X202931859Y-44683987D01*
X202873768Y-44763942D01*
X202795128Y-44918283D01*
X202741597Y-45083033D01*
X202714500Y-45254120D01*
X202375500Y-45254120D01*
X202348402Y-45083030D01*
X202294873Y-44918286D01*
X202216232Y-44763943D01*
X202114414Y-44623803D01*
X201991928Y-44501317D01*
X201851788Y-44399499D01*
X201697445Y-44320858D01*
X201532701Y-44267329D01*
X201532699Y-44267328D01*
X201532698Y-44267328D01*
X201401271Y-44246512D01*
X201361611Y-44240231D01*
X201188389Y-44240231D01*
X201148728Y-44246512D01*
X201017302Y-44267328D01*
X200852552Y-44320859D01*
X200698211Y-44399499D01*
X200618256Y-44457590D01*
X200558072Y-44501317D01*
X200558070Y-44501319D01*
X200558069Y-44501319D01*
X200435588Y-44623800D01*
X200435588Y-44623801D01*
X200435586Y-44623803D01*
X200391859Y-44683987D01*
X200333768Y-44763942D01*
X200255128Y-44918283D01*
X200201597Y-45083033D01*
X200174500Y-45254120D01*
X199835500Y-45254120D01*
X199808402Y-45083030D01*
X199754873Y-44918286D01*
X199676232Y-44763943D01*
X199574414Y-44623803D01*
X199451928Y-44501317D01*
X199311788Y-44399499D01*
X199157445Y-44320858D01*
X198992701Y-44267329D01*
X198992699Y-44267328D01*
X198992698Y-44267328D01*
X198861271Y-44246512D01*
X198821611Y-44240231D01*
X198648389Y-44240231D01*
X198608728Y-44246512D01*
X198477302Y-44267328D01*
X198312552Y-44320859D01*
X198158211Y-44399499D01*
X198078256Y-44457590D01*
X198018072Y-44501317D01*
X198018070Y-44501319D01*
X198018069Y-44501319D01*
X197895588Y-44623800D01*
X197895588Y-44623801D01*
X197895586Y-44623803D01*
X197851859Y-44683987D01*
X197793768Y-44763942D01*
X197715128Y-44918283D01*
X197661597Y-45083033D01*
X197634500Y-45254120D01*
X197305500Y-45254120D01*
X197278402Y-45083030D01*
X197224873Y-44918286D01*
X197146232Y-44763943D01*
X197044414Y-44623803D01*
X196921928Y-44501317D01*
X196781788Y-44399499D01*
X196627445Y-44320858D01*
X196462701Y-44267329D01*
X196462699Y-44267328D01*
X196462698Y-44267328D01*
X196331271Y-44246512D01*
X196291611Y-44240231D01*
X196118389Y-44240231D01*
X196078728Y-44246512D01*
X195947302Y-44267328D01*
X195782552Y-44320859D01*
X195628211Y-44399499D01*
X195548256Y-44457590D01*
X195488072Y-44501317D01*
X195488070Y-44501319D01*
X195488069Y-44501319D01*
X195365588Y-44623800D01*
X195365588Y-44623801D01*
X195365586Y-44623803D01*
X195321859Y-44683987D01*
X195263768Y-44763942D01*
X195185128Y-44918283D01*
X195131597Y-45083033D01*
X195104500Y-45254120D01*
X194755500Y-45254120D01*
X194728402Y-45083030D01*
X194674873Y-44918286D01*
X194596232Y-44763943D01*
X194494414Y-44623803D01*
X194371928Y-44501317D01*
X194231788Y-44399499D01*
X194077445Y-44320858D01*
X193912701Y-44267329D01*
X193912699Y-44267328D01*
X193912698Y-44267328D01*
X193781271Y-44246512D01*
X193741611Y-44240231D01*
X193568389Y-44240231D01*
X193528728Y-44246512D01*
X193397302Y-44267328D01*
X193232552Y-44320859D01*
X193078211Y-44399499D01*
X192998256Y-44457590D01*
X192938072Y-44501317D01*
X192938070Y-44501319D01*
X192938069Y-44501319D01*
X192815588Y-44623800D01*
X192815588Y-44623801D01*
X192815586Y-44623803D01*
X192771859Y-44683987D01*
X192713768Y-44763942D01*
X192635128Y-44918283D01*
X192581597Y-45083033D01*
X192554500Y-45254120D01*
X192215500Y-45254120D01*
X192188402Y-45083030D01*
X192134873Y-44918286D01*
X192056232Y-44763943D01*
X191954414Y-44623803D01*
X191831928Y-44501317D01*
X191691788Y-44399499D01*
X191537445Y-44320858D01*
X191372701Y-44267329D01*
X191372699Y-44267328D01*
X191372698Y-44267328D01*
X191241271Y-44246512D01*
X191201611Y-44240231D01*
X191028389Y-44240231D01*
X190988728Y-44246512D01*
X190857302Y-44267328D01*
X190692552Y-44320859D01*
X190538211Y-44399499D01*
X190458256Y-44457590D01*
X190398072Y-44501317D01*
X190398070Y-44501319D01*
X190398069Y-44501319D01*
X190275588Y-44623800D01*
X190275588Y-44623801D01*
X190275586Y-44623803D01*
X190231859Y-44683987D01*
X190173768Y-44763942D01*
X190095128Y-44918283D01*
X190041597Y-45083033D01*
X190014500Y-45254120D01*
X189675500Y-45254120D01*
X189648402Y-45083030D01*
X189594873Y-44918286D01*
X189516232Y-44763943D01*
X189414414Y-44623803D01*
X189291928Y-44501317D01*
X189151788Y-44399499D01*
X188997445Y-44320858D01*
X188832701Y-44267329D01*
X188832699Y-44267328D01*
X188832698Y-44267328D01*
X188701271Y-44246512D01*
X188661611Y-44240231D01*
X188488389Y-44240231D01*
X188448728Y-44246512D01*
X188317302Y-44267328D01*
X188152552Y-44320859D01*
X187998211Y-44399499D01*
X187918256Y-44457590D01*
X187858072Y-44501317D01*
X187858070Y-44501319D01*
X187858069Y-44501319D01*
X187735588Y-44623800D01*
X187735588Y-44623801D01*
X187735586Y-44623803D01*
X187691859Y-44683987D01*
X187633768Y-44763942D01*
X187555128Y-44918283D01*
X187501597Y-45083033D01*
X187474500Y-45254120D01*
X187135500Y-45254120D01*
X187108402Y-45083030D01*
X187054873Y-44918286D01*
X186976232Y-44763943D01*
X186874414Y-44623803D01*
X186751928Y-44501317D01*
X186611788Y-44399499D01*
X186457445Y-44320858D01*
X186292701Y-44267329D01*
X186292699Y-44267328D01*
X186292698Y-44267328D01*
X186161271Y-44246512D01*
X186121611Y-44240231D01*
X185948389Y-44240231D01*
X185908728Y-44246512D01*
X185777302Y-44267328D01*
X185612552Y-44320859D01*
X185458211Y-44399499D01*
X185378256Y-44457590D01*
X185318072Y-44501317D01*
X185318070Y-44501319D01*
X185318069Y-44501319D01*
X185195588Y-44623800D01*
X185195588Y-44623801D01*
X185195586Y-44623803D01*
X185151859Y-44683987D01*
X185093768Y-44763942D01*
X185015128Y-44918283D01*
X184961597Y-45083033D01*
X184934500Y-45254120D01*
X184565500Y-45254120D01*
X184538402Y-45083030D01*
X184484873Y-44918286D01*
X184406232Y-44763943D01*
X184304414Y-44623803D01*
X184181928Y-44501317D01*
X184041788Y-44399499D01*
X183887445Y-44320858D01*
X183722701Y-44267329D01*
X183722699Y-44267328D01*
X183722698Y-44267328D01*
X183591271Y-44246512D01*
X183551611Y-44240231D01*
X183378389Y-44240231D01*
X183338728Y-44246512D01*
X183207302Y-44267328D01*
X183042552Y-44320859D01*
X182888211Y-44399499D01*
X182808256Y-44457590D01*
X182748072Y-44501317D01*
X182748070Y-44501319D01*
X182748069Y-44501319D01*
X182625588Y-44623800D01*
X182625588Y-44623801D01*
X182625586Y-44623803D01*
X182581859Y-44683987D01*
X182523768Y-44763942D01*
X182445128Y-44918283D01*
X182391597Y-45083033D01*
X182364500Y-45254120D01*
X182025500Y-45254120D01*
X181998402Y-45083030D01*
X181944873Y-44918286D01*
X181866232Y-44763943D01*
X181764414Y-44623803D01*
X181641928Y-44501317D01*
X181501788Y-44399499D01*
X181347445Y-44320858D01*
X181182701Y-44267329D01*
X181182699Y-44267328D01*
X181182698Y-44267328D01*
X181051271Y-44246512D01*
X181011611Y-44240231D01*
X180838389Y-44240231D01*
X180798728Y-44246512D01*
X180667302Y-44267328D01*
X180502552Y-44320859D01*
X180348211Y-44399499D01*
X180268256Y-44457590D01*
X180208072Y-44501317D01*
X180208070Y-44501319D01*
X180208069Y-44501319D01*
X180085588Y-44623800D01*
X180085588Y-44623801D01*
X180085586Y-44623803D01*
X180041859Y-44683987D01*
X179983768Y-44763942D01*
X179905128Y-44918283D01*
X179851597Y-45083033D01*
X179824500Y-45254120D01*
X179485500Y-45254120D01*
X179458402Y-45083030D01*
X179404873Y-44918286D01*
X179326232Y-44763943D01*
X179224414Y-44623803D01*
X179101928Y-44501317D01*
X178961788Y-44399499D01*
X178807445Y-44320858D01*
X178642701Y-44267329D01*
X178642699Y-44267328D01*
X178642698Y-44267328D01*
X178511271Y-44246512D01*
X178471611Y-44240231D01*
X178298389Y-44240231D01*
X178258728Y-44246512D01*
X178127302Y-44267328D01*
X177962552Y-44320859D01*
X177808211Y-44399499D01*
X177728256Y-44457590D01*
X177668072Y-44501317D01*
X177668070Y-44501319D01*
X177668069Y-44501319D01*
X177545588Y-44623800D01*
X177545588Y-44623801D01*
X177545586Y-44623803D01*
X177501859Y-44683987D01*
X177443768Y-44763942D01*
X177365128Y-44918283D01*
X177311597Y-45083033D01*
X177284500Y-45254120D01*
X176935500Y-45254120D01*
X176908402Y-45083030D01*
X176854873Y-44918286D01*
X176776232Y-44763943D01*
X176674414Y-44623803D01*
X176551928Y-44501317D01*
X176411788Y-44399499D01*
X176257445Y-44320858D01*
X176092701Y-44267329D01*
X176092699Y-44267328D01*
X176092698Y-44267328D01*
X175961271Y-44246512D01*
X175921611Y-44240231D01*
X175748389Y-44240231D01*
X175708728Y-44246512D01*
X175577302Y-44267328D01*
X175412552Y-44320859D01*
X175258211Y-44399499D01*
X175178256Y-44457590D01*
X175118072Y-44501317D01*
X175118070Y-44501319D01*
X175118069Y-44501319D01*
X174995588Y-44623800D01*
X174995588Y-44623801D01*
X174995586Y-44623803D01*
X174951859Y-44683987D01*
X174893768Y-44763942D01*
X174815128Y-44918283D01*
X174761597Y-45083033D01*
X174734500Y-45254120D01*
X173417447Y-45254120D01*
X173370847Y-45080205D01*
X173303777Y-44918283D01*
X173267988Y-44831880D01*
X173267980Y-44831864D01*
X173219964Y-44748699D01*
X173133587Y-44599090D01*
X172969956Y-44385841D01*
X172969951Y-44385835D01*
X172779895Y-44195779D01*
X172779888Y-44195773D01*
X172566645Y-44032147D01*
X172566644Y-44032146D01*
X172566641Y-44032144D01*
X172473832Y-43978561D01*
X172333866Y-43897750D01*
X172333850Y-43897742D01*
X172085524Y-43794883D01*
X171955708Y-43760099D01*
X171825891Y-43725315D01*
X171825885Y-43725314D01*
X171825880Y-43725313D01*
X171559398Y-43690231D01*
X171559397Y-43690231D01*
X171290603Y-43690231D01*
X171290602Y-43690231D01*
X171024119Y-43725313D01*
X171024112Y-43725314D01*
X171024109Y-43725315D01*
X170969239Y-43740017D01*
X170764475Y-43794883D01*
X170516149Y-43897742D01*
X170516133Y-43897750D01*
X170283354Y-44032147D01*
X170070111Y-44195773D01*
X170070104Y-44195779D01*
X169880048Y-44385835D01*
X169880042Y-44385842D01*
X169716416Y-44599085D01*
X169582019Y-44831864D01*
X169582011Y-44831880D01*
X169479152Y-45080206D01*
X169409585Y-45339837D01*
X169409582Y-45339850D01*
X169374500Y-45606333D01*
X150500500Y-45606333D01*
X150500500Y-39124500D01*
X150520185Y-39057461D01*
X150572989Y-39011706D01*
X150624500Y-39000500D01*
X249375500Y-39000500D01*
X249442539Y-39020185D01*
G37*
G04 #@! TD.AperFunction*
M02*
