%TF.GenerationSoftware,KiCad,Pcbnew,9.0.3*%
%TF.CreationDate,2025-09-18T18:53:44+03:00*%
%TF.ProjectId,nicla_sense_me,6e69636c-615f-4736-956e-73655f6d652e,rev?*%
%TF.SameCoordinates,Original*%
%TF.FileFunction,Drillmap*%
%TF.FilePolarity,Positive*%
%FSLAX45Y45*%
G04 Gerber Fmt 4.5, Leading zero omitted, Abs format (unit mm)*
G04 Created by KiCad (PCBNEW 9.0.3) date 2025-09-18 18:53:44*
%MOMM*%
%LPD*%
G01*
G04 APERTURE LIST*
%ADD10C,0.050000*%
%ADD11C,0.200000*%
%ADD12C,0.100000*%
%ADD13C,0.110000*%
G04 APERTURE END LIST*
D10*
X6325000Y-8300000D02*
X10825000Y-8300000D01*
X10825000Y-13125000D01*
X6325000Y-13125000D01*
X6325000Y-8300000D01*
D11*
D12*
X6435000Y-12985000D02*
X6465000Y-13015000D01*
X6465000Y-12985000D02*
X6435000Y-13015000D01*
X6560000Y-8510000D02*
X6590000Y-8540000D01*
X6590000Y-8510000D02*
X6560000Y-8540000D01*
X6560000Y-8760000D02*
X6590000Y-8790000D01*
X6590000Y-8760000D02*
X6560000Y-8790000D01*
X6560000Y-9060000D02*
X6590000Y-9090000D01*
X6590000Y-9060000D02*
X6560000Y-9090000D01*
X6560000Y-9335000D02*
X6590000Y-9365000D01*
X6590000Y-9335000D02*
X6560000Y-9365000D01*
X6560000Y-9610000D02*
X6590000Y-9640000D01*
X6590000Y-9610000D02*
X6560000Y-9640000D01*
X6810000Y-8510000D02*
X6840000Y-8540000D01*
X6840000Y-8510000D02*
X6810000Y-8540000D01*
X6810000Y-8760000D02*
X6840000Y-8790000D01*
X6840000Y-8760000D02*
X6810000Y-8790000D01*
X6810000Y-9060000D02*
X6840000Y-9090000D01*
X6840000Y-9060000D02*
X6810000Y-9090000D01*
X6810000Y-9335000D02*
X6840000Y-9365000D01*
X6840000Y-9335000D02*
X6810000Y-9365000D01*
X6810000Y-9610000D02*
X6840000Y-9640000D01*
X6840000Y-9610000D02*
X6810000Y-9640000D01*
X7060000Y-8510000D02*
X7090000Y-8540000D01*
X7090000Y-8510000D02*
X7060000Y-8540000D01*
X7060000Y-8760000D02*
X7090000Y-8790000D01*
X7090000Y-8760000D02*
X7060000Y-8790000D01*
X7060000Y-9060000D02*
X7090000Y-9090000D01*
X7090000Y-9060000D02*
X7060000Y-9090000D01*
X7060000Y-9335000D02*
X7090000Y-9365000D01*
X7090000Y-9335000D02*
X7060000Y-9365000D01*
X7060000Y-9610000D02*
X7090000Y-9640000D01*
X7090000Y-9610000D02*
X7060000Y-9640000D01*
X7185000Y-10685000D02*
X7215000Y-10715000D01*
X7215000Y-10685000D02*
X7185000Y-10715000D01*
X7185000Y-10935000D02*
X7215000Y-10965000D01*
X7215000Y-10935000D02*
X7185000Y-10965000D01*
X7185000Y-11235000D02*
X7215000Y-11265000D01*
X7215000Y-11235000D02*
X7185000Y-11265000D01*
X7185000Y-11510000D02*
X7215000Y-11540000D01*
X7215000Y-11510000D02*
X7185000Y-11540000D01*
X7185000Y-11785000D02*
X7215000Y-11815000D01*
X7215000Y-11785000D02*
X7185000Y-11815000D01*
X7285000Y-8510000D02*
X7315000Y-8540000D01*
X7315000Y-8510000D02*
X7285000Y-8540000D01*
X7285000Y-8760000D02*
X7315000Y-8790000D01*
X7315000Y-8760000D02*
X7285000Y-8790000D01*
X7285000Y-9060000D02*
X7315000Y-9090000D01*
X7315000Y-9060000D02*
X7285000Y-9090000D01*
X7285000Y-9335000D02*
X7315000Y-9365000D01*
X7315000Y-9335000D02*
X7285000Y-9365000D01*
X7285000Y-9610000D02*
X7315000Y-9640000D01*
X7315000Y-9610000D02*
X7285000Y-9640000D01*
X7460000Y-12985000D02*
X7490000Y-13015000D01*
X7490000Y-12985000D02*
X7460000Y-13015000D01*
X7510000Y-8510000D02*
X7540000Y-8540000D01*
X7540000Y-8510000D02*
X7510000Y-8540000D01*
X7510000Y-8760000D02*
X7540000Y-8790000D01*
X7540000Y-8760000D02*
X7510000Y-8790000D01*
X7510000Y-9060000D02*
X7540000Y-9090000D01*
X7540000Y-9060000D02*
X7510000Y-9090000D01*
X7710000Y-8510000D02*
X7740000Y-8540000D01*
X7740000Y-8510000D02*
X7710000Y-8540000D01*
X7710000Y-8760000D02*
X7740000Y-8790000D01*
X7740000Y-8760000D02*
X7710000Y-8790000D01*
X7710000Y-9060000D02*
X7740000Y-9090000D01*
X7740000Y-9060000D02*
X7710000Y-9090000D01*
X8435000Y-12935000D02*
X8465000Y-12965000D01*
X8465000Y-12935000D02*
X8435000Y-12965000D01*
X8460000Y-9335000D02*
X8490000Y-9365000D01*
X8490000Y-9335000D02*
X8460000Y-9365000D01*
X8510000Y-10610000D02*
X8540000Y-10640000D01*
X8540000Y-10610000D02*
X8510000Y-10640000D01*
X8885000Y-11035000D02*
X8915000Y-11065000D01*
X8915000Y-11035000D02*
X8885000Y-11065000D01*
X9110000Y-9185000D02*
X9140000Y-9215000D01*
X9140000Y-9185000D02*
X9110000Y-9215000D01*
X9410000Y-12935000D02*
X9440000Y-12965000D01*
X9440000Y-12935000D02*
X9410000Y-12965000D01*
X9435000Y-9185000D02*
X9465000Y-9215000D01*
X9465000Y-9185000D02*
X9435000Y-9215000D01*
X9460000Y-11360000D02*
X9490000Y-11390000D01*
X9490000Y-11360000D02*
X9460000Y-11390000D01*
X9685000Y-9810000D02*
X9715000Y-9840000D01*
X9715000Y-9810000D02*
X9685000Y-9840000D01*
X9810000Y-8485000D02*
X9840000Y-8515000D01*
X9840000Y-8485000D02*
X9810000Y-8515000D01*
X9810000Y-8735000D02*
X9840000Y-8765000D01*
X9840000Y-8735000D02*
X9810000Y-8765000D01*
X9810000Y-9035000D02*
X9840000Y-9065000D01*
X9840000Y-9035000D02*
X9810000Y-9065000D01*
X10060000Y-8485000D02*
X10090000Y-8515000D01*
X10090000Y-8485000D02*
X10060000Y-8515000D01*
X10060000Y-8735000D02*
X10090000Y-8765000D01*
X10090000Y-8735000D02*
X10060000Y-8765000D01*
X10060000Y-9035000D02*
X10090000Y-9065000D01*
X10090000Y-9035000D02*
X10060000Y-9065000D01*
X10060000Y-9310000D02*
X10090000Y-9340000D01*
X10090000Y-9310000D02*
X10060000Y-9340000D01*
X10060000Y-9585000D02*
X10090000Y-9615000D01*
X10090000Y-9585000D02*
X10060000Y-9615000D01*
X10060000Y-9885000D02*
X10090000Y-9915000D01*
X10090000Y-9885000D02*
X10060000Y-9915000D01*
X10060000Y-10135000D02*
X10090000Y-10165000D01*
X10090000Y-10135000D02*
X10060000Y-10165000D01*
X10060000Y-10435000D02*
X10090000Y-10465000D01*
X10090000Y-10435000D02*
X10060000Y-10465000D01*
X10060000Y-10710000D02*
X10090000Y-10740000D01*
X10090000Y-10710000D02*
X10060000Y-10740000D01*
X10060000Y-10985000D02*
X10090000Y-11015000D01*
X10090000Y-10985000D02*
X10060000Y-11015000D01*
X10060000Y-11260000D02*
X10090000Y-11290000D01*
X10090000Y-11260000D02*
X10060000Y-11290000D01*
X10060000Y-11510000D02*
X10090000Y-11540000D01*
X10090000Y-11510000D02*
X10060000Y-11540000D01*
X10060000Y-11810000D02*
X10090000Y-11840000D01*
X10090000Y-11810000D02*
X10060000Y-11840000D01*
X10060000Y-12085000D02*
X10090000Y-12115000D01*
X10090000Y-12085000D02*
X10060000Y-12115000D01*
X10310000Y-8485000D02*
X10340000Y-8515000D01*
X10340000Y-8485000D02*
X10310000Y-8515000D01*
X10310000Y-8735000D02*
X10340000Y-8765000D01*
X10340000Y-8735000D02*
X10310000Y-8765000D01*
X10310000Y-9035000D02*
X10340000Y-9065000D01*
X10340000Y-9035000D02*
X10310000Y-9065000D01*
X10310000Y-9310000D02*
X10340000Y-9340000D01*
X10340000Y-9310000D02*
X10310000Y-9340000D01*
X10310000Y-9585000D02*
X10340000Y-9615000D01*
X10340000Y-9585000D02*
X10310000Y-9615000D01*
X10310000Y-9885000D02*
X10340000Y-9915000D01*
X10340000Y-9885000D02*
X10310000Y-9915000D01*
X10310000Y-10135000D02*
X10340000Y-10165000D01*
X10340000Y-10135000D02*
X10310000Y-10165000D01*
X10310000Y-10435000D02*
X10340000Y-10465000D01*
X10340000Y-10435000D02*
X10310000Y-10465000D01*
X10310000Y-10710000D02*
X10340000Y-10740000D01*
X10340000Y-10710000D02*
X10310000Y-10740000D01*
X10310000Y-10985000D02*
X10340000Y-11015000D01*
X10340000Y-10985000D02*
X10310000Y-11015000D01*
X10310000Y-11260000D02*
X10340000Y-11290000D01*
X10340000Y-11260000D02*
X10310000Y-11290000D01*
X10310000Y-11510000D02*
X10340000Y-11540000D01*
X10340000Y-11510000D02*
X10310000Y-11540000D01*
X10310000Y-11810000D02*
X10340000Y-11840000D01*
X10340000Y-11810000D02*
X10310000Y-11840000D01*
X10310000Y-12085000D02*
X10340000Y-12115000D01*
X10340000Y-12085000D02*
X10310000Y-12115000D01*
X10335000Y-12985000D02*
X10365000Y-13015000D01*
X10365000Y-12985000D02*
X10335000Y-13015000D01*
X10535000Y-8485000D02*
X10565000Y-8515000D01*
X10565000Y-8485000D02*
X10535000Y-8515000D01*
X10535000Y-8735000D02*
X10565000Y-8765000D01*
X10565000Y-8735000D02*
X10535000Y-8765000D01*
X10535000Y-9035000D02*
X10565000Y-9065000D01*
X10565000Y-9035000D02*
X10535000Y-9065000D01*
X10535000Y-9310000D02*
X10565000Y-9340000D01*
X10565000Y-9310000D02*
X10535000Y-9340000D01*
X10535000Y-9585000D02*
X10565000Y-9615000D01*
X10565000Y-9585000D02*
X10535000Y-9615000D01*
X10535000Y-9885000D02*
X10565000Y-9915000D01*
X10565000Y-9885000D02*
X10535000Y-9915000D01*
X10535000Y-10135000D02*
X10565000Y-10165000D01*
X10565000Y-10135000D02*
X10535000Y-10165000D01*
X10535000Y-10435000D02*
X10565000Y-10465000D01*
X10565000Y-10435000D02*
X10535000Y-10465000D01*
X10535000Y-10710000D02*
X10565000Y-10740000D01*
X10565000Y-10710000D02*
X10535000Y-10740000D01*
X10535000Y-10985000D02*
X10565000Y-11015000D01*
X10565000Y-10985000D02*
X10535000Y-11015000D01*
X10535000Y-11260000D02*
X10565000Y-11290000D01*
X10565000Y-11260000D02*
X10535000Y-11290000D01*
X10535000Y-11510000D02*
X10565000Y-11540000D01*
X10565000Y-11510000D02*
X10535000Y-11540000D01*
X10535000Y-11810000D02*
X10565000Y-11840000D01*
X10565000Y-11810000D02*
X10535000Y-11840000D01*
X10535000Y-12085000D02*
X10565000Y-12115000D01*
X10565000Y-12085000D02*
X10535000Y-12115000D01*
X7750000Y-10075000D02*
G75*
G02*
X7650000Y-10075000I-50000J0D01*
G01*
X7650000Y-10075000D02*
G75*
G02*
X7750000Y-10075000I50000J0D01*
G01*
X8004000Y-10073000D02*
G75*
G02*
X7904000Y-10073000I-50000J0D01*
G01*
X7904000Y-10073000D02*
G75*
G02*
X8004000Y-10073000I50000J0D01*
G01*
X8004000Y-11996000D02*
G75*
G02*
X7904000Y-11996000I-50000J0D01*
G01*
X7904000Y-11996000D02*
G75*
G02*
X8004000Y-11996000I50000J0D01*
G01*
X8188000Y-8650000D02*
G75*
G02*
X8088000Y-8650000I-50000J0D01*
G01*
X8088000Y-8650000D02*
G75*
G02*
X8188000Y-8650000I50000J0D01*
G01*
X8258000Y-10074000D02*
G75*
G02*
X8158000Y-10074000I-50000J0D01*
G01*
X8158000Y-10074000D02*
G75*
G02*
X8258000Y-10074000I50000J0D01*
G01*
X8258000Y-11997000D02*
G75*
G02*
X8158000Y-11997000I-50000J0D01*
G01*
X8158000Y-11997000D02*
G75*
G02*
X8258000Y-11997000I50000J0D01*
G01*
X8442000Y-8650000D02*
G75*
G02*
X8342000Y-8650000I-50000J0D01*
G01*
X8342000Y-8650000D02*
G75*
G02*
X8442000Y-8650000I50000J0D01*
G01*
X8512000Y-10072000D02*
G75*
G02*
X8412000Y-10072000I-50000J0D01*
G01*
X8412000Y-10072000D02*
G75*
G02*
X8512000Y-10072000I50000J0D01*
G01*
X8512000Y-11995000D02*
G75*
G02*
X8412000Y-11995000I-50000J0D01*
G01*
X8412000Y-11995000D02*
G75*
G02*
X8512000Y-11995000I50000J0D01*
G01*
X8696000Y-8650000D02*
G75*
G02*
X8596000Y-8650000I-50000J0D01*
G01*
X8596000Y-8650000D02*
G75*
G02*
X8696000Y-8650000I50000J0D01*
G01*
X8766000Y-10075000D02*
G75*
G02*
X8666000Y-10075000I-50000J0D01*
G01*
X8666000Y-10075000D02*
G75*
G02*
X8766000Y-10075000I50000J0D01*
G01*
X8766000Y-11998000D02*
G75*
G02*
X8666000Y-11998000I-50000J0D01*
G01*
X8666000Y-11998000D02*
G75*
G02*
X8766000Y-11998000I50000J0D01*
G01*
X8950000Y-8650000D02*
G75*
G02*
X8850000Y-8650000I-50000J0D01*
G01*
X8850000Y-8650000D02*
G75*
G02*
X8950000Y-8650000I50000J0D01*
G01*
X9020000Y-10073000D02*
G75*
G02*
X8920000Y-10073000I-50000J0D01*
G01*
X8920000Y-10073000D02*
G75*
G02*
X9020000Y-10073000I50000J0D01*
G01*
X9020000Y-11996000D02*
G75*
G02*
X8920000Y-11996000I-50000J0D01*
G01*
X8920000Y-11996000D02*
G75*
G02*
X9020000Y-11996000I50000J0D01*
G01*
X9204000Y-8650000D02*
G75*
G02*
X9104000Y-8650000I-50000J0D01*
G01*
X9104000Y-8650000D02*
G75*
G02*
X9204000Y-8650000I50000J0D01*
G01*
X9274000Y-10074000D02*
G75*
G02*
X9174000Y-10074000I-50000J0D01*
G01*
X9174000Y-10074000D02*
G75*
G02*
X9274000Y-10074000I50000J0D01*
G01*
X9274000Y-11997000D02*
G75*
G02*
X9174000Y-11997000I-50000J0D01*
G01*
X9174000Y-11997000D02*
G75*
G02*
X9274000Y-11997000I50000J0D01*
G01*
X9458000Y-8650000D02*
G75*
G02*
X9358000Y-8650000I-50000J0D01*
G01*
X9358000Y-8650000D02*
G75*
G02*
X9458000Y-8650000I50000J0D01*
G01*
X9528000Y-10072000D02*
G75*
G02*
X9428000Y-10072000I-50000J0D01*
G01*
X9428000Y-10072000D02*
G75*
G02*
X9528000Y-10072000I50000J0D01*
G01*
X9528000Y-11995000D02*
G75*
G02*
X9428000Y-11995000I-50000J0D01*
G01*
X9428000Y-11995000D02*
G75*
G02*
X9528000Y-11995000I50000J0D01*
G01*
X9782000Y-10078000D02*
G75*
G02*
X9682000Y-10078000I-50000J0D01*
G01*
X9682000Y-10078000D02*
G75*
G02*
X9782000Y-10078000I50000J0D01*
G01*
X9782000Y-12001000D02*
G75*
G02*
X9682000Y-12001000I-50000J0D01*
G01*
X9682000Y-12001000D02*
G75*
G02*
X9782000Y-12001000I50000J0D01*
G01*
X10271000Y-12750000D02*
G75*
G02*
X10171000Y-12750000I-50000J0D01*
G01*
X10171000Y-12750000D02*
G75*
G02*
X10271000Y-12750000I50000J0D01*
G01*
X10525000Y-12750000D02*
G75*
G02*
X10425000Y-12750000I-50000J0D01*
G01*
X10425000Y-12750000D02*
G75*
G02*
X10525000Y-12750000I50000J0D01*
G01*
D13*
X9450000Y-12345000D02*
X9450000Y-12455000D01*
X9395000Y-12400000D02*
X9505000Y-12400000D01*
X10466000Y-12345000D02*
X10466000Y-12455000D01*
X10411000Y-12400000D02*
X10521000Y-12400000D01*
D11*
X6583277Y-13438984D02*
X6583277Y-13238984D01*
X6583277Y-13238984D02*
X6630896Y-13238984D01*
X6630896Y-13238984D02*
X6659467Y-13248508D01*
X6659467Y-13248508D02*
X6678515Y-13267555D01*
X6678515Y-13267555D02*
X6688039Y-13286603D01*
X6688039Y-13286603D02*
X6697562Y-13324698D01*
X6697562Y-13324698D02*
X6697562Y-13353269D01*
X6697562Y-13353269D02*
X6688039Y-13391365D01*
X6688039Y-13391365D02*
X6678515Y-13410412D01*
X6678515Y-13410412D02*
X6659467Y-13429460D01*
X6659467Y-13429460D02*
X6630896Y-13438984D01*
X6630896Y-13438984D02*
X6583277Y-13438984D01*
X6783277Y-13438984D02*
X6783277Y-13305650D01*
X6783277Y-13343746D02*
X6792801Y-13324698D01*
X6792801Y-13324698D02*
X6802324Y-13315174D01*
X6802324Y-13315174D02*
X6821372Y-13305650D01*
X6821372Y-13305650D02*
X6840420Y-13305650D01*
X6907086Y-13438984D02*
X6907086Y-13305650D01*
X6907086Y-13238984D02*
X6897562Y-13248508D01*
X6897562Y-13248508D02*
X6907086Y-13258031D01*
X6907086Y-13258031D02*
X6916610Y-13248508D01*
X6916610Y-13248508D02*
X6907086Y-13238984D01*
X6907086Y-13238984D02*
X6907086Y-13258031D01*
X7030896Y-13438984D02*
X7011848Y-13429460D01*
X7011848Y-13429460D02*
X7002324Y-13410412D01*
X7002324Y-13410412D02*
X7002324Y-13238984D01*
X7135658Y-13438984D02*
X7116610Y-13429460D01*
X7116610Y-13429460D02*
X7107086Y-13410412D01*
X7107086Y-13410412D02*
X7107086Y-13238984D01*
X7364229Y-13438984D02*
X7364229Y-13238984D01*
X7364229Y-13238984D02*
X7430896Y-13381841D01*
X7430896Y-13381841D02*
X7497562Y-13238984D01*
X7497562Y-13238984D02*
X7497562Y-13438984D01*
X7678515Y-13438984D02*
X7678515Y-13334222D01*
X7678515Y-13334222D02*
X7668991Y-13315174D01*
X7668991Y-13315174D02*
X7649943Y-13305650D01*
X7649943Y-13305650D02*
X7611848Y-13305650D01*
X7611848Y-13305650D02*
X7592801Y-13315174D01*
X7678515Y-13429460D02*
X7659467Y-13438984D01*
X7659467Y-13438984D02*
X7611848Y-13438984D01*
X7611848Y-13438984D02*
X7592801Y-13429460D01*
X7592801Y-13429460D02*
X7583277Y-13410412D01*
X7583277Y-13410412D02*
X7583277Y-13391365D01*
X7583277Y-13391365D02*
X7592801Y-13372317D01*
X7592801Y-13372317D02*
X7611848Y-13362793D01*
X7611848Y-13362793D02*
X7659467Y-13362793D01*
X7659467Y-13362793D02*
X7678515Y-13353269D01*
X7773753Y-13305650D02*
X7773753Y-13505650D01*
X7773753Y-13315174D02*
X7792801Y-13305650D01*
X7792801Y-13305650D02*
X7830896Y-13305650D01*
X7830896Y-13305650D02*
X7849943Y-13315174D01*
X7849943Y-13315174D02*
X7859467Y-13324698D01*
X7859467Y-13324698D02*
X7868991Y-13343746D01*
X7868991Y-13343746D02*
X7868991Y-13400888D01*
X7868991Y-13400888D02*
X7859467Y-13419936D01*
X7859467Y-13419936D02*
X7849943Y-13429460D01*
X7849943Y-13429460D02*
X7830896Y-13438984D01*
X7830896Y-13438984D02*
X7792801Y-13438984D01*
X7792801Y-13438984D02*
X7773753Y-13429460D01*
X7954705Y-13419936D02*
X7964229Y-13429460D01*
X7964229Y-13429460D02*
X7954705Y-13438984D01*
X7954705Y-13438984D02*
X7945182Y-13429460D01*
X7945182Y-13429460D02*
X7954705Y-13419936D01*
X7954705Y-13419936D02*
X7954705Y-13438984D01*
X7954705Y-13315174D02*
X7964229Y-13324698D01*
X7964229Y-13324698D02*
X7954705Y-13334222D01*
X7954705Y-13334222D02*
X7945182Y-13324698D01*
X7945182Y-13324698D02*
X7954705Y-13315174D01*
X7954705Y-13315174D02*
X7954705Y-13334222D01*
D12*
X6292500Y-13752500D02*
X6322500Y-13782500D01*
X6322500Y-13752500D02*
X6292500Y-13782500D01*
D11*
X6621372Y-13658984D02*
X6640420Y-13658984D01*
X6640420Y-13658984D02*
X6659467Y-13668508D01*
X6659467Y-13668508D02*
X6668991Y-13678031D01*
X6668991Y-13678031D02*
X6678515Y-13697079D01*
X6678515Y-13697079D02*
X6688039Y-13735174D01*
X6688039Y-13735174D02*
X6688039Y-13782793D01*
X6688039Y-13782793D02*
X6678515Y-13820888D01*
X6678515Y-13820888D02*
X6668991Y-13839936D01*
X6668991Y-13839936D02*
X6659467Y-13849460D01*
X6659467Y-13849460D02*
X6640420Y-13858984D01*
X6640420Y-13858984D02*
X6621372Y-13858984D01*
X6621372Y-13858984D02*
X6602324Y-13849460D01*
X6602324Y-13849460D02*
X6592801Y-13839936D01*
X6592801Y-13839936D02*
X6583277Y-13820888D01*
X6583277Y-13820888D02*
X6573753Y-13782793D01*
X6573753Y-13782793D02*
X6573753Y-13735174D01*
X6573753Y-13735174D02*
X6583277Y-13697079D01*
X6583277Y-13697079D02*
X6592801Y-13678031D01*
X6592801Y-13678031D02*
X6602324Y-13668508D01*
X6602324Y-13668508D02*
X6621372Y-13658984D01*
X6773753Y-13839936D02*
X6783277Y-13849460D01*
X6783277Y-13849460D02*
X6773753Y-13858984D01*
X6773753Y-13858984D02*
X6764229Y-13849460D01*
X6764229Y-13849460D02*
X6773753Y-13839936D01*
X6773753Y-13839936D02*
X6773753Y-13858984D01*
X6849943Y-13658984D02*
X6973753Y-13658984D01*
X6973753Y-13658984D02*
X6907086Y-13735174D01*
X6907086Y-13735174D02*
X6935658Y-13735174D01*
X6935658Y-13735174D02*
X6954705Y-13744698D01*
X6954705Y-13744698D02*
X6964229Y-13754222D01*
X6964229Y-13754222D02*
X6973753Y-13773269D01*
X6973753Y-13773269D02*
X6973753Y-13820888D01*
X6973753Y-13820888D02*
X6964229Y-13839936D01*
X6964229Y-13839936D02*
X6954705Y-13849460D01*
X6954705Y-13849460D02*
X6935658Y-13858984D01*
X6935658Y-13858984D02*
X6878515Y-13858984D01*
X6878515Y-13858984D02*
X6859467Y-13849460D01*
X6859467Y-13849460D02*
X6849943Y-13839936D01*
X7097562Y-13658984D02*
X7116610Y-13658984D01*
X7116610Y-13658984D02*
X7135658Y-13668508D01*
X7135658Y-13668508D02*
X7145182Y-13678031D01*
X7145182Y-13678031D02*
X7154705Y-13697079D01*
X7154705Y-13697079D02*
X7164229Y-13735174D01*
X7164229Y-13735174D02*
X7164229Y-13782793D01*
X7164229Y-13782793D02*
X7154705Y-13820888D01*
X7154705Y-13820888D02*
X7145182Y-13839936D01*
X7145182Y-13839936D02*
X7135658Y-13849460D01*
X7135658Y-13849460D02*
X7116610Y-13858984D01*
X7116610Y-13858984D02*
X7097562Y-13858984D01*
X7097562Y-13858984D02*
X7078515Y-13849460D01*
X7078515Y-13849460D02*
X7068991Y-13839936D01*
X7068991Y-13839936D02*
X7059467Y-13820888D01*
X7059467Y-13820888D02*
X7049943Y-13782793D01*
X7049943Y-13782793D02*
X7049943Y-13735174D01*
X7049943Y-13735174D02*
X7059467Y-13697079D01*
X7059467Y-13697079D02*
X7068991Y-13678031D01*
X7068991Y-13678031D02*
X7078515Y-13668508D01*
X7078515Y-13668508D02*
X7097562Y-13658984D01*
X7288039Y-13658984D02*
X7307086Y-13658984D01*
X7307086Y-13658984D02*
X7326134Y-13668508D01*
X7326134Y-13668508D02*
X7335658Y-13678031D01*
X7335658Y-13678031D02*
X7345182Y-13697079D01*
X7345182Y-13697079D02*
X7354705Y-13735174D01*
X7354705Y-13735174D02*
X7354705Y-13782793D01*
X7354705Y-13782793D02*
X7345182Y-13820888D01*
X7345182Y-13820888D02*
X7335658Y-13839936D01*
X7335658Y-13839936D02*
X7326134Y-13849460D01*
X7326134Y-13849460D02*
X7307086Y-13858984D01*
X7307086Y-13858984D02*
X7288039Y-13858984D01*
X7288039Y-13858984D02*
X7268991Y-13849460D01*
X7268991Y-13849460D02*
X7259467Y-13839936D01*
X7259467Y-13839936D02*
X7249943Y-13820888D01*
X7249943Y-13820888D02*
X7240420Y-13782793D01*
X7240420Y-13782793D02*
X7240420Y-13735174D01*
X7240420Y-13735174D02*
X7249943Y-13697079D01*
X7249943Y-13697079D02*
X7259467Y-13678031D01*
X7259467Y-13678031D02*
X7268991Y-13668508D01*
X7268991Y-13668508D02*
X7288039Y-13658984D01*
X7440420Y-13858984D02*
X7440420Y-13725650D01*
X7440420Y-13744698D02*
X7449943Y-13735174D01*
X7449943Y-13735174D02*
X7468991Y-13725650D01*
X7468991Y-13725650D02*
X7497563Y-13725650D01*
X7497563Y-13725650D02*
X7516610Y-13735174D01*
X7516610Y-13735174D02*
X7526134Y-13754222D01*
X7526134Y-13754222D02*
X7526134Y-13858984D01*
X7526134Y-13754222D02*
X7535658Y-13735174D01*
X7535658Y-13735174D02*
X7554705Y-13725650D01*
X7554705Y-13725650D02*
X7583277Y-13725650D01*
X7583277Y-13725650D02*
X7602324Y-13735174D01*
X7602324Y-13735174D02*
X7611848Y-13754222D01*
X7611848Y-13754222D02*
X7611848Y-13858984D01*
X7707086Y-13858984D02*
X7707086Y-13725650D01*
X7707086Y-13744698D02*
X7716610Y-13735174D01*
X7716610Y-13735174D02*
X7735658Y-13725650D01*
X7735658Y-13725650D02*
X7764229Y-13725650D01*
X7764229Y-13725650D02*
X7783277Y-13735174D01*
X7783277Y-13735174D02*
X7792801Y-13754222D01*
X7792801Y-13754222D02*
X7792801Y-13858984D01*
X7792801Y-13754222D02*
X7802324Y-13735174D01*
X7802324Y-13735174D02*
X7821372Y-13725650D01*
X7821372Y-13725650D02*
X7849943Y-13725650D01*
X7849943Y-13725650D02*
X7868991Y-13735174D01*
X7868991Y-13735174D02*
X7878515Y-13754222D01*
X7878515Y-13754222D02*
X7878515Y-13858984D01*
X8268991Y-13649460D02*
X8097563Y-13906603D01*
X8526134Y-13658984D02*
X8545182Y-13658984D01*
X8545182Y-13658984D02*
X8564229Y-13668508D01*
X8564229Y-13668508D02*
X8573753Y-13678031D01*
X8573753Y-13678031D02*
X8583277Y-13697079D01*
X8583277Y-13697079D02*
X8592801Y-13735174D01*
X8592801Y-13735174D02*
X8592801Y-13782793D01*
X8592801Y-13782793D02*
X8583277Y-13820888D01*
X8583277Y-13820888D02*
X8573753Y-13839936D01*
X8573753Y-13839936D02*
X8564229Y-13849460D01*
X8564229Y-13849460D02*
X8545182Y-13858984D01*
X8545182Y-13858984D02*
X8526134Y-13858984D01*
X8526134Y-13858984D02*
X8507087Y-13849460D01*
X8507087Y-13849460D02*
X8497563Y-13839936D01*
X8497563Y-13839936D02*
X8488039Y-13820888D01*
X8488039Y-13820888D02*
X8478515Y-13782793D01*
X8478515Y-13782793D02*
X8478515Y-13735174D01*
X8478515Y-13735174D02*
X8488039Y-13697079D01*
X8488039Y-13697079D02*
X8497563Y-13678031D01*
X8497563Y-13678031D02*
X8507087Y-13668508D01*
X8507087Y-13668508D02*
X8526134Y-13658984D01*
X8678515Y-13839936D02*
X8688039Y-13849460D01*
X8688039Y-13849460D02*
X8678515Y-13858984D01*
X8678515Y-13858984D02*
X8668991Y-13849460D01*
X8668991Y-13849460D02*
X8678515Y-13839936D01*
X8678515Y-13839936D02*
X8678515Y-13858984D01*
X8811848Y-13658984D02*
X8830896Y-13658984D01*
X8830896Y-13658984D02*
X8849944Y-13668508D01*
X8849944Y-13668508D02*
X8859468Y-13678031D01*
X8859468Y-13678031D02*
X8868991Y-13697079D01*
X8868991Y-13697079D02*
X8878515Y-13735174D01*
X8878515Y-13735174D02*
X8878515Y-13782793D01*
X8878515Y-13782793D02*
X8868991Y-13820888D01*
X8868991Y-13820888D02*
X8859468Y-13839936D01*
X8859468Y-13839936D02*
X8849944Y-13849460D01*
X8849944Y-13849460D02*
X8830896Y-13858984D01*
X8830896Y-13858984D02*
X8811848Y-13858984D01*
X8811848Y-13858984D02*
X8792801Y-13849460D01*
X8792801Y-13849460D02*
X8783277Y-13839936D01*
X8783277Y-13839936D02*
X8773753Y-13820888D01*
X8773753Y-13820888D02*
X8764229Y-13782793D01*
X8764229Y-13782793D02*
X8764229Y-13735174D01*
X8764229Y-13735174D02*
X8773753Y-13697079D01*
X8773753Y-13697079D02*
X8783277Y-13678031D01*
X8783277Y-13678031D02*
X8792801Y-13668508D01*
X8792801Y-13668508D02*
X8811848Y-13658984D01*
X9068991Y-13858984D02*
X8954706Y-13858984D01*
X9011848Y-13858984D02*
X9011848Y-13658984D01*
X9011848Y-13658984D02*
X8992801Y-13687555D01*
X8992801Y-13687555D02*
X8973753Y-13706603D01*
X8973753Y-13706603D02*
X8954706Y-13716127D01*
X9259468Y-13858984D02*
X9145182Y-13858984D01*
X9202325Y-13858984D02*
X9202325Y-13658984D01*
X9202325Y-13658984D02*
X9183277Y-13687555D01*
X9183277Y-13687555D02*
X9164229Y-13706603D01*
X9164229Y-13706603D02*
X9145182Y-13716127D01*
X9373753Y-13744698D02*
X9354706Y-13735174D01*
X9354706Y-13735174D02*
X9345182Y-13725650D01*
X9345182Y-13725650D02*
X9335658Y-13706603D01*
X9335658Y-13706603D02*
X9335658Y-13697079D01*
X9335658Y-13697079D02*
X9345182Y-13678031D01*
X9345182Y-13678031D02*
X9354706Y-13668508D01*
X9354706Y-13668508D02*
X9373753Y-13658984D01*
X9373753Y-13658984D02*
X9411849Y-13658984D01*
X9411849Y-13658984D02*
X9430896Y-13668508D01*
X9430896Y-13668508D02*
X9440420Y-13678031D01*
X9440420Y-13678031D02*
X9449944Y-13697079D01*
X9449944Y-13697079D02*
X9449944Y-13706603D01*
X9449944Y-13706603D02*
X9440420Y-13725650D01*
X9440420Y-13725650D02*
X9430896Y-13735174D01*
X9430896Y-13735174D02*
X9411849Y-13744698D01*
X9411849Y-13744698D02*
X9373753Y-13744698D01*
X9373753Y-13744698D02*
X9354706Y-13754222D01*
X9354706Y-13754222D02*
X9345182Y-13763746D01*
X9345182Y-13763746D02*
X9335658Y-13782793D01*
X9335658Y-13782793D02*
X9335658Y-13820888D01*
X9335658Y-13820888D02*
X9345182Y-13839936D01*
X9345182Y-13839936D02*
X9354706Y-13849460D01*
X9354706Y-13849460D02*
X9373753Y-13858984D01*
X9373753Y-13858984D02*
X9411849Y-13858984D01*
X9411849Y-13858984D02*
X9430896Y-13849460D01*
X9430896Y-13849460D02*
X9440420Y-13839936D01*
X9440420Y-13839936D02*
X9449944Y-13820888D01*
X9449944Y-13820888D02*
X9449944Y-13782793D01*
X9449944Y-13782793D02*
X9440420Y-13763746D01*
X9440420Y-13763746D02*
X9430896Y-13754222D01*
X9430896Y-13754222D02*
X9411849Y-13744698D01*
X9526134Y-13658984D02*
X9526134Y-13697079D01*
X9602325Y-13658984D02*
X9602325Y-13697079D01*
X9897563Y-13935174D02*
X9888039Y-13925650D01*
X9888039Y-13925650D02*
X9868991Y-13897079D01*
X9868991Y-13897079D02*
X9859468Y-13878031D01*
X9859468Y-13878031D02*
X9849944Y-13849460D01*
X9849944Y-13849460D02*
X9840420Y-13801841D01*
X9840420Y-13801841D02*
X9840420Y-13763746D01*
X9840420Y-13763746D02*
X9849944Y-13716127D01*
X9849944Y-13716127D02*
X9859468Y-13687555D01*
X9859468Y-13687555D02*
X9868991Y-13668508D01*
X9868991Y-13668508D02*
X9888039Y-13639936D01*
X9888039Y-13639936D02*
X9897563Y-13630412D01*
X10002325Y-13744698D02*
X9983277Y-13735174D01*
X9983277Y-13735174D02*
X9973753Y-13725650D01*
X9973753Y-13725650D02*
X9964230Y-13706603D01*
X9964230Y-13706603D02*
X9964230Y-13697079D01*
X9964230Y-13697079D02*
X9973753Y-13678031D01*
X9973753Y-13678031D02*
X9983277Y-13668508D01*
X9983277Y-13668508D02*
X10002325Y-13658984D01*
X10002325Y-13658984D02*
X10040420Y-13658984D01*
X10040420Y-13658984D02*
X10059468Y-13668508D01*
X10059468Y-13668508D02*
X10068991Y-13678031D01*
X10068991Y-13678031D02*
X10078515Y-13697079D01*
X10078515Y-13697079D02*
X10078515Y-13706603D01*
X10078515Y-13706603D02*
X10068991Y-13725650D01*
X10068991Y-13725650D02*
X10059468Y-13735174D01*
X10059468Y-13735174D02*
X10040420Y-13744698D01*
X10040420Y-13744698D02*
X10002325Y-13744698D01*
X10002325Y-13744698D02*
X9983277Y-13754222D01*
X9983277Y-13754222D02*
X9973753Y-13763746D01*
X9973753Y-13763746D02*
X9964230Y-13782793D01*
X9964230Y-13782793D02*
X9964230Y-13820888D01*
X9964230Y-13820888D02*
X9973753Y-13839936D01*
X9973753Y-13839936D02*
X9983277Y-13849460D01*
X9983277Y-13849460D02*
X10002325Y-13858984D01*
X10002325Y-13858984D02*
X10040420Y-13858984D01*
X10040420Y-13858984D02*
X10059468Y-13849460D01*
X10059468Y-13849460D02*
X10068991Y-13839936D01*
X10068991Y-13839936D02*
X10078515Y-13820888D01*
X10078515Y-13820888D02*
X10078515Y-13782793D01*
X10078515Y-13782793D02*
X10068991Y-13763746D01*
X10068991Y-13763746D02*
X10059468Y-13754222D01*
X10059468Y-13754222D02*
X10040420Y-13744698D01*
X10192801Y-13744698D02*
X10173753Y-13735174D01*
X10173753Y-13735174D02*
X10164230Y-13725650D01*
X10164230Y-13725650D02*
X10154706Y-13706603D01*
X10154706Y-13706603D02*
X10154706Y-13697079D01*
X10154706Y-13697079D02*
X10164230Y-13678031D01*
X10164230Y-13678031D02*
X10173753Y-13668508D01*
X10173753Y-13668508D02*
X10192801Y-13658984D01*
X10192801Y-13658984D02*
X10230896Y-13658984D01*
X10230896Y-13658984D02*
X10249944Y-13668508D01*
X10249944Y-13668508D02*
X10259468Y-13678031D01*
X10259468Y-13678031D02*
X10268991Y-13697079D01*
X10268991Y-13697079D02*
X10268991Y-13706603D01*
X10268991Y-13706603D02*
X10259468Y-13725650D01*
X10259468Y-13725650D02*
X10249944Y-13735174D01*
X10249944Y-13735174D02*
X10230896Y-13744698D01*
X10230896Y-13744698D02*
X10192801Y-13744698D01*
X10192801Y-13744698D02*
X10173753Y-13754222D01*
X10173753Y-13754222D02*
X10164230Y-13763746D01*
X10164230Y-13763746D02*
X10154706Y-13782793D01*
X10154706Y-13782793D02*
X10154706Y-13820888D01*
X10154706Y-13820888D02*
X10164230Y-13839936D01*
X10164230Y-13839936D02*
X10173753Y-13849460D01*
X10173753Y-13849460D02*
X10192801Y-13858984D01*
X10192801Y-13858984D02*
X10230896Y-13858984D01*
X10230896Y-13858984D02*
X10249944Y-13849460D01*
X10249944Y-13849460D02*
X10259468Y-13839936D01*
X10259468Y-13839936D02*
X10268991Y-13820888D01*
X10268991Y-13820888D02*
X10268991Y-13782793D01*
X10268991Y-13782793D02*
X10259468Y-13763746D01*
X10259468Y-13763746D02*
X10249944Y-13754222D01*
X10249944Y-13754222D02*
X10230896Y-13744698D01*
X10507087Y-13858984D02*
X10507087Y-13658984D01*
X10592801Y-13858984D02*
X10592801Y-13754222D01*
X10592801Y-13754222D02*
X10583277Y-13735174D01*
X10583277Y-13735174D02*
X10564230Y-13725650D01*
X10564230Y-13725650D02*
X10535658Y-13725650D01*
X10535658Y-13725650D02*
X10516611Y-13735174D01*
X10516611Y-13735174D02*
X10507087Y-13744698D01*
X10716611Y-13858984D02*
X10697563Y-13849460D01*
X10697563Y-13849460D02*
X10688039Y-13839936D01*
X10688039Y-13839936D02*
X10678515Y-13820888D01*
X10678515Y-13820888D02*
X10678515Y-13763746D01*
X10678515Y-13763746D02*
X10688039Y-13744698D01*
X10688039Y-13744698D02*
X10697563Y-13735174D01*
X10697563Y-13735174D02*
X10716611Y-13725650D01*
X10716611Y-13725650D02*
X10745182Y-13725650D01*
X10745182Y-13725650D02*
X10764230Y-13735174D01*
X10764230Y-13735174D02*
X10773753Y-13744698D01*
X10773753Y-13744698D02*
X10783277Y-13763746D01*
X10783277Y-13763746D02*
X10783277Y-13820888D01*
X10783277Y-13820888D02*
X10773753Y-13839936D01*
X10773753Y-13839936D02*
X10764230Y-13849460D01*
X10764230Y-13849460D02*
X10745182Y-13858984D01*
X10745182Y-13858984D02*
X10716611Y-13858984D01*
X10897563Y-13858984D02*
X10878515Y-13849460D01*
X10878515Y-13849460D02*
X10868992Y-13830412D01*
X10868992Y-13830412D02*
X10868992Y-13658984D01*
X11049944Y-13849460D02*
X11030896Y-13858984D01*
X11030896Y-13858984D02*
X10992801Y-13858984D01*
X10992801Y-13858984D02*
X10973753Y-13849460D01*
X10973753Y-13849460D02*
X10964230Y-13830412D01*
X10964230Y-13830412D02*
X10964230Y-13754222D01*
X10964230Y-13754222D02*
X10973753Y-13735174D01*
X10973753Y-13735174D02*
X10992801Y-13725650D01*
X10992801Y-13725650D02*
X11030896Y-13725650D01*
X11030896Y-13725650D02*
X11049944Y-13735174D01*
X11049944Y-13735174D02*
X11059468Y-13754222D01*
X11059468Y-13754222D02*
X11059468Y-13773269D01*
X11059468Y-13773269D02*
X10964230Y-13792317D01*
X11135658Y-13849460D02*
X11154706Y-13858984D01*
X11154706Y-13858984D02*
X11192801Y-13858984D01*
X11192801Y-13858984D02*
X11211849Y-13849460D01*
X11211849Y-13849460D02*
X11221372Y-13830412D01*
X11221372Y-13830412D02*
X11221372Y-13820888D01*
X11221372Y-13820888D02*
X11211849Y-13801841D01*
X11211849Y-13801841D02*
X11192801Y-13792317D01*
X11192801Y-13792317D02*
X11164230Y-13792317D01*
X11164230Y-13792317D02*
X11145182Y-13782793D01*
X11145182Y-13782793D02*
X11135658Y-13763746D01*
X11135658Y-13763746D02*
X11135658Y-13754222D01*
X11135658Y-13754222D02*
X11145182Y-13735174D01*
X11145182Y-13735174D02*
X11164230Y-13725650D01*
X11164230Y-13725650D02*
X11192801Y-13725650D01*
X11192801Y-13725650D02*
X11211849Y-13735174D01*
X11288039Y-13935174D02*
X11297563Y-13925650D01*
X11297563Y-13925650D02*
X11316611Y-13897079D01*
X11316611Y-13897079D02*
X11326134Y-13878031D01*
X11326134Y-13878031D02*
X11335658Y-13849460D01*
X11335658Y-13849460D02*
X11345182Y-13801841D01*
X11345182Y-13801841D02*
X11345182Y-13763746D01*
X11345182Y-13763746D02*
X11335658Y-13716127D01*
X11335658Y-13716127D02*
X11326134Y-13687555D01*
X11326134Y-13687555D02*
X11316611Y-13668508D01*
X11316611Y-13668508D02*
X11297563Y-13639936D01*
X11297563Y-13639936D02*
X11288039Y-13630412D01*
D12*
X6322500Y-14031500D02*
G75*
G02*
X6222500Y-14031500I-50000J0D01*
G01*
X6222500Y-14031500D02*
G75*
G02*
X6322500Y-14031500I50000J0D01*
G01*
D11*
X6688039Y-14122984D02*
X6573753Y-14122984D01*
X6630896Y-14122984D02*
X6630896Y-13922984D01*
X6630896Y-13922984D02*
X6611848Y-13951555D01*
X6611848Y-13951555D02*
X6592801Y-13970603D01*
X6592801Y-13970603D02*
X6573753Y-13980127D01*
X6773753Y-14103936D02*
X6783277Y-14113460D01*
X6783277Y-14113460D02*
X6773753Y-14122984D01*
X6773753Y-14122984D02*
X6764229Y-14113460D01*
X6764229Y-14113460D02*
X6773753Y-14103936D01*
X6773753Y-14103936D02*
X6773753Y-14122984D01*
X6907086Y-13922984D02*
X6926134Y-13922984D01*
X6926134Y-13922984D02*
X6945182Y-13932508D01*
X6945182Y-13932508D02*
X6954705Y-13942031D01*
X6954705Y-13942031D02*
X6964229Y-13961079D01*
X6964229Y-13961079D02*
X6973753Y-13999174D01*
X6973753Y-13999174D02*
X6973753Y-14046793D01*
X6973753Y-14046793D02*
X6964229Y-14084888D01*
X6964229Y-14084888D02*
X6954705Y-14103936D01*
X6954705Y-14103936D02*
X6945182Y-14113460D01*
X6945182Y-14113460D02*
X6926134Y-14122984D01*
X6926134Y-14122984D02*
X6907086Y-14122984D01*
X6907086Y-14122984D02*
X6888039Y-14113460D01*
X6888039Y-14113460D02*
X6878515Y-14103936D01*
X6878515Y-14103936D02*
X6868991Y-14084888D01*
X6868991Y-14084888D02*
X6859467Y-14046793D01*
X6859467Y-14046793D02*
X6859467Y-13999174D01*
X6859467Y-13999174D02*
X6868991Y-13961079D01*
X6868991Y-13961079D02*
X6878515Y-13942031D01*
X6878515Y-13942031D02*
X6888039Y-13932508D01*
X6888039Y-13932508D02*
X6907086Y-13922984D01*
X7097562Y-13922984D02*
X7116610Y-13922984D01*
X7116610Y-13922984D02*
X7135658Y-13932508D01*
X7135658Y-13932508D02*
X7145182Y-13942031D01*
X7145182Y-13942031D02*
X7154705Y-13961079D01*
X7154705Y-13961079D02*
X7164229Y-13999174D01*
X7164229Y-13999174D02*
X7164229Y-14046793D01*
X7164229Y-14046793D02*
X7154705Y-14084888D01*
X7154705Y-14084888D02*
X7145182Y-14103936D01*
X7145182Y-14103936D02*
X7135658Y-14113460D01*
X7135658Y-14113460D02*
X7116610Y-14122984D01*
X7116610Y-14122984D02*
X7097562Y-14122984D01*
X7097562Y-14122984D02*
X7078515Y-14113460D01*
X7078515Y-14113460D02*
X7068991Y-14103936D01*
X7068991Y-14103936D02*
X7059467Y-14084888D01*
X7059467Y-14084888D02*
X7049943Y-14046793D01*
X7049943Y-14046793D02*
X7049943Y-13999174D01*
X7049943Y-13999174D02*
X7059467Y-13961079D01*
X7059467Y-13961079D02*
X7068991Y-13942031D01*
X7068991Y-13942031D02*
X7078515Y-13932508D01*
X7078515Y-13932508D02*
X7097562Y-13922984D01*
X7288039Y-13922984D02*
X7307086Y-13922984D01*
X7307086Y-13922984D02*
X7326134Y-13932508D01*
X7326134Y-13932508D02*
X7335658Y-13942031D01*
X7335658Y-13942031D02*
X7345182Y-13961079D01*
X7345182Y-13961079D02*
X7354705Y-13999174D01*
X7354705Y-13999174D02*
X7354705Y-14046793D01*
X7354705Y-14046793D02*
X7345182Y-14084888D01*
X7345182Y-14084888D02*
X7335658Y-14103936D01*
X7335658Y-14103936D02*
X7326134Y-14113460D01*
X7326134Y-14113460D02*
X7307086Y-14122984D01*
X7307086Y-14122984D02*
X7288039Y-14122984D01*
X7288039Y-14122984D02*
X7268991Y-14113460D01*
X7268991Y-14113460D02*
X7259467Y-14103936D01*
X7259467Y-14103936D02*
X7249943Y-14084888D01*
X7249943Y-14084888D02*
X7240420Y-14046793D01*
X7240420Y-14046793D02*
X7240420Y-13999174D01*
X7240420Y-13999174D02*
X7249943Y-13961079D01*
X7249943Y-13961079D02*
X7259467Y-13942031D01*
X7259467Y-13942031D02*
X7268991Y-13932508D01*
X7268991Y-13932508D02*
X7288039Y-13922984D01*
X7440420Y-14122984D02*
X7440420Y-13989650D01*
X7440420Y-14008698D02*
X7449943Y-13999174D01*
X7449943Y-13999174D02*
X7468991Y-13989650D01*
X7468991Y-13989650D02*
X7497563Y-13989650D01*
X7497563Y-13989650D02*
X7516610Y-13999174D01*
X7516610Y-13999174D02*
X7526134Y-14018222D01*
X7526134Y-14018222D02*
X7526134Y-14122984D01*
X7526134Y-14018222D02*
X7535658Y-13999174D01*
X7535658Y-13999174D02*
X7554705Y-13989650D01*
X7554705Y-13989650D02*
X7583277Y-13989650D01*
X7583277Y-13989650D02*
X7602324Y-13999174D01*
X7602324Y-13999174D02*
X7611848Y-14018222D01*
X7611848Y-14018222D02*
X7611848Y-14122984D01*
X7707086Y-14122984D02*
X7707086Y-13989650D01*
X7707086Y-14008698D02*
X7716610Y-13999174D01*
X7716610Y-13999174D02*
X7735658Y-13989650D01*
X7735658Y-13989650D02*
X7764229Y-13989650D01*
X7764229Y-13989650D02*
X7783277Y-13999174D01*
X7783277Y-13999174D02*
X7792801Y-14018222D01*
X7792801Y-14018222D02*
X7792801Y-14122984D01*
X7792801Y-14018222D02*
X7802324Y-13999174D01*
X7802324Y-13999174D02*
X7821372Y-13989650D01*
X7821372Y-13989650D02*
X7849943Y-13989650D01*
X7849943Y-13989650D02*
X7868991Y-13999174D01*
X7868991Y-13999174D02*
X7878515Y-14018222D01*
X7878515Y-14018222D02*
X7878515Y-14122984D01*
X8268991Y-13913460D02*
X8097563Y-14170603D01*
X8526134Y-13922984D02*
X8545182Y-13922984D01*
X8545182Y-13922984D02*
X8564229Y-13932508D01*
X8564229Y-13932508D02*
X8573753Y-13942031D01*
X8573753Y-13942031D02*
X8583277Y-13961079D01*
X8583277Y-13961079D02*
X8592801Y-13999174D01*
X8592801Y-13999174D02*
X8592801Y-14046793D01*
X8592801Y-14046793D02*
X8583277Y-14084888D01*
X8583277Y-14084888D02*
X8573753Y-14103936D01*
X8573753Y-14103936D02*
X8564229Y-14113460D01*
X8564229Y-14113460D02*
X8545182Y-14122984D01*
X8545182Y-14122984D02*
X8526134Y-14122984D01*
X8526134Y-14122984D02*
X8507087Y-14113460D01*
X8507087Y-14113460D02*
X8497563Y-14103936D01*
X8497563Y-14103936D02*
X8488039Y-14084888D01*
X8488039Y-14084888D02*
X8478515Y-14046793D01*
X8478515Y-14046793D02*
X8478515Y-13999174D01*
X8478515Y-13999174D02*
X8488039Y-13961079D01*
X8488039Y-13961079D02*
X8497563Y-13942031D01*
X8497563Y-13942031D02*
X8507087Y-13932508D01*
X8507087Y-13932508D02*
X8526134Y-13922984D01*
X8678515Y-14103936D02*
X8688039Y-14113460D01*
X8688039Y-14113460D02*
X8678515Y-14122984D01*
X8678515Y-14122984D02*
X8668991Y-14113460D01*
X8668991Y-14113460D02*
X8678515Y-14103936D01*
X8678515Y-14103936D02*
X8678515Y-14122984D01*
X8811848Y-13922984D02*
X8830896Y-13922984D01*
X8830896Y-13922984D02*
X8849944Y-13932508D01*
X8849944Y-13932508D02*
X8859468Y-13942031D01*
X8859468Y-13942031D02*
X8868991Y-13961079D01*
X8868991Y-13961079D02*
X8878515Y-13999174D01*
X8878515Y-13999174D02*
X8878515Y-14046793D01*
X8878515Y-14046793D02*
X8868991Y-14084888D01*
X8868991Y-14084888D02*
X8859468Y-14103936D01*
X8859468Y-14103936D02*
X8849944Y-14113460D01*
X8849944Y-14113460D02*
X8830896Y-14122984D01*
X8830896Y-14122984D02*
X8811848Y-14122984D01*
X8811848Y-14122984D02*
X8792801Y-14113460D01*
X8792801Y-14113460D02*
X8783277Y-14103936D01*
X8783277Y-14103936D02*
X8773753Y-14084888D01*
X8773753Y-14084888D02*
X8764229Y-14046793D01*
X8764229Y-14046793D02*
X8764229Y-13999174D01*
X8764229Y-13999174D02*
X8773753Y-13961079D01*
X8773753Y-13961079D02*
X8783277Y-13942031D01*
X8783277Y-13942031D02*
X8792801Y-13932508D01*
X8792801Y-13932508D02*
X8811848Y-13922984D01*
X8945182Y-13922984D02*
X9068991Y-13922984D01*
X9068991Y-13922984D02*
X9002325Y-13999174D01*
X9002325Y-13999174D02*
X9030896Y-13999174D01*
X9030896Y-13999174D02*
X9049944Y-14008698D01*
X9049944Y-14008698D02*
X9059468Y-14018222D01*
X9059468Y-14018222D02*
X9068991Y-14037269D01*
X9068991Y-14037269D02*
X9068991Y-14084888D01*
X9068991Y-14084888D02*
X9059468Y-14103936D01*
X9059468Y-14103936D02*
X9049944Y-14113460D01*
X9049944Y-14113460D02*
X9030896Y-14122984D01*
X9030896Y-14122984D02*
X8973753Y-14122984D01*
X8973753Y-14122984D02*
X8954706Y-14113460D01*
X8954706Y-14113460D02*
X8945182Y-14103936D01*
X9164229Y-14122984D02*
X9202325Y-14122984D01*
X9202325Y-14122984D02*
X9221372Y-14113460D01*
X9221372Y-14113460D02*
X9230896Y-14103936D01*
X9230896Y-14103936D02*
X9249944Y-14075365D01*
X9249944Y-14075365D02*
X9259468Y-14037269D01*
X9259468Y-14037269D02*
X9259468Y-13961079D01*
X9259468Y-13961079D02*
X9249944Y-13942031D01*
X9249944Y-13942031D02*
X9240420Y-13932508D01*
X9240420Y-13932508D02*
X9221372Y-13922984D01*
X9221372Y-13922984D02*
X9183277Y-13922984D01*
X9183277Y-13922984D02*
X9164229Y-13932508D01*
X9164229Y-13932508D02*
X9154706Y-13942031D01*
X9154706Y-13942031D02*
X9145182Y-13961079D01*
X9145182Y-13961079D02*
X9145182Y-14008698D01*
X9145182Y-14008698D02*
X9154706Y-14027746D01*
X9154706Y-14027746D02*
X9164229Y-14037269D01*
X9164229Y-14037269D02*
X9183277Y-14046793D01*
X9183277Y-14046793D02*
X9221372Y-14046793D01*
X9221372Y-14046793D02*
X9240420Y-14037269D01*
X9240420Y-14037269D02*
X9249944Y-14027746D01*
X9249944Y-14027746D02*
X9259468Y-14008698D01*
X9430896Y-13989650D02*
X9430896Y-14122984D01*
X9383277Y-13913460D02*
X9335658Y-14056317D01*
X9335658Y-14056317D02*
X9459468Y-14056317D01*
X9526134Y-13922984D02*
X9526134Y-13961079D01*
X9602325Y-13922984D02*
X9602325Y-13961079D01*
X9897563Y-14199174D02*
X9888039Y-14189650D01*
X9888039Y-14189650D02*
X9868991Y-14161079D01*
X9868991Y-14161079D02*
X9859468Y-14142031D01*
X9859468Y-14142031D02*
X9849944Y-14113460D01*
X9849944Y-14113460D02*
X9840420Y-14065841D01*
X9840420Y-14065841D02*
X9840420Y-14027746D01*
X9840420Y-14027746D02*
X9849944Y-13980127D01*
X9849944Y-13980127D02*
X9859468Y-13951555D01*
X9859468Y-13951555D02*
X9868991Y-13932508D01*
X9868991Y-13932508D02*
X9888039Y-13903936D01*
X9888039Y-13903936D02*
X9897563Y-13894412D01*
X9964230Y-13942031D02*
X9973753Y-13932508D01*
X9973753Y-13932508D02*
X9992801Y-13922984D01*
X9992801Y-13922984D02*
X10040420Y-13922984D01*
X10040420Y-13922984D02*
X10059468Y-13932508D01*
X10059468Y-13932508D02*
X10068991Y-13942031D01*
X10068991Y-13942031D02*
X10078515Y-13961079D01*
X10078515Y-13961079D02*
X10078515Y-13980127D01*
X10078515Y-13980127D02*
X10068991Y-14008698D01*
X10068991Y-14008698D02*
X9954706Y-14122984D01*
X9954706Y-14122984D02*
X10078515Y-14122984D01*
X10259468Y-13922984D02*
X10164230Y-13922984D01*
X10164230Y-13922984D02*
X10154706Y-14018222D01*
X10154706Y-14018222D02*
X10164230Y-14008698D01*
X10164230Y-14008698D02*
X10183277Y-13999174D01*
X10183277Y-13999174D02*
X10230896Y-13999174D01*
X10230896Y-13999174D02*
X10249944Y-14008698D01*
X10249944Y-14008698D02*
X10259468Y-14018222D01*
X10259468Y-14018222D02*
X10268991Y-14037269D01*
X10268991Y-14037269D02*
X10268991Y-14084888D01*
X10268991Y-14084888D02*
X10259468Y-14103936D01*
X10259468Y-14103936D02*
X10249944Y-14113460D01*
X10249944Y-14113460D02*
X10230896Y-14122984D01*
X10230896Y-14122984D02*
X10183277Y-14122984D01*
X10183277Y-14122984D02*
X10164230Y-14113460D01*
X10164230Y-14113460D02*
X10154706Y-14103936D01*
X10507087Y-14122984D02*
X10507087Y-13922984D01*
X10592801Y-14122984D02*
X10592801Y-14018222D01*
X10592801Y-14018222D02*
X10583277Y-13999174D01*
X10583277Y-13999174D02*
X10564230Y-13989650D01*
X10564230Y-13989650D02*
X10535658Y-13989650D01*
X10535658Y-13989650D02*
X10516611Y-13999174D01*
X10516611Y-13999174D02*
X10507087Y-14008698D01*
X10716611Y-14122984D02*
X10697563Y-14113460D01*
X10697563Y-14113460D02*
X10688039Y-14103936D01*
X10688039Y-14103936D02*
X10678515Y-14084888D01*
X10678515Y-14084888D02*
X10678515Y-14027746D01*
X10678515Y-14027746D02*
X10688039Y-14008698D01*
X10688039Y-14008698D02*
X10697563Y-13999174D01*
X10697563Y-13999174D02*
X10716611Y-13989650D01*
X10716611Y-13989650D02*
X10745182Y-13989650D01*
X10745182Y-13989650D02*
X10764230Y-13999174D01*
X10764230Y-13999174D02*
X10773753Y-14008698D01*
X10773753Y-14008698D02*
X10783277Y-14027746D01*
X10783277Y-14027746D02*
X10783277Y-14084888D01*
X10783277Y-14084888D02*
X10773753Y-14103936D01*
X10773753Y-14103936D02*
X10764230Y-14113460D01*
X10764230Y-14113460D02*
X10745182Y-14122984D01*
X10745182Y-14122984D02*
X10716611Y-14122984D01*
X10897563Y-14122984D02*
X10878515Y-14113460D01*
X10878515Y-14113460D02*
X10868992Y-14094412D01*
X10868992Y-14094412D02*
X10868992Y-13922984D01*
X11049944Y-14113460D02*
X11030896Y-14122984D01*
X11030896Y-14122984D02*
X10992801Y-14122984D01*
X10992801Y-14122984D02*
X10973753Y-14113460D01*
X10973753Y-14113460D02*
X10964230Y-14094412D01*
X10964230Y-14094412D02*
X10964230Y-14018222D01*
X10964230Y-14018222D02*
X10973753Y-13999174D01*
X10973753Y-13999174D02*
X10992801Y-13989650D01*
X10992801Y-13989650D02*
X11030896Y-13989650D01*
X11030896Y-13989650D02*
X11049944Y-13999174D01*
X11049944Y-13999174D02*
X11059468Y-14018222D01*
X11059468Y-14018222D02*
X11059468Y-14037269D01*
X11059468Y-14037269D02*
X10964230Y-14056317D01*
X11135658Y-14113460D02*
X11154706Y-14122984D01*
X11154706Y-14122984D02*
X11192801Y-14122984D01*
X11192801Y-14122984D02*
X11211849Y-14113460D01*
X11211849Y-14113460D02*
X11221372Y-14094412D01*
X11221372Y-14094412D02*
X11221372Y-14084888D01*
X11221372Y-14084888D02*
X11211849Y-14065841D01*
X11211849Y-14065841D02*
X11192801Y-14056317D01*
X11192801Y-14056317D02*
X11164230Y-14056317D01*
X11164230Y-14056317D02*
X11145182Y-14046793D01*
X11145182Y-14046793D02*
X11135658Y-14027746D01*
X11135658Y-14027746D02*
X11135658Y-14018222D01*
X11135658Y-14018222D02*
X11145182Y-13999174D01*
X11145182Y-13999174D02*
X11164230Y-13989650D01*
X11164230Y-13989650D02*
X11192801Y-13989650D01*
X11192801Y-13989650D02*
X11211849Y-13999174D01*
X11288039Y-14199174D02*
X11297563Y-14189650D01*
X11297563Y-14189650D02*
X11316611Y-14161079D01*
X11316611Y-14161079D02*
X11326134Y-14142031D01*
X11326134Y-14142031D02*
X11335658Y-14113460D01*
X11335658Y-14113460D02*
X11345182Y-14065841D01*
X11345182Y-14065841D02*
X11345182Y-14027746D01*
X11345182Y-14027746D02*
X11335658Y-13980127D01*
X11335658Y-13980127D02*
X11326134Y-13951555D01*
X11326134Y-13951555D02*
X11316611Y-13932508D01*
X11316611Y-13932508D02*
X11297563Y-13903936D01*
X11297563Y-13903936D02*
X11288039Y-13894412D01*
D13*
X6267500Y-14240500D02*
X6267500Y-14350500D01*
X6212500Y-14295500D02*
X6322500Y-14295500D01*
D11*
X6688039Y-14386984D02*
X6573753Y-14386984D01*
X6630896Y-14386984D02*
X6630896Y-14186984D01*
X6630896Y-14186984D02*
X6611848Y-14215555D01*
X6611848Y-14215555D02*
X6592801Y-14234603D01*
X6592801Y-14234603D02*
X6573753Y-14244127D01*
X6773753Y-14367936D02*
X6783277Y-14377460D01*
X6783277Y-14377460D02*
X6773753Y-14386984D01*
X6773753Y-14386984D02*
X6764229Y-14377460D01*
X6764229Y-14377460D02*
X6773753Y-14367936D01*
X6773753Y-14367936D02*
X6773753Y-14386984D01*
X6973753Y-14386984D02*
X6859467Y-14386984D01*
X6916610Y-14386984D02*
X6916610Y-14186984D01*
X6916610Y-14186984D02*
X6897562Y-14215555D01*
X6897562Y-14215555D02*
X6878515Y-14234603D01*
X6878515Y-14234603D02*
X6859467Y-14244127D01*
X7097562Y-14186984D02*
X7116610Y-14186984D01*
X7116610Y-14186984D02*
X7135658Y-14196508D01*
X7135658Y-14196508D02*
X7145182Y-14206031D01*
X7145182Y-14206031D02*
X7154705Y-14225079D01*
X7154705Y-14225079D02*
X7164229Y-14263174D01*
X7164229Y-14263174D02*
X7164229Y-14310793D01*
X7164229Y-14310793D02*
X7154705Y-14348888D01*
X7154705Y-14348888D02*
X7145182Y-14367936D01*
X7145182Y-14367936D02*
X7135658Y-14377460D01*
X7135658Y-14377460D02*
X7116610Y-14386984D01*
X7116610Y-14386984D02*
X7097562Y-14386984D01*
X7097562Y-14386984D02*
X7078515Y-14377460D01*
X7078515Y-14377460D02*
X7068991Y-14367936D01*
X7068991Y-14367936D02*
X7059467Y-14348888D01*
X7059467Y-14348888D02*
X7049943Y-14310793D01*
X7049943Y-14310793D02*
X7049943Y-14263174D01*
X7049943Y-14263174D02*
X7059467Y-14225079D01*
X7059467Y-14225079D02*
X7068991Y-14206031D01*
X7068991Y-14206031D02*
X7078515Y-14196508D01*
X7078515Y-14196508D02*
X7097562Y-14186984D01*
X7288039Y-14186984D02*
X7307086Y-14186984D01*
X7307086Y-14186984D02*
X7326134Y-14196508D01*
X7326134Y-14196508D02*
X7335658Y-14206031D01*
X7335658Y-14206031D02*
X7345182Y-14225079D01*
X7345182Y-14225079D02*
X7354705Y-14263174D01*
X7354705Y-14263174D02*
X7354705Y-14310793D01*
X7354705Y-14310793D02*
X7345182Y-14348888D01*
X7345182Y-14348888D02*
X7335658Y-14367936D01*
X7335658Y-14367936D02*
X7326134Y-14377460D01*
X7326134Y-14377460D02*
X7307086Y-14386984D01*
X7307086Y-14386984D02*
X7288039Y-14386984D01*
X7288039Y-14386984D02*
X7268991Y-14377460D01*
X7268991Y-14377460D02*
X7259467Y-14367936D01*
X7259467Y-14367936D02*
X7249943Y-14348888D01*
X7249943Y-14348888D02*
X7240420Y-14310793D01*
X7240420Y-14310793D02*
X7240420Y-14263174D01*
X7240420Y-14263174D02*
X7249943Y-14225079D01*
X7249943Y-14225079D02*
X7259467Y-14206031D01*
X7259467Y-14206031D02*
X7268991Y-14196508D01*
X7268991Y-14196508D02*
X7288039Y-14186984D01*
X7440420Y-14386984D02*
X7440420Y-14253650D01*
X7440420Y-14272698D02*
X7449943Y-14263174D01*
X7449943Y-14263174D02*
X7468991Y-14253650D01*
X7468991Y-14253650D02*
X7497563Y-14253650D01*
X7497563Y-14253650D02*
X7516610Y-14263174D01*
X7516610Y-14263174D02*
X7526134Y-14282222D01*
X7526134Y-14282222D02*
X7526134Y-14386984D01*
X7526134Y-14282222D02*
X7535658Y-14263174D01*
X7535658Y-14263174D02*
X7554705Y-14253650D01*
X7554705Y-14253650D02*
X7583277Y-14253650D01*
X7583277Y-14253650D02*
X7602324Y-14263174D01*
X7602324Y-14263174D02*
X7611848Y-14282222D01*
X7611848Y-14282222D02*
X7611848Y-14386984D01*
X7707086Y-14386984D02*
X7707086Y-14253650D01*
X7707086Y-14272698D02*
X7716610Y-14263174D01*
X7716610Y-14263174D02*
X7735658Y-14253650D01*
X7735658Y-14253650D02*
X7764229Y-14253650D01*
X7764229Y-14253650D02*
X7783277Y-14263174D01*
X7783277Y-14263174D02*
X7792801Y-14282222D01*
X7792801Y-14282222D02*
X7792801Y-14386984D01*
X7792801Y-14282222D02*
X7802324Y-14263174D01*
X7802324Y-14263174D02*
X7821372Y-14253650D01*
X7821372Y-14253650D02*
X7849943Y-14253650D01*
X7849943Y-14253650D02*
X7868991Y-14263174D01*
X7868991Y-14263174D02*
X7878515Y-14282222D01*
X7878515Y-14282222D02*
X7878515Y-14386984D01*
X8268991Y-14177460D02*
X8097563Y-14434603D01*
X8526134Y-14186984D02*
X8545182Y-14186984D01*
X8545182Y-14186984D02*
X8564229Y-14196508D01*
X8564229Y-14196508D02*
X8573753Y-14206031D01*
X8573753Y-14206031D02*
X8583277Y-14225079D01*
X8583277Y-14225079D02*
X8592801Y-14263174D01*
X8592801Y-14263174D02*
X8592801Y-14310793D01*
X8592801Y-14310793D02*
X8583277Y-14348888D01*
X8583277Y-14348888D02*
X8573753Y-14367936D01*
X8573753Y-14367936D02*
X8564229Y-14377460D01*
X8564229Y-14377460D02*
X8545182Y-14386984D01*
X8545182Y-14386984D02*
X8526134Y-14386984D01*
X8526134Y-14386984D02*
X8507087Y-14377460D01*
X8507087Y-14377460D02*
X8497563Y-14367936D01*
X8497563Y-14367936D02*
X8488039Y-14348888D01*
X8488039Y-14348888D02*
X8478515Y-14310793D01*
X8478515Y-14310793D02*
X8478515Y-14263174D01*
X8478515Y-14263174D02*
X8488039Y-14225079D01*
X8488039Y-14225079D02*
X8497563Y-14206031D01*
X8497563Y-14206031D02*
X8507087Y-14196508D01*
X8507087Y-14196508D02*
X8526134Y-14186984D01*
X8678515Y-14367936D02*
X8688039Y-14377460D01*
X8688039Y-14377460D02*
X8678515Y-14386984D01*
X8678515Y-14386984D02*
X8668991Y-14377460D01*
X8668991Y-14377460D02*
X8678515Y-14367936D01*
X8678515Y-14367936D02*
X8678515Y-14386984D01*
X8811848Y-14186984D02*
X8830896Y-14186984D01*
X8830896Y-14186984D02*
X8849944Y-14196508D01*
X8849944Y-14196508D02*
X8859468Y-14206031D01*
X8859468Y-14206031D02*
X8868991Y-14225079D01*
X8868991Y-14225079D02*
X8878515Y-14263174D01*
X8878515Y-14263174D02*
X8878515Y-14310793D01*
X8878515Y-14310793D02*
X8868991Y-14348888D01*
X8868991Y-14348888D02*
X8859468Y-14367936D01*
X8859468Y-14367936D02*
X8849944Y-14377460D01*
X8849944Y-14377460D02*
X8830896Y-14386984D01*
X8830896Y-14386984D02*
X8811848Y-14386984D01*
X8811848Y-14386984D02*
X8792801Y-14377460D01*
X8792801Y-14377460D02*
X8783277Y-14367936D01*
X8783277Y-14367936D02*
X8773753Y-14348888D01*
X8773753Y-14348888D02*
X8764229Y-14310793D01*
X8764229Y-14310793D02*
X8764229Y-14263174D01*
X8764229Y-14263174D02*
X8773753Y-14225079D01*
X8773753Y-14225079D02*
X8783277Y-14206031D01*
X8783277Y-14206031D02*
X8792801Y-14196508D01*
X8792801Y-14196508D02*
X8811848Y-14186984D01*
X9049944Y-14253650D02*
X9049944Y-14386984D01*
X9002325Y-14177460D02*
X8954706Y-14320317D01*
X8954706Y-14320317D02*
X9078515Y-14320317D01*
X9135658Y-14186984D02*
X9259468Y-14186984D01*
X9259468Y-14186984D02*
X9192801Y-14263174D01*
X9192801Y-14263174D02*
X9221372Y-14263174D01*
X9221372Y-14263174D02*
X9240420Y-14272698D01*
X9240420Y-14272698D02*
X9249944Y-14282222D01*
X9249944Y-14282222D02*
X9259468Y-14301269D01*
X9259468Y-14301269D02*
X9259468Y-14348888D01*
X9259468Y-14348888D02*
X9249944Y-14367936D01*
X9249944Y-14367936D02*
X9240420Y-14377460D01*
X9240420Y-14377460D02*
X9221372Y-14386984D01*
X9221372Y-14386984D02*
X9164229Y-14386984D01*
X9164229Y-14386984D02*
X9145182Y-14377460D01*
X9145182Y-14377460D02*
X9135658Y-14367936D01*
X9326134Y-14186984D02*
X9449944Y-14186984D01*
X9449944Y-14186984D02*
X9383277Y-14263174D01*
X9383277Y-14263174D02*
X9411849Y-14263174D01*
X9411849Y-14263174D02*
X9430896Y-14272698D01*
X9430896Y-14272698D02*
X9440420Y-14282222D01*
X9440420Y-14282222D02*
X9449944Y-14301269D01*
X9449944Y-14301269D02*
X9449944Y-14348888D01*
X9449944Y-14348888D02*
X9440420Y-14367936D01*
X9440420Y-14367936D02*
X9430896Y-14377460D01*
X9430896Y-14377460D02*
X9411849Y-14386984D01*
X9411849Y-14386984D02*
X9354706Y-14386984D01*
X9354706Y-14386984D02*
X9335658Y-14377460D01*
X9335658Y-14377460D02*
X9326134Y-14367936D01*
X9526134Y-14186984D02*
X9526134Y-14225079D01*
X9602325Y-14186984D02*
X9602325Y-14225079D01*
X9897563Y-14463174D02*
X9888039Y-14453650D01*
X9888039Y-14453650D02*
X9868991Y-14425079D01*
X9868991Y-14425079D02*
X9859468Y-14406031D01*
X9859468Y-14406031D02*
X9849944Y-14377460D01*
X9849944Y-14377460D02*
X9840420Y-14329841D01*
X9840420Y-14329841D02*
X9840420Y-14291746D01*
X9840420Y-14291746D02*
X9849944Y-14244127D01*
X9849944Y-14244127D02*
X9859468Y-14215555D01*
X9859468Y-14215555D02*
X9868991Y-14196508D01*
X9868991Y-14196508D02*
X9888039Y-14167936D01*
X9888039Y-14167936D02*
X9897563Y-14158412D01*
X9964230Y-14206031D02*
X9973753Y-14196508D01*
X9973753Y-14196508D02*
X9992801Y-14186984D01*
X9992801Y-14186984D02*
X10040420Y-14186984D01*
X10040420Y-14186984D02*
X10059468Y-14196508D01*
X10059468Y-14196508D02*
X10068991Y-14206031D01*
X10068991Y-14206031D02*
X10078515Y-14225079D01*
X10078515Y-14225079D02*
X10078515Y-14244127D01*
X10078515Y-14244127D02*
X10068991Y-14272698D01*
X10068991Y-14272698D02*
X9954706Y-14386984D01*
X9954706Y-14386984D02*
X10078515Y-14386984D01*
X10316611Y-14386984D02*
X10316611Y-14186984D01*
X10402325Y-14386984D02*
X10402325Y-14282222D01*
X10402325Y-14282222D02*
X10392801Y-14263174D01*
X10392801Y-14263174D02*
X10373753Y-14253650D01*
X10373753Y-14253650D02*
X10345182Y-14253650D01*
X10345182Y-14253650D02*
X10326134Y-14263174D01*
X10326134Y-14263174D02*
X10316611Y-14272698D01*
X10526134Y-14386984D02*
X10507087Y-14377460D01*
X10507087Y-14377460D02*
X10497563Y-14367936D01*
X10497563Y-14367936D02*
X10488039Y-14348888D01*
X10488039Y-14348888D02*
X10488039Y-14291746D01*
X10488039Y-14291746D02*
X10497563Y-14272698D01*
X10497563Y-14272698D02*
X10507087Y-14263174D01*
X10507087Y-14263174D02*
X10526134Y-14253650D01*
X10526134Y-14253650D02*
X10554706Y-14253650D01*
X10554706Y-14253650D02*
X10573753Y-14263174D01*
X10573753Y-14263174D02*
X10583277Y-14272698D01*
X10583277Y-14272698D02*
X10592801Y-14291746D01*
X10592801Y-14291746D02*
X10592801Y-14348888D01*
X10592801Y-14348888D02*
X10583277Y-14367936D01*
X10583277Y-14367936D02*
X10573753Y-14377460D01*
X10573753Y-14377460D02*
X10554706Y-14386984D01*
X10554706Y-14386984D02*
X10526134Y-14386984D01*
X10707087Y-14386984D02*
X10688039Y-14377460D01*
X10688039Y-14377460D02*
X10678515Y-14358412D01*
X10678515Y-14358412D02*
X10678515Y-14186984D01*
X10859468Y-14377460D02*
X10840420Y-14386984D01*
X10840420Y-14386984D02*
X10802325Y-14386984D01*
X10802325Y-14386984D02*
X10783277Y-14377460D01*
X10783277Y-14377460D02*
X10773753Y-14358412D01*
X10773753Y-14358412D02*
X10773753Y-14282222D01*
X10773753Y-14282222D02*
X10783277Y-14263174D01*
X10783277Y-14263174D02*
X10802325Y-14253650D01*
X10802325Y-14253650D02*
X10840420Y-14253650D01*
X10840420Y-14253650D02*
X10859468Y-14263174D01*
X10859468Y-14263174D02*
X10868992Y-14282222D01*
X10868992Y-14282222D02*
X10868992Y-14301269D01*
X10868992Y-14301269D02*
X10773753Y-14320317D01*
X10945182Y-14377460D02*
X10964230Y-14386984D01*
X10964230Y-14386984D02*
X11002325Y-14386984D01*
X11002325Y-14386984D02*
X11021373Y-14377460D01*
X11021373Y-14377460D02*
X11030896Y-14358412D01*
X11030896Y-14358412D02*
X11030896Y-14348888D01*
X11030896Y-14348888D02*
X11021373Y-14329841D01*
X11021373Y-14329841D02*
X11002325Y-14320317D01*
X11002325Y-14320317D02*
X10973753Y-14320317D01*
X10973753Y-14320317D02*
X10954706Y-14310793D01*
X10954706Y-14310793D02*
X10945182Y-14291746D01*
X10945182Y-14291746D02*
X10945182Y-14282222D01*
X10945182Y-14282222D02*
X10954706Y-14263174D01*
X10954706Y-14263174D02*
X10973753Y-14253650D01*
X10973753Y-14253650D02*
X11002325Y-14253650D01*
X11002325Y-14253650D02*
X11021373Y-14263174D01*
X11097563Y-14463174D02*
X11107087Y-14453650D01*
X11107087Y-14453650D02*
X11126134Y-14425079D01*
X11126134Y-14425079D02*
X11135658Y-14406031D01*
X11135658Y-14406031D02*
X11145182Y-14377460D01*
X11145182Y-14377460D02*
X11154706Y-14329841D01*
X11154706Y-14329841D02*
X11154706Y-14291746D01*
X11154706Y-14291746D02*
X11145182Y-14244127D01*
X11145182Y-14244127D02*
X11135658Y-14215555D01*
X11135658Y-14215555D02*
X11126134Y-14196508D01*
X11126134Y-14196508D02*
X11107087Y-14167936D01*
X11107087Y-14167936D02*
X11097563Y-14158412D01*
M02*
