M48
; DRILL file {KiCad 9.0.3} date 2025-09-18T18:53:44+0300
; FORMAT={-:-/ absolute / metric / decimal}
; #@! TF.CreationDate,2025-09-18T18:53:44+03:00
; #@! TF.GenerationSoftware,Kicad,Pcbnew,9.0.3
; #@! TF.FileFunction,Plated,1,2,PTH
FMAT,2
METRIC
; #@! TA.AperFunction,Plated,PTH,ViaDrill
T1C0.300
; #@! TA.AperFunction,Plated,PTH,ComponentDrill
T2C1.000
; #@! TA.AperFunction,Plated,PTH,ComponentDrill
T3C1.100
%
G90
G05
T1
X64.5Y-130.0
X65.75Y-85.25
X65.75Y-87.75
X65.75Y-90.75
X65.75Y-93.5
X65.75Y-96.25
X68.25Y-85.25
X68.25Y-87.75
X68.25Y-90.75
X68.25Y-93.5
X68.25Y-96.25
X70.75Y-85.25
X70.75Y-87.75
X70.75Y-90.75
X70.75Y-93.5
X70.75Y-96.25
X72.0Y-107.0
X72.0Y-109.5
X72.0Y-112.5
X72.0Y-115.25
X72.0Y-118.0
X73.0Y-85.25
X73.0Y-87.75
X73.0Y-90.75
X73.0Y-93.5
X73.0Y-96.25
X74.75Y-130.0
X75.25Y-85.25
X75.25Y-87.75
X75.25Y-90.75
X77.25Y-85.25
X77.25Y-87.75
X77.25Y-90.75
X84.5Y-129.5
X84.75Y-93.5
X85.25Y-106.25
X89.0Y-110.5
X91.25Y-92.0
X94.25Y-129.5
X94.5Y-92.0
X94.75Y-113.75
X97.0Y-98.25
X98.25Y-85.0
X98.25Y-87.5
X98.25Y-90.5
X100.75Y-85.0
X100.75Y-87.5
X100.75Y-90.5
X100.75Y-93.25
X100.75Y-96.0
X100.75Y-99.0
X100.75Y-101.5
X100.75Y-104.5
X100.75Y-107.25
X100.75Y-110.0
X100.75Y-112.75
X100.75Y-115.25
X100.75Y-118.25
X100.75Y-121.0
X103.25Y-85.0
X103.25Y-87.5
X103.25Y-90.5
X103.25Y-93.25
X103.25Y-96.0
X103.25Y-99.0
X103.25Y-101.5
X103.25Y-104.5
X103.25Y-107.25
X103.25Y-110.0
X103.25Y-112.75
X103.25Y-115.25
X103.25Y-118.25
X103.25Y-121.0
X103.5Y-130.0
X105.5Y-85.0
X105.5Y-87.5
X105.5Y-90.5
X105.5Y-93.25
X105.5Y-96.0
X105.5Y-99.0
X105.5Y-101.5
X105.5Y-104.5
X105.5Y-107.25
X105.5Y-110.0
X105.5Y-112.75
X105.5Y-115.25
X105.5Y-118.25
X105.5Y-121.0
T2
X77.0Y-100.75
X79.54Y-100.73
X79.54Y-119.96
X81.38Y-86.5
X82.08Y-100.74
X82.08Y-119.97
X83.92Y-86.5
X84.62Y-100.72
X84.62Y-119.95
X86.46Y-86.5
X87.16Y-100.75
X87.16Y-119.98
X89.0Y-86.5
X89.7Y-100.73
X89.7Y-119.96
X91.54Y-86.5
X92.24Y-100.74
X92.24Y-119.97
X94.08Y-86.5
X94.78Y-100.72
X94.78Y-119.95
X97.32Y-100.78
X97.32Y-120.01
X102.21Y-127.5
X104.75Y-127.5
T3
X94.5Y-124.0
X104.66Y-124.0
M30
