%TF.GenerationSoftware,KiCad,Pcbnew,9.0.3*%
%TF.CreationDate,2025-09-18T18:53:44+03:00*%
%TF.ProjectId,nicla_sense_me,6e69636c-615f-4736-956e-73655f6d652e,rev?*%
%TF.SameCoordinates,Original*%
%TF.FileFunction,Drillmap*%
%TF.FilePolarity,Positive*%
%FSLAX45Y45*%
G04 Gerber Fmt 4.5, Leading zero omitted, Abs format (unit mm)*
G04 Created by KiCad (PCBNEW 9.0.3) date 2025-09-18 18:53:44*
%MOMM*%
%LPD*%
G01*
G04 APERTURE LIST*
%ADD10C,0.050000*%
%ADD11C,0.200000*%
G04 APERTURE END LIST*
D10*
X6325000Y-8300000D02*
X10825000Y-8300000D01*
X10825000Y-13125000D01*
X6325000Y-13125000D01*
X6325000Y-8300000D01*
D11*
X6583277Y-13438984D02*
X6583277Y-13238984D01*
X6583277Y-13238984D02*
X6630896Y-13238984D01*
X6630896Y-13238984D02*
X6659467Y-13248508D01*
X6659467Y-13248508D02*
X6678515Y-13267555D01*
X6678515Y-13267555D02*
X6688039Y-13286603D01*
X6688039Y-13286603D02*
X6697562Y-13324698D01*
X6697562Y-13324698D02*
X6697562Y-13353269D01*
X6697562Y-13353269D02*
X6688039Y-13391365D01*
X6688039Y-13391365D02*
X6678515Y-13410412D01*
X6678515Y-13410412D02*
X6659467Y-13429460D01*
X6659467Y-13429460D02*
X6630896Y-13438984D01*
X6630896Y-13438984D02*
X6583277Y-13438984D01*
X6783277Y-13438984D02*
X6783277Y-13305650D01*
X6783277Y-13343746D02*
X6792801Y-13324698D01*
X6792801Y-13324698D02*
X6802324Y-13315174D01*
X6802324Y-13315174D02*
X6821372Y-13305650D01*
X6821372Y-13305650D02*
X6840420Y-13305650D01*
X6907086Y-13438984D02*
X6907086Y-13305650D01*
X6907086Y-13238984D02*
X6897562Y-13248508D01*
X6897562Y-13248508D02*
X6907086Y-13258031D01*
X6907086Y-13258031D02*
X6916610Y-13248508D01*
X6916610Y-13248508D02*
X6907086Y-13238984D01*
X6907086Y-13238984D02*
X6907086Y-13258031D01*
X7030896Y-13438984D02*
X7011848Y-13429460D01*
X7011848Y-13429460D02*
X7002324Y-13410412D01*
X7002324Y-13410412D02*
X7002324Y-13238984D01*
X7135658Y-13438984D02*
X7116610Y-13429460D01*
X7116610Y-13429460D02*
X7107086Y-13410412D01*
X7107086Y-13410412D02*
X7107086Y-13238984D01*
X7364229Y-13438984D02*
X7364229Y-13238984D01*
X7364229Y-13238984D02*
X7430896Y-13381841D01*
X7430896Y-13381841D02*
X7497562Y-13238984D01*
X7497562Y-13238984D02*
X7497562Y-13438984D01*
X7678515Y-13438984D02*
X7678515Y-13334222D01*
X7678515Y-13334222D02*
X7668991Y-13315174D01*
X7668991Y-13315174D02*
X7649943Y-13305650D01*
X7649943Y-13305650D02*
X7611848Y-13305650D01*
X7611848Y-13305650D02*
X7592801Y-13315174D01*
X7678515Y-13429460D02*
X7659467Y-13438984D01*
X7659467Y-13438984D02*
X7611848Y-13438984D01*
X7611848Y-13438984D02*
X7592801Y-13429460D01*
X7592801Y-13429460D02*
X7583277Y-13410412D01*
X7583277Y-13410412D02*
X7583277Y-13391365D01*
X7583277Y-13391365D02*
X7592801Y-13372317D01*
X7592801Y-13372317D02*
X7611848Y-13362793D01*
X7611848Y-13362793D02*
X7659467Y-13362793D01*
X7659467Y-13362793D02*
X7678515Y-13353269D01*
X7773753Y-13305650D02*
X7773753Y-13505650D01*
X7773753Y-13315174D02*
X7792801Y-13305650D01*
X7792801Y-13305650D02*
X7830896Y-13305650D01*
X7830896Y-13305650D02*
X7849943Y-13315174D01*
X7849943Y-13315174D02*
X7859467Y-13324698D01*
X7859467Y-13324698D02*
X7868991Y-13343746D01*
X7868991Y-13343746D02*
X7868991Y-13400888D01*
X7868991Y-13400888D02*
X7859467Y-13419936D01*
X7859467Y-13419936D02*
X7849943Y-13429460D01*
X7849943Y-13429460D02*
X7830896Y-13438984D01*
X7830896Y-13438984D02*
X7792801Y-13438984D01*
X7792801Y-13438984D02*
X7773753Y-13429460D01*
X7954705Y-13419936D02*
X7964229Y-13429460D01*
X7964229Y-13429460D02*
X7954705Y-13438984D01*
X7954705Y-13438984D02*
X7945182Y-13429460D01*
X7945182Y-13429460D02*
X7954705Y-13419936D01*
X7954705Y-13419936D02*
X7954705Y-13438984D01*
X7954705Y-13315174D02*
X7964229Y-13324698D01*
X7964229Y-13324698D02*
X7954705Y-13334222D01*
X7954705Y-13334222D02*
X7945182Y-13324698D01*
X7945182Y-13324698D02*
X7954705Y-13315174D01*
X7954705Y-13315174D02*
X7954705Y-13334222D01*
M02*
