%TF.GenerationSoftware,KiCad,Pcbnew,9.0.3*%
%TF.CreationDate,2025-09-18T18:53:46+03:00*%
%TF.ProjectId,nicla_sense_me,6e69636c-615f-4736-956e-73655f6d652e,rev?*%
%TF.SameCoordinates,Original*%
%TF.FileFunction,Soldermask,Top*%
%TF.FilePolarity,Negative*%
%FSLAX46Y46*%
G04 Gerber Fmt 4.6, Leading zero omitted, Abs format (unit mm)*
G04 Created by KiCad (PCBNEW 9.0.3) date 2025-09-18 18:53:46*
%MOMM*%
%LPD*%
G01*
G04 APERTURE LIST*
G04 Aperture macros list*
%AMRoundRect*
0 Rectangle with rounded corners*
0 $1 Rounding radius*
0 $2 $3 $4 $5 $6 $7 $8 $9 X,Y pos of 4 corners*
0 Add a 4 corners polygon primitive as box body*
4,1,4,$2,$3,$4,$5,$6,$7,$8,$9,$2,$3,0*
0 Add four circle primitives for the rounded corners*
1,1,$1+$1,$2,$3*
1,1,$1+$1,$4,$5*
1,1,$1+$1,$6,$7*
1,1,$1+$1,$8,$9*
0 Add four rect primitives between the rounded corners*
20,1,$1+$1,$2,$3,$4,$5,0*
20,1,$1+$1,$4,$5,$6,$7,0*
20,1,$1+$1,$6,$7,$8,$9,0*
20,1,$1+$1,$8,$9,$2,$3,0*%
G04 Aperture macros list end*
%ADD10R,1.700000X1.700000*%
%ADD11C,1.700000*%
%ADD12O,1.200000X2.500000*%
%ADD13O,2.500000X1.200000*%
%ADD14RoundRect,0.250000X0.450000X-0.350000X0.450000X0.350000X-0.450000X0.350000X-0.450000X-0.350000X0*%
%ADD15RoundRect,0.250000X-0.412500X-0.650000X0.412500X-0.650000X0.412500X0.650000X-0.412500X0.650000X0*%
%ADD16RoundRect,0.375000X0.625000X0.375000X-0.625000X0.375000X-0.625000X-0.375000X0.625000X-0.375000X0*%
%ADD17RoundRect,0.500000X0.500000X1.400000X-0.500000X1.400000X-0.500000X-1.400000X0.500000X-1.400000X0*%
%ADD18RoundRect,0.250000X-0.650000X0.412500X-0.650000X-0.412500X0.650000X-0.412500X0.650000X0.412500X0*%
%ADD19C,2.200000*%
%ADD20RoundRect,0.249999X-0.850001X-0.850001X0.850001X-0.850001X0.850001X0.850001X-0.850001X0.850001X0*%
G04 APERTURE END LIST*
D10*
%TO.C,J0*%
X104750000Y-127500000D03*
D11*
X102210000Y-127500000D03*
%TD*%
D12*
%TO.C,U1*%
X97320000Y-120010000D03*
X94780000Y-119950000D03*
X92240000Y-119970000D03*
X89700000Y-119960000D03*
X87160000Y-119980000D03*
X84620000Y-119950000D03*
X82080000Y-119970000D03*
X79540000Y-119960000D03*
D13*
X77200000Y-107550000D03*
X77200000Y-105050000D03*
D12*
X77000000Y-100750000D03*
X79540000Y-100730000D03*
X82080000Y-100740000D03*
X84620000Y-100720000D03*
X87160000Y-100750000D03*
X89700000Y-100730000D03*
X92240000Y-100740000D03*
X94780000Y-100720000D03*
X97320000Y-100780000D03*
%TD*%
D10*
%TO.C,J6*%
X81380000Y-86500000D03*
D11*
X83920000Y-86500000D03*
X86460000Y-86500000D03*
X89000000Y-86500000D03*
X91540000Y-86500000D03*
X94080000Y-86500000D03*
%TD*%
D14*
%TO.C,R4*%
X92500000Y-93437500D03*
X92500000Y-95437500D03*
%TD*%
D15*
%TO.C,C13*%
X81062500Y-94000000D03*
X77937500Y-94000000D03*
%TD*%
%TO.C,C12*%
X80812500Y-97000000D03*
X77687500Y-97000000D03*
%TD*%
D14*
%TO.C,R1*%
X87500000Y-93437500D03*
X87500000Y-95437500D03*
%TD*%
%TO.C,R2*%
X90000000Y-93437500D03*
X90000000Y-95437500D03*
%TD*%
D16*
%TO.C,U2*%
X81550000Y-128300000D03*
X81550000Y-126000000D03*
D17*
X75250000Y-126000000D03*
D16*
X81550000Y-123700000D03*
%TD*%
D18*
%TO.C,C2*%
X66500000Y-125375000D03*
X66500000Y-128500000D03*
%TD*%
%TO.C,C1*%
X90500000Y-126500000D03*
X90500000Y-123375000D03*
%TD*%
%TO.C,C3*%
X86000000Y-126550000D03*
X86000000Y-123425000D03*
%TD*%
%TO.C,C14*%
X71500000Y-128500000D03*
X71500000Y-125375000D03*
%TD*%
D19*
%TO.C,D1*%
X104660000Y-124000000D03*
D20*
X94500000Y-124000000D03*
%TD*%
M02*
