G04 #@! TF.GenerationSoftware,KiCad,Pcbnew,9.0.3*
G04 #@! TF.CreationDate,2025-09-17T15:30:16+03:00*
G04 #@! TF.ProjectId,PortentaH7,506f7274-656e-4746-9148-372e6b696361,rev?*
G04 #@! TF.SameCoordinates,Original*
G04 #@! TF.FileFunction,Paste,Top*
G04 #@! TF.FilePolarity,Positive*
%FSLAX46Y46*%
G04 Gerber Fmt 4.6, Leading zero omitted, Abs format (unit mm)*
G04 Created by KiCad (PCBNEW 9.0.3) date 2025-09-17 15:30:16*
%MOMM*%
%LPD*%
G01*
G04 APERTURE LIST*
G04 Aperture macros list*
%AMRoundRect*
0 Rectangle with rounded corners*
0 $1 Rounding radius*
0 $2 $3 $4 $5 $6 $7 $8 $9 X,Y pos of 4 corners*
0 Add a 4 corners polygon primitive as box body*
4,1,4,$2,$3,$4,$5,$6,$7,$8,$9,$2,$3,0*
0 Add four circle primitives for the rounded corners*
1,1,$1+$1,$2,$3*
1,1,$1+$1,$4,$5*
1,1,$1+$1,$6,$7*
1,1,$1+$1,$8,$9*
0 Add four rect primitives between the rounded corners*
20,1,$1+$1,$2,$3,$4,$5,0*
20,1,$1+$1,$4,$5,$6,$7,0*
20,1,$1+$1,$6,$7,$8,$9,0*
20,1,$1+$1,$8,$9,$2,$3,0*%
G04 Aperture macros list end*
%ADD10RoundRect,0.250000X0.650000X-0.412500X0.650000X0.412500X-0.650000X0.412500X-0.650000X-0.412500X0*%
%ADD11RoundRect,0.250000X0.412500X0.650000X-0.412500X0.650000X-0.412500X-0.650000X0.412500X-0.650000X0*%
%ADD12R,0.700000X0.200000*%
%ADD13RoundRect,0.375000X-0.625000X-0.375000X0.625000X-0.375000X0.625000X0.375000X-0.625000X0.375000X0*%
%ADD14RoundRect,0.500000X-0.500000X-1.400000X0.500000X-1.400000X0.500000X1.400000X-0.500000X1.400000X0*%
G04 APERTURE END LIST*
D10*
X185000000Y-141562500D03*
X185000000Y-138437500D03*
X182000000Y-141562500D03*
X182000000Y-138437500D03*
X201500000Y-137562500D03*
X201500000Y-134437500D03*
D11*
X214062500Y-102250000D03*
X210937500Y-102250000D03*
D10*
X205000000Y-137562500D03*
X205000000Y-134437500D03*
D12*
X217420000Y-110200000D03*
X214340000Y-110200000D03*
X217420000Y-110600000D03*
X214340000Y-110600000D03*
X217420000Y-111000000D03*
X214340000Y-111000000D03*
X217420000Y-111400000D03*
X214340000Y-111400000D03*
X217420000Y-111800000D03*
X214340000Y-111800000D03*
X217420000Y-112200000D03*
X214340000Y-112200000D03*
X217420000Y-112600000D03*
X214340000Y-112600000D03*
X217420000Y-113000000D03*
X214340000Y-113000000D03*
X217420000Y-113400000D03*
X214340000Y-113400000D03*
X217420000Y-113800000D03*
X214340000Y-113800000D03*
X217420000Y-114200000D03*
X214340000Y-114200000D03*
X217420000Y-114600000D03*
X214340000Y-114600000D03*
X217420000Y-115000000D03*
X214340000Y-115000000D03*
X217420000Y-115400000D03*
X214340000Y-115400000D03*
X217420000Y-115800000D03*
X214340000Y-115800000D03*
X217420000Y-116200000D03*
X214340000Y-116200000D03*
X217420000Y-116600000D03*
X214340000Y-116600000D03*
X217420000Y-117000000D03*
X214340000Y-117000000D03*
X217420000Y-117400000D03*
X214340000Y-117400000D03*
X217420000Y-117800000D03*
X214340000Y-117800000D03*
X217420000Y-118200000D03*
X214340000Y-118200000D03*
X217420000Y-118600000D03*
X214340000Y-118600000D03*
X217420000Y-119000000D03*
X214340000Y-119000000D03*
X217420000Y-119400000D03*
X214340000Y-119400000D03*
X217420000Y-119800000D03*
X214340000Y-119800000D03*
X217420000Y-120200000D03*
X214340000Y-120200000D03*
X217420000Y-120600000D03*
X214340000Y-120600000D03*
X217420000Y-121000000D03*
X214340000Y-121000000D03*
X217420000Y-121400000D03*
X214340000Y-121400000D03*
X217420000Y-121800000D03*
X214340000Y-121800000D03*
X217420000Y-122200000D03*
X214340000Y-122200000D03*
X217420000Y-122600000D03*
X214340000Y-122600000D03*
X217420000Y-123000000D03*
X214340000Y-123000000D03*
X217420000Y-123400000D03*
X214340000Y-123400000D03*
X217420000Y-123800000D03*
X214340000Y-123800000D03*
X217420000Y-124200000D03*
X214340000Y-124200000D03*
X217420000Y-124600000D03*
X214340000Y-124600000D03*
X217420000Y-125000000D03*
X214340000Y-125000000D03*
X217420000Y-125400000D03*
X214340000Y-125400000D03*
X217420000Y-125800000D03*
X214340000Y-125800000D03*
X171160000Y-125800000D03*
X174240000Y-125800000D03*
X171160000Y-125400000D03*
X174240000Y-125400000D03*
X171160000Y-125000000D03*
X174240000Y-125000000D03*
X171160000Y-124600000D03*
X174240000Y-124600000D03*
X171160000Y-124200000D03*
X174240000Y-124200000D03*
X171160000Y-123800000D03*
X174240000Y-123800000D03*
X171160000Y-123400000D03*
X174240000Y-123400000D03*
X171160000Y-123000000D03*
X174240000Y-123000000D03*
X171160000Y-122600000D03*
X174240000Y-122600000D03*
X171160000Y-122200000D03*
X174240000Y-122200000D03*
X171160000Y-121800000D03*
X174240000Y-121800000D03*
X171160000Y-121400000D03*
X174240000Y-121400000D03*
X171160000Y-121000000D03*
X174240000Y-121000000D03*
X171160000Y-120600000D03*
X174240000Y-120600000D03*
X171160000Y-120200000D03*
X174240000Y-120200000D03*
X171160000Y-119800000D03*
X174240000Y-119800000D03*
X171160000Y-119400000D03*
X174240000Y-119400000D03*
X171160000Y-119000000D03*
X174240000Y-119000000D03*
X171160000Y-118600000D03*
X174240000Y-118600000D03*
X171160000Y-118200000D03*
X174240000Y-118200000D03*
X171160000Y-117800000D03*
X174240000Y-117800000D03*
X171160000Y-117400000D03*
X174240000Y-117400000D03*
X171160000Y-117000000D03*
X174240000Y-117000000D03*
X171160000Y-116600000D03*
X174240000Y-116600000D03*
X171160000Y-116200000D03*
X174240000Y-116200000D03*
X171160000Y-115800000D03*
X174240000Y-115800000D03*
X171160000Y-115400000D03*
X174240000Y-115400000D03*
X171160000Y-115000000D03*
X174240000Y-115000000D03*
X171160000Y-114600000D03*
X174240000Y-114600000D03*
X171160000Y-114200000D03*
X174240000Y-114200000D03*
X171160000Y-113800000D03*
X174240000Y-113800000D03*
X171160000Y-113400000D03*
X174240000Y-113400000D03*
X171160000Y-113000000D03*
X174240000Y-113000000D03*
X171160000Y-112600000D03*
X174240000Y-112600000D03*
X171160000Y-112200000D03*
X174240000Y-112200000D03*
X171160000Y-111800000D03*
X174240000Y-111800000D03*
X171160000Y-111400000D03*
X174240000Y-111400000D03*
X171160000Y-111000000D03*
X174240000Y-111000000D03*
X171160000Y-110600000D03*
X174240000Y-110600000D03*
X171160000Y-110200000D03*
X174240000Y-110200000D03*
D11*
X214062500Y-99150000D03*
X210937500Y-99150000D03*
D13*
X190850000Y-136700000D03*
X190850000Y-139000000D03*
D14*
X197150000Y-139000000D03*
D13*
X190850000Y-141300000D03*
M02*
