G04 #@! TF.GenerationSoftware,KiCad,Pcbnew,9.0.3*
G04 #@! TF.CreationDate,2025-09-17T15:30:16+03:00*
G04 #@! TF.ProjectId,PortentaH7,506f7274-656e-4746-9148-372e6b696361,rev?*
G04 #@! TF.SameCoordinates,Original*
G04 #@! TF.FileFunction,Copper,L1,Top*
G04 #@! TF.FilePolarity,Positive*
%FSLAX46Y46*%
G04 Gerber Fmt 4.6, Leading zero omitted, Abs format (unit mm)*
G04 Created by KiCad (PCBNEW 9.0.3) date 2025-09-17 15:30:16*
%MOMM*%
%LPD*%
G01*
G04 APERTURE LIST*
G04 Aperture macros list*
%AMRoundRect*
0 Rectangle with rounded corners*
0 $1 Rounding radius*
0 $2 $3 $4 $5 $6 $7 $8 $9 X,Y pos of 4 corners*
0 Add a 4 corners polygon primitive as box body*
4,1,4,$2,$3,$4,$5,$6,$7,$8,$9,$2,$3,0*
0 Add four circle primitives for the rounded corners*
1,1,$1+$1,$2,$3*
1,1,$1+$1,$4,$5*
1,1,$1+$1,$6,$7*
1,1,$1+$1,$8,$9*
0 Add four rect primitives between the rounded corners*
20,1,$1+$1,$2,$3,$4,$5,0*
20,1,$1+$1,$4,$5,$6,$7,0*
20,1,$1+$1,$6,$7,$8,$9,0*
20,1,$1+$1,$8,$9,$2,$3,0*%
G04 Aperture macros list end*
G04 #@! TA.AperFunction,SMDPad,CuDef*
%ADD10RoundRect,0.250000X0.650000X-0.412500X0.650000X0.412500X-0.650000X0.412500X-0.650000X-0.412500X0*%
G04 #@! TD*
G04 #@! TA.AperFunction,ComponentPad*
%ADD11R,1.700000X1.700000*%
G04 #@! TD*
G04 #@! TA.AperFunction,ComponentPad*
%ADD12C,1.700000*%
G04 #@! TD*
G04 #@! TA.AperFunction,ComponentPad*
%ADD13C,3.100000*%
G04 #@! TD*
G04 #@! TA.AperFunction,ComponentPad*
%ADD14RoundRect,0.190500X0.444500X-0.762000X0.444500X0.762000X-0.444500X0.762000X-0.444500X-0.762000X0*%
G04 #@! TD*
G04 #@! TA.AperFunction,ComponentPad*
%ADD15O,1.200000X2.000000*%
G04 #@! TD*
G04 #@! TA.AperFunction,SMDPad,CuDef*
%ADD16RoundRect,0.250000X0.412500X0.650000X-0.412500X0.650000X-0.412500X-0.650000X0.412500X-0.650000X0*%
G04 #@! TD*
G04 #@! TA.AperFunction,SMDPad,CuDef*
%ADD17R,0.700000X0.200000*%
G04 #@! TD*
G04 #@! TA.AperFunction,ComponentPad*
%ADD18C,1.590000*%
G04 #@! TD*
G04 #@! TA.AperFunction,ComponentPad*
%ADD19RoundRect,0.249999X0.850001X0.850001X-0.850001X0.850001X-0.850001X-0.850001X0.850001X-0.850001X0*%
G04 #@! TD*
G04 #@! TA.AperFunction,ComponentPad*
%ADD20C,2.200000*%
G04 #@! TD*
G04 #@! TA.AperFunction,SMDPad,CuDef*
%ADD21RoundRect,0.375000X-0.625000X-0.375000X0.625000X-0.375000X0.625000X0.375000X-0.625000X0.375000X0*%
G04 #@! TD*
G04 #@! TA.AperFunction,SMDPad,CuDef*
%ADD22RoundRect,0.500000X-0.500000X-1.400000X0.500000X-1.400000X0.500000X1.400000X-0.500000X1.400000X0*%
G04 #@! TD*
G04 #@! TA.AperFunction,ViaPad*
%ADD23C,0.600000*%
G04 #@! TD*
G04 #@! TA.AperFunction,Conductor*
%ADD24C,0.800000*%
G04 #@! TD*
G04 #@! TA.AperFunction,Conductor*
%ADD25C,0.200000*%
G04 #@! TD*
G04 #@! TA.AperFunction,Conductor*
%ADD26C,0.500000*%
G04 #@! TD*
G04 APERTURE END LIST*
D10*
X185000000Y-141562500D03*
X185000000Y-138437500D03*
X182000000Y-141562500D03*
X182000000Y-138437500D03*
D11*
X160500000Y-141500000D03*
D12*
X160500000Y-138960000D03*
D13*
X171425000Y-45740731D03*
X171425000Y-93340731D03*
X228575000Y-45740731D03*
X228575000Y-93340731D03*
D14*
X175830000Y-93340731D03*
D15*
X178380000Y-93340731D03*
X180920000Y-93340731D03*
X183460000Y-93340731D03*
X186030000Y-93340731D03*
X188570000Y-93340731D03*
X191110000Y-93340731D03*
X193650000Y-93340731D03*
X196200000Y-93340731D03*
X198730000Y-93340731D03*
X201270000Y-93340731D03*
X203810000Y-93340731D03*
X206350000Y-93340731D03*
X208890000Y-93340731D03*
X211430000Y-93340731D03*
X213970000Y-93340731D03*
X216540000Y-93340731D03*
X219080000Y-93340731D03*
X221620000Y-93340731D03*
X224700000Y-93340731D03*
X224705000Y-45740731D03*
X221625000Y-45740731D03*
X219085000Y-45740731D03*
X216545000Y-45740731D03*
X213975000Y-45740731D03*
X211435000Y-45740731D03*
X208895000Y-45740731D03*
X206355000Y-45740731D03*
X203815000Y-45740731D03*
X201275000Y-45740731D03*
X198735000Y-45740731D03*
X196205000Y-45740731D03*
X193655000Y-45740731D03*
X191115000Y-45740731D03*
X188575000Y-45740731D03*
X186035000Y-45740731D03*
X183465000Y-45740731D03*
X180925000Y-45740731D03*
X178385000Y-45740731D03*
X175835000Y-45740731D03*
D10*
X201500000Y-137562500D03*
X201500000Y-134437500D03*
D16*
X214062500Y-102250000D03*
X210937500Y-102250000D03*
D10*
X205000000Y-137562500D03*
X205000000Y-134437500D03*
D17*
X217420000Y-110200000D03*
X214340000Y-110200000D03*
X217420000Y-110600000D03*
X214340000Y-110600000D03*
X217420000Y-111000000D03*
X214340000Y-111000000D03*
X217420000Y-111400000D03*
X214340000Y-111400000D03*
X217420000Y-111800000D03*
X214340000Y-111800000D03*
X217420000Y-112200000D03*
X214340000Y-112200000D03*
X217420000Y-112600000D03*
X214340000Y-112600000D03*
X217420000Y-113000000D03*
X214340000Y-113000000D03*
X217420000Y-113400000D03*
X214340000Y-113400000D03*
X217420000Y-113800000D03*
X214340000Y-113800000D03*
X217420000Y-114200000D03*
X214340000Y-114200000D03*
X217420000Y-114600000D03*
X214340000Y-114600000D03*
X217420000Y-115000000D03*
X214340000Y-115000000D03*
X217420000Y-115400000D03*
X214340000Y-115400000D03*
X217420000Y-115800000D03*
X214340000Y-115800000D03*
X217420000Y-116200000D03*
X214340000Y-116200000D03*
X217420000Y-116600000D03*
X214340000Y-116600000D03*
X217420000Y-117000000D03*
X214340000Y-117000000D03*
X217420000Y-117400000D03*
X214340000Y-117400000D03*
X217420000Y-117800000D03*
X214340000Y-117800000D03*
X217420000Y-118200000D03*
X214340000Y-118200000D03*
X217420000Y-118600000D03*
X214340000Y-118600000D03*
X217420000Y-119000000D03*
X214340000Y-119000000D03*
X217420000Y-119400000D03*
X214340000Y-119400000D03*
X217420000Y-119800000D03*
X214340000Y-119800000D03*
X217420000Y-120200000D03*
X214340000Y-120200000D03*
X217420000Y-120600000D03*
X214340000Y-120600000D03*
X217420000Y-121000000D03*
X214340000Y-121000000D03*
X217420000Y-121400000D03*
X214340000Y-121400000D03*
X217420000Y-121800000D03*
X214340000Y-121800000D03*
X217420000Y-122200000D03*
X214340000Y-122200000D03*
X217420000Y-122600000D03*
X214340000Y-122600000D03*
X217420000Y-123000000D03*
X214340000Y-123000000D03*
X217420000Y-123400000D03*
X214340000Y-123400000D03*
X217420000Y-123800000D03*
X214340000Y-123800000D03*
X217420000Y-124200000D03*
X214340000Y-124200000D03*
X217420000Y-124600000D03*
X214340000Y-124600000D03*
X217420000Y-125000000D03*
X214340000Y-125000000D03*
X217420000Y-125400000D03*
X214340000Y-125400000D03*
X217420000Y-125800000D03*
X214340000Y-125800000D03*
X171160000Y-125800000D03*
X174240000Y-125800000D03*
X171160000Y-125400000D03*
X174240000Y-125400000D03*
X171160000Y-125000000D03*
X174240000Y-125000000D03*
X171160000Y-124600000D03*
X174240000Y-124600000D03*
X171160000Y-124200000D03*
X174240000Y-124200000D03*
X171160000Y-123800000D03*
X174240000Y-123800000D03*
X171160000Y-123400000D03*
X174240000Y-123400000D03*
X171160000Y-123000000D03*
X174240000Y-123000000D03*
X171160000Y-122600000D03*
X174240000Y-122600000D03*
X171160000Y-122200000D03*
X174240000Y-122200000D03*
X171160000Y-121800000D03*
X174240000Y-121800000D03*
X171160000Y-121400000D03*
X174240000Y-121400000D03*
X171160000Y-121000000D03*
X174240000Y-121000000D03*
X171160000Y-120600000D03*
X174240000Y-120600000D03*
X171160000Y-120200000D03*
X174240000Y-120200000D03*
X171160000Y-119800000D03*
X174240000Y-119800000D03*
X171160000Y-119400000D03*
X174240000Y-119400000D03*
X171160000Y-119000000D03*
X174240000Y-119000000D03*
X171160000Y-118600000D03*
X174240000Y-118600000D03*
X171160000Y-118200000D03*
X174240000Y-118200000D03*
X171160000Y-117800000D03*
X174240000Y-117800000D03*
X171160000Y-117400000D03*
X174240000Y-117400000D03*
X171160000Y-117000000D03*
X174240000Y-117000000D03*
X171160000Y-116600000D03*
X174240000Y-116600000D03*
X171160000Y-116200000D03*
X174240000Y-116200000D03*
X171160000Y-115800000D03*
X174240000Y-115800000D03*
X171160000Y-115400000D03*
X174240000Y-115400000D03*
X171160000Y-115000000D03*
X174240000Y-115000000D03*
X171160000Y-114600000D03*
X174240000Y-114600000D03*
X171160000Y-114200000D03*
X174240000Y-114200000D03*
X171160000Y-113800000D03*
X174240000Y-113800000D03*
X171160000Y-113400000D03*
X174240000Y-113400000D03*
X171160000Y-113000000D03*
X174240000Y-113000000D03*
X171160000Y-112600000D03*
X174240000Y-112600000D03*
X171160000Y-112200000D03*
X174240000Y-112200000D03*
X171160000Y-111800000D03*
X174240000Y-111800000D03*
X171160000Y-111400000D03*
X174240000Y-111400000D03*
X171160000Y-111000000D03*
X174240000Y-111000000D03*
X171160000Y-110600000D03*
X174240000Y-110600000D03*
X171160000Y-110200000D03*
X174240000Y-110200000D03*
D18*
X210960000Y-107870000D03*
X208420000Y-107870000D03*
X205880000Y-107870000D03*
X203340000Y-107870000D03*
X200800000Y-107870000D03*
X198260000Y-107870000D03*
X195720000Y-107870000D03*
X193180000Y-107870000D03*
X190640000Y-107870000D03*
X188100000Y-107870000D03*
X185560000Y-107870000D03*
X183020000Y-107870000D03*
X180480000Y-107870000D03*
X177940000Y-107870000D03*
X210960000Y-128130000D03*
X208420000Y-128130000D03*
X205880000Y-128130000D03*
X203340000Y-128130000D03*
X200800000Y-128130000D03*
X198260000Y-128130000D03*
X195720000Y-128130000D03*
X193180000Y-128130000D03*
X190640000Y-128130000D03*
X188100000Y-128130000D03*
X185560000Y-128130000D03*
X183020000Y-128130000D03*
X180480000Y-128130000D03*
X177940000Y-128130000D03*
D19*
X177080000Y-141500000D03*
D20*
X166920000Y-141500000D03*
D16*
X214062500Y-99150000D03*
X210937500Y-99150000D03*
D21*
X190850000Y-136700000D03*
X190850000Y-139000000D03*
D22*
X197150000Y-139000000D03*
D21*
X190850000Y-141300000D03*
D23*
X243750000Y-122250000D03*
X211500000Y-134000000D03*
X239750000Y-108250000D03*
X218500000Y-142500000D03*
X161000000Y-79250000D03*
X243750000Y-44250000D03*
X152750000Y-94250000D03*
X239750000Y-101000000D03*
X199750000Y-103250000D03*
X239750000Y-93750000D03*
X161000000Y-65250000D03*
X202250000Y-97250000D03*
X206750000Y-103250000D03*
X243750000Y-86750000D03*
X161000000Y-58000000D03*
X160250000Y-90500000D03*
X243750000Y-93750000D03*
X239750000Y-86750000D03*
X164500000Y-90500000D03*
X218500000Y-134000000D03*
X152750000Y-108750000D03*
X239750000Y-58500000D03*
X235500000Y-44250000D03*
X221250000Y-97000000D03*
X239750000Y-51250000D03*
X164250000Y-65250000D03*
X199750000Y-101250000D03*
X195250000Y-101250000D03*
X243750000Y-79750000D03*
X157250000Y-43750000D03*
X202250000Y-101250000D03*
X233000000Y-138250000D03*
X211500000Y-142500000D03*
X160250000Y-87250000D03*
X243750000Y-58500000D03*
X157250000Y-65250000D03*
X235500000Y-58500000D03*
X235500000Y-72500000D03*
X235500000Y-108250000D03*
X152750000Y-122750000D03*
X239750000Y-65750000D03*
X239750000Y-115000000D03*
X195250000Y-103250000D03*
X197250000Y-103250000D03*
X164500000Y-87250000D03*
X235500000Y-86750000D03*
X164250000Y-58000000D03*
X235500000Y-101000000D03*
X225750000Y-142500000D03*
X235500000Y-115000000D03*
X243750000Y-108250000D03*
X243750000Y-65750000D03*
X203340000Y-132000000D03*
X243750000Y-72500000D03*
X206750000Y-97250000D03*
X156500000Y-101500000D03*
X164250000Y-72000000D03*
X235500000Y-93750000D03*
X161000000Y-43750000D03*
X243750000Y-51250000D03*
X156500000Y-115500000D03*
X197250000Y-101250000D03*
X233000000Y-134000000D03*
X160250000Y-94250000D03*
X156500000Y-87250000D03*
X239750000Y-44250000D03*
X204250000Y-99250000D03*
X239750000Y-122250000D03*
X164500000Y-94250000D03*
X164250000Y-43750000D03*
X206750000Y-101250000D03*
X239750000Y-134000000D03*
X225750000Y-134000000D03*
X243750000Y-101000000D03*
X156500000Y-108750000D03*
X204250000Y-97250000D03*
X235500000Y-65750000D03*
X233000000Y-142500000D03*
X239750000Y-72500000D03*
X243750000Y-115000000D03*
X202250000Y-99250000D03*
X206750000Y-99250000D03*
X157250000Y-79250000D03*
X156500000Y-122750000D03*
X211500000Y-138250000D03*
X164250000Y-50750000D03*
X157250000Y-83000000D03*
X161000000Y-72000000D03*
X152750000Y-115500000D03*
X247000000Y-142500000D03*
X204250000Y-101250000D03*
X202250000Y-103250000D03*
X152750000Y-87250000D03*
X164250000Y-79250000D03*
X239750000Y-138250000D03*
X157250000Y-50750000D03*
X239750000Y-79750000D03*
X157250000Y-58000000D03*
X164250000Y-83000000D03*
X235500000Y-79750000D03*
X225750000Y-138250000D03*
X235500000Y-122250000D03*
X152750000Y-101500000D03*
X204250000Y-103250000D03*
X247000000Y-134000000D03*
X161000000Y-83000000D03*
X161000000Y-50750000D03*
X218500000Y-138250000D03*
X235500000Y-51250000D03*
X212000000Y-97000000D03*
X156500000Y-94250000D03*
X247000000Y-138250000D03*
X239750000Y-142500000D03*
X157250000Y-72000000D03*
X182750000Y-99500000D03*
X180375000Y-96875000D03*
D24*
X185000000Y-141562500D02*
X190587500Y-141562500D01*
X185000000Y-141562500D02*
X182000000Y-141562500D01*
X177080000Y-141500000D02*
X181937500Y-141500000D01*
D25*
X190587500Y-141562500D02*
X190850000Y-141300000D01*
X181937500Y-141500000D02*
X182000000Y-141562500D01*
X203340000Y-132000000D02*
X203340000Y-128130000D01*
X208420000Y-128130000D02*
X208000000Y-128550000D01*
D26*
X160984406Y-104377123D02*
X164616845Y-100744684D01*
X188570000Y-96430000D02*
X188570000Y-93340731D01*
X177854832Y-133295168D02*
X164751613Y-133295168D01*
X164616845Y-100744684D02*
X184255316Y-100744684D01*
X183020000Y-128130000D02*
X177854832Y-133295168D01*
X160984406Y-129527961D02*
X160984406Y-104377123D01*
X164751613Y-133295168D02*
X160984406Y-129527961D01*
X184255316Y-100744684D02*
X188570000Y-96430000D01*
X196200000Y-96460752D02*
X196200000Y-93340731D01*
X182560000Y-103250000D02*
X189410752Y-103250000D01*
X177940000Y-107870000D02*
X182560000Y-103250000D01*
X189410752Y-103250000D02*
X196200000Y-96460752D01*
X163000000Y-105000000D02*
X165668818Y-102331182D01*
X189168818Y-102331182D02*
X193650000Y-97850000D01*
X177940000Y-130060000D02*
X176250000Y-131750000D01*
X165668818Y-102331182D02*
X189168818Y-102331182D01*
X163000000Y-128750000D02*
X163000000Y-105000000D01*
X177940000Y-128130000D02*
X177940000Y-130060000D01*
X176250000Y-131750000D02*
X166000000Y-131750000D01*
X193650000Y-97850000D02*
X193650000Y-93340731D01*
X166000000Y-131750000D02*
X163000000Y-128750000D01*
X184432855Y-104419952D02*
X189330048Y-104419952D01*
X198730000Y-95020000D02*
X198730000Y-94020000D01*
X180480000Y-107870000D02*
X180982807Y-107870000D01*
X180982807Y-107870000D02*
X184432855Y-104419952D01*
X189330048Y-104419952D02*
X198730000Y-95020000D01*
D25*
X198730000Y-94020000D02*
X198730000Y-93340731D01*
D26*
X160084675Y-129691128D02*
X160084675Y-104142382D01*
X183460000Y-96540000D02*
X183460000Y-93340731D01*
X185560000Y-128130000D02*
X179571361Y-134118639D01*
X164227057Y-100000000D02*
X180000000Y-100000000D01*
X160084675Y-104142382D02*
X164227057Y-100000000D01*
X180000000Y-100000000D02*
X183460000Y-96540000D01*
X179571361Y-134118639D02*
X164512186Y-134118639D01*
X164512186Y-134118639D02*
X160084675Y-129691128D01*
X180480000Y-129309432D02*
X177269898Y-132519534D01*
X161869889Y-129124909D02*
X161869889Y-104582976D01*
X161869889Y-104582976D02*
X164952865Y-101500000D01*
X191110000Y-97390000D02*
X191110000Y-93340731D01*
X187000000Y-101500000D02*
X191110000Y-97390000D01*
X177269898Y-132519534D02*
X165264514Y-132519534D01*
X164952865Y-101500000D02*
X187000000Y-101500000D01*
X180480000Y-128130000D02*
X180480000Y-129309432D01*
X165264514Y-132519534D02*
X161869889Y-129124909D01*
X166250000Y-96750000D02*
X159250000Y-103750000D01*
X182750000Y-99500000D02*
X186030000Y-96220000D01*
X180375000Y-96875000D02*
X180250000Y-97000000D01*
X180250000Y-97000000D02*
X176500000Y-97000000D01*
X159250000Y-130076526D02*
X164120071Y-134946597D01*
X176250000Y-96750000D02*
X166250000Y-96750000D01*
X164120071Y-134946597D02*
X181283403Y-134946597D01*
X186030000Y-96220000D02*
X186030000Y-93340731D01*
X181283403Y-134946597D02*
X188100000Y-128130000D01*
X159250000Y-103750000D02*
X159250000Y-130076526D01*
X176500000Y-97000000D02*
X176250000Y-96750000D01*
D24*
X160500000Y-141500000D02*
X166920000Y-141500000D01*
G04 #@! TA.AperFunction,Conductor*
G36*
X219943039Y-90019685D02*
G01*
X219988794Y-90072489D01*
X220000000Y-90124000D01*
X220000000Y-126876000D01*
X219980315Y-126943039D01*
X219927511Y-126988794D01*
X219876000Y-127000000D01*
X211625604Y-127000000D01*
X211569309Y-126986485D01*
X211559690Y-126981584D01*
X211457299Y-126929413D01*
X211263364Y-126866399D01*
X211263362Y-126866398D01*
X211263360Y-126866398D01*
X211061963Y-126834500D01*
X211061958Y-126834500D01*
X210858042Y-126834500D01*
X210858037Y-126834500D01*
X210656639Y-126866398D01*
X210462698Y-126929414D01*
X210378017Y-126972561D01*
X210360310Y-126981584D01*
X210350691Y-126986485D01*
X210337687Y-126989606D01*
X210329331Y-126994977D01*
X210294396Y-127000000D01*
X210083796Y-127000000D01*
X210016757Y-126980315D01*
X209971002Y-126927511D01*
X209966142Y-126915159D01*
X209948616Y-126862502D01*
X209948613Y-126862496D01*
X209870828Y-126741462D01*
X209870825Y-126741457D01*
X209870820Y-126741451D01*
X209825076Y-126688659D01*
X209825072Y-126688656D01*
X209825070Y-126688653D01*
X209716336Y-126594433D01*
X209716333Y-126594431D01*
X209716331Y-126594430D01*
X209585465Y-126534664D01*
X209585460Y-126534662D01*
X209585459Y-126534662D01*
X209518420Y-126514977D01*
X209518422Y-126514977D01*
X209518417Y-126514976D01*
X209456347Y-126506052D01*
X209376000Y-126494500D01*
X207124000Y-126494500D01*
X207123991Y-126494500D01*
X207123990Y-126494501D01*
X207016549Y-126506052D01*
X207016537Y-126506054D01*
X206965027Y-126517260D01*
X206862502Y-126551383D01*
X206862496Y-126551386D01*
X206741462Y-126629171D01*
X206741451Y-126629179D01*
X206688659Y-126674923D01*
X206594433Y-126783664D01*
X206594430Y-126783668D01*
X206534664Y-126914534D01*
X206514976Y-126981582D01*
X206494500Y-127124001D01*
X206494500Y-127444774D01*
X206508466Y-127562772D01*
X206521982Y-127619068D01*
X206521983Y-127619072D01*
X206563109Y-127730551D01*
X206607689Y-127818045D01*
X206615134Y-127836019D01*
X206647535Y-127935738D01*
X206652076Y-127954653D01*
X206668473Y-128058177D01*
X206670000Y-128077575D01*
X206670000Y-128182417D01*
X206668473Y-128201816D01*
X206658382Y-128265516D01*
X206658383Y-128265517D01*
X206658375Y-128265568D01*
X206658351Y-128265719D01*
X206652074Y-128305351D01*
X206647533Y-128324267D01*
X206615134Y-128423977D01*
X206607688Y-128441951D01*
X206563113Y-128529436D01*
X206563110Y-128529443D01*
X206521985Y-128640920D01*
X206521982Y-128640930D01*
X206508466Y-128697227D01*
X206494500Y-128815223D01*
X206494500Y-129376000D01*
X206474815Y-129443039D01*
X206422011Y-129488794D01*
X206370500Y-129500000D01*
X204874000Y-129500000D01*
X204806961Y-129480315D01*
X204761206Y-129427511D01*
X204750000Y-129376000D01*
X204750000Y-110052127D01*
X213489500Y-110052127D01*
X213489500Y-110052134D01*
X213489500Y-110052135D01*
X213489500Y-110347868D01*
X213489501Y-110347878D01*
X213493679Y-110386745D01*
X213493679Y-110413250D01*
X213489500Y-110452122D01*
X213489500Y-110747868D01*
X213489501Y-110747878D01*
X213493679Y-110786745D01*
X213493679Y-110813250D01*
X213489500Y-110852122D01*
X213489500Y-111147868D01*
X213489501Y-111147878D01*
X213493679Y-111186745D01*
X213493679Y-111213250D01*
X213489500Y-111252122D01*
X213489500Y-111547868D01*
X213489501Y-111547878D01*
X213493679Y-111586745D01*
X213493679Y-111613250D01*
X213489500Y-111652122D01*
X213489500Y-111947868D01*
X213489501Y-111947878D01*
X213493679Y-111986745D01*
X213493679Y-112013250D01*
X213489500Y-112052122D01*
X213489500Y-112347868D01*
X213489501Y-112347878D01*
X213493679Y-112386745D01*
X213493679Y-112413250D01*
X213489500Y-112452122D01*
X213489500Y-112747868D01*
X213489501Y-112747878D01*
X213493679Y-112786745D01*
X213493679Y-112813250D01*
X213489500Y-112852122D01*
X213489500Y-113147868D01*
X213489501Y-113147878D01*
X213493679Y-113186745D01*
X213493679Y-113213250D01*
X213489500Y-113252122D01*
X213489500Y-113547868D01*
X213489501Y-113547878D01*
X213493679Y-113586745D01*
X213493679Y-113613250D01*
X213489500Y-113652122D01*
X213489500Y-113947868D01*
X213489501Y-113947878D01*
X213493679Y-113986745D01*
X213493679Y-114013250D01*
X213489500Y-114052122D01*
X213489500Y-114347868D01*
X213489501Y-114347878D01*
X213493679Y-114386745D01*
X213493679Y-114413250D01*
X213489500Y-114452122D01*
X213489500Y-114747868D01*
X213489501Y-114747878D01*
X213493679Y-114786745D01*
X213493679Y-114813250D01*
X213489500Y-114852122D01*
X213489500Y-115147868D01*
X213489501Y-115147878D01*
X213493679Y-115186745D01*
X213493679Y-115213250D01*
X213489500Y-115252122D01*
X213489500Y-115547868D01*
X213489501Y-115547878D01*
X213493679Y-115586745D01*
X213493679Y-115613250D01*
X213489500Y-115652122D01*
X213489500Y-115947868D01*
X213489501Y-115947878D01*
X213493679Y-115986745D01*
X213493679Y-116013250D01*
X213489500Y-116052122D01*
X213489500Y-116347868D01*
X213489501Y-116347878D01*
X213493679Y-116386745D01*
X213493679Y-116413250D01*
X213489500Y-116452122D01*
X213489500Y-116747868D01*
X213489501Y-116747878D01*
X213493679Y-116786745D01*
X213493679Y-116813250D01*
X213489500Y-116852122D01*
X213489500Y-117147868D01*
X213489501Y-117147878D01*
X213493679Y-117186745D01*
X213493679Y-117213250D01*
X213489500Y-117252122D01*
X213489500Y-117547868D01*
X213489501Y-117547878D01*
X213493679Y-117586745D01*
X213493679Y-117613250D01*
X213489500Y-117652122D01*
X213489500Y-117947868D01*
X213489501Y-117947878D01*
X213493679Y-117986745D01*
X213493679Y-118013250D01*
X213489500Y-118052122D01*
X213489500Y-118347868D01*
X213489501Y-118347878D01*
X213493679Y-118386745D01*
X213493679Y-118413250D01*
X213489500Y-118452122D01*
X213489500Y-118747868D01*
X213489501Y-118747878D01*
X213493679Y-118786745D01*
X213493679Y-118813250D01*
X213489500Y-118852122D01*
X213489500Y-119147868D01*
X213489501Y-119147878D01*
X213493679Y-119186745D01*
X213493679Y-119213250D01*
X213489500Y-119252122D01*
X213489500Y-119547868D01*
X213489501Y-119547878D01*
X213493679Y-119586745D01*
X213493679Y-119613250D01*
X213489500Y-119652122D01*
X213489500Y-119947868D01*
X213489501Y-119947878D01*
X213493679Y-119986745D01*
X213493679Y-120013250D01*
X213489500Y-120052122D01*
X213489500Y-120347868D01*
X213489501Y-120347878D01*
X213493679Y-120386745D01*
X213493679Y-120413250D01*
X213489500Y-120452122D01*
X213489500Y-120747868D01*
X213489501Y-120747878D01*
X213493679Y-120786745D01*
X213493679Y-120813250D01*
X213489500Y-120852122D01*
X213489500Y-121147868D01*
X213489501Y-121147878D01*
X213493679Y-121186745D01*
X213493679Y-121213250D01*
X213489500Y-121252122D01*
X213489500Y-121547868D01*
X213489501Y-121547878D01*
X213493679Y-121586745D01*
X213493679Y-121613250D01*
X213489500Y-121652122D01*
X213489500Y-121947868D01*
X213489501Y-121947878D01*
X213493679Y-121986745D01*
X213493679Y-122013250D01*
X213489500Y-122052122D01*
X213489500Y-122347868D01*
X213489501Y-122347878D01*
X213493679Y-122386745D01*
X213493679Y-122413250D01*
X213489500Y-122452122D01*
X213489500Y-122747868D01*
X213489501Y-122747878D01*
X213493679Y-122786745D01*
X213493679Y-122813250D01*
X213489500Y-122852122D01*
X213489500Y-123147868D01*
X213489501Y-123147878D01*
X213493679Y-123186745D01*
X213493679Y-123213250D01*
X213489500Y-123252122D01*
X213489500Y-123547868D01*
X213489501Y-123547878D01*
X213493679Y-123586745D01*
X213493679Y-123613250D01*
X213489500Y-123652122D01*
X213489500Y-123947868D01*
X213489501Y-123947878D01*
X213493679Y-123986745D01*
X213493679Y-124013250D01*
X213489500Y-124052122D01*
X213489500Y-124347868D01*
X213489501Y-124347878D01*
X213493679Y-124386745D01*
X213493679Y-124413250D01*
X213489500Y-124452122D01*
X213489500Y-124747868D01*
X213489501Y-124747878D01*
X213493679Y-124786745D01*
X213493679Y-124813250D01*
X213489500Y-124852122D01*
X213489500Y-125147868D01*
X213489501Y-125147878D01*
X213493679Y-125186745D01*
X213493679Y-125213250D01*
X213489500Y-125252122D01*
X213489500Y-125547868D01*
X213489501Y-125547878D01*
X213493679Y-125586745D01*
X213493679Y-125613250D01*
X213489500Y-125652122D01*
X213489500Y-125947869D01*
X213489501Y-125947876D01*
X213495908Y-126007483D01*
X213546202Y-126142328D01*
X213546206Y-126142335D01*
X213632452Y-126257544D01*
X213632455Y-126257547D01*
X213747664Y-126343793D01*
X213747671Y-126343797D01*
X213882517Y-126394091D01*
X213882516Y-126394091D01*
X213889444Y-126394835D01*
X213942127Y-126400500D01*
X214737872Y-126400499D01*
X214797483Y-126394091D01*
X214932331Y-126343796D01*
X215047546Y-126257546D01*
X215133796Y-126142331D01*
X215184091Y-126007483D01*
X215190500Y-125947873D01*
X215190499Y-125652128D01*
X215190499Y-125652127D01*
X215190498Y-125652111D01*
X215186320Y-125613253D01*
X215186320Y-125586745D01*
X215190500Y-125547873D01*
X215190499Y-125252128D01*
X215190499Y-125252127D01*
X215190498Y-125252111D01*
X215186320Y-125213253D01*
X215186320Y-125186745D01*
X215190500Y-125147873D01*
X215190499Y-124852128D01*
X215190499Y-124852127D01*
X215190498Y-124852111D01*
X215186320Y-124813253D01*
X215186320Y-124786745D01*
X215190500Y-124747873D01*
X215190499Y-124452128D01*
X215190499Y-124452127D01*
X215190498Y-124452111D01*
X215186320Y-124413253D01*
X215186320Y-124386745D01*
X215190500Y-124347873D01*
X215190499Y-124052128D01*
X215190499Y-124052127D01*
X215190498Y-124052111D01*
X215186320Y-124013253D01*
X215186320Y-123986745D01*
X215190500Y-123947873D01*
X215190499Y-123652128D01*
X215190499Y-123652127D01*
X215190498Y-123652111D01*
X215186320Y-123613253D01*
X215186320Y-123586745D01*
X215190500Y-123547873D01*
X215190499Y-123252128D01*
X215190499Y-123252127D01*
X215190498Y-123252111D01*
X215186320Y-123213253D01*
X215186320Y-123186745D01*
X215190500Y-123147873D01*
X215190499Y-122852128D01*
X215190499Y-122852127D01*
X215190498Y-122852111D01*
X215186320Y-122813253D01*
X215186320Y-122786745D01*
X215190500Y-122747873D01*
X215190499Y-122452128D01*
X215190499Y-122452127D01*
X215190498Y-122452111D01*
X215186320Y-122413253D01*
X215186320Y-122386745D01*
X215190500Y-122347873D01*
X215190499Y-122052128D01*
X215190499Y-122052127D01*
X215190498Y-122052111D01*
X215186320Y-122013253D01*
X215186320Y-121986745D01*
X215190500Y-121947873D01*
X215190499Y-121652128D01*
X215190499Y-121652127D01*
X215190498Y-121652111D01*
X215186320Y-121613253D01*
X215186320Y-121586745D01*
X215190500Y-121547873D01*
X215190499Y-121252128D01*
X215190499Y-121252127D01*
X215190498Y-121252111D01*
X215186320Y-121213253D01*
X215186320Y-121186745D01*
X215190500Y-121147873D01*
X215190499Y-120852128D01*
X215190499Y-120852127D01*
X215190498Y-120852111D01*
X215186320Y-120813253D01*
X215186320Y-120786745D01*
X215190500Y-120747873D01*
X215190499Y-120452128D01*
X215190499Y-120452127D01*
X215190498Y-120452111D01*
X215186320Y-120413253D01*
X215186320Y-120386745D01*
X215190500Y-120347873D01*
X215190499Y-120052128D01*
X215190499Y-120052127D01*
X215190498Y-120052111D01*
X215186320Y-120013253D01*
X215186320Y-119986745D01*
X215190500Y-119947873D01*
X215190499Y-119652128D01*
X215190499Y-119652127D01*
X215190498Y-119652111D01*
X215186320Y-119613253D01*
X215186320Y-119586745D01*
X215190500Y-119547873D01*
X215190499Y-119252128D01*
X215190499Y-119252127D01*
X215190498Y-119252111D01*
X215186320Y-119213253D01*
X215186320Y-119186745D01*
X215190500Y-119147873D01*
X215190499Y-118852128D01*
X215190499Y-118852127D01*
X215190498Y-118852111D01*
X215186320Y-118813253D01*
X215186320Y-118786745D01*
X215190500Y-118747873D01*
X215190499Y-118452128D01*
X215190499Y-118452127D01*
X215190498Y-118452111D01*
X215186320Y-118413253D01*
X215186320Y-118386745D01*
X215190500Y-118347873D01*
X215190499Y-118052128D01*
X215190499Y-118052127D01*
X215190498Y-118052111D01*
X215186320Y-118013253D01*
X215186320Y-117986745D01*
X215190500Y-117947873D01*
X215190499Y-117652128D01*
X215190499Y-117652127D01*
X215190498Y-117652111D01*
X215186320Y-117613253D01*
X215186320Y-117586745D01*
X215190500Y-117547873D01*
X215190499Y-117252128D01*
X215190499Y-117252127D01*
X215190498Y-117252111D01*
X215186320Y-117213253D01*
X215186320Y-117186745D01*
X215190500Y-117147873D01*
X215190499Y-116852128D01*
X215190499Y-116852127D01*
X215190498Y-116852111D01*
X215186320Y-116813253D01*
X215186320Y-116786745D01*
X215190500Y-116747873D01*
X215190499Y-116452128D01*
X215190499Y-116452127D01*
X215190498Y-116452111D01*
X215186320Y-116413253D01*
X215186320Y-116386745D01*
X215190500Y-116347873D01*
X215190499Y-116052128D01*
X215190499Y-116052127D01*
X215190498Y-116052111D01*
X215186320Y-116013253D01*
X215186320Y-115986745D01*
X215190500Y-115947873D01*
X215190499Y-115652128D01*
X215190499Y-115652127D01*
X215190498Y-115652111D01*
X215186320Y-115613253D01*
X215186320Y-115586745D01*
X215190500Y-115547873D01*
X215190499Y-115252128D01*
X215190499Y-115252127D01*
X215190498Y-115252111D01*
X215186320Y-115213253D01*
X215186320Y-115186745D01*
X215190500Y-115147873D01*
X215190499Y-114852128D01*
X215190499Y-114852127D01*
X215190498Y-114852111D01*
X215186320Y-114813253D01*
X215186320Y-114786745D01*
X215190500Y-114747873D01*
X215190499Y-114452128D01*
X215190499Y-114452127D01*
X215190498Y-114452111D01*
X215186320Y-114413253D01*
X215186320Y-114386745D01*
X215190500Y-114347873D01*
X215190499Y-114052128D01*
X215190499Y-114052127D01*
X215190498Y-114052111D01*
X215186320Y-114013253D01*
X215186320Y-113986745D01*
X215190500Y-113947873D01*
X215190499Y-113652128D01*
X215190499Y-113652127D01*
X215190498Y-113652111D01*
X215186320Y-113613253D01*
X215186320Y-113586745D01*
X215190500Y-113547873D01*
X215190499Y-113252128D01*
X215190499Y-113252127D01*
X215190498Y-113252111D01*
X215186320Y-113213253D01*
X215186320Y-113186745D01*
X215190500Y-113147873D01*
X215190499Y-112852128D01*
X215190499Y-112852127D01*
X215190498Y-112852111D01*
X215186320Y-112813253D01*
X215186320Y-112786745D01*
X215190500Y-112747873D01*
X215190499Y-112452128D01*
X215190499Y-112452127D01*
X215190498Y-112452111D01*
X215186320Y-112413253D01*
X215186320Y-112386745D01*
X215190500Y-112347873D01*
X215190499Y-112052128D01*
X215190499Y-112052127D01*
X215190498Y-112052111D01*
X215186320Y-112013253D01*
X215186320Y-111986745D01*
X215190500Y-111947873D01*
X215190499Y-111652128D01*
X215190499Y-111652127D01*
X215190498Y-111652111D01*
X215186320Y-111613253D01*
X215186320Y-111586745D01*
X215190500Y-111547873D01*
X215190499Y-111252128D01*
X215190499Y-111252127D01*
X215190498Y-111252111D01*
X215186320Y-111213253D01*
X215186320Y-111186745D01*
X215190500Y-111147873D01*
X215190499Y-110852128D01*
X215190499Y-110852127D01*
X215190498Y-110852111D01*
X215186320Y-110813253D01*
X215186320Y-110786745D01*
X215190500Y-110747873D01*
X215190499Y-110452128D01*
X215190499Y-110452127D01*
X215190498Y-110452111D01*
X215186320Y-110413253D01*
X215186320Y-110386745D01*
X215190500Y-110347873D01*
X215190499Y-110052128D01*
X215190499Y-110052127D01*
X216569500Y-110052127D01*
X216569500Y-110052134D01*
X216569500Y-110052135D01*
X216569500Y-110347868D01*
X216569501Y-110347878D01*
X216573679Y-110386745D01*
X216573679Y-110413250D01*
X216569500Y-110452122D01*
X216569500Y-110747868D01*
X216569501Y-110747878D01*
X216573679Y-110786745D01*
X216573679Y-110813250D01*
X216569500Y-110852122D01*
X216569500Y-111147868D01*
X216569501Y-111147878D01*
X216573679Y-111186745D01*
X216573679Y-111213250D01*
X216569500Y-111252122D01*
X216569500Y-111547868D01*
X216569501Y-111547878D01*
X216573679Y-111586745D01*
X216573679Y-111613250D01*
X216569500Y-111652122D01*
X216569500Y-111947868D01*
X216569501Y-111947878D01*
X216573679Y-111986745D01*
X216573679Y-112013250D01*
X216569500Y-112052122D01*
X216569500Y-112347868D01*
X216569501Y-112347878D01*
X216573679Y-112386745D01*
X216573679Y-112413250D01*
X216569500Y-112452122D01*
X216569500Y-112747868D01*
X216569501Y-112747878D01*
X216573679Y-112786745D01*
X216573679Y-112813250D01*
X216569500Y-112852122D01*
X216569500Y-113147868D01*
X216569501Y-113147878D01*
X216573679Y-113186745D01*
X216573679Y-113213250D01*
X216569500Y-113252122D01*
X216569500Y-113547868D01*
X216569501Y-113547878D01*
X216573679Y-113586745D01*
X216573679Y-113613250D01*
X216569500Y-113652122D01*
X216569500Y-113947868D01*
X216569501Y-113947878D01*
X216573679Y-113986745D01*
X216573679Y-114013250D01*
X216569500Y-114052122D01*
X216569500Y-114347868D01*
X216569501Y-114347878D01*
X216573679Y-114386745D01*
X216573679Y-114413250D01*
X216569500Y-114452122D01*
X216569500Y-114747868D01*
X216569501Y-114747878D01*
X216573679Y-114786745D01*
X216573679Y-114813250D01*
X216569500Y-114852122D01*
X216569500Y-115147868D01*
X216569501Y-115147878D01*
X216573679Y-115186745D01*
X216573679Y-115213250D01*
X216569500Y-115252122D01*
X216569500Y-115547868D01*
X216569501Y-115547878D01*
X216573679Y-115586745D01*
X216573679Y-115613250D01*
X216569500Y-115652122D01*
X216569500Y-115947868D01*
X216569501Y-115947878D01*
X216573679Y-115986745D01*
X216573679Y-116013250D01*
X216569500Y-116052122D01*
X216569500Y-116347868D01*
X216569501Y-116347878D01*
X216573679Y-116386745D01*
X216573679Y-116413250D01*
X216569500Y-116452122D01*
X216569500Y-116747868D01*
X216569501Y-116747878D01*
X216573679Y-116786745D01*
X216573679Y-116813250D01*
X216569500Y-116852122D01*
X216569500Y-117147868D01*
X216569501Y-117147878D01*
X216573679Y-117186745D01*
X216573679Y-117213250D01*
X216569500Y-117252122D01*
X216569500Y-117547868D01*
X216569501Y-117547878D01*
X216573679Y-117586745D01*
X216573679Y-117613250D01*
X216569500Y-117652122D01*
X216569500Y-117947868D01*
X216569501Y-117947878D01*
X216573679Y-117986745D01*
X216573679Y-118013250D01*
X216569500Y-118052122D01*
X216569500Y-118347868D01*
X216569501Y-118347878D01*
X216573679Y-118386745D01*
X216573679Y-118413250D01*
X216569500Y-118452122D01*
X216569500Y-118747868D01*
X216569501Y-118747878D01*
X216573679Y-118786745D01*
X216573679Y-118813250D01*
X216569500Y-118852122D01*
X216569500Y-119147868D01*
X216569501Y-119147878D01*
X216573679Y-119186745D01*
X216573679Y-119213250D01*
X216569500Y-119252122D01*
X216569500Y-119547868D01*
X216569501Y-119547878D01*
X216573679Y-119586745D01*
X216573679Y-119613250D01*
X216569500Y-119652122D01*
X216569500Y-119947868D01*
X216569501Y-119947878D01*
X216573679Y-119986745D01*
X216573679Y-120013250D01*
X216569500Y-120052122D01*
X216569500Y-120347868D01*
X216569501Y-120347878D01*
X216573679Y-120386745D01*
X216573679Y-120413250D01*
X216569500Y-120452122D01*
X216569500Y-120747868D01*
X216569501Y-120747878D01*
X216573679Y-120786745D01*
X216573679Y-120813250D01*
X216569500Y-120852122D01*
X216569500Y-121147868D01*
X216569501Y-121147878D01*
X216573679Y-121186745D01*
X216573679Y-121213250D01*
X216569500Y-121252122D01*
X216569500Y-121547868D01*
X216569501Y-121547878D01*
X216573679Y-121586745D01*
X216573679Y-121613250D01*
X216569500Y-121652122D01*
X216569500Y-121947868D01*
X216569501Y-121947878D01*
X216573679Y-121986745D01*
X216573679Y-122013250D01*
X216569500Y-122052122D01*
X216569500Y-122347868D01*
X216569501Y-122347878D01*
X216573679Y-122386745D01*
X216573679Y-122413250D01*
X216569500Y-122452122D01*
X216569500Y-122747868D01*
X216569501Y-122747878D01*
X216573679Y-122786745D01*
X216573679Y-122813250D01*
X216569500Y-122852122D01*
X216569500Y-123147868D01*
X216569501Y-123147878D01*
X216573679Y-123186745D01*
X216573679Y-123213250D01*
X216569500Y-123252122D01*
X216569500Y-123547868D01*
X216569501Y-123547878D01*
X216573679Y-123586745D01*
X216573679Y-123613250D01*
X216569500Y-123652122D01*
X216569500Y-123947868D01*
X216569501Y-123947878D01*
X216573679Y-123986745D01*
X216573679Y-124013250D01*
X216569500Y-124052122D01*
X216569500Y-124347868D01*
X216569501Y-124347878D01*
X216573679Y-124386745D01*
X216573679Y-124413250D01*
X216569500Y-124452122D01*
X216569500Y-124747868D01*
X216569501Y-124747878D01*
X216573679Y-124786745D01*
X216573679Y-124813250D01*
X216569500Y-124852122D01*
X216569500Y-125147868D01*
X216569501Y-125147878D01*
X216573679Y-125186745D01*
X216573679Y-125213250D01*
X216569500Y-125252122D01*
X216569500Y-125547868D01*
X216569501Y-125547878D01*
X216573679Y-125586745D01*
X216573679Y-125613250D01*
X216569500Y-125652122D01*
X216569500Y-125947869D01*
X216569501Y-125947876D01*
X216575908Y-126007483D01*
X216626202Y-126142328D01*
X216626206Y-126142335D01*
X216712452Y-126257544D01*
X216712455Y-126257547D01*
X216827664Y-126343793D01*
X216827671Y-126343797D01*
X216962517Y-126394091D01*
X216962516Y-126394091D01*
X216969444Y-126394835D01*
X217022127Y-126400500D01*
X217817872Y-126400499D01*
X217877483Y-126394091D01*
X218012331Y-126343796D01*
X218127546Y-126257546D01*
X218213796Y-126142331D01*
X218264091Y-126007483D01*
X218270500Y-125947873D01*
X218270499Y-125652128D01*
X218270499Y-125652127D01*
X218270498Y-125652111D01*
X218266320Y-125613253D01*
X218266320Y-125586745D01*
X218270500Y-125547873D01*
X218270499Y-125252128D01*
X218270499Y-125252127D01*
X218270498Y-125252111D01*
X218266320Y-125213253D01*
X218266320Y-125186745D01*
X218270500Y-125147873D01*
X218270499Y-124852128D01*
X218270499Y-124852127D01*
X218270498Y-124852111D01*
X218266320Y-124813253D01*
X218266320Y-124786745D01*
X218270500Y-124747873D01*
X218270499Y-124452128D01*
X218270499Y-124452127D01*
X218270498Y-124452111D01*
X218266320Y-124413253D01*
X218266320Y-124386745D01*
X218270500Y-124347873D01*
X218270499Y-124052128D01*
X218270499Y-124052127D01*
X218270498Y-124052111D01*
X218266320Y-124013253D01*
X218266320Y-123986745D01*
X218270500Y-123947873D01*
X218270499Y-123652128D01*
X218270499Y-123652127D01*
X218270498Y-123652111D01*
X218266320Y-123613253D01*
X218266320Y-123586745D01*
X218270500Y-123547873D01*
X218270499Y-123252128D01*
X218270499Y-123252127D01*
X218270498Y-123252111D01*
X218266320Y-123213253D01*
X218266320Y-123186745D01*
X218270500Y-123147873D01*
X218270499Y-122852128D01*
X218270499Y-122852127D01*
X218270498Y-122852111D01*
X218266320Y-122813253D01*
X218266320Y-122786745D01*
X218270500Y-122747873D01*
X218270499Y-122452128D01*
X218270499Y-122452127D01*
X218270498Y-122452111D01*
X218266320Y-122413253D01*
X218266320Y-122386745D01*
X218270500Y-122347873D01*
X218270499Y-122052128D01*
X218270499Y-122052127D01*
X218270498Y-122052111D01*
X218266320Y-122013253D01*
X218266320Y-121986745D01*
X218270500Y-121947873D01*
X218270499Y-121652128D01*
X218270499Y-121652127D01*
X218270498Y-121652111D01*
X218266320Y-121613253D01*
X218266320Y-121586745D01*
X218270500Y-121547873D01*
X218270499Y-121252128D01*
X218270499Y-121252127D01*
X218270498Y-121252111D01*
X218266320Y-121213253D01*
X218266320Y-121186745D01*
X218270500Y-121147873D01*
X218270499Y-120852128D01*
X218270499Y-120852127D01*
X218270498Y-120852111D01*
X218266320Y-120813253D01*
X218266320Y-120786745D01*
X218270500Y-120747873D01*
X218270499Y-120452128D01*
X218270499Y-120452127D01*
X218270498Y-120452111D01*
X218266320Y-120413253D01*
X218266320Y-120386745D01*
X218270500Y-120347873D01*
X218270499Y-120052128D01*
X218270499Y-120052127D01*
X218270498Y-120052111D01*
X218266320Y-120013253D01*
X218266320Y-119986745D01*
X218270500Y-119947873D01*
X218270499Y-119652128D01*
X218270499Y-119652127D01*
X218270498Y-119652111D01*
X218266320Y-119613253D01*
X218266320Y-119586745D01*
X218270500Y-119547873D01*
X218270499Y-119252128D01*
X218270499Y-119252127D01*
X218270498Y-119252111D01*
X218266320Y-119213253D01*
X218266320Y-119186745D01*
X218270500Y-119147873D01*
X218270499Y-118852128D01*
X218270499Y-118852127D01*
X218270498Y-118852111D01*
X218266320Y-118813253D01*
X218266320Y-118786745D01*
X218270500Y-118747873D01*
X218270499Y-118452128D01*
X218270499Y-118452127D01*
X218270498Y-118452111D01*
X218266320Y-118413253D01*
X218266320Y-118386745D01*
X218270500Y-118347873D01*
X218270499Y-118052128D01*
X218270499Y-118052127D01*
X218270498Y-118052111D01*
X218266320Y-118013253D01*
X218266320Y-117986745D01*
X218270500Y-117947873D01*
X218270499Y-117652128D01*
X218270499Y-117652127D01*
X218270498Y-117652111D01*
X218266320Y-117613253D01*
X218266320Y-117586745D01*
X218270500Y-117547873D01*
X218270499Y-117252128D01*
X218270499Y-117252127D01*
X218270498Y-117252111D01*
X218266320Y-117213253D01*
X218266320Y-117186745D01*
X218270500Y-117147873D01*
X218270499Y-116852128D01*
X218270499Y-116852127D01*
X218270498Y-116852111D01*
X218266320Y-116813253D01*
X218266320Y-116786745D01*
X218270500Y-116747873D01*
X218270499Y-116452128D01*
X218270499Y-116452127D01*
X218270498Y-116452111D01*
X218266320Y-116413253D01*
X218266320Y-116386745D01*
X218270500Y-116347873D01*
X218270499Y-116052128D01*
X218270499Y-116052127D01*
X218270498Y-116052111D01*
X218266320Y-116013253D01*
X218266320Y-115986745D01*
X218270500Y-115947873D01*
X218270499Y-115652128D01*
X218270499Y-115652127D01*
X218270498Y-115652111D01*
X218266320Y-115613253D01*
X218266320Y-115586745D01*
X218270500Y-115547873D01*
X218270499Y-115252128D01*
X218270499Y-115252127D01*
X218270498Y-115252111D01*
X218266320Y-115213253D01*
X218266320Y-115186745D01*
X218270500Y-115147873D01*
X218270499Y-114852128D01*
X218270499Y-114852127D01*
X218270498Y-114852111D01*
X218266320Y-114813253D01*
X218266320Y-114786745D01*
X218270500Y-114747873D01*
X218270499Y-114452128D01*
X218270499Y-114452127D01*
X218270498Y-114452111D01*
X218266320Y-114413253D01*
X218266320Y-114386745D01*
X218270500Y-114347873D01*
X218270499Y-114052128D01*
X218270499Y-114052127D01*
X218270498Y-114052111D01*
X218266320Y-114013253D01*
X218266320Y-113986745D01*
X218270500Y-113947873D01*
X218270499Y-113652128D01*
X218270499Y-113652127D01*
X218270498Y-113652111D01*
X218266320Y-113613253D01*
X218266320Y-113586745D01*
X218270500Y-113547873D01*
X218270499Y-113252128D01*
X218270499Y-113252127D01*
X218270498Y-113252111D01*
X218266320Y-113213253D01*
X218266320Y-113186745D01*
X218270500Y-113147873D01*
X218270499Y-112852128D01*
X218270499Y-112852127D01*
X218270498Y-112852111D01*
X218266320Y-112813253D01*
X218266320Y-112786745D01*
X218270500Y-112747873D01*
X218270499Y-112452128D01*
X218270499Y-112452127D01*
X218270498Y-112452111D01*
X218266320Y-112413253D01*
X218266320Y-112386745D01*
X218270500Y-112347873D01*
X218270499Y-112052128D01*
X218270499Y-112052127D01*
X218270498Y-112052111D01*
X218266320Y-112013253D01*
X218266320Y-111986745D01*
X218270500Y-111947873D01*
X218270499Y-111652128D01*
X218270499Y-111652127D01*
X218270498Y-111652111D01*
X218266320Y-111613253D01*
X218266320Y-111586745D01*
X218270500Y-111547873D01*
X218270499Y-111252128D01*
X218270499Y-111252127D01*
X218270498Y-111252111D01*
X218266320Y-111213253D01*
X218266320Y-111186745D01*
X218270500Y-111147873D01*
X218270499Y-110852128D01*
X218270499Y-110852127D01*
X218270498Y-110852111D01*
X218266320Y-110813253D01*
X218266320Y-110786745D01*
X218270500Y-110747873D01*
X218270499Y-110452128D01*
X218270499Y-110452127D01*
X218270498Y-110452111D01*
X218266320Y-110413253D01*
X218266320Y-110386745D01*
X218270500Y-110347873D01*
X218270499Y-110052128D01*
X218264091Y-109992517D01*
X218213796Y-109857669D01*
X218213795Y-109857668D01*
X218213793Y-109857664D01*
X218127547Y-109742455D01*
X218127544Y-109742452D01*
X218012335Y-109656206D01*
X218012328Y-109656202D01*
X217877482Y-109605908D01*
X217877483Y-109605908D01*
X217817883Y-109599501D01*
X217817881Y-109599500D01*
X217817873Y-109599500D01*
X217817864Y-109599500D01*
X217022129Y-109599500D01*
X217022123Y-109599501D01*
X216962516Y-109605908D01*
X216827671Y-109656202D01*
X216827664Y-109656206D01*
X216712455Y-109742452D01*
X216712452Y-109742455D01*
X216626206Y-109857664D01*
X216626202Y-109857671D01*
X216575910Y-109992513D01*
X216575909Y-109992517D01*
X216569500Y-110052127D01*
X215190499Y-110052127D01*
X215184091Y-109992517D01*
X215133796Y-109857669D01*
X215133795Y-109857668D01*
X215133793Y-109857664D01*
X215047547Y-109742455D01*
X215047544Y-109742452D01*
X214932335Y-109656206D01*
X214932328Y-109656202D01*
X214797482Y-109605908D01*
X214797483Y-109605908D01*
X214737883Y-109599501D01*
X214737881Y-109599500D01*
X214737873Y-109599500D01*
X214737864Y-109599500D01*
X213942129Y-109599500D01*
X213942123Y-109599501D01*
X213882516Y-109605908D01*
X213747671Y-109656202D01*
X213747664Y-109656206D01*
X213632455Y-109742452D01*
X213632452Y-109742455D01*
X213546206Y-109857664D01*
X213546202Y-109857671D01*
X213495910Y-109992513D01*
X213495909Y-109992517D01*
X213489500Y-110052127D01*
X204750000Y-110052127D01*
X204750000Y-109124000D01*
X204769685Y-109056961D01*
X204822489Y-109011206D01*
X204874000Y-109000000D01*
X205214396Y-109000000D01*
X205270690Y-109013514D01*
X205382701Y-109070587D01*
X205576636Y-109133601D01*
X205652163Y-109145563D01*
X205778037Y-109165500D01*
X205778042Y-109165500D01*
X205981963Y-109165500D01*
X206093850Y-109147778D01*
X206183364Y-109133601D01*
X206377299Y-109070587D01*
X206489309Y-109013514D01*
X206545604Y-109000000D01*
X207754396Y-109000000D01*
X207810690Y-109013514D01*
X207922701Y-109070587D01*
X208116636Y-109133601D01*
X208192163Y-109145563D01*
X208318037Y-109165500D01*
X208318042Y-109165500D01*
X208521963Y-109165500D01*
X208633850Y-109147778D01*
X208723364Y-109133601D01*
X208917299Y-109070587D01*
X209029309Y-109013514D01*
X209085604Y-109000000D01*
X210294396Y-109000000D01*
X210350690Y-109013514D01*
X210462701Y-109070587D01*
X210656636Y-109133601D01*
X210732163Y-109145563D01*
X210858037Y-109165500D01*
X210858042Y-109165500D01*
X211061963Y-109165500D01*
X211173850Y-109147778D01*
X211263364Y-109133601D01*
X211457299Y-109070587D01*
X211569309Y-109013514D01*
X211625604Y-109000000D01*
X213000000Y-109000000D01*
X213000000Y-92250000D01*
X212346973Y-92250000D01*
X212279934Y-92230315D01*
X212259292Y-92213681D01*
X212146930Y-92101319D01*
X212146928Y-92101317D01*
X212006788Y-91999499D01*
X211852445Y-91920858D01*
X211687701Y-91867329D01*
X211687699Y-91867328D01*
X211687698Y-91867328D01*
X211556271Y-91846512D01*
X211516611Y-91840231D01*
X211343389Y-91840231D01*
X211303728Y-91846512D01*
X211172302Y-91867328D01*
X211007552Y-91920859D01*
X210853211Y-91999499D01*
X210773256Y-92057590D01*
X210713072Y-92101317D01*
X210713070Y-92101319D01*
X210713069Y-92101319D01*
X210600708Y-92213681D01*
X210539385Y-92247166D01*
X210513027Y-92250000D01*
X209806973Y-92250000D01*
X209739934Y-92230315D01*
X209719292Y-92213681D01*
X209606930Y-92101319D01*
X209606928Y-92101317D01*
X209466788Y-91999499D01*
X209312445Y-91920858D01*
X209147701Y-91867329D01*
X209147699Y-91867328D01*
X209147698Y-91867328D01*
X209016271Y-91846512D01*
X208976611Y-91840231D01*
X208803389Y-91840231D01*
X208763728Y-91846512D01*
X208632302Y-91867328D01*
X208467552Y-91920859D01*
X208313211Y-91999499D01*
X208233256Y-92057590D01*
X208173072Y-92101317D01*
X208173070Y-92101319D01*
X208173069Y-92101319D01*
X208060708Y-92213681D01*
X207999385Y-92247166D01*
X207973027Y-92250000D01*
X207266973Y-92250000D01*
X207199934Y-92230315D01*
X207179292Y-92213681D01*
X207066930Y-92101319D01*
X207066928Y-92101317D01*
X206926788Y-91999499D01*
X206772445Y-91920858D01*
X206607701Y-91867329D01*
X206607699Y-91867328D01*
X206607698Y-91867328D01*
X206476271Y-91846512D01*
X206436611Y-91840231D01*
X206263389Y-91840231D01*
X206223728Y-91846512D01*
X206092302Y-91867328D01*
X205927552Y-91920859D01*
X205773211Y-91999499D01*
X205693256Y-92057590D01*
X205633072Y-92101317D01*
X205633070Y-92101319D01*
X205633069Y-92101319D01*
X205520708Y-92213681D01*
X205459385Y-92247166D01*
X205433027Y-92250000D01*
X204726973Y-92250000D01*
X204659934Y-92230315D01*
X204639292Y-92213681D01*
X204526930Y-92101319D01*
X204526928Y-92101317D01*
X204386788Y-91999499D01*
X204232445Y-91920858D01*
X204067701Y-91867329D01*
X204067699Y-91867328D01*
X204067698Y-91867328D01*
X203936271Y-91846512D01*
X203896611Y-91840231D01*
X203723389Y-91840231D01*
X203683728Y-91846512D01*
X203552302Y-91867328D01*
X203387552Y-91920859D01*
X203233211Y-91999499D01*
X203153256Y-92057590D01*
X203093072Y-92101317D01*
X203093070Y-92101319D01*
X203093069Y-92101319D01*
X202980708Y-92213681D01*
X202919385Y-92247166D01*
X202893027Y-92250000D01*
X202186973Y-92250000D01*
X202119934Y-92230315D01*
X202099292Y-92213681D01*
X201986930Y-92101319D01*
X201986928Y-92101317D01*
X201846788Y-91999499D01*
X201692445Y-91920858D01*
X201527701Y-91867329D01*
X201527699Y-91867328D01*
X201527698Y-91867328D01*
X201396271Y-91846512D01*
X201356611Y-91840231D01*
X201183389Y-91840231D01*
X201143728Y-91846512D01*
X201012302Y-91867328D01*
X200847552Y-91920859D01*
X200693211Y-91999499D01*
X200613256Y-92057590D01*
X200553072Y-92101317D01*
X200553070Y-92101319D01*
X200553069Y-92101319D01*
X200440708Y-92213681D01*
X200379385Y-92247166D01*
X200353027Y-92250000D01*
X199646973Y-92250000D01*
X199579934Y-92230315D01*
X199559292Y-92213681D01*
X199446930Y-92101319D01*
X199446928Y-92101317D01*
X199306788Y-91999499D01*
X199152445Y-91920858D01*
X198987701Y-91867329D01*
X198987699Y-91867328D01*
X198987698Y-91867328D01*
X198856271Y-91846512D01*
X198816611Y-91840231D01*
X198643389Y-91840231D01*
X198603728Y-91846512D01*
X198472302Y-91867328D01*
X198307552Y-91920859D01*
X198153211Y-91999499D01*
X198073256Y-92057590D01*
X198013072Y-92101317D01*
X198013070Y-92101319D01*
X198013069Y-92101319D01*
X197900708Y-92213681D01*
X197839385Y-92247166D01*
X197813027Y-92250000D01*
X197116973Y-92250000D01*
X197049934Y-92230315D01*
X197029292Y-92213681D01*
X196916930Y-92101319D01*
X196916928Y-92101317D01*
X196776788Y-91999499D01*
X196622445Y-91920858D01*
X196457701Y-91867329D01*
X196457699Y-91867328D01*
X196457698Y-91867328D01*
X196326271Y-91846512D01*
X196286611Y-91840231D01*
X196113389Y-91840231D01*
X196073728Y-91846512D01*
X195942302Y-91867328D01*
X195777552Y-91920859D01*
X195623211Y-91999499D01*
X195543256Y-92057590D01*
X195483072Y-92101317D01*
X195483070Y-92101319D01*
X195483069Y-92101319D01*
X195370708Y-92213681D01*
X195309385Y-92247166D01*
X195283027Y-92250000D01*
X194566973Y-92250000D01*
X194499934Y-92230315D01*
X194479292Y-92213681D01*
X194366930Y-92101319D01*
X194366928Y-92101317D01*
X194226788Y-91999499D01*
X194072445Y-91920858D01*
X193907701Y-91867329D01*
X193907699Y-91867328D01*
X193907698Y-91867328D01*
X193776271Y-91846512D01*
X193736611Y-91840231D01*
X193563389Y-91840231D01*
X193523728Y-91846512D01*
X193392302Y-91867328D01*
X193227552Y-91920859D01*
X193073211Y-91999499D01*
X192993256Y-92057590D01*
X192933072Y-92101317D01*
X192933070Y-92101319D01*
X192933069Y-92101319D01*
X192820708Y-92213681D01*
X192759385Y-92247166D01*
X192733027Y-92250000D01*
X192026973Y-92250000D01*
X191959934Y-92230315D01*
X191939292Y-92213681D01*
X191826930Y-92101319D01*
X191826928Y-92101317D01*
X191686788Y-91999499D01*
X191532445Y-91920858D01*
X191367701Y-91867329D01*
X191367699Y-91867328D01*
X191367698Y-91867328D01*
X191236271Y-91846512D01*
X191196611Y-91840231D01*
X191023389Y-91840231D01*
X190983728Y-91846512D01*
X190852302Y-91867328D01*
X190687552Y-91920859D01*
X190533211Y-91999499D01*
X190453256Y-92057590D01*
X190393072Y-92101317D01*
X190393070Y-92101319D01*
X190393069Y-92101319D01*
X190280708Y-92213681D01*
X190219385Y-92247166D01*
X190193027Y-92250000D01*
X189486973Y-92250000D01*
X189419934Y-92230315D01*
X189399292Y-92213681D01*
X189286930Y-92101319D01*
X189286928Y-92101317D01*
X189146788Y-91999499D01*
X188992445Y-91920858D01*
X188827701Y-91867329D01*
X188827699Y-91867328D01*
X188827698Y-91867328D01*
X188696271Y-91846512D01*
X188656611Y-91840231D01*
X188483389Y-91840231D01*
X188443728Y-91846512D01*
X188312302Y-91867328D01*
X188147552Y-91920859D01*
X187993211Y-91999499D01*
X187913256Y-92057590D01*
X187853072Y-92101317D01*
X187853070Y-92101319D01*
X187853069Y-92101319D01*
X187740708Y-92213681D01*
X187679385Y-92247166D01*
X187653027Y-92250000D01*
X186946973Y-92250000D01*
X186879934Y-92230315D01*
X186859292Y-92213681D01*
X186746930Y-92101319D01*
X186746928Y-92101317D01*
X186606788Y-91999499D01*
X186452445Y-91920858D01*
X186287701Y-91867329D01*
X186287699Y-91867328D01*
X186287698Y-91867328D01*
X186156271Y-91846512D01*
X186116611Y-91840231D01*
X185943389Y-91840231D01*
X185903728Y-91846512D01*
X185772302Y-91867328D01*
X185607552Y-91920859D01*
X185453211Y-91999499D01*
X185373256Y-92057590D01*
X185313072Y-92101317D01*
X185313070Y-92101319D01*
X185313069Y-92101319D01*
X185200708Y-92213681D01*
X185139385Y-92247166D01*
X185113027Y-92250000D01*
X184376973Y-92250000D01*
X184309934Y-92230315D01*
X184289292Y-92213681D01*
X184176930Y-92101319D01*
X184176928Y-92101317D01*
X184036788Y-91999499D01*
X183882445Y-91920858D01*
X183717701Y-91867329D01*
X183717699Y-91867328D01*
X183717698Y-91867328D01*
X183586271Y-91846512D01*
X183546611Y-91840231D01*
X183373389Y-91840231D01*
X183333728Y-91846512D01*
X183202302Y-91867328D01*
X183037552Y-91920859D01*
X182883211Y-91999499D01*
X182803256Y-92057590D01*
X182743072Y-92101317D01*
X182743070Y-92101319D01*
X182743069Y-92101319D01*
X182630708Y-92213681D01*
X182569385Y-92247166D01*
X182543027Y-92250000D01*
X181836973Y-92250000D01*
X181769934Y-92230315D01*
X181749292Y-92213681D01*
X181636930Y-92101319D01*
X181636928Y-92101317D01*
X181496788Y-91999499D01*
X181342445Y-91920858D01*
X181177701Y-91867329D01*
X181177699Y-91867328D01*
X181177698Y-91867328D01*
X181046271Y-91846512D01*
X181006611Y-91840231D01*
X180833389Y-91840231D01*
X180793728Y-91846512D01*
X180662302Y-91867328D01*
X180497552Y-91920859D01*
X180343211Y-91999499D01*
X180263256Y-92057590D01*
X180203072Y-92101317D01*
X180203070Y-92101319D01*
X180203069Y-92101319D01*
X180090708Y-92213681D01*
X180029385Y-92247166D01*
X180003027Y-92250000D01*
X179500000Y-92250000D01*
X179500000Y-95126000D01*
X179480315Y-95193039D01*
X179427511Y-95238794D01*
X179376000Y-95250000D01*
X177624000Y-95250000D01*
X177556961Y-95230315D01*
X177511206Y-95177511D01*
X177500000Y-95126000D01*
X177500000Y-90124000D01*
X177519685Y-90056961D01*
X177572489Y-90011206D01*
X177624000Y-90000000D01*
X219876000Y-90000000D01*
X219943039Y-90019685D01*
G37*
G04 #@! TD.AperFunction*
G04 #@! TA.AperFunction,Conductor*
G36*
X209443039Y-127019685D02*
G01*
X209488794Y-127072489D01*
X209500000Y-127124000D01*
X209500000Y-138876000D01*
X209480315Y-138943039D01*
X209427511Y-138988794D01*
X209376000Y-139000000D01*
X199000000Y-139000000D01*
X199000000Y-141376000D01*
X198980315Y-141443039D01*
X198927511Y-141488794D01*
X198876000Y-141500000D01*
X195624000Y-141500000D01*
X195556961Y-141480315D01*
X195511206Y-141427511D01*
X195500000Y-141376000D01*
X195500000Y-140000000D01*
X189624000Y-140000000D01*
X189556961Y-139980315D01*
X189511206Y-139927511D01*
X189500000Y-139876000D01*
X189500000Y-138124000D01*
X189519685Y-138056961D01*
X189572489Y-138011206D01*
X189624000Y-138000000D01*
X195500000Y-138000000D01*
X195500000Y-136124000D01*
X195519685Y-136056961D01*
X195572489Y-136011206D01*
X195624000Y-136000000D01*
X207000000Y-136000000D01*
X207000000Y-128815230D01*
X207013515Y-128758935D01*
X207080587Y-128627299D01*
X207143601Y-128433364D01*
X207157778Y-128343850D01*
X207175500Y-128231963D01*
X207175500Y-128028036D01*
X207143601Y-127826639D01*
X207143601Y-127826636D01*
X207080587Y-127632701D01*
X207080584Y-127632695D01*
X207013515Y-127501062D01*
X207000000Y-127444768D01*
X207000000Y-127124000D01*
X207019685Y-127056961D01*
X207072489Y-127011206D01*
X207124000Y-127000000D01*
X209376000Y-127000000D01*
X209443039Y-127019685D01*
G37*
G04 #@! TD.AperFunction*
G04 #@! TA.AperFunction,Conductor*
G36*
X200112539Y-92775185D02*
G01*
X200158294Y-92827989D01*
X200169500Y-92879500D01*
X200169500Y-93827342D01*
X200196598Y-93998432D01*
X200250127Y-94163176D01*
X200328768Y-94317519D01*
X200430586Y-94457659D01*
X200553072Y-94580145D01*
X200693212Y-94681963D01*
X200847555Y-94760604D01*
X201012299Y-94814133D01*
X201183389Y-94841231D01*
X201183390Y-94841231D01*
X201356610Y-94841231D01*
X201356611Y-94841231D01*
X201527701Y-94814133D01*
X201692445Y-94760604D01*
X201846788Y-94681963D01*
X201986928Y-94580145D01*
X202109414Y-94457659D01*
X202211232Y-94317519D01*
X202289873Y-94163176D01*
X202343402Y-93998432D01*
X202370500Y-93827342D01*
X202370500Y-92879500D01*
X202373050Y-92870814D01*
X202371762Y-92861853D01*
X202382740Y-92837812D01*
X202390185Y-92812461D01*
X202397025Y-92806533D01*
X202400787Y-92798297D01*
X202423021Y-92784007D01*
X202442989Y-92766706D01*
X202453503Y-92764418D01*
X202459565Y-92760523D01*
X202494500Y-92755500D01*
X202585500Y-92755500D01*
X202652539Y-92775185D01*
X202698294Y-92827989D01*
X202709500Y-92879500D01*
X202709500Y-93827342D01*
X202736598Y-93998432D01*
X202790127Y-94163176D01*
X202868768Y-94317519D01*
X202970586Y-94457659D01*
X203093072Y-94580145D01*
X203233212Y-94681963D01*
X203387555Y-94760604D01*
X203552299Y-94814133D01*
X203723389Y-94841231D01*
X203723390Y-94841231D01*
X203896610Y-94841231D01*
X203896611Y-94841231D01*
X204067701Y-94814133D01*
X204232445Y-94760604D01*
X204386788Y-94681963D01*
X204526928Y-94580145D01*
X204649414Y-94457659D01*
X204751232Y-94317519D01*
X204829873Y-94163176D01*
X204883402Y-93998432D01*
X204910500Y-93827342D01*
X204910500Y-92879500D01*
X204913050Y-92870814D01*
X204911762Y-92861853D01*
X204922740Y-92837812D01*
X204930185Y-92812461D01*
X204937025Y-92806533D01*
X204940787Y-92798297D01*
X204963021Y-92784007D01*
X204982989Y-92766706D01*
X204993503Y-92764418D01*
X204999565Y-92760523D01*
X205034500Y-92755500D01*
X205125500Y-92755500D01*
X205192539Y-92775185D01*
X205238294Y-92827989D01*
X205249500Y-92879500D01*
X205249500Y-93827342D01*
X205276598Y-93998432D01*
X205330127Y-94163176D01*
X205408768Y-94317519D01*
X205510586Y-94457659D01*
X205633072Y-94580145D01*
X205773212Y-94681963D01*
X205927555Y-94760604D01*
X206092299Y-94814133D01*
X206263389Y-94841231D01*
X206263390Y-94841231D01*
X206436610Y-94841231D01*
X206436611Y-94841231D01*
X206607701Y-94814133D01*
X206772445Y-94760604D01*
X206926788Y-94681963D01*
X207066928Y-94580145D01*
X207189414Y-94457659D01*
X207291232Y-94317519D01*
X207369873Y-94163176D01*
X207423402Y-93998432D01*
X207450500Y-93827342D01*
X207450500Y-92879500D01*
X207453050Y-92870814D01*
X207451762Y-92861853D01*
X207462740Y-92837812D01*
X207470185Y-92812461D01*
X207477025Y-92806533D01*
X207480787Y-92798297D01*
X207503021Y-92784007D01*
X207522989Y-92766706D01*
X207533503Y-92764418D01*
X207539565Y-92760523D01*
X207574500Y-92755500D01*
X207665500Y-92755500D01*
X207732539Y-92775185D01*
X207778294Y-92827989D01*
X207789500Y-92879500D01*
X207789500Y-93827342D01*
X207816598Y-93998432D01*
X207870127Y-94163176D01*
X207948768Y-94317519D01*
X208050586Y-94457659D01*
X208173072Y-94580145D01*
X208313212Y-94681963D01*
X208467555Y-94760604D01*
X208632299Y-94814133D01*
X208803389Y-94841231D01*
X208803390Y-94841231D01*
X208976610Y-94841231D01*
X208976611Y-94841231D01*
X209147701Y-94814133D01*
X209312445Y-94760604D01*
X209466788Y-94681963D01*
X209606928Y-94580145D01*
X209729414Y-94457659D01*
X209831232Y-94317519D01*
X209909873Y-94163176D01*
X209963402Y-93998432D01*
X209990500Y-93827342D01*
X209990500Y-92879500D01*
X209993050Y-92870814D01*
X209991762Y-92861853D01*
X210002740Y-92837812D01*
X210010185Y-92812461D01*
X210017025Y-92806533D01*
X210020787Y-92798297D01*
X210043021Y-92784007D01*
X210062989Y-92766706D01*
X210073503Y-92764418D01*
X210079565Y-92760523D01*
X210114500Y-92755500D01*
X210205500Y-92755500D01*
X210272539Y-92775185D01*
X210318294Y-92827989D01*
X210329500Y-92879500D01*
X210329500Y-93827342D01*
X210356598Y-93998432D01*
X210410127Y-94163176D01*
X210488768Y-94317519D01*
X210590586Y-94457659D01*
X210713072Y-94580145D01*
X210853212Y-94681963D01*
X211007555Y-94760604D01*
X211172299Y-94814133D01*
X211343389Y-94841231D01*
X211343390Y-94841231D01*
X211516610Y-94841231D01*
X211516611Y-94841231D01*
X211687701Y-94814133D01*
X211852445Y-94760604D01*
X212006788Y-94681963D01*
X212146928Y-94580145D01*
X212269414Y-94457659D01*
X212270183Y-94456599D01*
X212270578Y-94456295D01*
X212272578Y-94453954D01*
X212273069Y-94454374D01*
X212325512Y-94413936D01*
X212395125Y-94407957D01*
X212456920Y-94440563D01*
X212491278Y-94501402D01*
X212494500Y-94529487D01*
X212494500Y-107701456D01*
X212474815Y-107768495D01*
X212422011Y-107814250D01*
X212352853Y-107824194D01*
X212289297Y-107795169D01*
X212251523Y-107736391D01*
X212248027Y-107720854D01*
X212223601Y-107566639D01*
X212223601Y-107566636D01*
X212160587Y-107372701D01*
X212068011Y-107191010D01*
X211948152Y-107026038D01*
X211803962Y-106881848D01*
X211638990Y-106761989D01*
X211553175Y-106718264D01*
X211457301Y-106669414D01*
X211457300Y-106669413D01*
X211457299Y-106669413D01*
X211263364Y-106606399D01*
X211263362Y-106606398D01*
X211263360Y-106606398D01*
X211061963Y-106574500D01*
X211061958Y-106574500D01*
X210858042Y-106574500D01*
X210858037Y-106574500D01*
X210656639Y-106606398D01*
X210462698Y-106669414D01*
X210281009Y-106761989D01*
X210116035Y-106881850D01*
X209971850Y-107026035D01*
X209851989Y-107191009D01*
X209800485Y-107292092D01*
X209752510Y-107342888D01*
X209684689Y-107359683D01*
X209618554Y-107337145D01*
X209579515Y-107292092D01*
X209561972Y-107257662D01*
X209528011Y-107191010D01*
X209408152Y-107026038D01*
X209263962Y-106881848D01*
X209098990Y-106761989D01*
X209013175Y-106718264D01*
X208917301Y-106669414D01*
X208917300Y-106669413D01*
X208917299Y-106669413D01*
X208723364Y-106606399D01*
X208723362Y-106606398D01*
X208723360Y-106606398D01*
X208521963Y-106574500D01*
X208521958Y-106574500D01*
X208318042Y-106574500D01*
X208318037Y-106574500D01*
X208116639Y-106606398D01*
X207922698Y-106669414D01*
X207741009Y-106761989D01*
X207576035Y-106881850D01*
X207431850Y-107026035D01*
X207311989Y-107191009D01*
X207260485Y-107292092D01*
X207212510Y-107342888D01*
X207144689Y-107359683D01*
X207078554Y-107337145D01*
X207039515Y-107292092D01*
X207021972Y-107257662D01*
X206988011Y-107191010D01*
X206868152Y-107026038D01*
X206723962Y-106881848D01*
X206558990Y-106761989D01*
X206473175Y-106718264D01*
X206377301Y-106669414D01*
X206377300Y-106669413D01*
X206377299Y-106669413D01*
X206183364Y-106606399D01*
X206183362Y-106606398D01*
X206183360Y-106606398D01*
X205981963Y-106574500D01*
X205981958Y-106574500D01*
X205778042Y-106574500D01*
X205778037Y-106574500D01*
X205576639Y-106606398D01*
X205382698Y-106669414D01*
X205201009Y-106761989D01*
X205036035Y-106881850D01*
X204891850Y-107026035D01*
X204771989Y-107191009D01*
X204720485Y-107292092D01*
X204672510Y-107342888D01*
X204604689Y-107359683D01*
X204538554Y-107337145D01*
X204499515Y-107292092D01*
X204481972Y-107257662D01*
X204448011Y-107191010D01*
X204328152Y-107026038D01*
X204183962Y-106881848D01*
X204018990Y-106761989D01*
X203933175Y-106718264D01*
X203837301Y-106669414D01*
X203837300Y-106669413D01*
X203837299Y-106669413D01*
X203643364Y-106606399D01*
X203643362Y-106606398D01*
X203643360Y-106606398D01*
X203441963Y-106574500D01*
X203441958Y-106574500D01*
X203238042Y-106574500D01*
X203238037Y-106574500D01*
X203036639Y-106606398D01*
X202842698Y-106669414D01*
X202661009Y-106761989D01*
X202496035Y-106881850D01*
X202351850Y-107026035D01*
X202231989Y-107191009D01*
X202180485Y-107292092D01*
X202132510Y-107342888D01*
X202064689Y-107359683D01*
X201998554Y-107337145D01*
X201959515Y-107292092D01*
X201941972Y-107257662D01*
X201908011Y-107191010D01*
X201788152Y-107026038D01*
X201643962Y-106881848D01*
X201478990Y-106761989D01*
X201393175Y-106718264D01*
X201297301Y-106669414D01*
X201297300Y-106669413D01*
X201297299Y-106669413D01*
X201103364Y-106606399D01*
X201103362Y-106606398D01*
X201103360Y-106606398D01*
X200901963Y-106574500D01*
X200901958Y-106574500D01*
X200698042Y-106574500D01*
X200698037Y-106574500D01*
X200496639Y-106606398D01*
X200302698Y-106669414D01*
X200121009Y-106761989D01*
X199956035Y-106881850D01*
X199811850Y-107026035D01*
X199691989Y-107191009D01*
X199640485Y-107292092D01*
X199592510Y-107342888D01*
X199524689Y-107359683D01*
X199458554Y-107337145D01*
X199419515Y-107292092D01*
X199401972Y-107257662D01*
X199368011Y-107191010D01*
X199248152Y-107026038D01*
X199103962Y-106881848D01*
X198938990Y-106761989D01*
X198853175Y-106718264D01*
X198757301Y-106669414D01*
X198757300Y-106669413D01*
X198757299Y-106669413D01*
X198563364Y-106606399D01*
X198563362Y-106606398D01*
X198563360Y-106606398D01*
X198361963Y-106574500D01*
X198361958Y-106574500D01*
X198158042Y-106574500D01*
X198158037Y-106574500D01*
X197956639Y-106606398D01*
X197762698Y-106669414D01*
X197581009Y-106761989D01*
X197416035Y-106881850D01*
X197271850Y-107026035D01*
X197151989Y-107191009D01*
X197100485Y-107292092D01*
X197052510Y-107342888D01*
X196984689Y-107359683D01*
X196918554Y-107337145D01*
X196879515Y-107292092D01*
X196861972Y-107257662D01*
X196828011Y-107191010D01*
X196708152Y-107026038D01*
X196563962Y-106881848D01*
X196398990Y-106761989D01*
X196313175Y-106718264D01*
X196217301Y-106669414D01*
X196217300Y-106669413D01*
X196217299Y-106669413D01*
X196023364Y-106606399D01*
X196023362Y-106606398D01*
X196023360Y-106606398D01*
X195821963Y-106574500D01*
X195821958Y-106574500D01*
X195618042Y-106574500D01*
X195618037Y-106574500D01*
X195416639Y-106606398D01*
X195222698Y-106669414D01*
X195041009Y-106761989D01*
X194876035Y-106881850D01*
X194731850Y-107026035D01*
X194611989Y-107191009D01*
X194560485Y-107292092D01*
X194512510Y-107342888D01*
X194444689Y-107359683D01*
X194378554Y-107337145D01*
X194339515Y-107292092D01*
X194321972Y-107257662D01*
X194288011Y-107191010D01*
X194168152Y-107026038D01*
X194023962Y-106881848D01*
X193858990Y-106761989D01*
X193773175Y-106718264D01*
X193677301Y-106669414D01*
X193677300Y-106669413D01*
X193677299Y-106669413D01*
X193483364Y-106606399D01*
X193483362Y-106606398D01*
X193483360Y-106606398D01*
X193281963Y-106574500D01*
X193281958Y-106574500D01*
X193078042Y-106574500D01*
X193078037Y-106574500D01*
X192876639Y-106606398D01*
X192682698Y-106669414D01*
X192501009Y-106761989D01*
X192336035Y-106881850D01*
X192191850Y-107026035D01*
X192071989Y-107191009D01*
X192020485Y-107292092D01*
X191972510Y-107342888D01*
X191904689Y-107359683D01*
X191838554Y-107337145D01*
X191799515Y-107292092D01*
X191781972Y-107257662D01*
X191748011Y-107191010D01*
X191628152Y-107026038D01*
X191483962Y-106881848D01*
X191318990Y-106761989D01*
X191233175Y-106718264D01*
X191137301Y-106669414D01*
X191137300Y-106669413D01*
X191137299Y-106669413D01*
X190943364Y-106606399D01*
X190943362Y-106606398D01*
X190943360Y-106606398D01*
X190741963Y-106574500D01*
X190741958Y-106574500D01*
X190538042Y-106574500D01*
X190538037Y-106574500D01*
X190336639Y-106606398D01*
X190142698Y-106669414D01*
X189961009Y-106761989D01*
X189796035Y-106881850D01*
X189651850Y-107026035D01*
X189531989Y-107191009D01*
X189480485Y-107292092D01*
X189432510Y-107342888D01*
X189364689Y-107359683D01*
X189298554Y-107337145D01*
X189259515Y-107292092D01*
X189241972Y-107257662D01*
X189208011Y-107191010D01*
X189088152Y-107026038D01*
X188943962Y-106881848D01*
X188778990Y-106761989D01*
X188693175Y-106718264D01*
X188597301Y-106669414D01*
X188597300Y-106669413D01*
X188597299Y-106669413D01*
X188403364Y-106606399D01*
X188403362Y-106606398D01*
X188403360Y-106606398D01*
X188201963Y-106574500D01*
X188201958Y-106574500D01*
X187998042Y-106574500D01*
X187998037Y-106574500D01*
X187796639Y-106606398D01*
X187602698Y-106669414D01*
X187421009Y-106761989D01*
X187256035Y-106881850D01*
X187111850Y-107026035D01*
X186991989Y-107191009D01*
X186940485Y-107292092D01*
X186892510Y-107342888D01*
X186824689Y-107359683D01*
X186758554Y-107337145D01*
X186719515Y-107292092D01*
X186701972Y-107257662D01*
X186668011Y-107191010D01*
X186548152Y-107026038D01*
X186403962Y-106881848D01*
X186238990Y-106761989D01*
X186153175Y-106718264D01*
X186057301Y-106669414D01*
X186057300Y-106669413D01*
X186057299Y-106669413D01*
X185863364Y-106606399D01*
X185863362Y-106606398D01*
X185863360Y-106606398D01*
X185661963Y-106574500D01*
X185661958Y-106574500D01*
X185458042Y-106574500D01*
X185458037Y-106574500D01*
X185256639Y-106606398D01*
X185062698Y-106669414D01*
X184881009Y-106761989D01*
X184716035Y-106881850D01*
X184571850Y-107026035D01*
X184451989Y-107191009D01*
X184400485Y-107292092D01*
X184352510Y-107342888D01*
X184284689Y-107359683D01*
X184218554Y-107337145D01*
X184179515Y-107292092D01*
X184161972Y-107257662D01*
X184128011Y-107191010D01*
X184008152Y-107026038D01*
X183863962Y-106881848D01*
X183698990Y-106761989D01*
X183613175Y-106718264D01*
X183517298Y-106669412D01*
X183504037Y-106665103D01*
X183446363Y-106625663D01*
X183419168Y-106561304D01*
X183431085Y-106492458D01*
X183454676Y-106459496D01*
X184707403Y-105206771D01*
X184768726Y-105173286D01*
X184795084Y-105170452D01*
X189403968Y-105170452D01*
X189501510Y-105151048D01*
X189548961Y-105141610D01*
X189685543Y-105085036D01*
X189734777Y-105052138D01*
X189808464Y-105002904D01*
X199312952Y-95498415D01*
X199340205Y-95457627D01*
X199395084Y-95375495D01*
X199439436Y-95268420D01*
X199451659Y-95238912D01*
X199480500Y-95093917D01*
X199480500Y-94946082D01*
X199480500Y-94597935D01*
X199500185Y-94530896D01*
X199516819Y-94510254D01*
X199525671Y-94501402D01*
X199569414Y-94457659D01*
X199671232Y-94317519D01*
X199749873Y-94163176D01*
X199803402Y-93998432D01*
X199830500Y-93827342D01*
X199830500Y-92879500D01*
X199833050Y-92870814D01*
X199831762Y-92861853D01*
X199842740Y-92837812D01*
X199850185Y-92812461D01*
X199857025Y-92806533D01*
X199860787Y-92798297D01*
X199883021Y-92784007D01*
X199902989Y-92766706D01*
X199913503Y-92764418D01*
X199919565Y-92760523D01*
X199954500Y-92755500D01*
X200045500Y-92755500D01*
X200112539Y-92775185D01*
G37*
G04 #@! TD.AperFunction*
G04 #@! TA.AperFunction,Conductor*
G36*
X249442539Y-39020185D02*
G01*
X249488294Y-39072989D01*
X249499500Y-39124500D01*
X249499500Y-146375500D01*
X249479815Y-146442539D01*
X249427011Y-146488294D01*
X249375500Y-146499500D01*
X150624500Y-146499500D01*
X150557461Y-146479815D01*
X150511706Y-146427011D01*
X150500500Y-146375500D01*
X150500500Y-140602135D01*
X159149500Y-140602135D01*
X159149500Y-142397870D01*
X159149501Y-142397876D01*
X159155908Y-142457483D01*
X159206202Y-142592328D01*
X159206206Y-142592335D01*
X159292452Y-142707544D01*
X159292455Y-142707547D01*
X159407664Y-142793793D01*
X159407671Y-142793797D01*
X159542517Y-142844091D01*
X159542516Y-142844091D01*
X159549444Y-142844835D01*
X159602127Y-142850500D01*
X161397872Y-142850499D01*
X161457483Y-142844091D01*
X161592331Y-142793796D01*
X161707546Y-142707546D01*
X161793796Y-142592331D01*
X161827190Y-142502798D01*
X161835258Y-142481167D01*
X161877129Y-142425233D01*
X161942593Y-142400816D01*
X161951440Y-142400500D01*
X165532744Y-142400500D01*
X165599783Y-142420185D01*
X165633060Y-142451612D01*
X165670249Y-142502798D01*
X165699207Y-142542656D01*
X165877345Y-142720794D01*
X165877350Y-142720798D01*
X166047050Y-142844091D01*
X166081155Y-142868870D01*
X166224184Y-142941747D01*
X166305616Y-142983239D01*
X166305618Y-142983239D01*
X166305621Y-142983241D01*
X166545215Y-143061090D01*
X166794038Y-143100500D01*
X166794039Y-143100500D01*
X167045961Y-143100500D01*
X167045962Y-143100500D01*
X167294785Y-143061090D01*
X167534379Y-142983241D01*
X167758845Y-142868870D01*
X167962656Y-142720793D01*
X168140793Y-142542656D01*
X168288870Y-142338845D01*
X168403241Y-142114379D01*
X168481090Y-141874785D01*
X168520500Y-141625962D01*
X168520500Y-141374038D01*
X168481090Y-141125215D01*
X168403241Y-140885621D01*
X168403239Y-140885618D01*
X168403239Y-140885616D01*
X168361747Y-140804184D01*
X168288870Y-140661155D01*
X168237937Y-140591051D01*
X168140798Y-140457350D01*
X168140794Y-140457345D01*
X167962654Y-140279205D01*
X167962649Y-140279201D01*
X167758848Y-140131132D01*
X167758847Y-140131131D01*
X167758845Y-140131130D01*
X167688747Y-140095413D01*
X167534383Y-140016760D01*
X167294785Y-139938910D01*
X167045962Y-139899500D01*
X166794038Y-139899500D01*
X166727738Y-139910001D01*
X166545214Y-139938910D01*
X166305616Y-140016760D01*
X166081151Y-140131132D01*
X165877350Y-140279201D01*
X165877345Y-140279205D01*
X165699207Y-140457343D01*
X165682008Y-140481016D01*
X165633060Y-140548386D01*
X165577733Y-140591051D01*
X165532744Y-140599500D01*
X161951440Y-140599500D01*
X161884401Y-140579815D01*
X161838646Y-140527011D01*
X161835258Y-140518833D01*
X161793797Y-140407671D01*
X161793793Y-140407664D01*
X161707547Y-140292455D01*
X161707544Y-140292452D01*
X161592335Y-140206206D01*
X161592328Y-140206202D01*
X161457482Y-140155908D01*
X161457483Y-140155908D01*
X161397883Y-140149501D01*
X161397881Y-140149500D01*
X161397873Y-140149500D01*
X161397864Y-140149500D01*
X159602129Y-140149500D01*
X159602123Y-140149501D01*
X159542516Y-140155908D01*
X159407671Y-140206202D01*
X159407664Y-140206206D01*
X159292455Y-140292452D01*
X159292452Y-140292455D01*
X159206206Y-140407664D01*
X159206202Y-140407671D01*
X159155908Y-140542517D01*
X159149501Y-140602116D01*
X159149500Y-140602135D01*
X150500500Y-140602135D01*
X150500500Y-130150446D01*
X158499499Y-130150446D01*
X158528340Y-130295433D01*
X158528343Y-130295443D01*
X158584914Y-130432018D01*
X158617812Y-130481253D01*
X158617813Y-130481256D01*
X158667046Y-130554940D01*
X158667052Y-130554947D01*
X163482607Y-135370500D01*
X163537119Y-135425012D01*
X163537120Y-135425013D01*
X163595401Y-135483294D01*
X163641656Y-135529549D01*
X163764569Y-135611677D01*
X163764582Y-135611684D01*
X163901153Y-135668253D01*
X163901158Y-135668255D01*
X163901162Y-135668255D01*
X163901163Y-135668256D01*
X164046150Y-135697097D01*
X164046153Y-135697097D01*
X181357323Y-135697097D01*
X181468759Y-135674930D01*
X181502316Y-135668255D01*
X181638898Y-135611681D01*
X181729135Y-135551387D01*
X181729137Y-135551386D01*
X181761812Y-135529554D01*
X181761813Y-135529552D01*
X181761819Y-135529549D01*
X187839264Y-129452102D01*
X187900585Y-129418619D01*
X187946341Y-129417312D01*
X187998037Y-129425500D01*
X187998042Y-129425500D01*
X188201963Y-129425500D01*
X188316062Y-129407428D01*
X188403364Y-129393601D01*
X188597299Y-129330587D01*
X188778990Y-129238011D01*
X188943962Y-129118152D01*
X189088152Y-128973962D01*
X189208011Y-128808990D01*
X189259515Y-128707906D01*
X189307489Y-128657111D01*
X189375310Y-128640316D01*
X189441445Y-128662853D01*
X189480484Y-128707906D01*
X189531989Y-128808990D01*
X189651848Y-128973962D01*
X189796038Y-129118152D01*
X189961010Y-129238011D01*
X190142701Y-129330587D01*
X190336636Y-129393601D01*
X190412163Y-129405563D01*
X190538037Y-129425500D01*
X190538042Y-129425500D01*
X190741963Y-129425500D01*
X190856062Y-129407428D01*
X190943364Y-129393601D01*
X191137299Y-129330587D01*
X191318990Y-129238011D01*
X191483962Y-129118152D01*
X191628152Y-128973962D01*
X191748011Y-128808990D01*
X191799515Y-128707906D01*
X191847489Y-128657111D01*
X191915310Y-128640316D01*
X191981445Y-128662853D01*
X192020484Y-128707906D01*
X192071989Y-128808990D01*
X192191848Y-128973962D01*
X192336038Y-129118152D01*
X192501010Y-129238011D01*
X192682701Y-129330587D01*
X192876636Y-129393601D01*
X192952163Y-129405563D01*
X193078037Y-129425500D01*
X193078042Y-129425500D01*
X193281963Y-129425500D01*
X193396062Y-129407428D01*
X193483364Y-129393601D01*
X193677299Y-129330587D01*
X193858990Y-129238011D01*
X194023962Y-129118152D01*
X194168152Y-128973962D01*
X194288011Y-128808990D01*
X194339515Y-128707906D01*
X194387489Y-128657111D01*
X194455310Y-128640316D01*
X194521445Y-128662853D01*
X194560484Y-128707906D01*
X194611989Y-128808990D01*
X194731848Y-128973962D01*
X194876038Y-129118152D01*
X195041010Y-129238011D01*
X195222701Y-129330587D01*
X195416636Y-129393601D01*
X195492163Y-129405563D01*
X195618037Y-129425500D01*
X195618042Y-129425500D01*
X195821963Y-129425500D01*
X195936062Y-129407428D01*
X196023364Y-129393601D01*
X196217299Y-129330587D01*
X196398990Y-129238011D01*
X196563962Y-129118152D01*
X196708152Y-128973962D01*
X196828011Y-128808990D01*
X196879515Y-128707906D01*
X196927489Y-128657111D01*
X196995310Y-128640316D01*
X197061445Y-128662853D01*
X197100484Y-128707906D01*
X197151989Y-128808990D01*
X197271848Y-128973962D01*
X197416038Y-129118152D01*
X197581010Y-129238011D01*
X197762701Y-129330587D01*
X197956636Y-129393601D01*
X198032163Y-129405563D01*
X198158037Y-129425500D01*
X198158042Y-129425500D01*
X198361963Y-129425500D01*
X198476062Y-129407428D01*
X198563364Y-129393601D01*
X198757299Y-129330587D01*
X198938990Y-129238011D01*
X199103962Y-129118152D01*
X199248152Y-128973962D01*
X199368011Y-128808990D01*
X199419515Y-128707906D01*
X199467489Y-128657111D01*
X199535310Y-128640316D01*
X199601445Y-128662853D01*
X199640484Y-128707906D01*
X199691989Y-128808990D01*
X199811848Y-128973962D01*
X199956038Y-129118152D01*
X200121010Y-129238011D01*
X200302701Y-129330587D01*
X200496636Y-129393601D01*
X200572163Y-129405563D01*
X200698037Y-129425500D01*
X200698042Y-129425500D01*
X200901963Y-129425500D01*
X201016062Y-129407428D01*
X201103364Y-129393601D01*
X201297299Y-129330587D01*
X201478990Y-129238011D01*
X201643962Y-129118152D01*
X201788152Y-128973962D01*
X201908011Y-128808990D01*
X202000587Y-128627299D01*
X202063601Y-128433364D01*
X202077778Y-128343850D01*
X202095500Y-128231963D01*
X202095500Y-128028036D01*
X202063601Y-127826639D01*
X202063601Y-127826636D01*
X202000587Y-127632701D01*
X201908011Y-127451010D01*
X201788152Y-127286038D01*
X201643962Y-127141848D01*
X201478990Y-127021989D01*
X201297299Y-126929413D01*
X201103364Y-126866399D01*
X201103362Y-126866398D01*
X201103360Y-126866398D01*
X200901963Y-126834500D01*
X200901958Y-126834500D01*
X200698042Y-126834500D01*
X200698037Y-126834500D01*
X200496639Y-126866398D01*
X200302698Y-126929414D01*
X200121009Y-127021989D01*
X199956035Y-127141850D01*
X199811850Y-127286035D01*
X199691989Y-127451009D01*
X199640485Y-127552092D01*
X199592510Y-127602888D01*
X199524689Y-127619683D01*
X199458554Y-127597145D01*
X199419515Y-127552092D01*
X199389695Y-127493567D01*
X199368011Y-127451010D01*
X199248152Y-127286038D01*
X199103962Y-127141848D01*
X198938990Y-127021989D01*
X198757299Y-126929413D01*
X198563364Y-126866399D01*
X198563362Y-126866398D01*
X198563360Y-126866398D01*
X198361963Y-126834500D01*
X198361958Y-126834500D01*
X198158042Y-126834500D01*
X198158037Y-126834500D01*
X197956639Y-126866398D01*
X197762698Y-126929414D01*
X197581009Y-127021989D01*
X197416035Y-127141850D01*
X197271850Y-127286035D01*
X197151989Y-127451009D01*
X197100485Y-127552092D01*
X197052510Y-127602888D01*
X196984689Y-127619683D01*
X196918554Y-127597145D01*
X196879515Y-127552092D01*
X196849695Y-127493567D01*
X196828011Y-127451010D01*
X196708152Y-127286038D01*
X196563962Y-127141848D01*
X196398990Y-127021989D01*
X196217299Y-126929413D01*
X196023364Y-126866399D01*
X196023362Y-126866398D01*
X196023360Y-126866398D01*
X195821963Y-126834500D01*
X195821958Y-126834500D01*
X195618042Y-126834500D01*
X195618037Y-126834500D01*
X195416639Y-126866398D01*
X195222698Y-126929414D01*
X195041009Y-127021989D01*
X194876035Y-127141850D01*
X194731850Y-127286035D01*
X194611989Y-127451009D01*
X194560485Y-127552092D01*
X194512510Y-127602888D01*
X194444689Y-127619683D01*
X194378554Y-127597145D01*
X194339515Y-127552092D01*
X194309695Y-127493567D01*
X194288011Y-127451010D01*
X194168152Y-127286038D01*
X194023962Y-127141848D01*
X193858990Y-127021989D01*
X193677299Y-126929413D01*
X193483364Y-126866399D01*
X193483362Y-126866398D01*
X193483360Y-126866398D01*
X193281963Y-126834500D01*
X193281958Y-126834500D01*
X193078042Y-126834500D01*
X193078037Y-126834500D01*
X192876639Y-126866398D01*
X192682698Y-126929414D01*
X192501009Y-127021989D01*
X192336035Y-127141850D01*
X192191850Y-127286035D01*
X192071989Y-127451009D01*
X192020485Y-127552092D01*
X191972510Y-127602888D01*
X191904689Y-127619683D01*
X191838554Y-127597145D01*
X191799515Y-127552092D01*
X191769695Y-127493567D01*
X191748011Y-127451010D01*
X191628152Y-127286038D01*
X191483962Y-127141848D01*
X191318990Y-127021989D01*
X191137299Y-126929413D01*
X190943364Y-126866399D01*
X190943362Y-126866398D01*
X190943360Y-126866398D01*
X190741963Y-126834500D01*
X190741958Y-126834500D01*
X190538042Y-126834500D01*
X190538037Y-126834500D01*
X190336639Y-126866398D01*
X190142698Y-126929414D01*
X189961009Y-127021989D01*
X189796035Y-127141850D01*
X189651850Y-127286035D01*
X189531989Y-127451009D01*
X189480485Y-127552092D01*
X189432510Y-127602888D01*
X189364689Y-127619683D01*
X189298554Y-127597145D01*
X189259515Y-127552092D01*
X189229695Y-127493567D01*
X189208011Y-127451010D01*
X189088152Y-127286038D01*
X188943962Y-127141848D01*
X188778990Y-127021989D01*
X188597299Y-126929413D01*
X188403364Y-126866399D01*
X188403362Y-126866398D01*
X188403360Y-126866398D01*
X188201963Y-126834500D01*
X188201958Y-126834500D01*
X187998042Y-126834500D01*
X187998037Y-126834500D01*
X187796639Y-126866398D01*
X187602698Y-126929414D01*
X187421009Y-127021989D01*
X187256035Y-127141850D01*
X187111850Y-127286035D01*
X186991989Y-127451009D01*
X186940485Y-127552092D01*
X186892510Y-127602888D01*
X186824689Y-127619683D01*
X186758554Y-127597145D01*
X186719515Y-127552092D01*
X186689695Y-127493567D01*
X186668011Y-127451010D01*
X186548152Y-127286038D01*
X186403962Y-127141848D01*
X186238990Y-127021989D01*
X186057299Y-126929413D01*
X185863364Y-126866399D01*
X185863362Y-126866398D01*
X185863360Y-126866398D01*
X185661963Y-126834500D01*
X185661958Y-126834500D01*
X185458042Y-126834500D01*
X185458037Y-126834500D01*
X185256639Y-126866398D01*
X185062698Y-126929414D01*
X184881009Y-127021989D01*
X184716035Y-127141850D01*
X184571850Y-127286035D01*
X184451989Y-127451009D01*
X184400485Y-127552092D01*
X184352510Y-127602888D01*
X184284689Y-127619683D01*
X184218554Y-127597145D01*
X184179515Y-127552092D01*
X184149695Y-127493567D01*
X184128011Y-127451010D01*
X184008152Y-127286038D01*
X183863962Y-127141848D01*
X183698990Y-127021989D01*
X183517299Y-126929413D01*
X183323364Y-126866399D01*
X183323362Y-126866398D01*
X183323360Y-126866398D01*
X183121963Y-126834500D01*
X183121958Y-126834500D01*
X182918042Y-126834500D01*
X182918037Y-126834500D01*
X182716639Y-126866398D01*
X182522698Y-126929414D01*
X182341009Y-127021989D01*
X182176035Y-127141850D01*
X182031850Y-127286035D01*
X181911989Y-127451009D01*
X181860485Y-127552092D01*
X181812510Y-127602888D01*
X181744689Y-127619683D01*
X181678554Y-127597145D01*
X181639515Y-127552092D01*
X181609695Y-127493567D01*
X181588011Y-127451010D01*
X181468152Y-127286038D01*
X181323962Y-127141848D01*
X181158990Y-127021989D01*
X180977299Y-126929413D01*
X180783364Y-126866399D01*
X180783362Y-126866398D01*
X180783360Y-126866398D01*
X180581963Y-126834500D01*
X180581958Y-126834500D01*
X180378042Y-126834500D01*
X180378037Y-126834500D01*
X180176639Y-126866398D01*
X179982698Y-126929414D01*
X179801009Y-127021989D01*
X179636035Y-127141850D01*
X179491850Y-127286035D01*
X179371989Y-127451009D01*
X179320485Y-127552092D01*
X179272510Y-127602888D01*
X179204689Y-127619683D01*
X179138554Y-127597145D01*
X179099515Y-127552092D01*
X179069695Y-127493567D01*
X179048011Y-127451010D01*
X178928152Y-127286038D01*
X178783962Y-127141848D01*
X178618990Y-127021989D01*
X178437299Y-126929413D01*
X178243364Y-126866399D01*
X178243362Y-126866398D01*
X178243360Y-126866398D01*
X178041963Y-126834500D01*
X178041958Y-126834500D01*
X177838042Y-126834500D01*
X177838037Y-126834500D01*
X177636639Y-126866398D01*
X177442698Y-126929414D01*
X177261009Y-127021989D01*
X177096035Y-127141850D01*
X176951850Y-127286035D01*
X176831989Y-127451009D01*
X176739414Y-127632698D01*
X176676398Y-127826639D01*
X176644500Y-128028036D01*
X176644500Y-128231963D01*
X176673352Y-128414128D01*
X176676399Y-128433364D01*
X176739413Y-128627299D01*
X176831989Y-128808990D01*
X176951848Y-128973962D01*
X177096038Y-129118152D01*
X177138385Y-129148919D01*
X177181051Y-129204246D01*
X177189500Y-129249236D01*
X177189500Y-129697770D01*
X177169815Y-129764809D01*
X177153181Y-129785451D01*
X175975451Y-130963181D01*
X175914128Y-130996666D01*
X175887770Y-130999500D01*
X166362229Y-130999500D01*
X166295190Y-130979815D01*
X166274548Y-130963181D01*
X163955923Y-128644555D01*
X163873114Y-128561746D01*
X167634500Y-128561746D01*
X167634500Y-128778253D01*
X167668370Y-128992098D01*
X167735272Y-129198006D01*
X167735273Y-129198009D01*
X167802825Y-129330585D01*
X167833567Y-129390919D01*
X167960828Y-129566078D01*
X168113922Y-129719172D01*
X168289081Y-129846433D01*
X168383697Y-129894642D01*
X168481990Y-129944726D01*
X168481993Y-129944727D01*
X168545429Y-129965338D01*
X168687903Y-130011630D01*
X168901746Y-130045500D01*
X168901747Y-130045500D01*
X169118253Y-130045500D01*
X169118254Y-130045500D01*
X169332097Y-130011630D01*
X169538009Y-129944726D01*
X169730919Y-129846433D01*
X169906078Y-129719172D01*
X170059172Y-129566078D01*
X170186433Y-129390919D01*
X170284726Y-129198009D01*
X170351630Y-128992097D01*
X170385500Y-128778254D01*
X170385500Y-128561746D01*
X170351630Y-128347903D01*
X170284726Y-128141991D01*
X170284726Y-128141990D01*
X170186432Y-127949080D01*
X170059172Y-127773922D01*
X169906078Y-127620828D01*
X169730919Y-127493567D01*
X169647395Y-127451009D01*
X169538009Y-127395273D01*
X169538006Y-127395272D01*
X169332098Y-127328370D01*
X169225175Y-127311435D01*
X169118254Y-127294500D01*
X168901746Y-127294500D01*
X168830465Y-127305790D01*
X168687901Y-127328370D01*
X168481993Y-127395272D01*
X168481990Y-127395273D01*
X168289080Y-127493567D01*
X168189145Y-127566174D01*
X168113922Y-127620828D01*
X168113920Y-127620830D01*
X168113919Y-127620830D01*
X167960830Y-127773919D01*
X167960830Y-127773920D01*
X167960828Y-127773922D01*
X167922529Y-127826636D01*
X167833567Y-127949080D01*
X167735273Y-128141990D01*
X167735272Y-128141993D01*
X167668370Y-128347901D01*
X167634500Y-128561746D01*
X163873114Y-128561746D01*
X163786819Y-128475451D01*
X163753334Y-128414128D01*
X163750500Y-128387770D01*
X163750500Y-110052127D01*
X170309500Y-110052127D01*
X170309500Y-110052134D01*
X170309500Y-110052135D01*
X170309500Y-110347868D01*
X170309501Y-110347878D01*
X170313679Y-110386745D01*
X170313679Y-110413250D01*
X170309500Y-110452122D01*
X170309500Y-110747868D01*
X170309501Y-110747878D01*
X170313679Y-110786745D01*
X170313679Y-110813250D01*
X170309500Y-110852122D01*
X170309500Y-111147868D01*
X170309501Y-111147878D01*
X170313679Y-111186745D01*
X170313679Y-111213250D01*
X170309500Y-111252122D01*
X170309500Y-111547868D01*
X170309501Y-111547878D01*
X170313679Y-111586745D01*
X170313679Y-111613250D01*
X170309500Y-111652122D01*
X170309500Y-111947868D01*
X170309501Y-111947878D01*
X170313679Y-111986745D01*
X170313679Y-112013250D01*
X170309500Y-112052122D01*
X170309500Y-112347868D01*
X170309501Y-112347878D01*
X170313679Y-112386745D01*
X170313679Y-112413250D01*
X170309500Y-112452122D01*
X170309500Y-112747868D01*
X170309501Y-112747878D01*
X170313679Y-112786745D01*
X170313679Y-112813250D01*
X170309500Y-112852122D01*
X170309500Y-113147868D01*
X170309501Y-113147878D01*
X170313679Y-113186745D01*
X170313679Y-113213250D01*
X170309500Y-113252122D01*
X170309500Y-113547868D01*
X170309501Y-113547878D01*
X170313679Y-113586745D01*
X170313679Y-113613250D01*
X170309500Y-113652122D01*
X170309500Y-113947868D01*
X170309501Y-113947878D01*
X170313679Y-113986745D01*
X170313679Y-114013250D01*
X170309500Y-114052122D01*
X170309500Y-114347868D01*
X170309501Y-114347878D01*
X170313679Y-114386745D01*
X170313679Y-114413250D01*
X170309500Y-114452122D01*
X170309500Y-114747868D01*
X170309501Y-114747878D01*
X170313679Y-114786745D01*
X170313679Y-114813250D01*
X170309500Y-114852122D01*
X170309500Y-115147868D01*
X170309501Y-115147878D01*
X170313679Y-115186745D01*
X170313679Y-115213250D01*
X170309500Y-115252122D01*
X170309500Y-115547868D01*
X170309501Y-115547878D01*
X170313679Y-115586745D01*
X170313679Y-115613250D01*
X170309500Y-115652122D01*
X170309500Y-115947868D01*
X170309501Y-115947878D01*
X170313679Y-115986745D01*
X170313679Y-116013250D01*
X170309500Y-116052122D01*
X170309500Y-116347868D01*
X170309501Y-116347878D01*
X170313679Y-116386745D01*
X170313679Y-116413250D01*
X170309500Y-116452122D01*
X170309500Y-116747868D01*
X170309501Y-116747878D01*
X170313679Y-116786745D01*
X170313679Y-116813250D01*
X170309500Y-116852122D01*
X170309500Y-117147868D01*
X170309501Y-117147878D01*
X170313679Y-117186745D01*
X170313679Y-117213250D01*
X170309500Y-117252122D01*
X170309500Y-117547868D01*
X170309501Y-117547878D01*
X170313679Y-117586745D01*
X170313679Y-117613250D01*
X170309500Y-117652122D01*
X170309500Y-117947868D01*
X170309501Y-117947878D01*
X170313679Y-117986745D01*
X170313679Y-118013250D01*
X170309500Y-118052122D01*
X170309500Y-118347868D01*
X170309501Y-118347878D01*
X170313679Y-118386745D01*
X170313679Y-118413250D01*
X170309500Y-118452122D01*
X170309500Y-118747868D01*
X170309501Y-118747878D01*
X170313679Y-118786745D01*
X170313679Y-118813250D01*
X170309500Y-118852122D01*
X170309500Y-119147868D01*
X170309501Y-119147878D01*
X170313679Y-119186745D01*
X170313679Y-119213250D01*
X170309500Y-119252122D01*
X170309500Y-119547868D01*
X170309501Y-119547878D01*
X170313679Y-119586745D01*
X170313679Y-119613250D01*
X170309500Y-119652122D01*
X170309500Y-119947868D01*
X170309501Y-119947878D01*
X170313679Y-119986745D01*
X170313679Y-120013250D01*
X170309500Y-120052122D01*
X170309500Y-120347868D01*
X170309501Y-120347878D01*
X170313679Y-120386745D01*
X170313679Y-120413250D01*
X170309500Y-120452122D01*
X170309500Y-120747868D01*
X170309501Y-120747878D01*
X170313679Y-120786745D01*
X170313679Y-120813250D01*
X170309500Y-120852122D01*
X170309500Y-121147868D01*
X170309501Y-121147878D01*
X170313679Y-121186745D01*
X170313679Y-121213250D01*
X170309500Y-121252122D01*
X170309500Y-121547868D01*
X170309501Y-121547878D01*
X170313679Y-121586745D01*
X170313679Y-121613250D01*
X170309500Y-121652122D01*
X170309500Y-121947868D01*
X170309501Y-121947878D01*
X170313679Y-121986745D01*
X170313679Y-122013250D01*
X170309500Y-122052122D01*
X170309500Y-122347868D01*
X170309501Y-122347878D01*
X170313679Y-122386745D01*
X170313679Y-122413250D01*
X170309500Y-122452122D01*
X170309500Y-122747868D01*
X170309501Y-122747878D01*
X170313679Y-122786745D01*
X170313679Y-122813250D01*
X170309500Y-122852122D01*
X170309500Y-123147868D01*
X170309501Y-123147878D01*
X170313679Y-123186745D01*
X170313679Y-123213250D01*
X170309500Y-123252122D01*
X170309500Y-123547868D01*
X170309501Y-123547878D01*
X170313679Y-123586745D01*
X170313679Y-123613250D01*
X170309500Y-123652122D01*
X170309500Y-123947868D01*
X170309501Y-123947878D01*
X170313679Y-123986745D01*
X170313679Y-124013250D01*
X170309500Y-124052122D01*
X170309500Y-124347868D01*
X170309501Y-124347878D01*
X170313679Y-124386745D01*
X170313679Y-124413250D01*
X170309500Y-124452122D01*
X170309500Y-124747868D01*
X170309501Y-124747878D01*
X170313679Y-124786745D01*
X170313679Y-124813250D01*
X170309500Y-124852122D01*
X170309500Y-125147868D01*
X170309501Y-125147878D01*
X170313679Y-125186745D01*
X170313679Y-125213250D01*
X170309500Y-125252122D01*
X170309500Y-125547868D01*
X170309501Y-125547878D01*
X170313679Y-125586745D01*
X170313679Y-125613250D01*
X170309500Y-125652122D01*
X170309500Y-125947869D01*
X170309501Y-125947876D01*
X170315908Y-126007483D01*
X170366202Y-126142328D01*
X170366206Y-126142335D01*
X170452452Y-126257544D01*
X170452455Y-126257547D01*
X170567664Y-126343793D01*
X170567671Y-126343797D01*
X170702517Y-126394091D01*
X170702516Y-126394091D01*
X170709444Y-126394835D01*
X170762127Y-126400500D01*
X171557872Y-126400499D01*
X171617483Y-126394091D01*
X171752331Y-126343796D01*
X171867546Y-126257546D01*
X171953796Y-126142331D01*
X172004091Y-126007483D01*
X172010500Y-125947873D01*
X172010499Y-125652128D01*
X172010499Y-125652127D01*
X172010498Y-125652111D01*
X172006320Y-125613253D01*
X172006320Y-125586745D01*
X172010500Y-125547873D01*
X172010499Y-125252128D01*
X172010499Y-125252127D01*
X172010498Y-125252111D01*
X172006320Y-125213253D01*
X172006320Y-125186745D01*
X172010500Y-125147873D01*
X172010499Y-124852128D01*
X172010499Y-124852127D01*
X172010498Y-124852111D01*
X172006320Y-124813253D01*
X172006320Y-124786745D01*
X172010500Y-124747873D01*
X172010499Y-124452128D01*
X172010499Y-124452127D01*
X172010498Y-124452111D01*
X172006320Y-124413253D01*
X172006320Y-124386745D01*
X172010500Y-124347873D01*
X172010499Y-124052128D01*
X172010499Y-124052127D01*
X172010498Y-124052111D01*
X172006320Y-124013253D01*
X172006320Y-123986745D01*
X172010500Y-123947873D01*
X172010499Y-123652128D01*
X172010499Y-123652127D01*
X172010498Y-123652111D01*
X172006320Y-123613253D01*
X172006320Y-123586745D01*
X172010500Y-123547873D01*
X172010499Y-123252128D01*
X172010499Y-123252127D01*
X172010498Y-123252111D01*
X172006320Y-123213253D01*
X172006320Y-123186745D01*
X172010500Y-123147873D01*
X172010499Y-122852128D01*
X172010499Y-122852127D01*
X172010498Y-122852111D01*
X172006320Y-122813253D01*
X172006320Y-122786745D01*
X172010500Y-122747873D01*
X172010499Y-122452128D01*
X172010499Y-122452127D01*
X172010498Y-122452111D01*
X172006320Y-122413253D01*
X172006320Y-122386745D01*
X172010500Y-122347873D01*
X172010499Y-122052128D01*
X172010499Y-122052127D01*
X172010498Y-122052111D01*
X172006320Y-122013253D01*
X172006320Y-121986745D01*
X172010500Y-121947873D01*
X172010499Y-121652128D01*
X172010499Y-121652127D01*
X172010498Y-121652111D01*
X172006320Y-121613253D01*
X172006320Y-121586745D01*
X172010500Y-121547873D01*
X172010499Y-121252128D01*
X172010499Y-121252127D01*
X172010498Y-121252111D01*
X172006320Y-121213253D01*
X172006320Y-121186745D01*
X172010500Y-121147873D01*
X172010499Y-120852128D01*
X172010499Y-120852127D01*
X172010498Y-120852111D01*
X172006320Y-120813253D01*
X172006320Y-120786745D01*
X172010500Y-120747873D01*
X172010499Y-120452128D01*
X172010499Y-120452127D01*
X172010498Y-120452111D01*
X172006320Y-120413253D01*
X172006320Y-120386745D01*
X172010500Y-120347873D01*
X172010499Y-120052128D01*
X172010499Y-120052127D01*
X172010498Y-120052111D01*
X172006320Y-120013253D01*
X172006320Y-119986745D01*
X172010500Y-119947873D01*
X172010499Y-119652128D01*
X172010499Y-119652127D01*
X172010498Y-119652111D01*
X172006320Y-119613253D01*
X172006320Y-119586745D01*
X172010500Y-119547873D01*
X172010499Y-119252128D01*
X172010499Y-119252127D01*
X172010498Y-119252111D01*
X172006320Y-119213253D01*
X172006320Y-119186745D01*
X172010500Y-119147873D01*
X172010499Y-118852128D01*
X172010499Y-118852127D01*
X172010498Y-118852111D01*
X172006320Y-118813253D01*
X172006320Y-118786745D01*
X172010500Y-118747873D01*
X172010499Y-118452128D01*
X172010499Y-118452127D01*
X172010498Y-118452111D01*
X172006320Y-118413253D01*
X172006320Y-118386745D01*
X172010500Y-118347873D01*
X172010499Y-118052128D01*
X172010499Y-118052127D01*
X172010498Y-118052111D01*
X172006320Y-118013253D01*
X172006320Y-117986745D01*
X172010500Y-117947873D01*
X172010499Y-117652128D01*
X172010499Y-117652127D01*
X172010498Y-117652111D01*
X172006320Y-117613253D01*
X172006320Y-117586745D01*
X172010500Y-117547873D01*
X172010499Y-117252128D01*
X172010499Y-117252127D01*
X172010498Y-117252111D01*
X172006320Y-117213253D01*
X172006320Y-117186745D01*
X172010500Y-117147873D01*
X172010499Y-116852128D01*
X172010499Y-116852127D01*
X172010498Y-116852111D01*
X172006320Y-116813253D01*
X172006320Y-116786745D01*
X172010500Y-116747873D01*
X172010499Y-116452128D01*
X172010499Y-116452127D01*
X172010498Y-116452111D01*
X172006320Y-116413253D01*
X172006320Y-116386745D01*
X172010500Y-116347873D01*
X172010499Y-116052128D01*
X172010499Y-116052127D01*
X172010498Y-116052111D01*
X172006320Y-116013253D01*
X172006320Y-115986745D01*
X172010500Y-115947873D01*
X172010499Y-115652128D01*
X172010499Y-115652127D01*
X172010498Y-115652111D01*
X172006320Y-115613253D01*
X172006320Y-115586745D01*
X172010500Y-115547873D01*
X172010499Y-115252128D01*
X172010499Y-115252127D01*
X172010498Y-115252111D01*
X172006320Y-115213253D01*
X172006320Y-115186745D01*
X172010500Y-115147873D01*
X172010499Y-114852128D01*
X172010499Y-114852127D01*
X172010498Y-114852111D01*
X172006320Y-114813253D01*
X172006320Y-114786745D01*
X172010500Y-114747873D01*
X172010499Y-114452128D01*
X172010499Y-114452127D01*
X172010498Y-114452111D01*
X172006320Y-114413253D01*
X172006320Y-114386745D01*
X172010500Y-114347873D01*
X172010499Y-114052128D01*
X172010499Y-114052127D01*
X172010498Y-114052111D01*
X172006320Y-114013253D01*
X172006320Y-113986745D01*
X172010500Y-113947873D01*
X172010499Y-113652128D01*
X172010499Y-113652127D01*
X172010498Y-113652111D01*
X172006320Y-113613253D01*
X172006320Y-113586745D01*
X172010500Y-113547873D01*
X172010499Y-113252128D01*
X172010499Y-113252127D01*
X172010498Y-113252111D01*
X172006320Y-113213253D01*
X172006320Y-113186745D01*
X172010500Y-113147873D01*
X172010499Y-112852128D01*
X172010499Y-112852127D01*
X172010498Y-112852111D01*
X172006320Y-112813253D01*
X172006320Y-112786745D01*
X172010500Y-112747873D01*
X172010499Y-112452128D01*
X172010499Y-112452127D01*
X172010498Y-112452111D01*
X172006320Y-112413253D01*
X172006320Y-112386745D01*
X172010500Y-112347873D01*
X172010499Y-112052128D01*
X172010499Y-112052127D01*
X172010498Y-112052111D01*
X172006320Y-112013253D01*
X172006320Y-111986745D01*
X172010500Y-111947873D01*
X172010499Y-111652128D01*
X172010499Y-111652127D01*
X172010498Y-111652111D01*
X172006320Y-111613253D01*
X172006320Y-111586745D01*
X172010500Y-111547873D01*
X172010499Y-111252128D01*
X172010499Y-111252127D01*
X172010498Y-111252111D01*
X172006320Y-111213253D01*
X172006320Y-111186745D01*
X172010500Y-111147873D01*
X172010499Y-110852128D01*
X172010499Y-110852127D01*
X172010498Y-110852111D01*
X172006320Y-110813253D01*
X172006320Y-110786745D01*
X172010500Y-110747873D01*
X172010499Y-110452128D01*
X172010499Y-110452127D01*
X172010498Y-110452111D01*
X172006320Y-110413253D01*
X172006320Y-110386745D01*
X172010500Y-110347873D01*
X172010499Y-110052128D01*
X172010499Y-110052127D01*
X173389500Y-110052127D01*
X173389500Y-110052134D01*
X173389500Y-110052135D01*
X173389500Y-110347868D01*
X173389501Y-110347878D01*
X173393679Y-110386745D01*
X173393679Y-110413250D01*
X173389500Y-110452122D01*
X173389500Y-110747868D01*
X173389501Y-110747878D01*
X173393679Y-110786745D01*
X173393679Y-110813250D01*
X173389500Y-110852122D01*
X173389500Y-111147868D01*
X173389501Y-111147878D01*
X173393679Y-111186745D01*
X173393679Y-111213250D01*
X173389500Y-111252122D01*
X173389500Y-111547868D01*
X173389501Y-111547878D01*
X173393679Y-111586745D01*
X173393679Y-111613250D01*
X173389500Y-111652122D01*
X173389500Y-111947868D01*
X173389501Y-111947878D01*
X173393679Y-111986745D01*
X173393679Y-112013250D01*
X173389500Y-112052122D01*
X173389500Y-112347868D01*
X173389501Y-112347878D01*
X173393679Y-112386745D01*
X173393679Y-112413250D01*
X173389500Y-112452122D01*
X173389500Y-112747868D01*
X173389501Y-112747878D01*
X173393679Y-112786745D01*
X173393679Y-112813250D01*
X173389500Y-112852122D01*
X173389500Y-113147868D01*
X173389501Y-113147878D01*
X173393679Y-113186745D01*
X173393679Y-113213250D01*
X173389500Y-113252122D01*
X173389500Y-113547868D01*
X173389501Y-113547878D01*
X173393679Y-113586745D01*
X173393679Y-113613250D01*
X173389500Y-113652122D01*
X173389500Y-113947868D01*
X173389501Y-113947878D01*
X173393679Y-113986745D01*
X173393679Y-114013250D01*
X173389500Y-114052122D01*
X173389500Y-114347868D01*
X173389501Y-114347878D01*
X173393679Y-114386745D01*
X173393679Y-114413250D01*
X173389500Y-114452122D01*
X173389500Y-114747868D01*
X173389501Y-114747878D01*
X173393679Y-114786745D01*
X173393679Y-114813250D01*
X173389500Y-114852122D01*
X173389500Y-115147868D01*
X173389501Y-115147878D01*
X173393679Y-115186745D01*
X173393679Y-115213250D01*
X173389500Y-115252122D01*
X173389500Y-115547868D01*
X173389501Y-115547878D01*
X173393679Y-115586745D01*
X173393679Y-115613250D01*
X173389500Y-115652122D01*
X173389500Y-115947868D01*
X173389501Y-115947878D01*
X173393679Y-115986745D01*
X173393679Y-116013250D01*
X173389500Y-116052122D01*
X173389500Y-116347868D01*
X173389501Y-116347878D01*
X173393679Y-116386745D01*
X173393679Y-116413250D01*
X173389500Y-116452122D01*
X173389500Y-116747868D01*
X173389501Y-116747878D01*
X173393679Y-116786745D01*
X173393679Y-116813250D01*
X173389500Y-116852122D01*
X173389500Y-117147868D01*
X173389501Y-117147878D01*
X173393679Y-117186745D01*
X173393679Y-117213250D01*
X173389500Y-117252122D01*
X173389500Y-117547868D01*
X173389501Y-117547878D01*
X173393679Y-117586745D01*
X173393679Y-117613250D01*
X173389500Y-117652122D01*
X173389500Y-117947868D01*
X173389501Y-117947878D01*
X173393679Y-117986745D01*
X173393679Y-118013250D01*
X173389500Y-118052122D01*
X173389500Y-118347868D01*
X173389501Y-118347878D01*
X173393679Y-118386745D01*
X173393679Y-118413250D01*
X173389500Y-118452122D01*
X173389500Y-118747868D01*
X173389501Y-118747878D01*
X173393679Y-118786745D01*
X173393679Y-118813250D01*
X173389500Y-118852122D01*
X173389500Y-119147868D01*
X173389501Y-119147878D01*
X173393679Y-119186745D01*
X173393679Y-119213250D01*
X173389500Y-119252122D01*
X173389500Y-119547868D01*
X173389501Y-119547878D01*
X173393679Y-119586745D01*
X173393679Y-119613250D01*
X173389500Y-119652122D01*
X173389500Y-119947868D01*
X173389501Y-119947878D01*
X173393679Y-119986745D01*
X173393679Y-120013250D01*
X173389500Y-120052122D01*
X173389500Y-120347868D01*
X173389501Y-120347878D01*
X173393679Y-120386745D01*
X173393679Y-120413250D01*
X173389500Y-120452122D01*
X173389500Y-120747868D01*
X173389501Y-120747878D01*
X173393679Y-120786745D01*
X173393679Y-120813250D01*
X173389500Y-120852122D01*
X173389500Y-121147868D01*
X173389501Y-121147878D01*
X173393679Y-121186745D01*
X173393679Y-121213250D01*
X173389500Y-121252122D01*
X173389500Y-121547868D01*
X173389501Y-121547878D01*
X173393679Y-121586745D01*
X173393679Y-121613250D01*
X173389500Y-121652122D01*
X173389500Y-121947868D01*
X173389501Y-121947878D01*
X173393679Y-121986745D01*
X173393679Y-122013250D01*
X173389500Y-122052122D01*
X173389500Y-122347868D01*
X173389501Y-122347878D01*
X173393679Y-122386745D01*
X173393679Y-122413250D01*
X173389500Y-122452122D01*
X173389500Y-122747868D01*
X173389501Y-122747878D01*
X173393679Y-122786745D01*
X173393679Y-122813250D01*
X173389500Y-122852122D01*
X173389500Y-123147868D01*
X173389501Y-123147878D01*
X173393679Y-123186745D01*
X173393679Y-123213250D01*
X173389500Y-123252122D01*
X173389500Y-123547868D01*
X173389501Y-123547878D01*
X173393679Y-123586745D01*
X173393679Y-123613250D01*
X173389500Y-123652122D01*
X173389500Y-123947868D01*
X173389501Y-123947878D01*
X173393679Y-123986745D01*
X173393679Y-124013250D01*
X173389500Y-124052122D01*
X173389500Y-124347868D01*
X173389501Y-124347878D01*
X173393679Y-124386745D01*
X173393679Y-124413250D01*
X173389500Y-124452122D01*
X173389500Y-124747868D01*
X173389501Y-124747878D01*
X173393679Y-124786745D01*
X173393679Y-124813250D01*
X173389500Y-124852122D01*
X173389500Y-125147868D01*
X173389501Y-125147878D01*
X173393679Y-125186745D01*
X173393679Y-125213250D01*
X173389500Y-125252122D01*
X173389500Y-125547868D01*
X173389501Y-125547878D01*
X173393679Y-125586745D01*
X173393679Y-125613250D01*
X173389500Y-125652122D01*
X173389500Y-125947869D01*
X173389501Y-125947876D01*
X173395908Y-126007483D01*
X173446202Y-126142328D01*
X173446206Y-126142335D01*
X173532452Y-126257544D01*
X173532455Y-126257547D01*
X173647664Y-126343793D01*
X173647671Y-126343797D01*
X173782517Y-126394091D01*
X173782516Y-126394091D01*
X173789444Y-126394835D01*
X173842127Y-126400500D01*
X174637872Y-126400499D01*
X174697483Y-126394091D01*
X174832331Y-126343796D01*
X174947546Y-126257546D01*
X175033796Y-126142331D01*
X175084091Y-126007483D01*
X175090500Y-125947873D01*
X175090499Y-125652128D01*
X175090499Y-125652127D01*
X175090498Y-125652111D01*
X175086320Y-125613253D01*
X175086320Y-125586745D01*
X175090500Y-125547873D01*
X175090499Y-125252128D01*
X175090499Y-125252127D01*
X175090498Y-125252111D01*
X175086320Y-125213253D01*
X175086320Y-125186745D01*
X175090500Y-125147873D01*
X175090499Y-124852128D01*
X175090499Y-124852127D01*
X175090498Y-124852111D01*
X175086320Y-124813253D01*
X175086320Y-124786745D01*
X175090500Y-124747873D01*
X175090499Y-124452128D01*
X175090499Y-124452127D01*
X175090498Y-124452111D01*
X175086320Y-124413253D01*
X175086320Y-124386745D01*
X175090500Y-124347873D01*
X175090499Y-124052128D01*
X175090499Y-124052127D01*
X175090498Y-124052111D01*
X175086320Y-124013253D01*
X175086320Y-123986745D01*
X175090500Y-123947873D01*
X175090499Y-123652128D01*
X175090499Y-123652127D01*
X175090498Y-123652111D01*
X175086320Y-123613253D01*
X175086320Y-123586745D01*
X175090500Y-123547873D01*
X175090499Y-123252128D01*
X175090499Y-123252127D01*
X175090498Y-123252111D01*
X175086320Y-123213253D01*
X175086320Y-123186745D01*
X175090500Y-123147873D01*
X175090499Y-122852128D01*
X175090499Y-122852127D01*
X175090498Y-122852111D01*
X175086320Y-122813253D01*
X175086320Y-122786745D01*
X175090500Y-122747873D01*
X175090499Y-122452128D01*
X175090499Y-122452127D01*
X175090498Y-122452111D01*
X175086320Y-122413253D01*
X175086320Y-122386745D01*
X175090500Y-122347873D01*
X175090499Y-122052128D01*
X175090499Y-122052127D01*
X175090498Y-122052111D01*
X175086320Y-122013253D01*
X175086320Y-121986745D01*
X175090500Y-121947873D01*
X175090499Y-121652128D01*
X175090499Y-121652127D01*
X175090498Y-121652111D01*
X175086320Y-121613253D01*
X175086320Y-121586745D01*
X175090500Y-121547873D01*
X175090499Y-121252128D01*
X175090499Y-121252127D01*
X175090498Y-121252111D01*
X175086320Y-121213253D01*
X175086320Y-121186745D01*
X175090500Y-121147873D01*
X175090499Y-120852128D01*
X175090499Y-120852127D01*
X175090498Y-120852111D01*
X175086320Y-120813253D01*
X175086320Y-120786745D01*
X175090500Y-120747873D01*
X175090499Y-120452128D01*
X175090499Y-120452127D01*
X175090498Y-120452111D01*
X175086320Y-120413253D01*
X175086320Y-120386745D01*
X175090500Y-120347873D01*
X175090499Y-120052128D01*
X175090499Y-120052127D01*
X175090498Y-120052111D01*
X175086320Y-120013253D01*
X175086320Y-119986745D01*
X175090500Y-119947873D01*
X175090499Y-119652128D01*
X175090499Y-119652127D01*
X175090498Y-119652111D01*
X175086320Y-119613253D01*
X175086320Y-119586745D01*
X175090500Y-119547873D01*
X175090499Y-119252128D01*
X175090499Y-119252127D01*
X175090498Y-119252111D01*
X175086320Y-119213253D01*
X175086320Y-119186745D01*
X175090500Y-119147873D01*
X175090499Y-118852128D01*
X175090499Y-118852127D01*
X175090498Y-118852111D01*
X175086320Y-118813253D01*
X175086320Y-118786745D01*
X175090500Y-118747873D01*
X175090499Y-118452128D01*
X175090499Y-118452127D01*
X175090498Y-118452111D01*
X175086320Y-118413253D01*
X175086320Y-118386745D01*
X175090500Y-118347873D01*
X175090499Y-118052128D01*
X175090499Y-118052127D01*
X175090498Y-118052111D01*
X175086320Y-118013253D01*
X175086320Y-117986745D01*
X175090500Y-117947873D01*
X175090499Y-117652128D01*
X175090499Y-117652127D01*
X175090498Y-117652111D01*
X175086320Y-117613253D01*
X175086320Y-117586745D01*
X175090500Y-117547873D01*
X175090499Y-117252128D01*
X175090499Y-117252127D01*
X175090498Y-117252111D01*
X175086320Y-117213253D01*
X175086320Y-117186745D01*
X175090500Y-117147873D01*
X175090499Y-116852128D01*
X175090499Y-116852127D01*
X175090498Y-116852111D01*
X175086320Y-116813253D01*
X175086320Y-116786745D01*
X175090500Y-116747873D01*
X175090499Y-116452128D01*
X175090499Y-116452127D01*
X175090498Y-116452111D01*
X175086320Y-116413253D01*
X175086320Y-116386745D01*
X175090500Y-116347873D01*
X175090499Y-116052128D01*
X175090499Y-116052127D01*
X175090498Y-116052111D01*
X175086320Y-116013253D01*
X175086320Y-115986745D01*
X175090500Y-115947873D01*
X175090499Y-115652128D01*
X175090499Y-115652127D01*
X175090498Y-115652111D01*
X175086320Y-115613253D01*
X175086320Y-115586745D01*
X175090500Y-115547873D01*
X175090499Y-115252128D01*
X175090499Y-115252127D01*
X175090498Y-115252111D01*
X175086320Y-115213253D01*
X175086320Y-115186745D01*
X175090500Y-115147873D01*
X175090499Y-114852128D01*
X175090499Y-114852127D01*
X175090498Y-114852111D01*
X175086320Y-114813253D01*
X175086320Y-114786745D01*
X175090500Y-114747873D01*
X175090499Y-114452128D01*
X175090499Y-114452127D01*
X175090498Y-114452111D01*
X175086320Y-114413253D01*
X175086320Y-114386745D01*
X175090500Y-114347873D01*
X175090499Y-114052128D01*
X175090499Y-114052127D01*
X175090498Y-114052111D01*
X175086320Y-114013253D01*
X175086320Y-113986745D01*
X175090500Y-113947873D01*
X175090499Y-113652128D01*
X175090499Y-113652127D01*
X175090498Y-113652111D01*
X175086320Y-113613253D01*
X175086320Y-113586745D01*
X175090500Y-113547873D01*
X175090499Y-113252128D01*
X175090499Y-113252127D01*
X175090498Y-113252111D01*
X175086320Y-113213253D01*
X175086320Y-113186745D01*
X175090500Y-113147873D01*
X175090499Y-112852128D01*
X175090499Y-112852127D01*
X175090498Y-112852111D01*
X175086320Y-112813253D01*
X175086320Y-112786745D01*
X175090500Y-112747873D01*
X175090499Y-112452128D01*
X175090499Y-112452127D01*
X175090498Y-112452111D01*
X175086320Y-112413253D01*
X175086320Y-112386745D01*
X175090500Y-112347873D01*
X175090499Y-112052128D01*
X175090499Y-112052127D01*
X175090498Y-112052111D01*
X175086320Y-112013253D01*
X175086320Y-111986745D01*
X175090500Y-111947873D01*
X175090499Y-111652128D01*
X175090499Y-111652127D01*
X175090498Y-111652111D01*
X175086320Y-111613253D01*
X175086320Y-111586745D01*
X175090500Y-111547873D01*
X175090499Y-111252128D01*
X175090499Y-111252127D01*
X175090498Y-111252111D01*
X175086320Y-111213253D01*
X175086320Y-111186745D01*
X175090500Y-111147873D01*
X175090499Y-110852128D01*
X175090499Y-110852127D01*
X175090498Y-110852111D01*
X175086320Y-110813253D01*
X175086320Y-110786745D01*
X175090500Y-110747873D01*
X175090499Y-110452128D01*
X175090499Y-110452127D01*
X175090498Y-110452111D01*
X175086320Y-110413253D01*
X175086320Y-110386745D01*
X175090500Y-110347873D01*
X175090499Y-110052128D01*
X175084091Y-109992517D01*
X175033796Y-109857669D01*
X175033795Y-109857668D01*
X175033793Y-109857664D01*
X174947547Y-109742455D01*
X174947544Y-109742452D01*
X174832335Y-109656206D01*
X174832328Y-109656202D01*
X174697482Y-109605908D01*
X174697483Y-109605908D01*
X174637883Y-109599501D01*
X174637881Y-109599500D01*
X174637873Y-109599500D01*
X174637864Y-109599500D01*
X173842129Y-109599500D01*
X173842123Y-109599501D01*
X173782516Y-109605908D01*
X173647671Y-109656202D01*
X173647664Y-109656206D01*
X173532455Y-109742452D01*
X173532452Y-109742455D01*
X173446206Y-109857664D01*
X173446202Y-109857671D01*
X173395910Y-109992513D01*
X173395909Y-109992517D01*
X173389500Y-110052127D01*
X172010499Y-110052127D01*
X172004091Y-109992517D01*
X171953796Y-109857669D01*
X171953795Y-109857668D01*
X171953793Y-109857664D01*
X171867547Y-109742455D01*
X171867544Y-109742452D01*
X171752335Y-109656206D01*
X171752328Y-109656202D01*
X171617482Y-109605908D01*
X171617483Y-109605908D01*
X171557883Y-109599501D01*
X171557881Y-109599500D01*
X171557873Y-109599500D01*
X171557864Y-109599500D01*
X170762129Y-109599500D01*
X170762123Y-109599501D01*
X170702516Y-109605908D01*
X170567671Y-109656202D01*
X170567664Y-109656206D01*
X170452455Y-109742452D01*
X170452452Y-109742455D01*
X170366206Y-109857664D01*
X170366202Y-109857671D01*
X170315910Y-109992513D01*
X170315909Y-109992517D01*
X170309500Y-110052127D01*
X163750500Y-110052127D01*
X163750500Y-107221746D01*
X167634500Y-107221746D01*
X167634500Y-107438253D01*
X167668370Y-107652098D01*
X167735272Y-107858006D01*
X167735273Y-107858009D01*
X167817377Y-108019145D01*
X167833567Y-108050919D01*
X167960828Y-108226078D01*
X168113922Y-108379172D01*
X168289081Y-108506433D01*
X168377308Y-108551387D01*
X168481990Y-108604726D01*
X168481993Y-108604727D01*
X168557238Y-108629175D01*
X168687903Y-108671630D01*
X168901746Y-108705500D01*
X168901747Y-108705500D01*
X169118253Y-108705500D01*
X169118254Y-108705500D01*
X169332097Y-108671630D01*
X169538009Y-108604726D01*
X169730919Y-108506433D01*
X169906078Y-108379172D01*
X170059172Y-108226078D01*
X170186433Y-108050919D01*
X170284726Y-107858009D01*
X170351630Y-107652097D01*
X170385500Y-107438254D01*
X170385500Y-107221746D01*
X170351630Y-107007903D01*
X170318178Y-106904947D01*
X170284727Y-106801993D01*
X170284726Y-106801990D01*
X170186432Y-106609080D01*
X170184484Y-106606399D01*
X170059172Y-106433922D01*
X169906078Y-106280828D01*
X169730919Y-106153567D01*
X169538009Y-106055273D01*
X169538006Y-106055272D01*
X169332098Y-105988370D01*
X169225175Y-105971435D01*
X169118254Y-105954500D01*
X168901746Y-105954500D01*
X168830465Y-105965790D01*
X168687901Y-105988370D01*
X168481993Y-106055272D01*
X168481990Y-106055273D01*
X168289080Y-106153567D01*
X168189145Y-106226174D01*
X168113922Y-106280828D01*
X168113920Y-106280830D01*
X168113919Y-106280830D01*
X167960830Y-106433919D01*
X167960830Y-106433920D01*
X167960828Y-106433922D01*
X167942250Y-106459493D01*
X167833567Y-106609080D01*
X167735273Y-106801990D01*
X167735272Y-106801993D01*
X167668370Y-107007901D01*
X167634500Y-107221746D01*
X163750500Y-107221746D01*
X163750500Y-105362229D01*
X163770185Y-105295190D01*
X163786819Y-105274548D01*
X165943366Y-103118001D01*
X166004689Y-103084516D01*
X166031047Y-103081682D01*
X181367589Y-103081682D01*
X181434628Y-103101367D01*
X181480383Y-103154171D01*
X181490327Y-103223329D01*
X181461302Y-103286885D01*
X181455270Y-103293363D01*
X178200735Y-106547895D01*
X178139412Y-106581380D01*
X178093657Y-106582687D01*
X178041958Y-106574500D01*
X177838042Y-106574500D01*
X177838037Y-106574500D01*
X177636639Y-106606398D01*
X177442698Y-106669414D01*
X177261009Y-106761989D01*
X177096035Y-106881850D01*
X176951850Y-107026035D01*
X176831989Y-107191009D01*
X176739414Y-107372698D01*
X176676398Y-107566639D01*
X176644500Y-107768036D01*
X176644500Y-107971963D01*
X176676398Y-108173360D01*
X176676399Y-108173364D01*
X176739413Y-108367299D01*
X176831989Y-108548990D01*
X176951848Y-108713962D01*
X177096038Y-108858152D01*
X177261010Y-108978011D01*
X177442701Y-109070587D01*
X177636636Y-109133601D01*
X177712163Y-109145563D01*
X177838037Y-109165500D01*
X177838042Y-109165500D01*
X178041963Y-109165500D01*
X178153850Y-109147778D01*
X178243364Y-109133601D01*
X178437299Y-109070587D01*
X178618990Y-108978011D01*
X178783962Y-108858152D01*
X178928152Y-108713962D01*
X179048011Y-108548990D01*
X179099515Y-108447906D01*
X179147489Y-108397111D01*
X179215310Y-108380316D01*
X179281445Y-108402853D01*
X179320484Y-108447906D01*
X179371989Y-108548990D01*
X179491848Y-108713962D01*
X179636038Y-108858152D01*
X179801010Y-108978011D01*
X179982701Y-109070587D01*
X180176636Y-109133601D01*
X180252163Y-109145563D01*
X180378037Y-109165500D01*
X180378042Y-109165500D01*
X180581963Y-109165500D01*
X180693850Y-109147778D01*
X180783364Y-109133601D01*
X180977299Y-109070587D01*
X181158990Y-108978011D01*
X181323962Y-108858152D01*
X181468152Y-108713962D01*
X181588011Y-108548990D01*
X181639515Y-108447906D01*
X181687489Y-108397111D01*
X181755310Y-108380316D01*
X181821445Y-108402853D01*
X181860484Y-108447906D01*
X181911989Y-108548990D01*
X182031848Y-108713962D01*
X182176038Y-108858152D01*
X182341010Y-108978011D01*
X182522701Y-109070587D01*
X182716636Y-109133601D01*
X182792163Y-109145563D01*
X182918037Y-109165500D01*
X182918042Y-109165500D01*
X183121963Y-109165500D01*
X183233850Y-109147778D01*
X183323364Y-109133601D01*
X183517299Y-109070587D01*
X183698990Y-108978011D01*
X183863962Y-108858152D01*
X184008152Y-108713962D01*
X184128011Y-108548990D01*
X184179515Y-108447906D01*
X184227489Y-108397111D01*
X184295310Y-108380316D01*
X184361445Y-108402853D01*
X184400484Y-108447906D01*
X184451989Y-108548990D01*
X184571848Y-108713962D01*
X184716038Y-108858152D01*
X184881010Y-108978011D01*
X185062701Y-109070587D01*
X185256636Y-109133601D01*
X185332163Y-109145563D01*
X185458037Y-109165500D01*
X185458042Y-109165500D01*
X185661963Y-109165500D01*
X185773850Y-109147778D01*
X185863364Y-109133601D01*
X186057299Y-109070587D01*
X186238990Y-108978011D01*
X186403962Y-108858152D01*
X186548152Y-108713962D01*
X186668011Y-108548990D01*
X186719515Y-108447906D01*
X186767489Y-108397111D01*
X186835310Y-108380316D01*
X186901445Y-108402853D01*
X186940484Y-108447906D01*
X186991989Y-108548990D01*
X187111848Y-108713962D01*
X187256038Y-108858152D01*
X187421010Y-108978011D01*
X187602701Y-109070587D01*
X187796636Y-109133601D01*
X187872163Y-109145563D01*
X187998037Y-109165500D01*
X187998042Y-109165500D01*
X188201963Y-109165500D01*
X188313850Y-109147778D01*
X188403364Y-109133601D01*
X188597299Y-109070587D01*
X188778990Y-108978011D01*
X188943962Y-108858152D01*
X189088152Y-108713962D01*
X189208011Y-108548990D01*
X189259515Y-108447906D01*
X189307489Y-108397111D01*
X189375310Y-108380316D01*
X189441445Y-108402853D01*
X189480484Y-108447906D01*
X189531989Y-108548990D01*
X189651848Y-108713962D01*
X189796038Y-108858152D01*
X189961010Y-108978011D01*
X190142701Y-109070587D01*
X190336636Y-109133601D01*
X190412163Y-109145563D01*
X190538037Y-109165500D01*
X190538042Y-109165500D01*
X190741963Y-109165500D01*
X190853850Y-109147778D01*
X190943364Y-109133601D01*
X191137299Y-109070587D01*
X191318990Y-108978011D01*
X191483962Y-108858152D01*
X191628152Y-108713962D01*
X191748011Y-108548990D01*
X191799515Y-108447906D01*
X191847489Y-108397111D01*
X191915310Y-108380316D01*
X191981445Y-108402853D01*
X192020484Y-108447906D01*
X192071989Y-108548990D01*
X192191848Y-108713962D01*
X192336038Y-108858152D01*
X192501010Y-108978011D01*
X192682701Y-109070587D01*
X192876636Y-109133601D01*
X192952163Y-109145563D01*
X193078037Y-109165500D01*
X193078042Y-109165500D01*
X193281963Y-109165500D01*
X193393850Y-109147778D01*
X193483364Y-109133601D01*
X193677299Y-109070587D01*
X193858990Y-108978011D01*
X194023962Y-108858152D01*
X194168152Y-108713962D01*
X194288011Y-108548990D01*
X194339515Y-108447906D01*
X194387489Y-108397111D01*
X194455310Y-108380316D01*
X194521445Y-108402853D01*
X194560484Y-108447906D01*
X194611989Y-108548990D01*
X194731848Y-108713962D01*
X194876038Y-108858152D01*
X195041010Y-108978011D01*
X195222701Y-109070587D01*
X195416636Y-109133601D01*
X195492163Y-109145563D01*
X195618037Y-109165500D01*
X195618042Y-109165500D01*
X195821963Y-109165500D01*
X195933850Y-109147778D01*
X196023364Y-109133601D01*
X196217299Y-109070587D01*
X196398990Y-108978011D01*
X196563962Y-108858152D01*
X196708152Y-108713962D01*
X196828011Y-108548990D01*
X196879515Y-108447906D01*
X196927489Y-108397111D01*
X196995310Y-108380316D01*
X197061445Y-108402853D01*
X197100484Y-108447906D01*
X197151989Y-108548990D01*
X197271848Y-108713962D01*
X197416038Y-108858152D01*
X197581010Y-108978011D01*
X197762701Y-109070587D01*
X197956636Y-109133601D01*
X198032163Y-109145563D01*
X198158037Y-109165500D01*
X198158042Y-109165500D01*
X198361963Y-109165500D01*
X198473850Y-109147778D01*
X198563364Y-109133601D01*
X198757299Y-109070587D01*
X198938990Y-108978011D01*
X199103962Y-108858152D01*
X199248152Y-108713962D01*
X199368011Y-108548990D01*
X199419515Y-108447906D01*
X199467489Y-108397111D01*
X199535310Y-108380316D01*
X199601445Y-108402853D01*
X199640484Y-108447906D01*
X199691989Y-108548990D01*
X199811848Y-108713962D01*
X199956038Y-108858152D01*
X200121010Y-108978011D01*
X200302701Y-109070587D01*
X200496636Y-109133601D01*
X200572163Y-109145563D01*
X200698037Y-109165500D01*
X200698042Y-109165500D01*
X200901963Y-109165500D01*
X201013850Y-109147778D01*
X201103364Y-109133601D01*
X201297299Y-109070587D01*
X201478990Y-108978011D01*
X201643962Y-108858152D01*
X201788152Y-108713962D01*
X201908011Y-108548990D01*
X201959515Y-108447906D01*
X202007489Y-108397111D01*
X202075310Y-108380316D01*
X202141445Y-108402853D01*
X202180484Y-108447906D01*
X202231989Y-108548990D01*
X202351848Y-108713962D01*
X202496038Y-108858152D01*
X202661010Y-108978011D01*
X202842701Y-109070587D01*
X203036636Y-109133601D01*
X203112163Y-109145563D01*
X203238037Y-109165500D01*
X203238042Y-109165500D01*
X203441963Y-109165500D01*
X203553850Y-109147778D01*
X203643364Y-109133601D01*
X203837299Y-109070587D01*
X204018990Y-108978011D01*
X204056862Y-108950495D01*
X204122666Y-108927015D01*
X204190720Y-108942839D01*
X204239416Y-108992944D01*
X204253292Y-109061422D01*
X204252485Y-109068458D01*
X204244500Y-109123996D01*
X204244500Y-109124000D01*
X204244500Y-110320774D01*
X204244500Y-129376000D01*
X204244501Y-129376009D01*
X204256052Y-129483450D01*
X204256054Y-129483462D01*
X204267260Y-129534972D01*
X204301383Y-129637497D01*
X204301386Y-129637503D01*
X204379171Y-129758537D01*
X204379179Y-129758548D01*
X204424923Y-129811340D01*
X204424926Y-129811343D01*
X204424930Y-129811347D01*
X204533664Y-129905567D01*
X204664541Y-129965338D01*
X204731580Y-129985023D01*
X204731584Y-129985024D01*
X204874000Y-130005500D01*
X204874003Y-130005500D01*
X206370500Y-130005500D01*
X206437539Y-130025185D01*
X206483294Y-130077989D01*
X206494500Y-130129500D01*
X206494500Y-135370500D01*
X206474815Y-135437539D01*
X206422011Y-135483294D01*
X206370500Y-135494500D01*
X195624000Y-135494500D01*
X195623991Y-135494500D01*
X195623990Y-135494501D01*
X195516549Y-135506052D01*
X195516537Y-135506054D01*
X195465027Y-135517260D01*
X195362502Y-135551383D01*
X195362496Y-135551386D01*
X195241462Y-135629171D01*
X195241451Y-135629179D01*
X195188659Y-135674923D01*
X195094433Y-135783664D01*
X195094430Y-135783668D01*
X195034664Y-135914534D01*
X195014976Y-135981582D01*
X194994500Y-136124001D01*
X194994500Y-137370500D01*
X194974815Y-137437539D01*
X194922011Y-137483294D01*
X194870500Y-137494500D01*
X189624000Y-137494500D01*
X189623991Y-137494500D01*
X189623990Y-137494501D01*
X189516549Y-137506052D01*
X189516537Y-137506054D01*
X189465027Y-137517260D01*
X189362502Y-137551383D01*
X189362496Y-137551386D01*
X189241462Y-137629171D01*
X189241451Y-137629179D01*
X189188659Y-137674923D01*
X189094433Y-137783664D01*
X189094430Y-137783668D01*
X189034664Y-137914534D01*
X189034662Y-137914541D01*
X189014977Y-137981580D01*
X189014976Y-137981584D01*
X188994500Y-138124000D01*
X188994500Y-139876000D01*
X188994501Y-139876009D01*
X189006052Y-139983450D01*
X189006054Y-139983462D01*
X189017260Y-140034972D01*
X189051383Y-140137497D01*
X189051386Y-140137503D01*
X189129171Y-140258537D01*
X189129179Y-140258548D01*
X189174923Y-140311340D01*
X189174926Y-140311343D01*
X189174930Y-140311347D01*
X189283664Y-140405567D01*
X189283665Y-140405567D01*
X189283666Y-140405568D01*
X189326666Y-140425206D01*
X189379469Y-140470962D01*
X189399153Y-140538001D01*
X189379468Y-140605040D01*
X189326663Y-140650795D01*
X189275153Y-140662000D01*
X186274730Y-140662000D01*
X186207691Y-140642315D01*
X186187049Y-140625681D01*
X186118657Y-140557289D01*
X186118656Y-140557288D01*
X185994999Y-140481016D01*
X185969336Y-140465187D01*
X185969331Y-140465185D01*
X185967862Y-140464698D01*
X185802797Y-140410001D01*
X185802795Y-140410000D01*
X185700010Y-140399500D01*
X184299998Y-140399500D01*
X184299981Y-140399501D01*
X184197203Y-140410000D01*
X184197200Y-140410001D01*
X184030668Y-140465185D01*
X184030663Y-140465187D01*
X183881342Y-140557289D01*
X183812951Y-140625681D01*
X183751628Y-140659166D01*
X183725270Y-140662000D01*
X183274730Y-140662000D01*
X183207691Y-140642315D01*
X183187049Y-140625681D01*
X183118657Y-140557289D01*
X183118656Y-140557288D01*
X182994999Y-140481016D01*
X182969336Y-140465187D01*
X182969331Y-140465185D01*
X182967862Y-140464698D01*
X182802797Y-140410001D01*
X182802795Y-140410000D01*
X182700010Y-140399500D01*
X181299998Y-140399500D01*
X181299981Y-140399501D01*
X181197203Y-140410000D01*
X181197200Y-140410001D01*
X181030668Y-140465185D01*
X181030663Y-140465187D01*
X180881342Y-140557289D01*
X180875451Y-140563181D01*
X180814128Y-140596666D01*
X180787770Y-140599500D01*
X178792163Y-140599500D01*
X178725124Y-140579815D01*
X178679369Y-140527011D01*
X178670912Y-140501465D01*
X178670000Y-140497206D01*
X178659390Y-140465186D01*
X178614814Y-140330665D01*
X178522712Y-140181344D01*
X178398656Y-140057288D01*
X178278965Y-139983462D01*
X178249337Y-139965187D01*
X178249332Y-139965185D01*
X178247863Y-139964698D01*
X178082798Y-139910001D01*
X178082796Y-139910000D01*
X177980017Y-139899500D01*
X177980010Y-139899500D01*
X176179990Y-139899500D01*
X176179982Y-139899500D01*
X176077203Y-139910000D01*
X176077202Y-139910001D01*
X175994669Y-139937349D01*
X175910667Y-139965185D01*
X175910662Y-139965187D01*
X175761342Y-140057289D01*
X175637289Y-140181342D01*
X175545187Y-140330662D01*
X175545186Y-140330665D01*
X175490001Y-140497202D01*
X175490001Y-140497203D01*
X175490000Y-140497203D01*
X175479500Y-140599982D01*
X175479500Y-142400017D01*
X175490000Y-142502796D01*
X175545185Y-142669332D01*
X175545187Y-142669337D01*
X175568755Y-142707546D01*
X175637288Y-142818656D01*
X175761344Y-142942712D01*
X175910665Y-143034814D01*
X176077202Y-143089999D01*
X176179990Y-143100500D01*
X176179995Y-143100500D01*
X177980005Y-143100500D01*
X177980010Y-143100500D01*
X178082798Y-143089999D01*
X178249335Y-143034814D01*
X178398656Y-142942712D01*
X178522712Y-142818656D01*
X178614814Y-142669335D01*
X178669999Y-142502798D01*
X178670000Y-142502793D01*
X178670912Y-142498535D01*
X178704198Y-142437104D01*
X178765412Y-142403420D01*
X178792163Y-142400500D01*
X180663132Y-142400500D01*
X180730171Y-142420185D01*
X180751346Y-142439383D01*
X180752181Y-142438549D01*
X180757288Y-142443656D01*
X180881344Y-142567712D01*
X181030666Y-142659814D01*
X181197203Y-142714999D01*
X181299991Y-142725500D01*
X182700008Y-142725499D01*
X182802797Y-142714999D01*
X182969334Y-142659814D01*
X183118656Y-142567712D01*
X183187049Y-142499319D01*
X183248372Y-142465834D01*
X183274730Y-142463000D01*
X183725270Y-142463000D01*
X183792309Y-142482685D01*
X183812951Y-142499319D01*
X183881344Y-142567712D01*
X184030666Y-142659814D01*
X184197203Y-142714999D01*
X184299991Y-142725500D01*
X185700008Y-142725499D01*
X185802797Y-142714999D01*
X185969334Y-142659814D01*
X186118656Y-142567712D01*
X186187049Y-142499319D01*
X186248372Y-142465834D01*
X186274730Y-142463000D01*
X189814335Y-142463000D01*
X189869428Y-142475911D01*
X189921307Y-142501641D01*
X190106111Y-142547600D01*
X190148877Y-142550500D01*
X191551122Y-142550499D01*
X191593889Y-142547600D01*
X191778693Y-142501641D01*
X191949296Y-142417030D01*
X192097722Y-142297722D01*
X192217030Y-142149296D01*
X192301641Y-141978693D01*
X192347600Y-141793889D01*
X192350500Y-141751123D01*
X192350499Y-140848878D01*
X192347600Y-140806111D01*
X192311120Y-140659423D01*
X192314044Y-140589618D01*
X192354244Y-140532472D01*
X192418958Y-140506131D01*
X192431455Y-140505500D01*
X194870500Y-140505500D01*
X194937539Y-140525185D01*
X194983294Y-140577989D01*
X194994500Y-140629500D01*
X194994500Y-141376000D01*
X194994501Y-141376009D01*
X195006052Y-141483450D01*
X195006054Y-141483462D01*
X195017260Y-141534972D01*
X195051383Y-141637497D01*
X195051386Y-141637503D01*
X195129171Y-141758537D01*
X195129179Y-141758548D01*
X195174923Y-141811340D01*
X195174926Y-141811343D01*
X195174930Y-141811347D01*
X195283664Y-141905567D01*
X195283667Y-141905568D01*
X195283668Y-141905569D01*
X195377925Y-141948616D01*
X195414541Y-141965338D01*
X195481580Y-141985023D01*
X195481584Y-141985024D01*
X195624000Y-142005500D01*
X195624003Y-142005500D01*
X198875990Y-142005500D01*
X198876000Y-142005500D01*
X198983456Y-141993947D01*
X199034967Y-141982741D01*
X199069197Y-141971347D01*
X199137497Y-141948616D01*
X199137501Y-141948613D01*
X199137504Y-141948613D01*
X199258543Y-141870825D01*
X199311347Y-141825070D01*
X199405567Y-141716336D01*
X199465338Y-141585459D01*
X199485023Y-141518420D01*
X199485024Y-141518416D01*
X199505500Y-141376000D01*
X199505500Y-139629500D01*
X199525185Y-139562461D01*
X199577989Y-139516706D01*
X199629500Y-139505500D01*
X209375990Y-139505500D01*
X209376000Y-139505500D01*
X209483456Y-139493947D01*
X209534967Y-139482741D01*
X209569197Y-139471347D01*
X209637497Y-139448616D01*
X209637501Y-139448613D01*
X209637504Y-139448613D01*
X209758543Y-139370825D01*
X209811347Y-139325070D01*
X209905567Y-139216336D01*
X209965338Y-139085459D01*
X209985023Y-139018420D01*
X209985024Y-139018416D01*
X210005500Y-138876000D01*
X210005500Y-129281205D01*
X210025185Y-129214166D01*
X210077989Y-129168411D01*
X210147147Y-129158467D01*
X210202384Y-129180886D01*
X210281010Y-129238011D01*
X210462701Y-129330587D01*
X210656636Y-129393601D01*
X210732163Y-129405563D01*
X210858037Y-129425500D01*
X210858042Y-129425500D01*
X211061963Y-129425500D01*
X211176062Y-129407428D01*
X211263364Y-129393601D01*
X211457299Y-129330587D01*
X211638990Y-129238011D01*
X211803962Y-129118152D01*
X211948152Y-128973962D01*
X212068011Y-128808990D01*
X212160587Y-128627299D01*
X212181887Y-128561746D01*
X229614500Y-128561746D01*
X229614500Y-128778253D01*
X229648370Y-128992098D01*
X229715272Y-129198006D01*
X229715273Y-129198009D01*
X229782825Y-129330585D01*
X229813567Y-129390919D01*
X229940828Y-129566078D01*
X230093922Y-129719172D01*
X230269081Y-129846433D01*
X230363697Y-129894642D01*
X230461990Y-129944726D01*
X230461993Y-129944727D01*
X230525429Y-129965338D01*
X230667903Y-130011630D01*
X230881746Y-130045500D01*
X230881747Y-130045500D01*
X231098253Y-130045500D01*
X231098254Y-130045500D01*
X231312097Y-130011630D01*
X231518009Y-129944726D01*
X231710919Y-129846433D01*
X231886078Y-129719172D01*
X232039172Y-129566078D01*
X232166433Y-129390919D01*
X232264726Y-129198009D01*
X232331630Y-128992097D01*
X232365500Y-128778254D01*
X232365500Y-128561746D01*
X232331630Y-128347903D01*
X232264726Y-128141991D01*
X232264726Y-128141990D01*
X232166432Y-127949080D01*
X232039172Y-127773922D01*
X231886078Y-127620828D01*
X231710919Y-127493567D01*
X231627395Y-127451009D01*
X231518009Y-127395273D01*
X231518006Y-127395272D01*
X231312098Y-127328370D01*
X231205175Y-127311435D01*
X231098254Y-127294500D01*
X230881746Y-127294500D01*
X230810465Y-127305790D01*
X230667901Y-127328370D01*
X230461993Y-127395272D01*
X230461990Y-127395273D01*
X230269080Y-127493567D01*
X230169145Y-127566174D01*
X230093922Y-127620828D01*
X230093920Y-127620830D01*
X230093919Y-127620830D01*
X229940830Y-127773919D01*
X229940830Y-127773920D01*
X229940828Y-127773922D01*
X229902529Y-127826636D01*
X229813567Y-127949080D01*
X229715273Y-128141990D01*
X229715272Y-128141993D01*
X229648370Y-128347901D01*
X229614500Y-128561746D01*
X212181887Y-128561746D01*
X212223601Y-128433364D01*
X212237778Y-128343850D01*
X212255500Y-128231963D01*
X212255500Y-128028036D01*
X212223601Y-127826639D01*
X212223601Y-127826636D01*
X212171996Y-127667816D01*
X212170002Y-127597977D01*
X212206082Y-127538144D01*
X212268783Y-127507316D01*
X212289928Y-127505500D01*
X219875990Y-127505500D01*
X219876000Y-127505500D01*
X219983456Y-127493947D01*
X220034967Y-127482741D01*
X220069197Y-127471347D01*
X220137497Y-127448616D01*
X220137501Y-127448613D01*
X220137504Y-127448613D01*
X220258543Y-127370825D01*
X220311347Y-127325070D01*
X220405567Y-127216336D01*
X220465338Y-127085459D01*
X220485023Y-127018420D01*
X220485024Y-127018416D01*
X220505500Y-126876000D01*
X220505500Y-107221746D01*
X229614500Y-107221746D01*
X229614500Y-107438253D01*
X229648370Y-107652098D01*
X229715272Y-107858006D01*
X229715273Y-107858009D01*
X229797377Y-108019145D01*
X229813567Y-108050919D01*
X229940828Y-108226078D01*
X230093922Y-108379172D01*
X230269081Y-108506433D01*
X230357308Y-108551387D01*
X230461990Y-108604726D01*
X230461993Y-108604727D01*
X230537238Y-108629175D01*
X230667903Y-108671630D01*
X230881746Y-108705500D01*
X230881747Y-108705500D01*
X231098253Y-108705500D01*
X231098254Y-108705500D01*
X231312097Y-108671630D01*
X231518009Y-108604726D01*
X231710919Y-108506433D01*
X231886078Y-108379172D01*
X232039172Y-108226078D01*
X232166433Y-108050919D01*
X232264726Y-107858009D01*
X232331630Y-107652097D01*
X232365500Y-107438254D01*
X232365500Y-107221746D01*
X232331630Y-107007903D01*
X232298178Y-106904947D01*
X232264727Y-106801993D01*
X232264726Y-106801990D01*
X232166432Y-106609080D01*
X232164484Y-106606399D01*
X232039172Y-106433922D01*
X231886078Y-106280828D01*
X231710919Y-106153567D01*
X231518009Y-106055273D01*
X231518006Y-106055272D01*
X231312098Y-105988370D01*
X231205175Y-105971435D01*
X231098254Y-105954500D01*
X230881746Y-105954500D01*
X230810465Y-105965790D01*
X230667901Y-105988370D01*
X230461993Y-106055272D01*
X230461990Y-106055273D01*
X230269080Y-106153567D01*
X230169145Y-106226174D01*
X230093922Y-106280828D01*
X230093920Y-106280830D01*
X230093919Y-106280830D01*
X229940830Y-106433919D01*
X229940830Y-106433920D01*
X229940828Y-106433922D01*
X229922250Y-106459493D01*
X229813567Y-106609080D01*
X229715273Y-106801990D01*
X229715272Y-106801993D01*
X229648370Y-107007901D01*
X229614500Y-107221746D01*
X220505500Y-107221746D01*
X220505500Y-94460668D01*
X220525185Y-94393629D01*
X220577989Y-94347874D01*
X220647147Y-94337930D01*
X220710703Y-94366955D01*
X220729817Y-94387782D01*
X220780586Y-94457659D01*
X220903072Y-94580145D01*
X221043212Y-94681963D01*
X221197555Y-94760604D01*
X221362299Y-94814133D01*
X221533389Y-94841231D01*
X221533390Y-94841231D01*
X221706610Y-94841231D01*
X221706611Y-94841231D01*
X221877701Y-94814133D01*
X222042445Y-94760604D01*
X222196788Y-94681963D01*
X222336928Y-94580145D01*
X222459414Y-94457659D01*
X222561232Y-94317519D01*
X222639873Y-94163176D01*
X222693402Y-93998432D01*
X222720500Y-93827342D01*
X222720500Y-92854120D01*
X223599500Y-92854120D01*
X223599500Y-93827342D01*
X223626598Y-93998432D01*
X223680127Y-94163176D01*
X223758768Y-94317519D01*
X223860586Y-94457659D01*
X223983072Y-94580145D01*
X224123212Y-94681963D01*
X224277555Y-94760604D01*
X224442299Y-94814133D01*
X224613389Y-94841231D01*
X224613390Y-94841231D01*
X224786610Y-94841231D01*
X224786611Y-94841231D01*
X224957701Y-94814133D01*
X225122445Y-94760604D01*
X225276788Y-94681963D01*
X225416928Y-94580145D01*
X225539414Y-94457659D01*
X225641232Y-94317519D01*
X225719873Y-94163176D01*
X225773402Y-93998432D01*
X225800500Y-93827342D01*
X225800500Y-93206333D01*
X226524500Y-93206333D01*
X226524500Y-93475128D01*
X226559582Y-93741611D01*
X226559583Y-93741616D01*
X226559584Y-93741622D01*
X226559585Y-93741624D01*
X226629152Y-94001255D01*
X226732011Y-94249581D01*
X226732019Y-94249597D01*
X226783019Y-94337930D01*
X226866413Y-94482372D01*
X226866415Y-94482375D01*
X226866416Y-94482376D01*
X227030042Y-94695619D01*
X227030048Y-94695626D01*
X227220104Y-94885682D01*
X227220110Y-94885687D01*
X227433359Y-95049318D01*
X227582968Y-95135695D01*
X227666133Y-95183711D01*
X227666149Y-95183719D01*
X227799381Y-95238905D01*
X227914474Y-95286578D01*
X228174109Y-95356147D01*
X228362319Y-95380924D01*
X228440602Y-95391231D01*
X228440603Y-95391231D01*
X228709398Y-95391231D01*
X228769905Y-95383265D01*
X228975891Y-95356147D01*
X229235526Y-95286578D01*
X229422457Y-95209148D01*
X229483850Y-95183719D01*
X229483853Y-95183717D01*
X229483859Y-95183715D01*
X229716641Y-95049318D01*
X229929890Y-94885687D01*
X230119956Y-94695621D01*
X230283587Y-94482372D01*
X230417984Y-94249590D01*
X230520847Y-94001257D01*
X230590416Y-93741622D01*
X230625500Y-93475128D01*
X230625500Y-93206334D01*
X230590416Y-92939840D01*
X230520847Y-92680205D01*
X230453777Y-92518283D01*
X230417988Y-92431880D01*
X230417980Y-92431864D01*
X230362831Y-92336344D01*
X230283587Y-92199090D01*
X230119956Y-91985841D01*
X230119951Y-91985835D01*
X229929895Y-91795779D01*
X229929888Y-91795773D01*
X229716645Y-91632147D01*
X229716644Y-91632146D01*
X229716641Y-91632144D01*
X229623832Y-91578561D01*
X229483866Y-91497750D01*
X229483850Y-91497742D01*
X229235524Y-91394883D01*
X229105708Y-91360099D01*
X228975891Y-91325315D01*
X228975885Y-91325314D01*
X228975880Y-91325313D01*
X228709398Y-91290231D01*
X228709397Y-91290231D01*
X228440603Y-91290231D01*
X228440602Y-91290231D01*
X228174119Y-91325313D01*
X228174112Y-91325314D01*
X228174109Y-91325315D01*
X228119239Y-91340017D01*
X227914475Y-91394883D01*
X227666149Y-91497742D01*
X227666133Y-91497750D01*
X227433354Y-91632147D01*
X227220111Y-91795773D01*
X227220104Y-91795779D01*
X227030048Y-91985835D01*
X227030042Y-91985842D01*
X226866416Y-92199085D01*
X226732019Y-92431864D01*
X226732011Y-92431880D01*
X226629152Y-92680206D01*
X226559585Y-92939837D01*
X226559582Y-92939850D01*
X226524500Y-93206333D01*
X225800500Y-93206333D01*
X225800500Y-92854120D01*
X225773402Y-92683030D01*
X225719873Y-92518286D01*
X225641232Y-92363943D01*
X225539414Y-92223803D01*
X225416928Y-92101317D01*
X225276788Y-91999499D01*
X225122445Y-91920858D01*
X224957701Y-91867329D01*
X224957699Y-91867328D01*
X224957698Y-91867328D01*
X224826271Y-91846512D01*
X224786611Y-91840231D01*
X224613389Y-91840231D01*
X224573728Y-91846512D01*
X224442302Y-91867328D01*
X224277552Y-91920859D01*
X224123211Y-91999499D01*
X224043256Y-92057590D01*
X223983072Y-92101317D01*
X223983070Y-92101319D01*
X223983069Y-92101319D01*
X223860588Y-92223800D01*
X223860588Y-92223801D01*
X223860586Y-92223803D01*
X223842368Y-92248878D01*
X223758768Y-92363942D01*
X223680128Y-92518283D01*
X223626597Y-92683033D01*
X223615120Y-92755500D01*
X223599500Y-92854120D01*
X222720500Y-92854120D01*
X222693402Y-92683030D01*
X222639873Y-92518286D01*
X222561232Y-92363943D01*
X222459414Y-92223803D01*
X222336928Y-92101317D01*
X222196788Y-91999499D01*
X222042445Y-91920858D01*
X221877701Y-91867329D01*
X221877699Y-91867328D01*
X221877698Y-91867328D01*
X221746271Y-91846512D01*
X221706611Y-91840231D01*
X221533389Y-91840231D01*
X221493728Y-91846512D01*
X221362302Y-91867328D01*
X221197552Y-91920859D01*
X221043211Y-91999499D01*
X220963256Y-92057590D01*
X220903072Y-92101317D01*
X220903070Y-92101319D01*
X220903069Y-92101319D01*
X220780587Y-92223801D01*
X220729818Y-92293679D01*
X220674487Y-92336344D01*
X220604874Y-92342323D01*
X220543079Y-92309717D01*
X220508722Y-92248878D01*
X220505500Y-92220793D01*
X220505500Y-90124010D01*
X220505500Y-90124000D01*
X220493947Y-90016544D01*
X220482741Y-89965033D01*
X220482637Y-89964722D01*
X220448616Y-89862502D01*
X220448613Y-89862496D01*
X220370828Y-89741462D01*
X220370825Y-89741457D01*
X220370820Y-89741451D01*
X220325076Y-89688659D01*
X220325072Y-89688656D01*
X220325070Y-89688653D01*
X220216336Y-89594433D01*
X220216333Y-89594431D01*
X220216331Y-89594430D01*
X220085465Y-89534664D01*
X220085460Y-89534662D01*
X220085459Y-89534662D01*
X220018420Y-89514977D01*
X220018422Y-89514977D01*
X220018417Y-89514976D01*
X219956347Y-89506052D01*
X219876000Y-89494500D01*
X177624000Y-89494500D01*
X177623991Y-89494500D01*
X177623990Y-89494501D01*
X177516549Y-89506052D01*
X177516537Y-89506054D01*
X177465027Y-89517260D01*
X177362502Y-89551383D01*
X177362496Y-89551386D01*
X177241462Y-89629171D01*
X177241451Y-89629179D01*
X177188659Y-89674923D01*
X177094433Y-89783664D01*
X177094430Y-89783668D01*
X177034664Y-89914534D01*
X177014976Y-89981582D01*
X177009949Y-90016549D01*
X176994500Y-90124000D01*
X176994500Y-95126000D01*
X176994501Y-95126009D01*
X177006052Y-95233450D01*
X177006054Y-95233462D01*
X177017260Y-95284972D01*
X177051383Y-95387497D01*
X177051386Y-95387503D01*
X177129171Y-95508537D01*
X177129179Y-95508548D01*
X177174923Y-95561340D01*
X177174926Y-95561343D01*
X177174930Y-95561347D01*
X177283664Y-95655567D01*
X177283667Y-95655568D01*
X177283668Y-95655569D01*
X177377925Y-95698616D01*
X177414541Y-95715338D01*
X177481580Y-95735023D01*
X177481584Y-95735024D01*
X177624000Y-95755500D01*
X177624003Y-95755500D01*
X179375990Y-95755500D01*
X179376000Y-95755500D01*
X179483456Y-95743947D01*
X179534967Y-95732741D01*
X179569197Y-95721347D01*
X179637497Y-95698616D01*
X179637501Y-95698613D01*
X179637504Y-95698613D01*
X179758543Y-95620825D01*
X179811347Y-95575070D01*
X179905567Y-95466336D01*
X179965338Y-95335459D01*
X179985023Y-95268420D01*
X179985024Y-95268416D01*
X180005500Y-95126000D01*
X180005500Y-94679963D01*
X180025185Y-94612924D01*
X180077989Y-94567169D01*
X180147147Y-94557225D01*
X180202386Y-94579646D01*
X180203069Y-94580142D01*
X180203072Y-94580145D01*
X180270348Y-94629024D01*
X180343207Y-94681960D01*
X180343209Y-94681961D01*
X180343212Y-94681963D01*
X180497555Y-94760604D01*
X180662299Y-94814133D01*
X180833389Y-94841231D01*
X180833390Y-94841231D01*
X181006610Y-94841231D01*
X181006611Y-94841231D01*
X181177701Y-94814133D01*
X181342445Y-94760604D01*
X181496788Y-94681963D01*
X181636928Y-94580145D01*
X181759414Y-94457659D01*
X181861232Y-94317519D01*
X181939873Y-94163176D01*
X181993402Y-93998432D01*
X182020500Y-93827342D01*
X182020500Y-92879500D01*
X182023050Y-92870814D01*
X182021762Y-92861853D01*
X182032740Y-92837812D01*
X182040185Y-92812461D01*
X182047025Y-92806533D01*
X182050787Y-92798297D01*
X182073021Y-92784007D01*
X182092989Y-92766706D01*
X182103503Y-92764418D01*
X182109565Y-92760523D01*
X182144500Y-92755500D01*
X182235500Y-92755500D01*
X182302539Y-92775185D01*
X182348294Y-92827989D01*
X182359500Y-92879500D01*
X182359500Y-93827342D01*
X182386598Y-93998432D01*
X182440127Y-94163176D01*
X182518768Y-94317519D01*
X182620586Y-94457659D01*
X182620588Y-94457661D01*
X182673181Y-94510254D01*
X182706666Y-94571577D01*
X182709500Y-94597935D01*
X182709500Y-96177770D01*
X182689815Y-96244809D01*
X182673181Y-96265451D01*
X179725451Y-99213181D01*
X179664128Y-99246666D01*
X179637770Y-99249500D01*
X165111230Y-99249500D01*
X165044191Y-99229815D01*
X164998436Y-99177011D01*
X164988492Y-99107853D01*
X165017517Y-99044297D01*
X165023549Y-99037819D01*
X166524549Y-97536819D01*
X166585872Y-97503334D01*
X166612230Y-97500500D01*
X175887771Y-97500500D01*
X175954810Y-97520185D01*
X175975453Y-97536820D01*
X176021580Y-97582948D01*
X176021584Y-97582951D01*
X176144498Y-97665080D01*
X176144511Y-97665087D01*
X176281082Y-97721656D01*
X176281087Y-97721658D01*
X176281091Y-97721658D01*
X176281092Y-97721659D01*
X176426079Y-97750500D01*
X176426082Y-97750500D01*
X180323920Y-97750500D01*
X180421462Y-97731096D01*
X180468913Y-97721658D01*
X180530798Y-97696024D01*
X180605496Y-97665084D01*
X180605496Y-97665083D01*
X180605501Y-97665080D01*
X180656374Y-97631088D01*
X180670560Y-97621608D01*
X180691995Y-97610150D01*
X180754179Y-97584394D01*
X180885289Y-97496789D01*
X180996789Y-97385289D01*
X181084394Y-97254179D01*
X181144737Y-97108497D01*
X181175500Y-96953842D01*
X181175500Y-96796158D01*
X181175500Y-96796155D01*
X181175499Y-96796153D01*
X181156058Y-96698416D01*
X181144737Y-96641503D01*
X181144735Y-96641498D01*
X181084397Y-96495827D01*
X181084390Y-96495814D01*
X180996789Y-96364711D01*
X180996786Y-96364707D01*
X180885292Y-96253213D01*
X180885288Y-96253210D01*
X180754185Y-96165609D01*
X180754172Y-96165602D01*
X180608501Y-96105264D01*
X180608489Y-96105261D01*
X180453845Y-96074500D01*
X180453842Y-96074500D01*
X180296158Y-96074500D01*
X180296155Y-96074500D01*
X180141510Y-96105261D01*
X180141498Y-96105264D01*
X179995827Y-96165602D01*
X179995815Y-96165609D01*
X179901541Y-96228602D01*
X179834864Y-96249480D01*
X179832650Y-96249500D01*
X176862230Y-96249500D01*
X176795191Y-96229815D01*
X176774548Y-96213180D01*
X176728421Y-96167052D01*
X176728414Y-96167046D01*
X176654729Y-96117812D01*
X176654729Y-96117813D01*
X176605491Y-96084913D01*
X176468917Y-96028343D01*
X176468907Y-96028340D01*
X176323920Y-95999500D01*
X176323918Y-95999500D01*
X166176082Y-95999500D01*
X166176080Y-95999500D01*
X166031092Y-96028340D01*
X166031086Y-96028342D01*
X165894508Y-96084914D01*
X165894496Y-96084921D01*
X165845269Y-96117813D01*
X165771588Y-96167044D01*
X165771580Y-96167050D01*
X158667050Y-103271580D01*
X158667044Y-103271588D01*
X158617812Y-103345268D01*
X158617813Y-103345269D01*
X158584921Y-103394496D01*
X158584914Y-103394508D01*
X158528342Y-103531086D01*
X158528340Y-103531092D01*
X158499500Y-103676079D01*
X158499500Y-103676082D01*
X158499500Y-130150444D01*
X158499500Y-130150446D01*
X158499499Y-130150446D01*
X150500500Y-130150446D01*
X150500500Y-93206333D01*
X169374500Y-93206333D01*
X169374500Y-93475128D01*
X169409582Y-93741611D01*
X169409583Y-93741616D01*
X169409584Y-93741622D01*
X169409585Y-93741624D01*
X169479152Y-94001255D01*
X169582011Y-94249581D01*
X169582019Y-94249597D01*
X169633019Y-94337930D01*
X169716413Y-94482372D01*
X169716415Y-94482375D01*
X169716416Y-94482376D01*
X169880042Y-94695619D01*
X169880048Y-94695626D01*
X170070104Y-94885682D01*
X170070110Y-94885687D01*
X170283359Y-95049318D01*
X170432968Y-95135695D01*
X170516133Y-95183711D01*
X170516149Y-95183719D01*
X170649381Y-95238905D01*
X170764474Y-95286578D01*
X171024109Y-95356147D01*
X171212319Y-95380924D01*
X171290602Y-95391231D01*
X171290603Y-95391231D01*
X171559398Y-95391231D01*
X171619905Y-95383265D01*
X171825891Y-95356147D01*
X172085526Y-95286578D01*
X172272457Y-95209148D01*
X172333850Y-95183719D01*
X172333853Y-95183717D01*
X172333859Y-95183715D01*
X172566641Y-95049318D01*
X172779890Y-94885687D01*
X172969956Y-94695621D01*
X173133587Y-94482372D01*
X173267984Y-94249590D01*
X173370847Y-94001257D01*
X173440416Y-93741622D01*
X173475500Y-93475128D01*
X173475500Y-93206334D01*
X173440416Y-92939840D01*
X173370847Y-92680205D01*
X173303777Y-92518283D01*
X173267988Y-92431880D01*
X173267980Y-92431864D01*
X173212831Y-92336344D01*
X173133587Y-92199090D01*
X172969956Y-91985841D01*
X172969951Y-91985835D01*
X172779895Y-91795779D01*
X172779888Y-91795773D01*
X172566645Y-91632147D01*
X172566644Y-91632146D01*
X172566641Y-91632144D01*
X172473832Y-91578561D01*
X172333866Y-91497750D01*
X172333850Y-91497742D01*
X172085524Y-91394883D01*
X171955708Y-91360099D01*
X171825891Y-91325315D01*
X171825885Y-91325314D01*
X171825880Y-91325313D01*
X171559398Y-91290231D01*
X171559397Y-91290231D01*
X171290603Y-91290231D01*
X171290602Y-91290231D01*
X171024119Y-91325313D01*
X171024112Y-91325314D01*
X171024109Y-91325315D01*
X170969239Y-91340017D01*
X170764475Y-91394883D01*
X170516149Y-91497742D01*
X170516133Y-91497750D01*
X170283354Y-91632147D01*
X170070111Y-91795773D01*
X170070104Y-91795779D01*
X169880048Y-91985835D01*
X169880042Y-91985842D01*
X169716416Y-92199085D01*
X169582019Y-92431864D01*
X169582011Y-92431880D01*
X169479152Y-92680206D01*
X169409585Y-92939837D01*
X169409582Y-92939850D01*
X169374500Y-93206333D01*
X150500500Y-93206333D01*
X150500500Y-45606333D01*
X169374500Y-45606333D01*
X169374500Y-45875128D01*
X169409582Y-46141611D01*
X169409583Y-46141616D01*
X169409584Y-46141622D01*
X169409585Y-46141624D01*
X169479152Y-46401255D01*
X169582011Y-46649581D01*
X169582019Y-46649597D01*
X169662830Y-46789563D01*
X169716413Y-46882372D01*
X169716415Y-46882375D01*
X169716416Y-46882376D01*
X169880042Y-47095619D01*
X169880048Y-47095626D01*
X170070104Y-47285682D01*
X170070110Y-47285687D01*
X170283359Y-47449318D01*
X170432968Y-47535695D01*
X170516133Y-47583711D01*
X170516149Y-47583719D01*
X170671008Y-47647863D01*
X170764474Y-47686578D01*
X171024109Y-47756147D01*
X171212319Y-47780924D01*
X171290602Y-47791231D01*
X171290603Y-47791231D01*
X171559398Y-47791231D01*
X171619905Y-47783265D01*
X171825891Y-47756147D01*
X172085526Y-47686578D01*
X172272457Y-47609148D01*
X172333850Y-47583719D01*
X172333853Y-47583717D01*
X172333859Y-47583715D01*
X172566641Y-47449318D01*
X172779890Y-47285687D01*
X172969956Y-47095621D01*
X173133587Y-46882372D01*
X173267984Y-46649590D01*
X173370847Y-46401257D01*
X173440416Y-46141622D01*
X173475500Y-45875128D01*
X173475500Y-45606334D01*
X173440416Y-45339840D01*
X173417447Y-45254120D01*
X174734500Y-45254120D01*
X174734500Y-46227342D01*
X174761598Y-46398432D01*
X174815127Y-46563176D01*
X174893768Y-46717519D01*
X174995586Y-46857659D01*
X175118072Y-46980145D01*
X175258212Y-47081963D01*
X175412555Y-47160604D01*
X175577299Y-47214133D01*
X175748389Y-47241231D01*
X175748390Y-47241231D01*
X175921610Y-47241231D01*
X175921611Y-47241231D01*
X176092701Y-47214133D01*
X176257445Y-47160604D01*
X176411788Y-47081963D01*
X176551928Y-46980145D01*
X176674414Y-46857659D01*
X176776232Y-46717519D01*
X176854873Y-46563176D01*
X176908402Y-46398432D01*
X176935500Y-46227342D01*
X176935500Y-45254120D01*
X177284500Y-45254120D01*
X177284500Y-46227342D01*
X177311598Y-46398432D01*
X177365127Y-46563176D01*
X177443768Y-46717519D01*
X177545586Y-46857659D01*
X177668072Y-46980145D01*
X177808212Y-47081963D01*
X177962555Y-47160604D01*
X178127299Y-47214133D01*
X178298389Y-47241231D01*
X178298390Y-47241231D01*
X178471610Y-47241231D01*
X178471611Y-47241231D01*
X178642701Y-47214133D01*
X178807445Y-47160604D01*
X178961788Y-47081963D01*
X179101928Y-46980145D01*
X179224414Y-46857659D01*
X179326232Y-46717519D01*
X179404873Y-46563176D01*
X179458402Y-46398432D01*
X179485500Y-46227342D01*
X179485500Y-45254120D01*
X179824500Y-45254120D01*
X179824500Y-46227342D01*
X179851598Y-46398432D01*
X179905127Y-46563176D01*
X179983768Y-46717519D01*
X180085586Y-46857659D01*
X180208072Y-46980145D01*
X180348212Y-47081963D01*
X180502555Y-47160604D01*
X180667299Y-47214133D01*
X180838389Y-47241231D01*
X180838390Y-47241231D01*
X181011610Y-47241231D01*
X181011611Y-47241231D01*
X181182701Y-47214133D01*
X181347445Y-47160604D01*
X181501788Y-47081963D01*
X181641928Y-46980145D01*
X181764414Y-46857659D01*
X181866232Y-46717519D01*
X181944873Y-46563176D01*
X181998402Y-46398432D01*
X182025500Y-46227342D01*
X182025500Y-45254120D01*
X182364500Y-45254120D01*
X182364500Y-46227342D01*
X182391598Y-46398432D01*
X182445127Y-46563176D01*
X182523768Y-46717519D01*
X182625586Y-46857659D01*
X182748072Y-46980145D01*
X182888212Y-47081963D01*
X183042555Y-47160604D01*
X183207299Y-47214133D01*
X183378389Y-47241231D01*
X183378390Y-47241231D01*
X183551610Y-47241231D01*
X183551611Y-47241231D01*
X183722701Y-47214133D01*
X183887445Y-47160604D01*
X184041788Y-47081963D01*
X184181928Y-46980145D01*
X184304414Y-46857659D01*
X184406232Y-46717519D01*
X184484873Y-46563176D01*
X184538402Y-46398432D01*
X184565500Y-46227342D01*
X184565500Y-45254120D01*
X184934500Y-45254120D01*
X184934500Y-46227342D01*
X184961598Y-46398432D01*
X185015127Y-46563176D01*
X185093768Y-46717519D01*
X185195586Y-46857659D01*
X185318072Y-46980145D01*
X185458212Y-47081963D01*
X185612555Y-47160604D01*
X185777299Y-47214133D01*
X185948389Y-47241231D01*
X185948390Y-47241231D01*
X186121610Y-47241231D01*
X186121611Y-47241231D01*
X186292701Y-47214133D01*
X186457445Y-47160604D01*
X186611788Y-47081963D01*
X186751928Y-46980145D01*
X186874414Y-46857659D01*
X186976232Y-46717519D01*
X187054873Y-46563176D01*
X187108402Y-46398432D01*
X187135500Y-46227342D01*
X187135500Y-45254120D01*
X187474500Y-45254120D01*
X187474500Y-46227342D01*
X187501598Y-46398432D01*
X187555127Y-46563176D01*
X187633768Y-46717519D01*
X187735586Y-46857659D01*
X187858072Y-46980145D01*
X187998212Y-47081963D01*
X188152555Y-47160604D01*
X188317299Y-47214133D01*
X188488389Y-47241231D01*
X188488390Y-47241231D01*
X188661610Y-47241231D01*
X188661611Y-47241231D01*
X188832701Y-47214133D01*
X188997445Y-47160604D01*
X189151788Y-47081963D01*
X189291928Y-46980145D01*
X189414414Y-46857659D01*
X189516232Y-46717519D01*
X189594873Y-46563176D01*
X189648402Y-46398432D01*
X189675500Y-46227342D01*
X189675500Y-45254120D01*
X190014500Y-45254120D01*
X190014500Y-46227342D01*
X190041598Y-46398432D01*
X190095127Y-46563176D01*
X190173768Y-46717519D01*
X190275586Y-46857659D01*
X190398072Y-46980145D01*
X190538212Y-47081963D01*
X190692555Y-47160604D01*
X190857299Y-47214133D01*
X191028389Y-47241231D01*
X191028390Y-47241231D01*
X191201610Y-47241231D01*
X191201611Y-47241231D01*
X191372701Y-47214133D01*
X191537445Y-47160604D01*
X191691788Y-47081963D01*
X191831928Y-46980145D01*
X191954414Y-46857659D01*
X192056232Y-46717519D01*
X192134873Y-46563176D01*
X192188402Y-46398432D01*
X192215500Y-46227342D01*
X192215500Y-45254120D01*
X192554500Y-45254120D01*
X192554500Y-46227342D01*
X192581598Y-46398432D01*
X192635127Y-46563176D01*
X192713768Y-46717519D01*
X192815586Y-46857659D01*
X192938072Y-46980145D01*
X193078212Y-47081963D01*
X193232555Y-47160604D01*
X193397299Y-47214133D01*
X193568389Y-47241231D01*
X193568390Y-47241231D01*
X193741610Y-47241231D01*
X193741611Y-47241231D01*
X193912701Y-47214133D01*
X194077445Y-47160604D01*
X194231788Y-47081963D01*
X194371928Y-46980145D01*
X194494414Y-46857659D01*
X194596232Y-46717519D01*
X194674873Y-46563176D01*
X194728402Y-46398432D01*
X194755500Y-46227342D01*
X194755500Y-45254120D01*
X195104500Y-45254120D01*
X195104500Y-46227342D01*
X195131598Y-46398432D01*
X195185127Y-46563176D01*
X195263768Y-46717519D01*
X195365586Y-46857659D01*
X195488072Y-46980145D01*
X195628212Y-47081963D01*
X195782555Y-47160604D01*
X195947299Y-47214133D01*
X196118389Y-47241231D01*
X196118390Y-47241231D01*
X196291610Y-47241231D01*
X196291611Y-47241231D01*
X196462701Y-47214133D01*
X196627445Y-47160604D01*
X196781788Y-47081963D01*
X196921928Y-46980145D01*
X197044414Y-46857659D01*
X197146232Y-46717519D01*
X197224873Y-46563176D01*
X197278402Y-46398432D01*
X197305500Y-46227342D01*
X197305500Y-45254120D01*
X197634500Y-45254120D01*
X197634500Y-46227342D01*
X197661598Y-46398432D01*
X197715127Y-46563176D01*
X197793768Y-46717519D01*
X197895586Y-46857659D01*
X198018072Y-46980145D01*
X198158212Y-47081963D01*
X198312555Y-47160604D01*
X198477299Y-47214133D01*
X198648389Y-47241231D01*
X198648390Y-47241231D01*
X198821610Y-47241231D01*
X198821611Y-47241231D01*
X198992701Y-47214133D01*
X199157445Y-47160604D01*
X199311788Y-47081963D01*
X199451928Y-46980145D01*
X199574414Y-46857659D01*
X199676232Y-46717519D01*
X199754873Y-46563176D01*
X199808402Y-46398432D01*
X199835500Y-46227342D01*
X199835500Y-45254120D01*
X200174500Y-45254120D01*
X200174500Y-46227342D01*
X200201598Y-46398432D01*
X200255127Y-46563176D01*
X200333768Y-46717519D01*
X200435586Y-46857659D01*
X200558072Y-46980145D01*
X200698212Y-47081963D01*
X200852555Y-47160604D01*
X201017299Y-47214133D01*
X201188389Y-47241231D01*
X201188390Y-47241231D01*
X201361610Y-47241231D01*
X201361611Y-47241231D01*
X201532701Y-47214133D01*
X201697445Y-47160604D01*
X201851788Y-47081963D01*
X201991928Y-46980145D01*
X202114414Y-46857659D01*
X202216232Y-46717519D01*
X202294873Y-46563176D01*
X202348402Y-46398432D01*
X202375500Y-46227342D01*
X202375500Y-45254120D01*
X202714500Y-45254120D01*
X202714500Y-46227342D01*
X202741598Y-46398432D01*
X202795127Y-46563176D01*
X202873768Y-46717519D01*
X202975586Y-46857659D01*
X203098072Y-46980145D01*
X203238212Y-47081963D01*
X203392555Y-47160604D01*
X203557299Y-47214133D01*
X203728389Y-47241231D01*
X203728390Y-47241231D01*
X203901610Y-47241231D01*
X203901611Y-47241231D01*
X204072701Y-47214133D01*
X204237445Y-47160604D01*
X204391788Y-47081963D01*
X204531928Y-46980145D01*
X204654414Y-46857659D01*
X204756232Y-46717519D01*
X204834873Y-46563176D01*
X204888402Y-46398432D01*
X204915500Y-46227342D01*
X204915500Y-45254120D01*
X205254500Y-45254120D01*
X205254500Y-46227342D01*
X205281598Y-46398432D01*
X205335127Y-46563176D01*
X205413768Y-46717519D01*
X205515586Y-46857659D01*
X205638072Y-46980145D01*
X205778212Y-47081963D01*
X205932555Y-47160604D01*
X206097299Y-47214133D01*
X206268389Y-47241231D01*
X206268390Y-47241231D01*
X206441610Y-47241231D01*
X206441611Y-47241231D01*
X206612701Y-47214133D01*
X206777445Y-47160604D01*
X206931788Y-47081963D01*
X207071928Y-46980145D01*
X207194414Y-46857659D01*
X207296232Y-46717519D01*
X207374873Y-46563176D01*
X207428402Y-46398432D01*
X207455500Y-46227342D01*
X207455500Y-45254120D01*
X207794500Y-45254120D01*
X207794500Y-46227342D01*
X207821598Y-46398432D01*
X207875127Y-46563176D01*
X207953768Y-46717519D01*
X208055586Y-46857659D01*
X208178072Y-46980145D01*
X208318212Y-47081963D01*
X208472555Y-47160604D01*
X208637299Y-47214133D01*
X208808389Y-47241231D01*
X208808390Y-47241231D01*
X208981610Y-47241231D01*
X208981611Y-47241231D01*
X209152701Y-47214133D01*
X209317445Y-47160604D01*
X209471788Y-47081963D01*
X209611928Y-46980145D01*
X209734414Y-46857659D01*
X209836232Y-46717519D01*
X209914873Y-46563176D01*
X209968402Y-46398432D01*
X209995500Y-46227342D01*
X209995500Y-45254120D01*
X210334500Y-45254120D01*
X210334500Y-46227342D01*
X210361598Y-46398432D01*
X210415127Y-46563176D01*
X210493768Y-46717519D01*
X210595586Y-46857659D01*
X210718072Y-46980145D01*
X210858212Y-47081963D01*
X211012555Y-47160604D01*
X211177299Y-47214133D01*
X211348389Y-47241231D01*
X211348390Y-47241231D01*
X211521610Y-47241231D01*
X211521611Y-47241231D01*
X211692701Y-47214133D01*
X211857445Y-47160604D01*
X212011788Y-47081963D01*
X212151928Y-46980145D01*
X212274414Y-46857659D01*
X212376232Y-46717519D01*
X212454873Y-46563176D01*
X212508402Y-46398432D01*
X212535500Y-46227342D01*
X212535500Y-45254120D01*
X212874500Y-45254120D01*
X212874500Y-46227342D01*
X212901598Y-46398432D01*
X212955127Y-46563176D01*
X213033768Y-46717519D01*
X213135586Y-46857659D01*
X213258072Y-46980145D01*
X213398212Y-47081963D01*
X213552555Y-47160604D01*
X213717299Y-47214133D01*
X213888389Y-47241231D01*
X213888390Y-47241231D01*
X214061610Y-47241231D01*
X214061611Y-47241231D01*
X214232701Y-47214133D01*
X214397445Y-47160604D01*
X214551788Y-47081963D01*
X214691928Y-46980145D01*
X214814414Y-46857659D01*
X214916232Y-46717519D01*
X214994873Y-46563176D01*
X215048402Y-46398432D01*
X215075500Y-46227342D01*
X215075500Y-45254120D01*
X215444500Y-45254120D01*
X215444500Y-46227342D01*
X215471598Y-46398432D01*
X215525127Y-46563176D01*
X215603768Y-46717519D01*
X215705586Y-46857659D01*
X215828072Y-46980145D01*
X215968212Y-47081963D01*
X216122555Y-47160604D01*
X216287299Y-47214133D01*
X216458389Y-47241231D01*
X216458390Y-47241231D01*
X216631610Y-47241231D01*
X216631611Y-47241231D01*
X216802701Y-47214133D01*
X216967445Y-47160604D01*
X217121788Y-47081963D01*
X217261928Y-46980145D01*
X217384414Y-46857659D01*
X217486232Y-46717519D01*
X217564873Y-46563176D01*
X217618402Y-46398432D01*
X217645500Y-46227342D01*
X217645500Y-45254120D01*
X217984500Y-45254120D01*
X217984500Y-46227342D01*
X218011598Y-46398432D01*
X218065127Y-46563176D01*
X218143768Y-46717519D01*
X218245586Y-46857659D01*
X218368072Y-46980145D01*
X218508212Y-47081963D01*
X218662555Y-47160604D01*
X218827299Y-47214133D01*
X218998389Y-47241231D01*
X218998390Y-47241231D01*
X219171610Y-47241231D01*
X219171611Y-47241231D01*
X219342701Y-47214133D01*
X219507445Y-47160604D01*
X219661788Y-47081963D01*
X219801928Y-46980145D01*
X219924414Y-46857659D01*
X220026232Y-46717519D01*
X220104873Y-46563176D01*
X220158402Y-46398432D01*
X220185500Y-46227342D01*
X220185500Y-45254120D01*
X220524500Y-45254120D01*
X220524500Y-46227342D01*
X220551598Y-46398432D01*
X220605127Y-46563176D01*
X220683768Y-46717519D01*
X220785586Y-46857659D01*
X220908072Y-46980145D01*
X221048212Y-47081963D01*
X221202555Y-47160604D01*
X221367299Y-47214133D01*
X221538389Y-47241231D01*
X221538390Y-47241231D01*
X221711610Y-47241231D01*
X221711611Y-47241231D01*
X221882701Y-47214133D01*
X222047445Y-47160604D01*
X222201788Y-47081963D01*
X222341928Y-46980145D01*
X222464414Y-46857659D01*
X222566232Y-46717519D01*
X222644873Y-46563176D01*
X222698402Y-46398432D01*
X222725500Y-46227342D01*
X222725500Y-45254120D01*
X223604500Y-45254120D01*
X223604500Y-46227342D01*
X223631598Y-46398432D01*
X223685127Y-46563176D01*
X223763768Y-46717519D01*
X223865586Y-46857659D01*
X223988072Y-46980145D01*
X224128212Y-47081963D01*
X224282555Y-47160604D01*
X224447299Y-47214133D01*
X224618389Y-47241231D01*
X224618390Y-47241231D01*
X224791610Y-47241231D01*
X224791611Y-47241231D01*
X224962701Y-47214133D01*
X225127445Y-47160604D01*
X225281788Y-47081963D01*
X225421928Y-46980145D01*
X225544414Y-46857659D01*
X225646232Y-46717519D01*
X225724873Y-46563176D01*
X225778402Y-46398432D01*
X225805500Y-46227342D01*
X225805500Y-45606333D01*
X226524500Y-45606333D01*
X226524500Y-45875128D01*
X226559582Y-46141611D01*
X226559583Y-46141616D01*
X226559584Y-46141622D01*
X226559585Y-46141624D01*
X226629152Y-46401255D01*
X226732011Y-46649581D01*
X226732019Y-46649597D01*
X226812830Y-46789563D01*
X226866413Y-46882372D01*
X226866415Y-46882375D01*
X226866416Y-46882376D01*
X227030042Y-47095619D01*
X227030048Y-47095626D01*
X227220104Y-47285682D01*
X227220110Y-47285687D01*
X227433359Y-47449318D01*
X227582968Y-47535695D01*
X227666133Y-47583711D01*
X227666149Y-47583719D01*
X227821008Y-47647863D01*
X227914474Y-47686578D01*
X228174109Y-47756147D01*
X228362319Y-47780924D01*
X228440602Y-47791231D01*
X228440603Y-47791231D01*
X228709398Y-47791231D01*
X228769905Y-47783265D01*
X228975891Y-47756147D01*
X229235526Y-47686578D01*
X229422457Y-47609148D01*
X229483850Y-47583719D01*
X229483853Y-47583717D01*
X229483859Y-47583715D01*
X229716641Y-47449318D01*
X229929890Y-47285687D01*
X230119956Y-47095621D01*
X230283587Y-46882372D01*
X230417984Y-46649590D01*
X230520847Y-46401257D01*
X230590416Y-46141622D01*
X230625500Y-45875128D01*
X230625500Y-45606334D01*
X230590416Y-45339840D01*
X230520847Y-45080205D01*
X230453777Y-44918283D01*
X230417988Y-44831880D01*
X230417980Y-44831864D01*
X230369964Y-44748699D01*
X230283587Y-44599090D01*
X230119956Y-44385841D01*
X230119951Y-44385835D01*
X229929895Y-44195779D01*
X229929888Y-44195773D01*
X229716645Y-44032147D01*
X229716644Y-44032146D01*
X229716641Y-44032144D01*
X229623832Y-43978561D01*
X229483866Y-43897750D01*
X229483850Y-43897742D01*
X229235524Y-43794883D01*
X229105708Y-43760099D01*
X228975891Y-43725315D01*
X228975885Y-43725314D01*
X228975880Y-43725313D01*
X228709398Y-43690231D01*
X228709397Y-43690231D01*
X228440603Y-43690231D01*
X228440602Y-43690231D01*
X228174119Y-43725313D01*
X228174112Y-43725314D01*
X228174109Y-43725315D01*
X228119239Y-43740017D01*
X227914475Y-43794883D01*
X227666149Y-43897742D01*
X227666133Y-43897750D01*
X227433354Y-44032147D01*
X227220111Y-44195773D01*
X227220104Y-44195779D01*
X227030048Y-44385835D01*
X227030042Y-44385842D01*
X226866416Y-44599085D01*
X226732019Y-44831864D01*
X226732011Y-44831880D01*
X226629152Y-45080206D01*
X226559585Y-45339837D01*
X226559582Y-45339850D01*
X226524500Y-45606333D01*
X225805500Y-45606333D01*
X225805500Y-45254120D01*
X225778402Y-45083030D01*
X225724873Y-44918286D01*
X225646232Y-44763943D01*
X225544414Y-44623803D01*
X225421928Y-44501317D01*
X225281788Y-44399499D01*
X225127445Y-44320858D01*
X224962701Y-44267329D01*
X224962699Y-44267328D01*
X224962698Y-44267328D01*
X224831271Y-44246512D01*
X224791611Y-44240231D01*
X224618389Y-44240231D01*
X224578728Y-44246512D01*
X224447302Y-44267328D01*
X224282552Y-44320859D01*
X224128211Y-44399499D01*
X224048256Y-44457590D01*
X223988072Y-44501317D01*
X223988070Y-44501319D01*
X223988069Y-44501319D01*
X223865588Y-44623800D01*
X223865588Y-44623801D01*
X223865586Y-44623803D01*
X223821859Y-44683987D01*
X223763768Y-44763942D01*
X223685128Y-44918283D01*
X223631597Y-45083033D01*
X223604500Y-45254120D01*
X222725500Y-45254120D01*
X222698402Y-45083030D01*
X222644873Y-44918286D01*
X222566232Y-44763943D01*
X222464414Y-44623803D01*
X222341928Y-44501317D01*
X222201788Y-44399499D01*
X222047445Y-44320858D01*
X221882701Y-44267329D01*
X221882699Y-44267328D01*
X221882698Y-44267328D01*
X221751271Y-44246512D01*
X221711611Y-44240231D01*
X221538389Y-44240231D01*
X221498728Y-44246512D01*
X221367302Y-44267328D01*
X221202552Y-44320859D01*
X221048211Y-44399499D01*
X220968256Y-44457590D01*
X220908072Y-44501317D01*
X220908070Y-44501319D01*
X220908069Y-44501319D01*
X220785588Y-44623800D01*
X220785588Y-44623801D01*
X220785586Y-44623803D01*
X220741859Y-44683987D01*
X220683768Y-44763942D01*
X220605128Y-44918283D01*
X220551597Y-45083033D01*
X220524500Y-45254120D01*
X220185500Y-45254120D01*
X220158402Y-45083030D01*
X220104873Y-44918286D01*
X220026232Y-44763943D01*
X219924414Y-44623803D01*
X219801928Y-44501317D01*
X219661788Y-44399499D01*
X219507445Y-44320858D01*
X219342701Y-44267329D01*
X219342699Y-44267328D01*
X219342698Y-44267328D01*
X219211271Y-44246512D01*
X219171611Y-44240231D01*
X218998389Y-44240231D01*
X218958728Y-44246512D01*
X218827302Y-44267328D01*
X218662552Y-44320859D01*
X218508211Y-44399499D01*
X218428256Y-44457590D01*
X218368072Y-44501317D01*
X218368070Y-44501319D01*
X218368069Y-44501319D01*
X218245588Y-44623800D01*
X218245588Y-44623801D01*
X218245586Y-44623803D01*
X218201859Y-44683987D01*
X218143768Y-44763942D01*
X218065128Y-44918283D01*
X218011597Y-45083033D01*
X217984500Y-45254120D01*
X217645500Y-45254120D01*
X217618402Y-45083030D01*
X217564873Y-44918286D01*
X217486232Y-44763943D01*
X217384414Y-44623803D01*
X217261928Y-44501317D01*
X217121788Y-44399499D01*
X216967445Y-44320858D01*
X216802701Y-44267329D01*
X216802699Y-44267328D01*
X216802698Y-44267328D01*
X216671271Y-44246512D01*
X216631611Y-44240231D01*
X216458389Y-44240231D01*
X216418728Y-44246512D01*
X216287302Y-44267328D01*
X216122552Y-44320859D01*
X215968211Y-44399499D01*
X215888256Y-44457590D01*
X215828072Y-44501317D01*
X215828070Y-44501319D01*
X215828069Y-44501319D01*
X215705588Y-44623800D01*
X215705588Y-44623801D01*
X215705586Y-44623803D01*
X215661859Y-44683987D01*
X215603768Y-44763942D01*
X215525128Y-44918283D01*
X215471597Y-45083033D01*
X215444500Y-45254120D01*
X215075500Y-45254120D01*
X215048402Y-45083030D01*
X214994873Y-44918286D01*
X214916232Y-44763943D01*
X214814414Y-44623803D01*
X214691928Y-44501317D01*
X214551788Y-44399499D01*
X214397445Y-44320858D01*
X214232701Y-44267329D01*
X214232699Y-44267328D01*
X214232698Y-44267328D01*
X214101271Y-44246512D01*
X214061611Y-44240231D01*
X213888389Y-44240231D01*
X213848728Y-44246512D01*
X213717302Y-44267328D01*
X213552552Y-44320859D01*
X213398211Y-44399499D01*
X213318256Y-44457590D01*
X213258072Y-44501317D01*
X213258070Y-44501319D01*
X213258069Y-44501319D01*
X213135588Y-44623800D01*
X213135588Y-44623801D01*
X213135586Y-44623803D01*
X213091859Y-44683987D01*
X213033768Y-44763942D01*
X212955128Y-44918283D01*
X212901597Y-45083033D01*
X212874500Y-45254120D01*
X212535500Y-45254120D01*
X212508402Y-45083030D01*
X212454873Y-44918286D01*
X212376232Y-44763943D01*
X212274414Y-44623803D01*
X212151928Y-44501317D01*
X212011788Y-44399499D01*
X211857445Y-44320858D01*
X211692701Y-44267329D01*
X211692699Y-44267328D01*
X211692698Y-44267328D01*
X211561271Y-44246512D01*
X211521611Y-44240231D01*
X211348389Y-44240231D01*
X211308728Y-44246512D01*
X211177302Y-44267328D01*
X211012552Y-44320859D01*
X210858211Y-44399499D01*
X210778256Y-44457590D01*
X210718072Y-44501317D01*
X210718070Y-44501319D01*
X210718069Y-44501319D01*
X210595588Y-44623800D01*
X210595588Y-44623801D01*
X210595586Y-44623803D01*
X210551859Y-44683987D01*
X210493768Y-44763942D01*
X210415128Y-44918283D01*
X210361597Y-45083033D01*
X210334500Y-45254120D01*
X209995500Y-45254120D01*
X209968402Y-45083030D01*
X209914873Y-44918286D01*
X209836232Y-44763943D01*
X209734414Y-44623803D01*
X209611928Y-44501317D01*
X209471788Y-44399499D01*
X209317445Y-44320858D01*
X209152701Y-44267329D01*
X209152699Y-44267328D01*
X209152698Y-44267328D01*
X209021271Y-44246512D01*
X208981611Y-44240231D01*
X208808389Y-44240231D01*
X208768728Y-44246512D01*
X208637302Y-44267328D01*
X208472552Y-44320859D01*
X208318211Y-44399499D01*
X208238256Y-44457590D01*
X208178072Y-44501317D01*
X208178070Y-44501319D01*
X208178069Y-44501319D01*
X208055588Y-44623800D01*
X208055588Y-44623801D01*
X208055586Y-44623803D01*
X208011859Y-44683987D01*
X207953768Y-44763942D01*
X207875128Y-44918283D01*
X207821597Y-45083033D01*
X207794500Y-45254120D01*
X207455500Y-45254120D01*
X207428402Y-45083030D01*
X207374873Y-44918286D01*
X207296232Y-44763943D01*
X207194414Y-44623803D01*
X207071928Y-44501317D01*
X206931788Y-44399499D01*
X206777445Y-44320858D01*
X206612701Y-44267329D01*
X206612699Y-44267328D01*
X206612698Y-44267328D01*
X206481271Y-44246512D01*
X206441611Y-44240231D01*
X206268389Y-44240231D01*
X206228728Y-44246512D01*
X206097302Y-44267328D01*
X205932552Y-44320859D01*
X205778211Y-44399499D01*
X205698256Y-44457590D01*
X205638072Y-44501317D01*
X205638070Y-44501319D01*
X205638069Y-44501319D01*
X205515588Y-44623800D01*
X205515588Y-44623801D01*
X205515586Y-44623803D01*
X205471859Y-44683987D01*
X205413768Y-44763942D01*
X205335128Y-44918283D01*
X205281597Y-45083033D01*
X205254500Y-45254120D01*
X204915500Y-45254120D01*
X204888402Y-45083030D01*
X204834873Y-44918286D01*
X204756232Y-44763943D01*
X204654414Y-44623803D01*
X204531928Y-44501317D01*
X204391788Y-44399499D01*
X204237445Y-44320858D01*
X204072701Y-44267329D01*
X204072699Y-44267328D01*
X204072698Y-44267328D01*
X203941271Y-44246512D01*
X203901611Y-44240231D01*
X203728389Y-44240231D01*
X203688728Y-44246512D01*
X203557302Y-44267328D01*
X203392552Y-44320859D01*
X203238211Y-44399499D01*
X203158256Y-44457590D01*
X203098072Y-44501317D01*
X203098070Y-44501319D01*
X203098069Y-44501319D01*
X202975588Y-44623800D01*
X202975588Y-44623801D01*
X202975586Y-44623803D01*
X202931859Y-44683987D01*
X202873768Y-44763942D01*
X202795128Y-44918283D01*
X202741597Y-45083033D01*
X202714500Y-45254120D01*
X202375500Y-45254120D01*
X202348402Y-45083030D01*
X202294873Y-44918286D01*
X202216232Y-44763943D01*
X202114414Y-44623803D01*
X201991928Y-44501317D01*
X201851788Y-44399499D01*
X201697445Y-44320858D01*
X201532701Y-44267329D01*
X201532699Y-44267328D01*
X201532698Y-44267328D01*
X201401271Y-44246512D01*
X201361611Y-44240231D01*
X201188389Y-44240231D01*
X201148728Y-44246512D01*
X201017302Y-44267328D01*
X200852552Y-44320859D01*
X200698211Y-44399499D01*
X200618256Y-44457590D01*
X200558072Y-44501317D01*
X200558070Y-44501319D01*
X200558069Y-44501319D01*
X200435588Y-44623800D01*
X200435588Y-44623801D01*
X200435586Y-44623803D01*
X200391859Y-44683987D01*
X200333768Y-44763942D01*
X200255128Y-44918283D01*
X200201597Y-45083033D01*
X200174500Y-45254120D01*
X199835500Y-45254120D01*
X199808402Y-45083030D01*
X199754873Y-44918286D01*
X199676232Y-44763943D01*
X199574414Y-44623803D01*
X199451928Y-44501317D01*
X199311788Y-44399499D01*
X199157445Y-44320858D01*
X198992701Y-44267329D01*
X198992699Y-44267328D01*
X198992698Y-44267328D01*
X198861271Y-44246512D01*
X198821611Y-44240231D01*
X198648389Y-44240231D01*
X198608728Y-44246512D01*
X198477302Y-44267328D01*
X198312552Y-44320859D01*
X198158211Y-44399499D01*
X198078256Y-44457590D01*
X198018072Y-44501317D01*
X198018070Y-44501319D01*
X198018069Y-44501319D01*
X197895588Y-44623800D01*
X197895588Y-44623801D01*
X197895586Y-44623803D01*
X197851859Y-44683987D01*
X197793768Y-44763942D01*
X197715128Y-44918283D01*
X197661597Y-45083033D01*
X197634500Y-45254120D01*
X197305500Y-45254120D01*
X197278402Y-45083030D01*
X197224873Y-44918286D01*
X197146232Y-44763943D01*
X197044414Y-44623803D01*
X196921928Y-44501317D01*
X196781788Y-44399499D01*
X196627445Y-44320858D01*
X196462701Y-44267329D01*
X196462699Y-44267328D01*
X196462698Y-44267328D01*
X196331271Y-44246512D01*
X196291611Y-44240231D01*
X196118389Y-44240231D01*
X196078728Y-44246512D01*
X195947302Y-44267328D01*
X195782552Y-44320859D01*
X195628211Y-44399499D01*
X195548256Y-44457590D01*
X195488072Y-44501317D01*
X195488070Y-44501319D01*
X195488069Y-44501319D01*
X195365588Y-44623800D01*
X195365588Y-44623801D01*
X195365586Y-44623803D01*
X195321859Y-44683987D01*
X195263768Y-44763942D01*
X195185128Y-44918283D01*
X195131597Y-45083033D01*
X195104500Y-45254120D01*
X194755500Y-45254120D01*
X194728402Y-45083030D01*
X194674873Y-44918286D01*
X194596232Y-44763943D01*
X194494414Y-44623803D01*
X194371928Y-44501317D01*
X194231788Y-44399499D01*
X194077445Y-44320858D01*
X193912701Y-44267329D01*
X193912699Y-44267328D01*
X193912698Y-44267328D01*
X193781271Y-44246512D01*
X193741611Y-44240231D01*
X193568389Y-44240231D01*
X193528728Y-44246512D01*
X193397302Y-44267328D01*
X193232552Y-44320859D01*
X193078211Y-44399499D01*
X192998256Y-44457590D01*
X192938072Y-44501317D01*
X192938070Y-44501319D01*
X192938069Y-44501319D01*
X192815588Y-44623800D01*
X192815588Y-44623801D01*
X192815586Y-44623803D01*
X192771859Y-44683987D01*
X192713768Y-44763942D01*
X192635128Y-44918283D01*
X192581597Y-45083033D01*
X192554500Y-45254120D01*
X192215500Y-45254120D01*
X192188402Y-45083030D01*
X192134873Y-44918286D01*
X192056232Y-44763943D01*
X191954414Y-44623803D01*
X191831928Y-44501317D01*
X191691788Y-44399499D01*
X191537445Y-44320858D01*
X191372701Y-44267329D01*
X191372699Y-44267328D01*
X191372698Y-44267328D01*
X191241271Y-44246512D01*
X191201611Y-44240231D01*
X191028389Y-44240231D01*
X190988728Y-44246512D01*
X190857302Y-44267328D01*
X190692552Y-44320859D01*
X190538211Y-44399499D01*
X190458256Y-44457590D01*
X190398072Y-44501317D01*
X190398070Y-44501319D01*
X190398069Y-44501319D01*
X190275588Y-44623800D01*
X190275588Y-44623801D01*
X190275586Y-44623803D01*
X190231859Y-44683987D01*
X190173768Y-44763942D01*
X190095128Y-44918283D01*
X190041597Y-45083033D01*
X190014500Y-45254120D01*
X189675500Y-45254120D01*
X189648402Y-45083030D01*
X189594873Y-44918286D01*
X189516232Y-44763943D01*
X189414414Y-44623803D01*
X189291928Y-44501317D01*
X189151788Y-44399499D01*
X188997445Y-44320858D01*
X188832701Y-44267329D01*
X188832699Y-44267328D01*
X188832698Y-44267328D01*
X188701271Y-44246512D01*
X188661611Y-44240231D01*
X188488389Y-44240231D01*
X188448728Y-44246512D01*
X188317302Y-44267328D01*
X188152552Y-44320859D01*
X187998211Y-44399499D01*
X187918256Y-44457590D01*
X187858072Y-44501317D01*
X187858070Y-44501319D01*
X187858069Y-44501319D01*
X187735588Y-44623800D01*
X187735588Y-44623801D01*
X187735586Y-44623803D01*
X187691859Y-44683987D01*
X187633768Y-44763942D01*
X187555128Y-44918283D01*
X187501597Y-45083033D01*
X187474500Y-45254120D01*
X187135500Y-45254120D01*
X187108402Y-45083030D01*
X187054873Y-44918286D01*
X186976232Y-44763943D01*
X186874414Y-44623803D01*
X186751928Y-44501317D01*
X186611788Y-44399499D01*
X186457445Y-44320858D01*
X186292701Y-44267329D01*
X186292699Y-44267328D01*
X186292698Y-44267328D01*
X186161271Y-44246512D01*
X186121611Y-44240231D01*
X185948389Y-44240231D01*
X185908728Y-44246512D01*
X185777302Y-44267328D01*
X185612552Y-44320859D01*
X185458211Y-44399499D01*
X185378256Y-44457590D01*
X185318072Y-44501317D01*
X185318070Y-44501319D01*
X185318069Y-44501319D01*
X185195588Y-44623800D01*
X185195588Y-44623801D01*
X185195586Y-44623803D01*
X185151859Y-44683987D01*
X185093768Y-44763942D01*
X185015128Y-44918283D01*
X184961597Y-45083033D01*
X184934500Y-45254120D01*
X184565500Y-45254120D01*
X184538402Y-45083030D01*
X184484873Y-44918286D01*
X184406232Y-44763943D01*
X184304414Y-44623803D01*
X184181928Y-44501317D01*
X184041788Y-44399499D01*
X183887445Y-44320858D01*
X183722701Y-44267329D01*
X183722699Y-44267328D01*
X183722698Y-44267328D01*
X183591271Y-44246512D01*
X183551611Y-44240231D01*
X183378389Y-44240231D01*
X183338728Y-44246512D01*
X183207302Y-44267328D01*
X183042552Y-44320859D01*
X182888211Y-44399499D01*
X182808256Y-44457590D01*
X182748072Y-44501317D01*
X182748070Y-44501319D01*
X182748069Y-44501319D01*
X182625588Y-44623800D01*
X182625588Y-44623801D01*
X182625586Y-44623803D01*
X182581859Y-44683987D01*
X182523768Y-44763942D01*
X182445128Y-44918283D01*
X182391597Y-45083033D01*
X182364500Y-45254120D01*
X182025500Y-45254120D01*
X181998402Y-45083030D01*
X181944873Y-44918286D01*
X181866232Y-44763943D01*
X181764414Y-44623803D01*
X181641928Y-44501317D01*
X181501788Y-44399499D01*
X181347445Y-44320858D01*
X181182701Y-44267329D01*
X181182699Y-44267328D01*
X181182698Y-44267328D01*
X181051271Y-44246512D01*
X181011611Y-44240231D01*
X180838389Y-44240231D01*
X180798728Y-44246512D01*
X180667302Y-44267328D01*
X180502552Y-44320859D01*
X180348211Y-44399499D01*
X180268256Y-44457590D01*
X180208072Y-44501317D01*
X180208070Y-44501319D01*
X180208069Y-44501319D01*
X180085588Y-44623800D01*
X180085588Y-44623801D01*
X180085586Y-44623803D01*
X180041859Y-44683987D01*
X179983768Y-44763942D01*
X179905128Y-44918283D01*
X179851597Y-45083033D01*
X179824500Y-45254120D01*
X179485500Y-45254120D01*
X179458402Y-45083030D01*
X179404873Y-44918286D01*
X179326232Y-44763943D01*
X179224414Y-44623803D01*
X179101928Y-44501317D01*
X178961788Y-44399499D01*
X178807445Y-44320858D01*
X178642701Y-44267329D01*
X178642699Y-44267328D01*
X178642698Y-44267328D01*
X178511271Y-44246512D01*
X178471611Y-44240231D01*
X178298389Y-44240231D01*
X178258728Y-44246512D01*
X178127302Y-44267328D01*
X177962552Y-44320859D01*
X177808211Y-44399499D01*
X177728256Y-44457590D01*
X177668072Y-44501317D01*
X177668070Y-44501319D01*
X177668069Y-44501319D01*
X177545588Y-44623800D01*
X177545588Y-44623801D01*
X177545586Y-44623803D01*
X177501859Y-44683987D01*
X177443768Y-44763942D01*
X177365128Y-44918283D01*
X177311597Y-45083033D01*
X177284500Y-45254120D01*
X176935500Y-45254120D01*
X176908402Y-45083030D01*
X176854873Y-44918286D01*
X176776232Y-44763943D01*
X176674414Y-44623803D01*
X176551928Y-44501317D01*
X176411788Y-44399499D01*
X176257445Y-44320858D01*
X176092701Y-44267329D01*
X176092699Y-44267328D01*
X176092698Y-44267328D01*
X175961271Y-44246512D01*
X175921611Y-44240231D01*
X175748389Y-44240231D01*
X175708728Y-44246512D01*
X175577302Y-44267328D01*
X175412552Y-44320859D01*
X175258211Y-44399499D01*
X175178256Y-44457590D01*
X175118072Y-44501317D01*
X175118070Y-44501319D01*
X175118069Y-44501319D01*
X174995588Y-44623800D01*
X174995588Y-44623801D01*
X174995586Y-44623803D01*
X174951859Y-44683987D01*
X174893768Y-44763942D01*
X174815128Y-44918283D01*
X174761597Y-45083033D01*
X174734500Y-45254120D01*
X173417447Y-45254120D01*
X173370847Y-45080205D01*
X173303777Y-44918283D01*
X173267988Y-44831880D01*
X173267980Y-44831864D01*
X173219964Y-44748699D01*
X173133587Y-44599090D01*
X172969956Y-44385841D01*
X172969951Y-44385835D01*
X172779895Y-44195779D01*
X172779888Y-44195773D01*
X172566645Y-44032147D01*
X172566644Y-44032146D01*
X172566641Y-44032144D01*
X172473832Y-43978561D01*
X172333866Y-43897750D01*
X172333850Y-43897742D01*
X172085524Y-43794883D01*
X171955708Y-43760099D01*
X171825891Y-43725315D01*
X171825885Y-43725314D01*
X171825880Y-43725313D01*
X171559398Y-43690231D01*
X171559397Y-43690231D01*
X171290603Y-43690231D01*
X171290602Y-43690231D01*
X171024119Y-43725313D01*
X171024112Y-43725314D01*
X171024109Y-43725315D01*
X170969239Y-43740017D01*
X170764475Y-43794883D01*
X170516149Y-43897742D01*
X170516133Y-43897750D01*
X170283354Y-44032147D01*
X170070111Y-44195773D01*
X170070104Y-44195779D01*
X169880048Y-44385835D01*
X169880042Y-44385842D01*
X169716416Y-44599085D01*
X169582019Y-44831864D01*
X169582011Y-44831880D01*
X169479152Y-45080206D01*
X169409585Y-45339837D01*
X169409582Y-45339850D01*
X169374500Y-45606333D01*
X150500500Y-45606333D01*
X150500500Y-39124500D01*
X150520185Y-39057461D01*
X150572989Y-39011706D01*
X150624500Y-39000500D01*
X249375500Y-39000500D01*
X249442539Y-39020185D01*
G37*
G04 #@! TD.AperFunction*
M02*
