%TF.GenerationSoftware,KiCad,Pcbnew,9.0.3*%
%TF.CreationDate,2025-09-17T15:29:18+03:00*%
%TF.ProjectId,PortentaH7,506f7274-656e-4746-9148-372e6b696361,rev?*%
%TF.SameCoordinates,Original*%
%TF.FileFunction,Drillmap*%
%TF.FilePolarity,Positive*%
%FSLAX45Y45*%
G04 Gerber Fmt 4.5, Leading zero omitted, Abs format (unit mm)*
G04 Created by KiCad (PCBNEW 9.0.3) date 2025-09-17 15:29:18*
%MOMM*%
%LPD*%
G01*
G04 APERTURE LIST*
%ADD10C,0.050000*%
%ADD11C,0.200000*%
%ADD12C,0.225000*%
G04 APERTURE END LIST*
D10*
X15000000Y-3850000D02*
X25000000Y-3850000D01*
X25000000Y-14700000D01*
X15000000Y-14700000D01*
X15000000Y-3850000D01*
D11*
D12*
X16788500Y-10620500D02*
X17013500Y-10845500D01*
X17013500Y-10620500D02*
X16788500Y-10845500D01*
X16788500Y-12754500D02*
X17013500Y-12979500D01*
X17013500Y-12754500D02*
X16788500Y-12979500D01*
X22986500Y-10620500D02*
X23211500Y-10845500D01*
X23211500Y-10620500D02*
X22986500Y-10845500D01*
X22986500Y-12754500D02*
X23211500Y-12979500D01*
X23211500Y-12754500D02*
X22986500Y-12979500D01*
D11*
X15258277Y-15013984D02*
X15258277Y-14813984D01*
X15258277Y-14813984D02*
X15305896Y-14813984D01*
X15305896Y-14813984D02*
X15334467Y-14823508D01*
X15334467Y-14823508D02*
X15353515Y-14842555D01*
X15353515Y-14842555D02*
X15363039Y-14861603D01*
X15363039Y-14861603D02*
X15372562Y-14899698D01*
X15372562Y-14899698D02*
X15372562Y-14928269D01*
X15372562Y-14928269D02*
X15363039Y-14966365D01*
X15363039Y-14966365D02*
X15353515Y-14985412D01*
X15353515Y-14985412D02*
X15334467Y-15004460D01*
X15334467Y-15004460D02*
X15305896Y-15013984D01*
X15305896Y-15013984D02*
X15258277Y-15013984D01*
X15458277Y-15013984D02*
X15458277Y-14880650D01*
X15458277Y-14918746D02*
X15467801Y-14899698D01*
X15467801Y-14899698D02*
X15477324Y-14890174D01*
X15477324Y-14890174D02*
X15496372Y-14880650D01*
X15496372Y-14880650D02*
X15515420Y-14880650D01*
X15582086Y-15013984D02*
X15582086Y-14880650D01*
X15582086Y-14813984D02*
X15572562Y-14823508D01*
X15572562Y-14823508D02*
X15582086Y-14833031D01*
X15582086Y-14833031D02*
X15591610Y-14823508D01*
X15591610Y-14823508D02*
X15582086Y-14813984D01*
X15582086Y-14813984D02*
X15582086Y-14833031D01*
X15705896Y-15013984D02*
X15686848Y-15004460D01*
X15686848Y-15004460D02*
X15677324Y-14985412D01*
X15677324Y-14985412D02*
X15677324Y-14813984D01*
X15810658Y-15013984D02*
X15791610Y-15004460D01*
X15791610Y-15004460D02*
X15782086Y-14985412D01*
X15782086Y-14985412D02*
X15782086Y-14813984D01*
X16039229Y-15013984D02*
X16039229Y-14813984D01*
X16039229Y-14813984D02*
X16105896Y-14956841D01*
X16105896Y-14956841D02*
X16172562Y-14813984D01*
X16172562Y-14813984D02*
X16172562Y-15013984D01*
X16353515Y-15013984D02*
X16353515Y-14909222D01*
X16353515Y-14909222D02*
X16343991Y-14890174D01*
X16343991Y-14890174D02*
X16324943Y-14880650D01*
X16324943Y-14880650D02*
X16286848Y-14880650D01*
X16286848Y-14880650D02*
X16267801Y-14890174D01*
X16353515Y-15004460D02*
X16334467Y-15013984D01*
X16334467Y-15013984D02*
X16286848Y-15013984D01*
X16286848Y-15013984D02*
X16267801Y-15004460D01*
X16267801Y-15004460D02*
X16258277Y-14985412D01*
X16258277Y-14985412D02*
X16258277Y-14966365D01*
X16258277Y-14966365D02*
X16267801Y-14947317D01*
X16267801Y-14947317D02*
X16286848Y-14937793D01*
X16286848Y-14937793D02*
X16334467Y-14937793D01*
X16334467Y-14937793D02*
X16353515Y-14928269D01*
X16448753Y-14880650D02*
X16448753Y-15080650D01*
X16448753Y-14890174D02*
X16467801Y-14880650D01*
X16467801Y-14880650D02*
X16505896Y-14880650D01*
X16505896Y-14880650D02*
X16524943Y-14890174D01*
X16524943Y-14890174D02*
X16534467Y-14899698D01*
X16534467Y-14899698D02*
X16543991Y-14918746D01*
X16543991Y-14918746D02*
X16543991Y-14975888D01*
X16543991Y-14975888D02*
X16534467Y-14994936D01*
X16534467Y-14994936D02*
X16524943Y-15004460D01*
X16524943Y-15004460D02*
X16505896Y-15013984D01*
X16505896Y-15013984D02*
X16467801Y-15013984D01*
X16467801Y-15013984D02*
X16448753Y-15004460D01*
X16629705Y-14994936D02*
X16639229Y-15004460D01*
X16639229Y-15004460D02*
X16629705Y-15013984D01*
X16629705Y-15013984D02*
X16620182Y-15004460D01*
X16620182Y-15004460D02*
X16629705Y-14994936D01*
X16629705Y-14994936D02*
X16629705Y-15013984D01*
X16629705Y-14890174D02*
X16639229Y-14899698D01*
X16639229Y-14899698D02*
X16629705Y-14909222D01*
X16629705Y-14909222D02*
X16620182Y-14899698D01*
X16620182Y-14899698D02*
X16629705Y-14890174D01*
X16629705Y-14890174D02*
X16629705Y-14909222D01*
X14797500Y-15242500D02*
X14997500Y-15442500D01*
X14997500Y-15242500D02*
X14797500Y-15442500D01*
X15248753Y-15253031D02*
X15258277Y-15243508D01*
X15258277Y-15243508D02*
X15277324Y-15233984D01*
X15277324Y-15233984D02*
X15324943Y-15233984D01*
X15324943Y-15233984D02*
X15343991Y-15243508D01*
X15343991Y-15243508D02*
X15353515Y-15253031D01*
X15353515Y-15253031D02*
X15363039Y-15272079D01*
X15363039Y-15272079D02*
X15363039Y-15291127D01*
X15363039Y-15291127D02*
X15353515Y-15319698D01*
X15353515Y-15319698D02*
X15239229Y-15433984D01*
X15239229Y-15433984D02*
X15363039Y-15433984D01*
X15448753Y-15414936D02*
X15458277Y-15424460D01*
X15458277Y-15424460D02*
X15448753Y-15433984D01*
X15448753Y-15433984D02*
X15439229Y-15424460D01*
X15439229Y-15424460D02*
X15448753Y-15414936D01*
X15448753Y-15414936D02*
X15448753Y-15433984D01*
X15534467Y-15253031D02*
X15543991Y-15243508D01*
X15543991Y-15243508D02*
X15563039Y-15233984D01*
X15563039Y-15233984D02*
X15610658Y-15233984D01*
X15610658Y-15233984D02*
X15629705Y-15243508D01*
X15629705Y-15243508D02*
X15639229Y-15253031D01*
X15639229Y-15253031D02*
X15648753Y-15272079D01*
X15648753Y-15272079D02*
X15648753Y-15291127D01*
X15648753Y-15291127D02*
X15639229Y-15319698D01*
X15639229Y-15319698D02*
X15524943Y-15433984D01*
X15524943Y-15433984D02*
X15648753Y-15433984D01*
X15829705Y-15233984D02*
X15734467Y-15233984D01*
X15734467Y-15233984D02*
X15724943Y-15329222D01*
X15724943Y-15329222D02*
X15734467Y-15319698D01*
X15734467Y-15319698D02*
X15753515Y-15310174D01*
X15753515Y-15310174D02*
X15801134Y-15310174D01*
X15801134Y-15310174D02*
X15820182Y-15319698D01*
X15820182Y-15319698D02*
X15829705Y-15329222D01*
X15829705Y-15329222D02*
X15839229Y-15348269D01*
X15839229Y-15348269D02*
X15839229Y-15395888D01*
X15839229Y-15395888D02*
X15829705Y-15414936D01*
X15829705Y-15414936D02*
X15820182Y-15424460D01*
X15820182Y-15424460D02*
X15801134Y-15433984D01*
X15801134Y-15433984D02*
X15753515Y-15433984D01*
X15753515Y-15433984D02*
X15734467Y-15424460D01*
X15734467Y-15424460D02*
X15724943Y-15414936D01*
X15963039Y-15233984D02*
X15982086Y-15233984D01*
X15982086Y-15233984D02*
X16001134Y-15243508D01*
X16001134Y-15243508D02*
X16010658Y-15253031D01*
X16010658Y-15253031D02*
X16020182Y-15272079D01*
X16020182Y-15272079D02*
X16029705Y-15310174D01*
X16029705Y-15310174D02*
X16029705Y-15357793D01*
X16029705Y-15357793D02*
X16020182Y-15395888D01*
X16020182Y-15395888D02*
X16010658Y-15414936D01*
X16010658Y-15414936D02*
X16001134Y-15424460D01*
X16001134Y-15424460D02*
X15982086Y-15433984D01*
X15982086Y-15433984D02*
X15963039Y-15433984D01*
X15963039Y-15433984D02*
X15943991Y-15424460D01*
X15943991Y-15424460D02*
X15934467Y-15414936D01*
X15934467Y-15414936D02*
X15924943Y-15395888D01*
X15924943Y-15395888D02*
X15915420Y-15357793D01*
X15915420Y-15357793D02*
X15915420Y-15310174D01*
X15915420Y-15310174D02*
X15924943Y-15272079D01*
X15924943Y-15272079D02*
X15934467Y-15253031D01*
X15934467Y-15253031D02*
X15943991Y-15243508D01*
X15943991Y-15243508D02*
X15963039Y-15233984D01*
X16115420Y-15433984D02*
X16115420Y-15300650D01*
X16115420Y-15319698D02*
X16124943Y-15310174D01*
X16124943Y-15310174D02*
X16143991Y-15300650D01*
X16143991Y-15300650D02*
X16172563Y-15300650D01*
X16172563Y-15300650D02*
X16191610Y-15310174D01*
X16191610Y-15310174D02*
X16201134Y-15329222D01*
X16201134Y-15329222D02*
X16201134Y-15433984D01*
X16201134Y-15329222D02*
X16210658Y-15310174D01*
X16210658Y-15310174D02*
X16229705Y-15300650D01*
X16229705Y-15300650D02*
X16258277Y-15300650D01*
X16258277Y-15300650D02*
X16277324Y-15310174D01*
X16277324Y-15310174D02*
X16286848Y-15329222D01*
X16286848Y-15329222D02*
X16286848Y-15433984D01*
X16382086Y-15433984D02*
X16382086Y-15300650D01*
X16382086Y-15319698D02*
X16391610Y-15310174D01*
X16391610Y-15310174D02*
X16410658Y-15300650D01*
X16410658Y-15300650D02*
X16439229Y-15300650D01*
X16439229Y-15300650D02*
X16458277Y-15310174D01*
X16458277Y-15310174D02*
X16467801Y-15329222D01*
X16467801Y-15329222D02*
X16467801Y-15433984D01*
X16467801Y-15329222D02*
X16477324Y-15310174D01*
X16477324Y-15310174D02*
X16496372Y-15300650D01*
X16496372Y-15300650D02*
X16524943Y-15300650D01*
X16524943Y-15300650D02*
X16543991Y-15310174D01*
X16543991Y-15310174D02*
X16553515Y-15329222D01*
X16553515Y-15329222D02*
X16553515Y-15433984D01*
X16943991Y-15224460D02*
X16772563Y-15481603D01*
X17201134Y-15233984D02*
X17220182Y-15233984D01*
X17220182Y-15233984D02*
X17239229Y-15243508D01*
X17239229Y-15243508D02*
X17248753Y-15253031D01*
X17248753Y-15253031D02*
X17258277Y-15272079D01*
X17258277Y-15272079D02*
X17267801Y-15310174D01*
X17267801Y-15310174D02*
X17267801Y-15357793D01*
X17267801Y-15357793D02*
X17258277Y-15395888D01*
X17258277Y-15395888D02*
X17248753Y-15414936D01*
X17248753Y-15414936D02*
X17239229Y-15424460D01*
X17239229Y-15424460D02*
X17220182Y-15433984D01*
X17220182Y-15433984D02*
X17201134Y-15433984D01*
X17201134Y-15433984D02*
X17182087Y-15424460D01*
X17182087Y-15424460D02*
X17172563Y-15414936D01*
X17172563Y-15414936D02*
X17163039Y-15395888D01*
X17163039Y-15395888D02*
X17153515Y-15357793D01*
X17153515Y-15357793D02*
X17153515Y-15310174D01*
X17153515Y-15310174D02*
X17163039Y-15272079D01*
X17163039Y-15272079D02*
X17172563Y-15253031D01*
X17172563Y-15253031D02*
X17182087Y-15243508D01*
X17182087Y-15243508D02*
X17201134Y-15233984D01*
X17353515Y-15414936D02*
X17363039Y-15424460D01*
X17363039Y-15424460D02*
X17353515Y-15433984D01*
X17353515Y-15433984D02*
X17343991Y-15424460D01*
X17343991Y-15424460D02*
X17353515Y-15414936D01*
X17353515Y-15414936D02*
X17353515Y-15433984D01*
X17486848Y-15233984D02*
X17505896Y-15233984D01*
X17505896Y-15233984D02*
X17524944Y-15243508D01*
X17524944Y-15243508D02*
X17534468Y-15253031D01*
X17534468Y-15253031D02*
X17543991Y-15272079D01*
X17543991Y-15272079D02*
X17553515Y-15310174D01*
X17553515Y-15310174D02*
X17553515Y-15357793D01*
X17553515Y-15357793D02*
X17543991Y-15395888D01*
X17543991Y-15395888D02*
X17534468Y-15414936D01*
X17534468Y-15414936D02*
X17524944Y-15424460D01*
X17524944Y-15424460D02*
X17505896Y-15433984D01*
X17505896Y-15433984D02*
X17486848Y-15433984D01*
X17486848Y-15433984D02*
X17467801Y-15424460D01*
X17467801Y-15424460D02*
X17458277Y-15414936D01*
X17458277Y-15414936D02*
X17448753Y-15395888D01*
X17448753Y-15395888D02*
X17439229Y-15357793D01*
X17439229Y-15357793D02*
X17439229Y-15310174D01*
X17439229Y-15310174D02*
X17448753Y-15272079D01*
X17448753Y-15272079D02*
X17458277Y-15253031D01*
X17458277Y-15253031D02*
X17467801Y-15243508D01*
X17467801Y-15243508D02*
X17486848Y-15233984D01*
X17667801Y-15319698D02*
X17648753Y-15310174D01*
X17648753Y-15310174D02*
X17639229Y-15300650D01*
X17639229Y-15300650D02*
X17629706Y-15281603D01*
X17629706Y-15281603D02*
X17629706Y-15272079D01*
X17629706Y-15272079D02*
X17639229Y-15253031D01*
X17639229Y-15253031D02*
X17648753Y-15243508D01*
X17648753Y-15243508D02*
X17667801Y-15233984D01*
X17667801Y-15233984D02*
X17705896Y-15233984D01*
X17705896Y-15233984D02*
X17724944Y-15243508D01*
X17724944Y-15243508D02*
X17734468Y-15253031D01*
X17734468Y-15253031D02*
X17743991Y-15272079D01*
X17743991Y-15272079D02*
X17743991Y-15281603D01*
X17743991Y-15281603D02*
X17734468Y-15300650D01*
X17734468Y-15300650D02*
X17724944Y-15310174D01*
X17724944Y-15310174D02*
X17705896Y-15319698D01*
X17705896Y-15319698D02*
X17667801Y-15319698D01*
X17667801Y-15319698D02*
X17648753Y-15329222D01*
X17648753Y-15329222D02*
X17639229Y-15338746D01*
X17639229Y-15338746D02*
X17629706Y-15357793D01*
X17629706Y-15357793D02*
X17629706Y-15395888D01*
X17629706Y-15395888D02*
X17639229Y-15414936D01*
X17639229Y-15414936D02*
X17648753Y-15424460D01*
X17648753Y-15424460D02*
X17667801Y-15433984D01*
X17667801Y-15433984D02*
X17705896Y-15433984D01*
X17705896Y-15433984D02*
X17724944Y-15424460D01*
X17724944Y-15424460D02*
X17734468Y-15414936D01*
X17734468Y-15414936D02*
X17743991Y-15395888D01*
X17743991Y-15395888D02*
X17743991Y-15357793D01*
X17743991Y-15357793D02*
X17734468Y-15338746D01*
X17734468Y-15338746D02*
X17724944Y-15329222D01*
X17724944Y-15329222D02*
X17705896Y-15319698D01*
X17858277Y-15319698D02*
X17839229Y-15310174D01*
X17839229Y-15310174D02*
X17829706Y-15300650D01*
X17829706Y-15300650D02*
X17820182Y-15281603D01*
X17820182Y-15281603D02*
X17820182Y-15272079D01*
X17820182Y-15272079D02*
X17829706Y-15253031D01*
X17829706Y-15253031D02*
X17839229Y-15243508D01*
X17839229Y-15243508D02*
X17858277Y-15233984D01*
X17858277Y-15233984D02*
X17896372Y-15233984D01*
X17896372Y-15233984D02*
X17915420Y-15243508D01*
X17915420Y-15243508D02*
X17924944Y-15253031D01*
X17924944Y-15253031D02*
X17934468Y-15272079D01*
X17934468Y-15272079D02*
X17934468Y-15281603D01*
X17934468Y-15281603D02*
X17924944Y-15300650D01*
X17924944Y-15300650D02*
X17915420Y-15310174D01*
X17915420Y-15310174D02*
X17896372Y-15319698D01*
X17896372Y-15319698D02*
X17858277Y-15319698D01*
X17858277Y-15319698D02*
X17839229Y-15329222D01*
X17839229Y-15329222D02*
X17829706Y-15338746D01*
X17829706Y-15338746D02*
X17820182Y-15357793D01*
X17820182Y-15357793D02*
X17820182Y-15395888D01*
X17820182Y-15395888D02*
X17829706Y-15414936D01*
X17829706Y-15414936D02*
X17839229Y-15424460D01*
X17839229Y-15424460D02*
X17858277Y-15433984D01*
X17858277Y-15433984D02*
X17896372Y-15433984D01*
X17896372Y-15433984D02*
X17915420Y-15424460D01*
X17915420Y-15424460D02*
X17924944Y-15414936D01*
X17924944Y-15414936D02*
X17934468Y-15395888D01*
X17934468Y-15395888D02*
X17934468Y-15357793D01*
X17934468Y-15357793D02*
X17924944Y-15338746D01*
X17924944Y-15338746D02*
X17915420Y-15329222D01*
X17915420Y-15329222D02*
X17896372Y-15319698D01*
X18105896Y-15233984D02*
X18067801Y-15233984D01*
X18067801Y-15233984D02*
X18048753Y-15243508D01*
X18048753Y-15243508D02*
X18039229Y-15253031D01*
X18039229Y-15253031D02*
X18020182Y-15281603D01*
X18020182Y-15281603D02*
X18010658Y-15319698D01*
X18010658Y-15319698D02*
X18010658Y-15395888D01*
X18010658Y-15395888D02*
X18020182Y-15414936D01*
X18020182Y-15414936D02*
X18029706Y-15424460D01*
X18029706Y-15424460D02*
X18048753Y-15433984D01*
X18048753Y-15433984D02*
X18086849Y-15433984D01*
X18086849Y-15433984D02*
X18105896Y-15424460D01*
X18105896Y-15424460D02*
X18115420Y-15414936D01*
X18115420Y-15414936D02*
X18124944Y-15395888D01*
X18124944Y-15395888D02*
X18124944Y-15348269D01*
X18124944Y-15348269D02*
X18115420Y-15329222D01*
X18115420Y-15329222D02*
X18105896Y-15319698D01*
X18105896Y-15319698D02*
X18086849Y-15310174D01*
X18086849Y-15310174D02*
X18048753Y-15310174D01*
X18048753Y-15310174D02*
X18029706Y-15319698D01*
X18029706Y-15319698D02*
X18020182Y-15329222D01*
X18020182Y-15329222D02*
X18010658Y-15348269D01*
X18201134Y-15233984D02*
X18201134Y-15272079D01*
X18277325Y-15233984D02*
X18277325Y-15272079D01*
X18572563Y-15510174D02*
X18563039Y-15500650D01*
X18563039Y-15500650D02*
X18543991Y-15472079D01*
X18543991Y-15472079D02*
X18534468Y-15453031D01*
X18534468Y-15453031D02*
X18524944Y-15424460D01*
X18524944Y-15424460D02*
X18515420Y-15376841D01*
X18515420Y-15376841D02*
X18515420Y-15338746D01*
X18515420Y-15338746D02*
X18524944Y-15291127D01*
X18524944Y-15291127D02*
X18534468Y-15262555D01*
X18534468Y-15262555D02*
X18543991Y-15243508D01*
X18543991Y-15243508D02*
X18563039Y-15214936D01*
X18563039Y-15214936D02*
X18572563Y-15205412D01*
X18734468Y-15300650D02*
X18734468Y-15433984D01*
X18686849Y-15224460D02*
X18639230Y-15367317D01*
X18639230Y-15367317D02*
X18763039Y-15367317D01*
X18991611Y-15433984D02*
X18991611Y-15233984D01*
X19077325Y-15433984D02*
X19077325Y-15329222D01*
X19077325Y-15329222D02*
X19067801Y-15310174D01*
X19067801Y-15310174D02*
X19048753Y-15300650D01*
X19048753Y-15300650D02*
X19020182Y-15300650D01*
X19020182Y-15300650D02*
X19001134Y-15310174D01*
X19001134Y-15310174D02*
X18991611Y-15319698D01*
X19201134Y-15433984D02*
X19182087Y-15424460D01*
X19182087Y-15424460D02*
X19172563Y-15414936D01*
X19172563Y-15414936D02*
X19163039Y-15395888D01*
X19163039Y-15395888D02*
X19163039Y-15338746D01*
X19163039Y-15338746D02*
X19172563Y-15319698D01*
X19172563Y-15319698D02*
X19182087Y-15310174D01*
X19182087Y-15310174D02*
X19201134Y-15300650D01*
X19201134Y-15300650D02*
X19229706Y-15300650D01*
X19229706Y-15300650D02*
X19248753Y-15310174D01*
X19248753Y-15310174D02*
X19258277Y-15319698D01*
X19258277Y-15319698D02*
X19267801Y-15338746D01*
X19267801Y-15338746D02*
X19267801Y-15395888D01*
X19267801Y-15395888D02*
X19258277Y-15414936D01*
X19258277Y-15414936D02*
X19248753Y-15424460D01*
X19248753Y-15424460D02*
X19229706Y-15433984D01*
X19229706Y-15433984D02*
X19201134Y-15433984D01*
X19382087Y-15433984D02*
X19363039Y-15424460D01*
X19363039Y-15424460D02*
X19353515Y-15405412D01*
X19353515Y-15405412D02*
X19353515Y-15233984D01*
X19534468Y-15424460D02*
X19515420Y-15433984D01*
X19515420Y-15433984D02*
X19477325Y-15433984D01*
X19477325Y-15433984D02*
X19458277Y-15424460D01*
X19458277Y-15424460D02*
X19448753Y-15405412D01*
X19448753Y-15405412D02*
X19448753Y-15329222D01*
X19448753Y-15329222D02*
X19458277Y-15310174D01*
X19458277Y-15310174D02*
X19477325Y-15300650D01*
X19477325Y-15300650D02*
X19515420Y-15300650D01*
X19515420Y-15300650D02*
X19534468Y-15310174D01*
X19534468Y-15310174D02*
X19543992Y-15329222D01*
X19543992Y-15329222D02*
X19543992Y-15348269D01*
X19543992Y-15348269D02*
X19448753Y-15367317D01*
X19620182Y-15424460D02*
X19639230Y-15433984D01*
X19639230Y-15433984D02*
X19677325Y-15433984D01*
X19677325Y-15433984D02*
X19696373Y-15424460D01*
X19696373Y-15424460D02*
X19705896Y-15405412D01*
X19705896Y-15405412D02*
X19705896Y-15395888D01*
X19705896Y-15395888D02*
X19696373Y-15376841D01*
X19696373Y-15376841D02*
X19677325Y-15367317D01*
X19677325Y-15367317D02*
X19648753Y-15367317D01*
X19648753Y-15367317D02*
X19629706Y-15357793D01*
X19629706Y-15357793D02*
X19620182Y-15338746D01*
X19620182Y-15338746D02*
X19620182Y-15329222D01*
X19620182Y-15329222D02*
X19629706Y-15310174D01*
X19629706Y-15310174D02*
X19648753Y-15300650D01*
X19648753Y-15300650D02*
X19677325Y-15300650D01*
X19677325Y-15300650D02*
X19696373Y-15310174D01*
X19772563Y-15510174D02*
X19782087Y-15500650D01*
X19782087Y-15500650D02*
X19801134Y-15472079D01*
X19801134Y-15472079D02*
X19810658Y-15453031D01*
X19810658Y-15453031D02*
X19820182Y-15424460D01*
X19820182Y-15424460D02*
X19829706Y-15376841D01*
X19829706Y-15376841D02*
X19829706Y-15338746D01*
X19829706Y-15338746D02*
X19820182Y-15291127D01*
X19820182Y-15291127D02*
X19810658Y-15262555D01*
X19810658Y-15262555D02*
X19801134Y-15243508D01*
X19801134Y-15243508D02*
X19782087Y-15214936D01*
X19782087Y-15214936D02*
X19772563Y-15205412D01*
X20134468Y-15510174D02*
X20124944Y-15500650D01*
X20124944Y-15500650D02*
X20105896Y-15472079D01*
X20105896Y-15472079D02*
X20096373Y-15453031D01*
X20096373Y-15453031D02*
X20086849Y-15424460D01*
X20086849Y-15424460D02*
X20077325Y-15376841D01*
X20077325Y-15376841D02*
X20077325Y-15338746D01*
X20077325Y-15338746D02*
X20086849Y-15291127D01*
X20086849Y-15291127D02*
X20096373Y-15262555D01*
X20096373Y-15262555D02*
X20105896Y-15243508D01*
X20105896Y-15243508D02*
X20124944Y-15214936D01*
X20124944Y-15214936D02*
X20134468Y-15205412D01*
X20210658Y-15300650D02*
X20210658Y-15433984D01*
X20210658Y-15319698D02*
X20220182Y-15310174D01*
X20220182Y-15310174D02*
X20239230Y-15300650D01*
X20239230Y-15300650D02*
X20267801Y-15300650D01*
X20267801Y-15300650D02*
X20286849Y-15310174D01*
X20286849Y-15310174D02*
X20296373Y-15329222D01*
X20296373Y-15329222D02*
X20296373Y-15433984D01*
X20420182Y-15433984D02*
X20401134Y-15424460D01*
X20401134Y-15424460D02*
X20391611Y-15414936D01*
X20391611Y-15414936D02*
X20382087Y-15395888D01*
X20382087Y-15395888D02*
X20382087Y-15338746D01*
X20382087Y-15338746D02*
X20391611Y-15319698D01*
X20391611Y-15319698D02*
X20401134Y-15310174D01*
X20401134Y-15310174D02*
X20420182Y-15300650D01*
X20420182Y-15300650D02*
X20448754Y-15300650D01*
X20448754Y-15300650D02*
X20467801Y-15310174D01*
X20467801Y-15310174D02*
X20477325Y-15319698D01*
X20477325Y-15319698D02*
X20486849Y-15338746D01*
X20486849Y-15338746D02*
X20486849Y-15395888D01*
X20486849Y-15395888D02*
X20477325Y-15414936D01*
X20477325Y-15414936D02*
X20467801Y-15424460D01*
X20467801Y-15424460D02*
X20448754Y-15433984D01*
X20448754Y-15433984D02*
X20420182Y-15433984D01*
X20543992Y-15300650D02*
X20620182Y-15300650D01*
X20572563Y-15233984D02*
X20572563Y-15405412D01*
X20572563Y-15405412D02*
X20582087Y-15424460D01*
X20582087Y-15424460D02*
X20601134Y-15433984D01*
X20601134Y-15433984D02*
X20620182Y-15433984D01*
X20839230Y-15300650D02*
X20839230Y-15500650D01*
X20839230Y-15310174D02*
X20858277Y-15300650D01*
X20858277Y-15300650D02*
X20896373Y-15300650D01*
X20896373Y-15300650D02*
X20915420Y-15310174D01*
X20915420Y-15310174D02*
X20924944Y-15319698D01*
X20924944Y-15319698D02*
X20934468Y-15338746D01*
X20934468Y-15338746D02*
X20934468Y-15395888D01*
X20934468Y-15395888D02*
X20924944Y-15414936D01*
X20924944Y-15414936D02*
X20915420Y-15424460D01*
X20915420Y-15424460D02*
X20896373Y-15433984D01*
X20896373Y-15433984D02*
X20858277Y-15433984D01*
X20858277Y-15433984D02*
X20839230Y-15424460D01*
X21048754Y-15433984D02*
X21029706Y-15424460D01*
X21029706Y-15424460D02*
X21020182Y-15405412D01*
X21020182Y-15405412D02*
X21020182Y-15233984D01*
X21210658Y-15433984D02*
X21210658Y-15329222D01*
X21210658Y-15329222D02*
X21201135Y-15310174D01*
X21201135Y-15310174D02*
X21182087Y-15300650D01*
X21182087Y-15300650D02*
X21143992Y-15300650D01*
X21143992Y-15300650D02*
X21124944Y-15310174D01*
X21210658Y-15424460D02*
X21191611Y-15433984D01*
X21191611Y-15433984D02*
X21143992Y-15433984D01*
X21143992Y-15433984D02*
X21124944Y-15424460D01*
X21124944Y-15424460D02*
X21115420Y-15405412D01*
X21115420Y-15405412D02*
X21115420Y-15386365D01*
X21115420Y-15386365D02*
X21124944Y-15367317D01*
X21124944Y-15367317D02*
X21143992Y-15357793D01*
X21143992Y-15357793D02*
X21191611Y-15357793D01*
X21191611Y-15357793D02*
X21210658Y-15348269D01*
X21277325Y-15300650D02*
X21353515Y-15300650D01*
X21305896Y-15233984D02*
X21305896Y-15405412D01*
X21305896Y-15405412D02*
X21315420Y-15424460D01*
X21315420Y-15424460D02*
X21334468Y-15433984D01*
X21334468Y-15433984D02*
X21353515Y-15433984D01*
X21496373Y-15424460D02*
X21477325Y-15433984D01*
X21477325Y-15433984D02*
X21439230Y-15433984D01*
X21439230Y-15433984D02*
X21420182Y-15424460D01*
X21420182Y-15424460D02*
X21410658Y-15405412D01*
X21410658Y-15405412D02*
X21410658Y-15329222D01*
X21410658Y-15329222D02*
X21420182Y-15310174D01*
X21420182Y-15310174D02*
X21439230Y-15300650D01*
X21439230Y-15300650D02*
X21477325Y-15300650D01*
X21477325Y-15300650D02*
X21496373Y-15310174D01*
X21496373Y-15310174D02*
X21505896Y-15329222D01*
X21505896Y-15329222D02*
X21505896Y-15348269D01*
X21505896Y-15348269D02*
X21410658Y-15367317D01*
X21677325Y-15433984D02*
X21677325Y-15233984D01*
X21677325Y-15424460D02*
X21658277Y-15433984D01*
X21658277Y-15433984D02*
X21620182Y-15433984D01*
X21620182Y-15433984D02*
X21601135Y-15424460D01*
X21601135Y-15424460D02*
X21591611Y-15414936D01*
X21591611Y-15414936D02*
X21582087Y-15395888D01*
X21582087Y-15395888D02*
X21582087Y-15338746D01*
X21582087Y-15338746D02*
X21591611Y-15319698D01*
X21591611Y-15319698D02*
X21601135Y-15310174D01*
X21601135Y-15310174D02*
X21620182Y-15300650D01*
X21620182Y-15300650D02*
X21658277Y-15300650D01*
X21658277Y-15300650D02*
X21677325Y-15310174D01*
X21753516Y-15510174D02*
X21763039Y-15500650D01*
X21763039Y-15500650D02*
X21782087Y-15472079D01*
X21782087Y-15472079D02*
X21791611Y-15453031D01*
X21791611Y-15453031D02*
X21801135Y-15424460D01*
X21801135Y-15424460D02*
X21810658Y-15376841D01*
X21810658Y-15376841D02*
X21810658Y-15338746D01*
X21810658Y-15338746D02*
X21801135Y-15291127D01*
X21801135Y-15291127D02*
X21791611Y-15262555D01*
X21791611Y-15262555D02*
X21782087Y-15243508D01*
X21782087Y-15243508D02*
X21763039Y-15214936D01*
X21763039Y-15214936D02*
X21753516Y-15205412D01*
M02*
